<svg width="139" height="259" viewBox="0 0 139 259" fill="none" xmlns="http://www.w3.org/2000/svg">
<path d="M49.6273 97.1666C40.9248 83.5369 125.653 83.7351 125.653 97.167C127.884 146.926 118.632 188.279 118.632 200.325C118.632 212.371 56.1429 211.452 53.0196 200.325C49.8962 189.199 54.7776 184.436 49.6273 97.1666Z" fill="#73AA5A"/>
<ellipse cx="60.5" cy="109.519" rx="18.5" ry="19.5" fill="#73AA5A"/>
<ellipse cx="117.092" cy="107.66" rx="15.7073" ry="16.3902" transform="rotate(29.3593 117.092 107.66)" fill="#73AA5A"/>
<path d="M36.2503 135.607C37.8514 128.896 44.5896 124.754 51.3004 126.355C58.6181 128.101 62.7438 135.872 60.0908 142.912L50.391 168.65C48.481 173.718 43.1 176.575 37.8317 175.318C32.0543 173.94 28.4883 168.139 29.8668 162.362L36.2503 135.607Z" fill="#FBC0AE"/>
<path d="M46.3134 167.998C47.7467 170.3 46.9836 173.333 44.6311 174.683C37.3147 178.882 27.9723 175.904 24.4347 168.246L4.78183 125.703L16.0304 119.345L46.3134 167.998Z" fill="#FBC0AE"/>
<path d="M35.3386 135.905L42.2976 103.951L67.3883 126.749L62.4459 143.512C44.3848 145.598 37.9526 139.644 35.3386 135.905Z" fill="#73AA5A"/>
<path d="M114.656 132.894C78.1499 123.602 55.7182 130.449 55.7182 130.449L51.1389 161.647C51.1389 195.898 49 188.279 49 222.464C65.7138 222.464 71.5523 262.495 83.8678 257.604C110.258 247.124 121.602 224.076 126 216.74L123.861 162.362C123.861 162.362 120.814 146.099 114.656 132.894Z" fill="#28495C"/>
<path d="M59.1611 147.96C59.3485 124.433 58.2347 91.7958 60.1021 88.0186L69 87.0186C67.5465 88.3868 68.8977 111.868 68.9946 148.014C69.0005 150.223 67.2091 152.019 65 152.019H63.1778C60.9437 152.019 59.1434 150.194 59.1611 147.96Z" fill="#17394D"/>
<path d="M95.1756 150.164L95.471 145.311C101.897 101.167 103.209 89.0186 106.034 89.0186C108.295 89.0186 112.645 90.0336 115 91.1624C112.931 91.877 110.862 101.882 110.172 105.455L104.891 154.019L97.878 153.332C96.2717 153.175 95.0776 151.775 95.1756 150.164Z" fill="#1B3F53"/>
<circle cx="99" cy="150.019" r="3" fill="#40728E"/>
<path d="M106.15 165.874C96.6354 167.585 69.4779 165.731 59 165.019L59.8496 188.115C70.7239 207.961 97.0885 198.666 107 191.109L106.15 165.874Z" stroke="#1B3F53"/>
<path d="M107.402 125.519C108.254 120.242 113.17 116.662 118.452 117.471C123.872 118.3 127.598 123.423 126.721 128.835L121.665 160.024C120.752 165.654 116.1 169.883 110.421 170.247C105.142 170.584 100.888 165.887 101.732 160.653L107.402 125.519Z" fill="#FBC0AE"/>
<path d="M59 169.019C64.8545 170.862 81.9164 172.022 105 169.809" stroke="#1B3F53"/>
<path d="M116.128 157.033C118.527 156.674 120.778 158.342 121.136 160.745C122.353 168.923 115.779 176.092 107.52 175.594L71.6466 173.428L71.3042 163.743L116.128 157.033Z" fill="#FBC0AE"/>
<path d="M127.148 141.195L132.521 109.151L111.094 106.425L104.455 131.662C101.469 137.359 127.015 143.796 127.148 141.195Z" fill="#73AA5A"/>
<path d="M25.3697 78.8853L6.92106 80.3528C5.75808 80.4453 4.92083 81.5095 5.10462 82.6616L10.1106 114.04C10.2695 115.036 11.1452 115.758 12.1533 115.724L30.2863 115.11C31.4777 115.07 32.3695 114.003 32.1978 112.823L27.5075 80.591C27.3557 79.548 26.4205 78.8017 25.3697 78.8853Z" fill="#343434"/>
<path d="M31.4121 116.504L31.9075 115.227C32.1673 114.557 32.0479 113.799 31.5947 113.242L5.32167 80.9291L3.99757 82.0643C3.47029 82.5164 3.21529 83.2097 3.32397 83.8956L8.52728 116.739C8.68524 117.736 9.56143 118.459 10.5703 118.425L29.6151 117.78C30.4155 117.753 31.1225 117.251 31.4121 116.504Z" fill="#343434"/>
<path d="M23.6766 80.6507L5.19857 82.0896C4.03441 82.1802 3.19516 83.2447 3.3787 84.3979L8.52572 116.737C8.68459 117.735 9.56322 118.458 10.5733 118.421L29.1618 117.747C30.3615 117.704 31.2529 116.621 31.0646 115.435L25.8071 82.331C25.6435 81.3011 24.7162 80.5698 23.6766 80.6507Z" fill="#5A5A5A"/>
<path d="M3 112.148C3 114.96 4.04717 121.632 4.60724 125C4.79173 126.11 5.85992 126.834 6.962 126.609L17.9262 124.379C18.6476 124.232 19.23 123.701 19.4424 122.996L22.6281 112.423C22.8545 111.672 22.6204 110.857 22.0294 110.34L15.4291 104.571C14.7225 103.953 14.5404 102.928 14.9911 102.104L17.4926 97.5361C17.5864 97.3647 17.7138 97.2131 17.8215 97.0499C18.8575 95.4794 16.5152 92.1648 13.7317 95.3588C10.4797 99.0905 3 108.31 3 112.148Z" fill="#FBC0AE"/>
<path d="M18.8467 95.6207L13.1831 102.234C12.7817 102.703 12.572 103.306 12.5962 103.922C12.6864 106.226 15.6184 107.14 17.0017 105.296L22.2273 98.332C22.8245 97.536 22.8032 96.4357 22.1755 95.6635C21.3223 94.6138 19.7266 94.5933 18.8467 95.6207Z" fill="#FBC0AE"/>
<path d="M21.4305 99.7174L15.828 106.382C15.4308 106.855 15.2267 107.46 15.2565 108.076C15.3679 110.378 18.3082 111.266 19.6745 109.41L24.8359 102.398C25.4258 101.596 25.3944 100.496 24.7597 99.7296C23.8968 98.6878 22.301 98.6819 21.4305 99.7174Z" fill="#FBC0AE"/>
<path d="M22.9313 105.012L17.724 111.742C17.3941 112.168 17.2246 112.697 17.2451 113.236C17.3292 115.453 20.1958 116.275 21.4427 114.44L26.2242 107.401C26.7168 106.675 26.6896 105.716 26.1565 105.02C25.3445 103.96 23.7486 103.956 22.9313 105.012Z" fill="#FBC0AE"/>
<circle cx="63" cy="146.019" r="3" fill="#40728E"/>
<ellipse cx="105.521" cy="50.4527" rx="12.9194" ry="20.421" transform="rotate(-29.5289 105.521 50.4527)" fill="#282828"/>
<path d="M75.0459 75.7802L100.051 57.1553V89.6498C100.051 89.6498 75.991 109.687 75.0459 89.6498C75.046 84.8945 75.0459 75.7802 75.0459 75.7802Z" fill="#FBC0AE"/>
<rect x="52.541" y="30.4824" width="50.0106" height="51.6776" rx="25.0053" fill="#FBC0AE"/>
<path d="M71.5816 63.8229C70.0033 63.8229 69.0811 62.6474 69.0811 61.1973C69.0811 60.0798 69.6288 59.1253 70.6025 58.7464C71.1171 58.546 71.5816 58.124 71.5816 57.5718V56.3213" stroke="#282828" stroke-linecap="round"/>
<circle cx="79.918" cy="53.8213" r="1.66702" fill="#282828"/>
<g filter="url(#filter0_f_443_909)">
<ellipse cx="82.5469" cy="58.8223" rx="3.33404" ry="1.66702" fill="#FF6C6C"/>
</g>
<circle cx="64.0801" cy="53.8213" r="1.66702" fill="#282828"/>
<g filter="url(#filter1_f_443_909)">
<ellipse cx="60.4593" cy="58.8223" rx="2.91728" ry="1.66702" fill="#FF6C6C"/>
</g>
<path d="M64.9141 47.9849C64.4974 47.5681 64.1678 47.1514 63.2471 47.1514C62.3264 47.1514 61.9968 47.5681 61.5801 47.9849" stroke="#282828" stroke-linecap="round"/>
<path d="M81.585 47.9849C81.1683 47.5681 80.8387 47.1514 79.918 47.1514C78.9973 47.1514 78.6677 47.5681 78.251 47.9849" stroke="#282828" stroke-linecap="round"/>
<path d="M68.248 66.3232C68.248 70.7686 75.7496 70.7686 75.7496 66.3232" stroke="#282828" stroke-linecap="round"/>
<path d="M83.3217 26.6583C104.218 29.6478 103.773 43.5182 104.218 50.321C93.9871 51.9168 72.4955 51.3019 60.8756 49.2353C60.4468 49.159 61.7091 44.2342 61.7091 43.8175C61.0621 44.4271 60.0421 46.318 59.6253 48.9977C55.4144 48.0365 52.9164 46.7855 53.4439 45.2606C55.4578 32.5651 62.4254 23.6688 83.3217 26.6583Z" fill="#282828"/>
<path d="M90.8525 79.6214C91.0679 79.4486 91.1024 79.1339 90.9296 78.9186C90.7568 78.7032 90.4421 78.6687 90.2267 78.8415L90.8525 79.6214ZM75.0438 82.9102C75.8938 82.9137 78.5686 83.1383 81.6133 82.8489C84.6613 82.5591 88.2006 81.7491 90.8525 79.6214L90.2267 78.8415C87.8018 80.787 84.497 81.5702 81.5187 81.8534C78.5371 82.1368 76.0035 81.9142 75.048 81.9102L75.0438 82.9102Z" fill="#282828"/>
<ellipse cx="101.172" cy="56.7391" rx="6.25132" ry="7.08483" fill="#FBC0AE"/>
<path d="M101.59 52.9883C106.174 52.9883 106.174 60.4899 101.59 60.4899" stroke="#282828" stroke-linecap="round"/>
<ellipse cx="49.6895" cy="11.7355" rx="49.6895" ry="11.7355" transform="matrix(0.96341 0.268031 -0.319176 0.947695 41.9014 11.6904)" fill="#FFB762"/>
<path d="M62.6994 22.5182C67.4185 10.0817 81.4551 3.46587 94.051 7.74123L96.0965 8.43554C108.692 12.7109 115.078 26.2585 110.359 38.6949C93.8475 35.1015 77.8587 29.6744 62.6994 22.5182Z" fill="#FFB762"/>
<path d="M112.088 30.3542C84.6214 29.0739 70.7978 19.8524 66.7727 15.7438L64.2554 19.718C71.4309 31.4959 111.105 36.7846 111.617 35.4532C112.027 34.388 112.025 31.6943 112.088 30.3542Z" fill="#FF6C6C"/>
<defs>
<filter id="filter0_f_443_909" x="75.2129" y="53.1553" width="14.668" height="11.334" filterUnits="userSpaceOnUse" color-interpolation-filters="sRGB">
<feFlood flood-opacity="0" result="BackgroundImageFix"/>
<feBlend mode="normal" in="SourceGraphic" in2="BackgroundImageFix" result="shape"/>
<feGaussianBlur stdDeviation="2" result="effect1_foregroundBlur_443_909"/>
</filter>
<filter id="filter1_f_443_909" x="53.542" y="53.1553" width="13.835" height="11.334" filterUnits="userSpaceOnUse" color-interpolation-filters="sRGB">
<feFlood flood-opacity="0" result="BackgroundImageFix"/>
<feBlend mode="normal" in="SourceGraphic" in2="BackgroundImageFix" result="shape"/>
<feGaussianBlur stdDeviation="2" result="effect1_foregroundBlur_443_909"/>
</filter>
</defs>
</svg>
