<svg width="349" height="293" viewBox="0 0 349 293" fill="none" xmlns="http://www.w3.org/2000/svg">
<path d="M123.418 116.272C134.658 103.1 25.2315 103.292 25.2315 116.272C22.3502 164.36 34.2991 204.324 34.2991 215.965C34.2991 227.607 115.003 226.718 119.037 215.965C123.071 205.213 116.767 200.61 123.418 116.272Z" fill="#73AA5A"/>
<path d="M119.443 146.811C123.719 139.209 138.672 125.965 145.574 114.503C141.881 105.241 121.454 98.8462 111.948 102.637C102.442 106.427 97.7304 117.008 101.424 126.27C105.117 135.532 109.937 150.602 119.443 146.811Z" fill="#73AA5A"/>
<ellipse cx="18.9371" cy="19.7605" rx="18.9371" ry="19.7605" transform="matrix(-0.99436 -0.106059 -0.106059 0.99436 54.4092 113.293)" fill="#73AA5A"/>
<path d="M127.02 95.6623C121.261 99.7186 119.881 107.675 123.937 113.434C128.36 119.714 137.29 120.688 142.963 115.51L163.705 96.5774C167.789 92.8494 168.463 86.6658 165.279 82.1448C161.787 77.187 154.937 75.9988 149.979 79.4908L127.02 95.6623Z" fill="#FBC0AE"/>
<path d="M149.606 79.667C145.587 83.6562 145.679 90.184 149.809 94.0583L150.953 95.1312C155.235 99.1476 162.039 98.6288 165.662 94.0097L201.635 48.151L191.146 38.4401L149.606 79.667Z" fill="#FBC0AE"/>
<path d="M132.218 90.7908L110.071 103.514L137.499 124.955L148.837 112.515C144.22 95.4663 136.533 91.8044 132.218 90.7908Z" fill="#73AA5A"/>
<path d="M121.993 65.0907C121.993 69.5515 118.802 73.1677 114.866 73.1677C110.93 73.1677 107.739 69.5515 107.739 65.0907C107.739 60.6299 110.93 57.0137 114.866 57.0137C118.802 57.0137 121.993 60.6299 121.993 65.0907Z" fill="#E8AB98"/>
<path fill-rule="evenodd" clip-rule="evenodd" d="M114.866 60.815C114.866 60.5526 115.079 60.3398 115.341 60.3398C116.792 60.3398 117.907 60.9396 118.649 61.8511C119.383 62.7511 119.736 63.9314 119.736 65.091C119.736 66.2507 119.383 67.431 118.649 68.331C117.907 69.2425 116.792 69.8422 115.341 69.8422C115.079 69.8422 114.866 69.6295 114.866 69.3671C114.866 69.1047 115.079 68.892 115.341 68.892C116.504 68.892 117.349 68.4227 117.913 67.7307C118.486 67.0272 118.786 66.0694 118.786 65.091C118.786 64.1127 118.486 63.1549 117.913 62.4514C117.349 61.7594 116.504 61.2901 115.341 61.2901C115.079 61.2901 114.866 61.0774 114.866 60.815Z" fill="#28495C"/>
<path d="M112.61 29.2846C108.565 13.1112 92.0804 2.87484 75.7904 6.42112L73.7313 6.86939C57.4412 10.4157 47.5146 26.4017 51.5596 42.5751C72.4223 40.476 92.9062 36.0168 112.61 29.2846Z" fill="#FFB762"/>
<path d="M51.2008 30.8825C75.4319 21.8554 98.2377 19.9548 109.641 21.8552L111.541 25.6562L50.7257 35.1586L51.2008 30.8825Z" fill="#73AA5A"/>
<path d="M21.8576 52.9325C23.5324 61.4636 52.1581 63.7199 85.7948 57.9721C119.432 52.2243 145.342 40.6489 143.667 32.1178C141.992 23.5867 113.367 21.3304 79.73 27.0782C46.0932 32.826 20.1829 44.4014 21.8576 52.9325Z" fill="#FFB762"/>
<path d="M95.167 91.6978L58.1076 69.3672V108.327C58.1076 108.327 97.2869 144.911 95.167 108.327C95.1669 102.626 95.167 91.6978 95.167 91.6978Z" fill="#FBC0AE"/>
<path d="M116.072 58.9142C116.072 45.7941 105.436 35.1582 92.3163 35.1582H80.9134C67.7933 35.1582 57.1574 45.7941 57.1574 58.9142V77.919C57.1574 91.039 67.7933 101.675 80.9134 101.675H92.3163C105.436 101.675 116.072 91.039 116.072 77.919V58.9142Z" fill="#FBC0AE"/>
<path fill-rule="evenodd" clip-rule="evenodd" d="M99.474 64.1396C99.2116 64.1396 98.9988 64.3524 98.9988 64.6148V66.2302C98.9988 67.0424 99.658 67.5798 100.27 67.7704C101.252 68.0766 101.85 68.9948 101.85 70.1737C101.85 70.9014 101.619 71.5308 101.221 71.9723C100.829 72.4078 100.247 72.6918 99.474 72.6918C99.2116 72.6918 98.9988 72.9045 98.9988 73.1669C98.9988 73.4293 99.2116 73.642 99.474 73.642C100.5 73.642 101.344 73.256 101.927 72.6081C102.505 71.9663 102.8 71.099 102.8 70.1737C102.8 68.6704 102.013 67.3183 100.552 66.8631C100.162 66.7414 99.9491 66.4676 99.9491 66.2302V64.6148C99.9491 64.3524 99.7364 64.1396 99.474 64.1396Z" fill="#28495C"/>
<path d="M87.3035 58.5929C87.3035 59.6425 88.1544 60.4933 89.204 60.4933C90.2536 60.4933 91.1045 59.6425 91.1045 58.5929C91.1045 57.5433 90.2536 56.6924 89.204 56.6924C88.1544 56.6924 87.3035 57.5433 87.3035 58.5929Z" fill="#28495C"/>
<path d="M105.359 58.5929C105.359 59.6425 106.21 60.4933 107.26 60.4933C108.309 60.4933 109.16 59.6425 109.16 58.5929C109.16 57.5433 108.309 56.6924 107.26 56.6924C106.21 56.6924 105.359 57.5433 105.359 58.5929Z" fill="#28495C"/>
<path fill-rule="evenodd" clip-rule="evenodd" d="M108.699 54.0511C108.738 54.091 108.779 54.133 108.824 54.1773C109.009 54.3629 109.31 54.3629 109.496 54.1773C109.681 53.9918 109.681 53.691 109.496 53.5054C109.463 53.4731 109.43 53.4389 109.395 53.4034C109.201 53.2057 108.968 52.9676 108.677 52.7854C108.31 52.5554 107.864 52.416 107.259 52.416C106.654 52.416 106.209 52.5554 105.841 52.7854C105.55 52.9676 105.317 53.2057 105.123 53.4034C105.089 53.4389 105.055 53.4731 105.023 53.5054C104.837 53.691 104.837 53.9918 105.023 54.1773C105.208 54.3629 105.509 54.3629 105.695 54.1773C105.739 54.133 105.78 54.091 105.82 54.0511C106.014 53.8543 106.158 53.7084 106.346 53.5908C106.547 53.4644 106.815 53.3663 107.259 53.3663C107.704 53.3663 107.971 53.4644 108.173 53.5908C108.36 53.7084 108.504 53.8543 108.699 54.0511Z" fill="#28495C"/>
<path fill-rule="evenodd" clip-rule="evenodd" d="M90.6438 54.0511C90.6832 54.091 90.7247 54.133 90.769 54.1773C90.9545 54.3629 91.2554 54.3629 91.4409 54.1773C91.6265 53.9918 91.6265 53.691 91.4409 53.5054C91.4086 53.4731 91.3751 53.4389 91.3403 53.4034C91.1465 53.2057 90.9133 52.9676 90.6223 52.7854C90.255 52.5554 89.8096 52.416 89.2045 52.416C88.5993 52.416 88.1539 52.5554 87.7867 52.7854C87.4957 52.9676 87.2624 53.2057 87.0687 53.4034C87.0339 53.4389 87.0004 53.4731 86.968 53.5054C86.7825 53.691 86.7825 53.9918 86.968 54.1773C87.1536 54.3629 87.4544 54.3629 87.64 54.1773C87.6843 54.133 87.7257 54.091 87.7651 54.0511C87.9592 53.8543 88.1032 53.7084 88.291 53.5908C88.4928 53.4644 88.76 53.3663 89.2045 53.3663C89.6489 53.3663 89.9162 53.4644 90.118 53.5908C90.3058 53.7084 90.4497 53.8543 90.6438 54.0511Z" fill="#28495C"/>
<path fill-rule="evenodd" clip-rule="evenodd" d="M103.277 75.543C103.014 75.543 102.802 75.7557 102.802 76.0181C102.802 77.1353 102.337 77.9498 101.646 78.496C100.942 79.052 99.9826 79.3439 99.0008 79.3439C98.0189 79.3439 97.0591 79.052 96.3555 78.496C95.6643 77.9498 95.1998 77.1353 95.1998 76.0181C95.1998 75.7557 94.9871 75.543 94.7247 75.543C94.4623 75.543 94.2496 75.7557 94.2496 76.0181C94.2496 77.4348 94.8541 78.5208 95.7664 79.2416C96.6663 79.9526 97.8445 80.2942 99.0008 80.2942C100.157 80.2942 101.335 79.9526 102.235 79.2416C103.147 78.5208 103.752 77.4348 103.752 76.0181C103.752 75.7557 103.539 75.543 103.277 75.543Z" fill="#28495C"/>
<path fill-rule="evenodd" clip-rule="evenodd" d="M95.1789 102.424C95.2533 102.421 95.3236 102.417 95.3895 102.414L95.3473 101.465C95.2808 101.468 95.2098 101.471 95.1344 101.475C92.9277 101.577 86.9387 101.853 77.4913 99.6066C77.2361 99.5459 76.9799 99.7036 76.9192 99.9589C76.8585 100.214 77.0163 100.47 77.2716 100.531C86.8458 102.807 92.9336 102.527 95.1789 102.424Z" fill="#28495C"/>
<path d="M75.5418 43.9185C80.1601 41.2553 110.369 37.0591 113.22 47.9868C116.369 47.5113 114.688 40.3877 111.539 37.5343C108.39 34.6809 99.4308 33.7334 92.5344 33.7334C84.5582 33.7334 63.552 36.5839 57.3755 42.7605C55.9502 47.5117 54.6021 51.211 55.6518 57.0764L65.5967 62.7155C67.1712 58.5939 70.9234 46.5816 75.5418 43.9185Z" fill="#28495C"/>
<path d="M51.4554 65.0907C51.4554 69.5515 54.6462 73.1677 58.5822 73.1677C62.5182 73.1677 65.709 69.5515 65.709 65.0907C65.709 60.6299 62.5182 57.0137 58.5822 57.0137C54.6462 57.0137 51.4554 60.6299 51.4554 65.0907Z" fill="#FBC0AE"/>
<path fill-rule="evenodd" clip-rule="evenodd" d="M58.582 60.815C58.582 60.5526 58.3693 60.3398 58.1069 60.3398C56.6563 60.3398 55.5415 60.9396 54.7988 61.8511C54.0655 62.7511 53.7121 63.9314 53.7121 65.091C53.7121 66.2507 54.0655 67.431 54.7988 68.331C55.5415 69.2425 56.6563 69.8422 58.1069 69.8422C58.3693 69.8422 58.582 69.6295 58.582 69.3671C58.582 69.1047 58.3693 68.892 58.1069 68.892C56.9444 68.892 56.0993 68.4227 55.5354 67.7307C54.9622 67.0272 54.6623 66.0694 54.6623 65.091C54.6623 64.1127 54.9622 63.1549 55.5354 62.4514C56.0993 61.7594 56.9444 61.2901 58.1069 61.2901C58.3693 61.2901 58.582 61.0774 58.582 60.815Z" fill="#28495C"/>
<path d="M49.7737 150.137C89.2086 141.109 113.44 147.761 113.44 147.761L121.042 177.694C121.042 210.968 125.317 324.321 125.317 357.53C107.564 364.657 95.2113 366.558 81.908 366.558C51.6373 366.558 34.5695 364.657 29.8183 357.53L29.8186 186.246C29.8186 186.246 43.122 162.965 49.7737 150.137Z" fill="#28495C"/>
<path d="M116.244 166.03C116.072 143.69 117.13 112.855 115.341 109.276L106.789 108.326C108.183 109.624 106.892 131.852 106.795 166.086C106.788 168.295 108.58 170.092 110.789 170.092H112.226C114.461 170.092 116.261 168.265 116.244 166.03Z" fill="#17394D"/>
<path d="M67.648 167.194L67.354 162.491C55.476 121.631 42.6478 109.277 39.797 109.277C37.5165 109.277 31.2449 111.019 28.8693 112.128C35.9961 110.703 41.6975 121.155 43.598 125.432L57.8516 171.043L64.9383 170.368C66.5498 170.215 67.7489 168.81 67.648 167.194Z" fill="#1B3F53"/>
<circle cx="2.85072" cy="2.85072" r="2.85072" transform="matrix(-1 0 0 1 65.9287 163.441)" fill="#40728E"/>
<path d="M73.4219 157.256L58.5005 108.423C58.3848 108.044 58.3259 107.65 58.3259 107.254V96.9238C56.9006 97.3989 53.1946 98.7293 49.7738 100.25C46.6767 101.626 44.6441 105.962 43.817 108.534C43.6601 109.021 43.4418 109.492 43.3474 109.995C42.5608 114.19 44.8996 132.452 44.5475 133.508C44.0723 134.933 45.0226 143.01 43.5972 146.811C42.1719 150.612 46.4479 153.938 45.0226 155.364C43.5972 156.789 46.9231 159.165 48.8235 161.065C50.724 162.965 51.1991 162.015 53.0996 161.065C55.0001 160.115 55.0001 162.49 56.9006 164.391C58.8011 166.291 61.6518 167.242 64.9776 164.391C65.6199 163.84 66.146 163.472 66.6012 163.251C68.6089 162.276 71.2786 162.913 72.5915 161.108L72.8314 160.778C73.5703 159.762 73.789 158.458 73.4219 157.256Z" fill="#F1F1F1"/>
<path d="M60.7031 193.848C71.3458 195.748 101.722 193.689 113.441 192.897L112.491 218.554C100.328 240.599 70.839 230.274 59.7529 221.88L60.7031 193.848Z" stroke="#1B3F53"/>
<path d="M38.6651 151.857C40.007 144.534 35.1479 137.567 27.8121 136.296C19.9502 134.934 12.5664 140.649 11.9234 148.594L8.4368 191.672C7.96884 197.454 11.9676 202.61 17.6886 203.601C23.842 204.667 29.7427 200.552 30.8683 194.409L38.6651 151.857Z" fill="#FBC0AE"/>
<path d="M113.441 197.175C106.79 199.392 87.4048 200.786 61.1782 198.125" stroke="#1B3F53"/>
<path d="M30.868 193.026C31.1104 187.317 26.3756 182.593 20.6676 182.85C13.359 183.178 7.93514 189.656 8.88339 196.924L14.9637 243.527L28.6956 244.21L30.868 193.026Z" fill="#FBC0AE"/>
<path d="M7.8933 161.989L15.548 125.816L44.1361 132.39L39.1166 163.688C39.2471 171.185 6.67082 164.769 7.8933 161.989Z" fill="#73AA5A"/>
<path d="M29.7441 249.518C29.1561 247.323 28.5784 242.718 28.2432 239.734C28.09 238.37 26.6488 237.543 25.3994 238.111L15.9831 242.392C15.2865 242.708 14.8316 243.395 14.8115 244.16L14.5528 254.011C14.5325 254.786 14.9622 255.504 15.6556 255.851L22.5673 259.317C23.3958 259.733 23.8303 260.663 23.6171 261.565L22.5555 266.056C22.5107 266.245 22.4279 266.424 22.3714 266.61C21.8772 268.241 24.6823 270.588 26.3392 267.129C28.2845 263.069 30.6541 252.914 29.7441 249.518Z" fill="#FBC0AE"/>
<path d="M21.6039 267.72L24.9819 260.662C25.2214 260.162 25.2631 259.59 25.0986 259.06C24.4847 257.082 21.7269 256.97 20.955 258.892L18.0388 266.153C17.7055 266.983 17.98 267.933 18.7044 268.457C19.6892 269.17 21.0791 268.817 21.6039 267.72Z" fill="#FBC0AE"/>
<path d="M18.408 264.765L21.721 257.677C21.9559 257.174 21.9923 256.602 21.823 256.073C21.1909 254.101 18.4323 254.015 17.678 255.944L14.8287 263.231C14.503 264.064 14.7862 265.011 15.5154 265.529C16.5067 266.232 17.8932 265.866 18.408 264.765Z" fill="#FBC0AE"/>
<path d="M15.8724 260.519L18.8272 253.466C19.0143 253.019 19.0385 252.521 18.8955 252.058C18.3068 250.153 15.6272 250.106 14.9718 251.989L12.4585 259.211C12.1996 259.955 12.4464 260.782 13.071 261.262C14.0224 261.994 15.4087 261.626 15.8724 260.519Z" fill="#FBC0AE"/>
<path d="M100.428 134.459C100.428 123.056 96.6274 111.653 94.7269 107.377V101.675L95.6773 101.2C97.1027 102.626 100.428 103.576 102.329 105.001C104.733 106.804 108.981 113.078 109.456 114.504C109.931 115.929 113.732 121.155 116.107 129.232C118.483 137.309 120.383 144.911 120.858 146.337C121.239 147.477 121.017 149.979 120.858 151.088L116.107 151.563C115.474 151.088 113.827 150.138 112.306 150.138C110.406 150.138 110.406 151.088 109.456 151.563C108.505 152.038 106.13 152.038 102.804 153.463C100.143 154.604 100.112 152.988 100.428 152.038V134.459Z" fill="#F1F1F1"/>
<path d="M192.646 27.8048C191.453 30.9284 189.74 39.0099 189.005 42.6147C188.799 43.6271 189.401 44.6264 190.387 44.9277L201.603 48.3572L206.661 41.5215C206.945 41.1385 207.082 40.6651 207.048 40.1868L206.015 25.6314C205.969 24.985 206.236 24.3584 206.732 23.9487L213.705 18.182C213.845 18.0663 214.005 17.9763 214.157 17.8777C215.979 16.6993 215.351 12.2905 210.63 14.3713C205.541 16.6145 194.202 23.7292 192.646 27.8048Z" fill="#FBC0AE"/>
<circle cx="2.85072" cy="2.85072" r="2.85072" transform="matrix(-1 0 0 1 114.391 162.491)" fill="#40728E"/>
<path d="M276.032 140.686C269.57 126.733 186.636 127.706 186.636 140.686C195.253 199.256 196.689 228.739 196.689 240.38C196.689 252.021 263.023 252.732 267.056 241.979C271.09 231.226 269.381 225.024 276.032 140.686Z" fill="#FF6C6C"/>
<path d="M271.126 170.359C274.684 164.034 287.125 153.013 292.869 143.477C289.796 135.77 272.799 130.449 264.89 133.603C256.981 136.757 253.06 145.561 256.133 153.267C259.206 160.974 263.217 173.513 271.126 170.359Z" fill="#FF6C6C"/>
<ellipse cx="16.2653" cy="16.9725" rx="16.2653" ry="16.9725" transform="matrix(-0.99436 -0.106059 -0.106059 0.99436 215.564 137.004)" fill="#FF6C6C"/>
<path d="M284.19 122.882C280.317 126.755 280.417 133.065 284.412 136.812C288.539 140.683 295.089 140.214 298.622 135.795L335.368 89.8318L325.949 81.1253L284.19 122.882Z" fill="#FBC0AE"/>
<path d="M281.755 123.747L263.328 134.333L286.149 152.174L295.583 141.823C291.741 127.637 285.345 124.59 281.755 123.747Z" fill="#FF6C6C"/>
<path d="M209.972 173.764C236.539 166.943 267.056 174.483 267.056 174.483L272.441 201.41C272.441 234.684 273.159 321.859 273.159 355.069C267.415 364.763 257.721 365.481 236.539 366.558C214.309 367.688 197.49 362.196 192.739 355.069L195.611 210.026C195.611 210.026 200.996 183.099 209.972 173.764Z" fill="#28495C"/>
<path d="M265.741 190.444C265.569 168.104 266.628 137.269 264.838 133.69L256.286 132.74C257.68 134.038 256.389 156.266 256.292 190.5C256.285 192.709 258.077 194.506 260.286 194.506H261.723C263.958 194.506 265.758 192.679 265.741 190.444Z" fill="#17394D"/>
<circle cx="2.85072" cy="2.85072" r="2.85072" transform="matrix(-1 0 0 1 222.462 187.854)" fill="#40728E"/>
<path d="M217.236 218.262C227.879 220.162 258.255 218.103 269.975 217.312L269.024 242.968C256.861 265.014 227.372 254.688 216.286 246.294L217.236 218.262Z" stroke="#1B3F53"/>
<path d="M200.132 166.7C200.974 161.567 197.517 156.604 192.409 155.616C186.975 154.565 181.943 158.427 181.537 163.961L178.911 199.706C178.614 203.751 181.43 207.439 185.402 208.208C189.64 209.028 193.643 206.239 194.342 201.979L200.132 166.7Z" fill="#FBC0AE"/>
<path d="M269.975 221.587C263.323 223.804 243.938 225.198 217.711 222.537" stroke="#1B3F53"/>
<path d="M194.967 200.491C195.089 196.857 192.332 193.736 188.706 193.405C183.179 192.9 178.612 197.54 179.203 203.06L183.933 247.296L193.375 247.875L194.967 200.491Z" fill="#FBC0AE"/>
<path d="M175.612 178.828L182.187 147.759L206.742 153.406L202.43 180.288C202.542 186.727 174.562 181.216 175.612 178.828Z" fill="#FF6C6C"/>
<path d="M193.817 253.467C193.641 251.554 193.401 248.052 193.248 245.728C193.168 244.508 192.034 243.701 190.847 244.02L184.934 245.613C184.214 245.807 183.638 246.382 183.436 247.109L181.176 255.255C180.958 256.04 181.217 256.857 181.834 257.33L186.415 260.845C187.081 261.355 187.325 262.259 187.02 263.086L185.689 266.705C185.622 266.886 185.52 267.054 185.449 267.233C184.913 268.589 186.767 270.86 188.464 268.088C190.474 264.805 194.095 256.497 193.817 253.467Z" fill="#FBC0AE"/>
<path d="M184.781 267.99L188.272 262.283C188.49 261.926 188.581 261.506 188.529 261.096C188.311 259.391 186.06 259.024 185.242 260.56L182.098 266.465C181.778 267.066 181.865 267.797 182.315 268.283C183.008 269.032 184.233 268.886 184.781 267.99Z" fill="#FBC0AE"/>
<path d="M183.223 265.163L186.668 259.422C186.884 259.063 186.971 258.643 186.915 258.234C186.683 256.531 184.428 256.188 183.622 257.732L180.527 263.666C180.211 264.27 180.304 265 180.758 265.481C181.458 266.222 182.683 266.064 183.223 265.163Z" fill="#FBC0AE"/>
<path d="M181.789 261.224L184.954 255.472C185.129 255.153 185.2 254.789 185.154 254.432C184.947 252.798 182.763 252.497 182.043 254.003L179.212 259.923C178.954 260.462 179.034 261.095 179.415 261.532C180.074 262.287 181.292 262.129 181.789 261.224Z" fill="#FBC0AE"/>
<path d="M325.603 74.0007C324.547 76.765 323.038 83.8567 322.364 87.1543C322.161 88.1455 322.734 89.1304 323.691 89.4526L333.116 92.6265L340.279 84.0013C340.7 83.4944 340.844 82.8091 340.663 82.1702L337.892 72.3891C337.674 71.6218 337.927 70.801 338.536 70.2974L344.478 65.3839C344.618 65.2682 344.778 65.1787 344.929 65.0774C346.534 63.9975 345.956 60.0885 341.74 61.9466C337.174 63.9594 326.999 70.3436 325.603 74.0007Z" fill="#FBC0AE"/>
<circle cx="2.85072" cy="2.85072" r="2.85072" transform="matrix(-1 0 0 1 263.889 186.904)" fill="#40728E"/>
<ellipse cx="14.2877" cy="22.5838" rx="14.2877" ry="22.5838" transform="matrix(-0.870107 -0.492863 -0.492863 0.870107 234.237 76.2158)" fill="#282828"/>
<path d="M244.377 116.835L216.723 96.2373V132.173C216.723 132.173 244.377 166.225 244.377 132.173C244.377 126.915 244.377 116.835 244.377 116.835Z" fill="#FBC0AE"/>
<rect width="55.3074" height="57.1509" rx="27.6537" transform="matrix(-1 0 0 1 269.266 66.7402)" fill="#FBC0AE"/>
<path d="M253.951 102.176C255.697 102.176 256.717 100.876 256.717 99.2724C256.717 97.9989 256.074 96.917 254.935 96.5254C254.413 96.3458 253.951 95.921 253.951 95.3687V93.8799" stroke="#282828" stroke-linecap="round"/>
<circle cx="1.84358" cy="1.84358" r="1.84358" transform="matrix(-1 0 0 1 246.577 89.2705)" fill="#282828"/>
<g filter="url(#filter0_f_467_2343)">
<ellipse cx="3.68716" cy="1.84358" rx="3.68716" ry="1.84358" transform="matrix(-1 0 0 1 245.513 94.8018)" fill="#FF6C6C"/>
</g>
<circle cx="1.84358" cy="1.84358" r="1.84358" transform="matrix(-1 0 0 1 264.09 89.2705)" fill="#282828"/>
<g filter="url(#filter1_f_467_2343)">
<ellipse cx="3.22626" cy="1.84358" rx="3.22626" ry="1.84358" transform="matrix(-1 0 0 1 267.324 94.8018)" fill="#FF6C6C"/>
</g>
<path d="M255.581 86.0985C256.042 85.6377 256.407 85.1768 257.425 85.1768C258.443 85.1768 258.808 85.6377 259.269 86.0985" stroke="#282828" stroke-linecap="round"/>
<path d="M237.145 86.0985C237.606 85.6377 237.97 85.1768 238.988 85.1768C240.007 85.1768 240.371 85.6377 240.832 86.0985" stroke="#282828" stroke-linecap="round"/>
<path d="M257.638 104.941C257.638 109.858 249.342 109.858 249.342 104.941" stroke="#282828" stroke-linecap="round"/>
<path d="M235.224 62.5118C212.115 65.818 212.607 81.1574 212.115 88.6807C223.429 90.4456 247.197 89.7655 260.048 87.48C260.522 87.3957 259.126 81.9493 259.126 81.4884C259.841 82.1626 260.969 84.2538 261.43 87.2173C266.087 86.1543 268.85 84.7708 268.266 83.0844C266.039 69.0443 258.334 59.2057 235.224 62.5118Z" fill="#282828"/>
<path d="M226.929 121.044C226.714 120.871 226.679 120.556 226.852 120.341C227.025 120.125 227.34 120.091 227.555 120.264L226.929 121.044ZM244.379 124.669C243.433 124.673 240.483 124.921 237.119 124.601C233.752 124.281 229.85 123.387 226.929 121.044L227.555 120.264C230.249 122.425 233.916 123.292 237.214 123.606C240.514 123.92 243.324 123.673 244.375 123.669L244.379 124.669Z" fill="#282828"/>
<ellipse cx="6.91342" cy="7.83521" rx="6.91342" ry="7.83521" transform="matrix(-1 0 0 1 222.396 87.9424)" fill="#FBC0AE"/>
<path d="M215.021 91.6289C209.952 91.6289 209.952 99.925 215.021 99.925" stroke="#282828" stroke-linecap="round"/>
<ellipse cx="54.9523" cy="12.9784" rx="54.9523" ry="12.9784" transform="matrix(-0.96341 0.268031 0.319176 0.947695 281.03 45.957)" fill="#FFB762"/>
<path d="M258.029 57.9325C252.81 44.1788 237.287 36.8622 223.357 41.5904L221.094 42.3583C207.165 47.0865 200.103 62.0689 205.322 75.8226C223.582 71.8485 241.264 65.8467 258.029 57.9325Z" fill="#FFB762"/>
<path d="M203.411 66.5974C233.787 65.1815 249.075 54.9834 253.526 50.4396L256.31 54.8347C248.374 67.86 204.498 73.7089 203.932 72.2364C203.479 71.0585 203.481 68.0794 203.411 66.5974Z" fill="#FF6C6C"/>
<path d="M214.385 195.455L221.472 194.78C223.083 194.626 224.287 193.228 224.229 191.61C223.654 175.632 223.65 131.063 209.053 131.063C206.772 131.063 200.501 132.805 198.125 133.914C205.252 132.489 210.13 149.711 211.409 154.737C212.688 159.763 214.385 195.455 214.385 195.455Z" fill="#1B3F53"/>
<circle cx="2.85072" cy="2.85072" r="2.85072" transform="matrix(-1 0 0 1 221.777 186.904)" fill="#40728E"/>
<path d="M85.8926 292.958C85.8926 292.682 85.6687 292.458 85.3926 292.458C85.1164 292.458 84.8926 292.682 84.8926 292.958L85.8926 292.958ZM84.8926 292.958L84.8926 359.736L85.8926 359.736L85.8926 292.958L84.8926 292.958Z" fill="#173B4F"/>
<path d="M241.706 261.006C241.706 260.73 241.482 260.506 241.206 260.506C240.93 260.506 240.706 260.73 240.706 261.006H241.706ZM240.706 261.006V316.295H241.706V261.006H240.706Z" fill="#173B4F"/>
<defs>
<filter id="filter0_f_467_2343" x="234.139" y="90.8018" width="15.374" height="11.6875" filterUnits="userSpaceOnUse" color-interpolation-filters="sRGB">
<feFlood flood-opacity="0" result="BackgroundImageFix"/>
<feBlend mode="normal" in="SourceGraphic" in2="BackgroundImageFix" result="shape"/>
<feGaussianBlur stdDeviation="2" result="effect1_foregroundBlur_467_2343"/>
</filter>
<filter id="filter1_f_467_2343" x="256.872" y="90.8018" width="14.4521" height="11.6875" filterUnits="userSpaceOnUse" color-interpolation-filters="sRGB">
<feFlood flood-opacity="0" result="BackgroundImageFix"/>
<feBlend mode="normal" in="SourceGraphic" in2="BackgroundImageFix" result="shape"/>
<feGaussianBlur stdDeviation="2" result="effect1_foregroundBlur_467_2343"/>
</filter>
</defs>
</svg>
