<svg width="1920" height="460" viewBox="0 0 1920 460" fill="none" xmlns="http://www.w3.org/2000/svg">
<rect width="1920" height="459" fill="#ECFFF0"/>
<path d="M0 241.662V0H628.454C478.5 188.5 205.5 230 0 241.662Z" fill="#45F697"/>
<g clip-path="url(#clip0_913_1740)">
<rect x="66" y="301" width="407" height="36" fill="#45FF9B"/>
<path d="M699.474 364.635C707.295 352.386 631.15 352.564 631.15 364.635C629.145 409.353 637.46 446.517 637.46 457.343C637.46 468.169 693.619 467.343 696.426 457.343C699.233 447.344 694.846 443.064 699.474 364.635Z" fill="#73AA5A"/>
<ellipse cx="16.6259" cy="17.5246" rx="16.6259" ry="17.5246" transform="matrix(-1 0 0 1 706.33 358.21)" fill="#73AA5A"/>
<ellipse cx="14.1161" cy="14.7298" rx="14.1161" ry="14.7298" transform="matrix(-0.871563 0.490284 0.490284 0.871563 643.926 354.306)" fill="#73AA5A"/>
<path d="M711.496 399.181C710.057 393.15 704.002 389.427 697.971 390.866C691.394 392.435 687.686 399.419 690.071 405.745L698.788 428.876C700.504 433.431 705.34 435.999 710.075 434.869C715.267 433.63 718.472 428.417 717.233 423.225L711.496 399.181Z" fill="#FBC0AE"/>
<path d="M702.453 428.29C701.165 430.359 701.851 433.084 703.965 434.298C710.54 438.071 718.936 435.395 722.115 428.513L739.777 390.279L729.668 384.566L702.453 428.29Z" fill="#FBC0AE"/>
<path d="M712.316 399.449L706.062 370.731L683.513 391.22L687.955 406.285C704.186 408.159 709.967 402.809 712.316 399.449Z" fill="#73AA5A"/>
<path d="M641.033 396.743C673.841 388.392 694 394.545 694 394.545L698.116 422.583C698.116 453.364 700.038 446.518 700.038 477.239C685.017 477.239 679.77 513.215 668.703 508.82C644.986 499.401 634.791 478.687 630.838 472.095L632.761 423.226C632.761 423.226 635.499 408.61 641.033 396.743Z" fill="#28495C"/>
<path d="M690.903 409.867C690.751 388.757 691.728 359.786 690.06 356.413L682.064 355.515C683.365 356.739 682.166 377.67 682.07 409.923C682.063 412.132 683.855 413.93 686.064 413.93H686.884C689.119 413.93 690.919 412.101 690.903 409.867Z" fill="#17394D"/>
<path d="M658.523 411.972L658.275 407.903C652.5 368.23 651.321 357.312 648.782 357.312C646.75 357.312 642.841 358.225 640.724 359.239C642.584 359.881 644.443 368.873 645.063 372.084L649.81 415.728L655.82 415.14C657.427 414.983 658.621 413.583 658.523 411.972Z" fill="#1B3F53"/>
<circle cx="2.69609" cy="2.69609" r="2.69609" transform="matrix(-1 0 0 1 657.8 409.436)" fill="#40728E"/>
<path d="M648.677 426.382C657.228 427.92 681.634 426.254 691.051 425.613L690.287 446.37C680.515 464.206 656.821 455.852 647.913 449.061L648.677 426.382Z" stroke="#1B3F53"/>
<path d="M647.553 390.115C646.788 385.373 642.37 382.155 637.622 382.882C632.752 383.628 629.403 388.231 630.191 393.096L634.735 421.125C635.555 426.184 639.736 429.985 644.84 430.312C649.584 430.615 653.408 426.394 652.649 421.69L647.553 390.115Z" fill="#FBC0AE"/>
<path d="M691.051 429.208C685.789 430.865 670.456 431.907 649.711 429.918" stroke="#1B3F53"/>
<path d="M639.711 418.437C637.555 418.114 635.533 419.614 635.211 421.773C634.117 429.122 640.025 435.565 647.447 435.117L679.687 433.171L679.994 424.467L639.711 418.437Z" fill="#FBC0AE"/>
<path d="M629.807 404.203L624.979 375.406L644.236 372.956L650.202 395.636C652.886 400.756 629.927 406.541 629.807 404.203Z" fill="#73AA5A"/>
<path d="M721.465 348.221L737.637 349.507C738.8 349.6 739.637 350.664 739.453 351.816L735.017 379.623C734.858 380.619 733.982 381.341 732.974 381.307L717.083 380.769C715.892 380.728 715 379.661 715.172 378.482L719.327 349.926C719.479 348.883 720.414 348.137 721.465 348.221Z" fill="#343434"/>
<path d="M715.797 381.889L715.443 380.976C715.183 380.306 715.302 379.548 715.756 378.991L739.293 350.043L740.397 350.989C740.924 351.441 741.179 352.134 741.07 352.82L736.44 382.048C736.282 383.045 735.406 383.768 734.397 383.734L717.594 383.165C716.794 383.138 716.087 382.636 715.797 381.889Z" fill="#343434"/>
<path d="M722.983 349.807L739.184 351.068C740.348 351.159 741.188 352.223 741.004 353.376L736.441 382.045C736.282 383.044 735.404 383.766 734.394 383.73L718.096 383.139C716.896 383.095 716.005 382.012 716.193 380.827L720.853 351.487C721.017 350.457 721.944 349.726 722.983 349.807Z" fill="#5A5A5A"/>
<path d="M741.379 378.099C741.379 380.569 740.48 386.355 739.969 389.441C739.785 390.55 738.717 391.278 737.615 391.054L728.083 389.115C727.362 388.968 726.78 388.437 726.567 387.732L723.777 378.471C723.55 377.719 723.785 376.905 724.376 376.388L730.086 371.396C730.793 370.779 730.975 369.753 730.524 368.93L728.369 364.993C728.275 364.822 728.147 364.671 728.043 364.505C727.153 363.084 729.248 360.157 731.734 363.01C734.657 366.364 741.379 374.65 741.379 378.099Z" fill="#FBC0AE"/>
<path d="M727.138 363.246L732.228 369.189C732.588 369.61 732.777 370.153 732.755 370.707C732.674 372.777 730.039 373.598 728.796 371.941L724.1 365.683C723.563 364.967 723.582 363.978 724.146 363.284C724.913 362.341 726.347 362.323 727.138 363.246Z" fill="#FBC0AE"/>
<path d="M724.815 366.927L729.85 372.917C730.207 373.342 730.391 373.885 730.364 374.439C730.264 376.508 727.621 377.306 726.393 375.638L721.755 369.336C721.225 368.616 721.253 367.627 721.823 366.938C722.599 366.002 724.033 365.997 724.815 366.927Z" fill="#FBC0AE"/>
<path d="M723.466 371.685L728.146 377.734C728.443 378.117 728.595 378.592 728.577 379.076C728.501 381.069 725.925 381.808 724.804 380.158L720.507 373.832C720.064 373.18 720.089 372.318 720.568 371.692C721.298 370.739 722.732 370.736 723.466 371.685Z" fill="#FBC0AE"/>
<circle cx="2.69609" cy="2.69609" r="2.69609" transform="matrix(-1 0 0 1 690.152 405.842)" fill="#40728E"/>
<ellipse cx="11.6106" cy="18.3523" rx="11.6106" ry="18.3523" transform="matrix(-0.870107 -0.492863 -0.492863 0.870107 668.391 312.407)" fill="#282828"/>
<path d="M676.631 345.415L654.159 328.677V357.88C654.159 357.88 675.781 375.887 676.631 357.88C676.631 353.606 676.631 345.415 676.631 345.415Z" fill="#FBC0AE"/>
<rect width="44.9443" height="46.4425" rx="22.4722" transform="matrix(-1 0 0 1 696.855 304.706)" fill="#FBC0AE"/>
<path d="M679.744 334.668C681.162 334.668 681.991 333.612 681.991 332.309C681.991 331.341 681.534 330.509 680.717 330.145C680.213 329.92 679.744 329.502 679.744 328.949V327.927" stroke="#282828" stroke-linecap="round"/>
<circle cx="1.49814" cy="1.49814" r="1.49814" transform="matrix(-1 0 0 1 673.75 324.183)" fill="#282828"/>
<g filter="url(#filter0_f_913_1740)">
<ellipse cx="2.99629" cy="1.49814" rx="2.99629" ry="1.49814" transform="matrix(-1 0 0 1 672.886 328.677)" fill="#FF6C6C"/>
</g>
<circle cx="1.49814" cy="1.49814" r="1.49814" transform="matrix(-1 0 0 1 687.984 324.183)" fill="#282828"/>
<g filter="url(#filter1_f_913_1740)">
<ellipse cx="2.62175" cy="1.49814" rx="2.62175" ry="1.49814" transform="matrix(-1 0 0 1 692.361 328.677)" fill="#FF6C6C"/>
</g>
<path d="M685.736 320.435C686.111 320.06 686.407 319.686 687.234 319.686C688.062 319.686 688.358 320.06 688.732 320.435" stroke="#282828" stroke-linecap="round"/>
<path d="M670.754 320.435C671.128 320.06 671.424 319.686 672.252 319.686C673.079 319.686 673.375 320.06 673.75 320.435" stroke="#282828" stroke-linecap="round"/>
<path d="M682.739 336.917C682.739 340.912 675.998 340.912 675.998 336.917" stroke="#282828" stroke-linecap="round"/>
<path d="M669.194 301.27C650.414 303.957 650.814 316.422 650.414 322.536C659.609 323.97 678.923 323.417 689.366 321.56C689.751 321.492 688.617 317.066 688.617 316.691C689.198 317.239 690.115 318.938 690.489 321.347C694.274 320.483 696.519 319.359 696.045 317.988C694.235 306.579 687.973 298.584 669.194 301.27Z" fill="#282828"/>
<path d="M662.394 348.906C662.178 348.734 662.144 348.419 662.317 348.203C662.49 347.988 662.804 347.954 663.02 348.126L662.394 348.906ZM676.633 351.873C675.874 351.876 673.463 352.078 670.724 351.818C667.981 351.557 664.789 350.828 662.394 348.906L663.02 348.126C665.187 349.866 668.146 350.568 670.819 350.822C673.495 351.077 675.765 350.877 676.629 350.873L676.633 351.873Z" fill="#282828"/>
<ellipse cx="5.61804" cy="6.36711" rx="5.61804" ry="6.36711" transform="matrix(-1 0 0 1 658.77 321.936)" fill="#FBC0AE"/>
<path d="M652.775 324.932C648.655 324.932 648.655 331.673 652.775 331.673" stroke="#282828" stroke-linecap="round"/>
<ellipse cx="44.6558" cy="10.5466" rx="44.6558" ry="10.5466" transform="matrix(-0.96341 0.268031 0.319176 0.947695 706.418 287.818)" fill="#FFB762"/>
<path d="M687.726 297.549C683.485 286.372 670.87 280.426 659.55 284.269L657.712 284.893C646.392 288.735 640.654 300.91 644.895 312.087C659.733 308.857 674.102 303.98 687.726 297.549Z" fill="#FFB762"/>
<path d="M643.341 304.592C668.025 303.441 680.448 295.154 684.066 291.461L686.328 295.033C679.879 305.618 644.224 310.371 643.764 309.174C643.396 308.217 643.398 305.796 643.341 304.592Z" fill="#FF6C6C"/>
<path d="M1690.32 479.191C1631.61 460.523 1556.69 446.622 1481.76 434.214C1371.16 415.89 1233.63 406.182 1096.11 405.263C844.084 403.54 594.009 433.065 450.32 479.191H1690.32Z" fill="#80B550"/>
<path d="M1953.32 478.191V355.804C1791.03 343.998 1620.85 348.01 1463.66 367.765C1296.26 388.755 1144.17 427.338 1027.32 478.191H1953.32Z" fill="#B3D396"/>
<path d="M1906 176.706C1908.11 176.353 1909.99 176.706 1911.52 177.176C1909.29 174.474 1906.94 171.773 1904.47 169.071C1900.71 172.947 1897.07 174.944 1893.43 174.944C1890.73 174.944 1888.03 173.887 1885.32 171.655L1884.85 171.185L1885.21 170.598C1885.32 170.363 1888.73 165.195 1894.49 163.903C1896.6 163.433 1898.6 163.668 1900.12 164.256C1897.89 161.906 1895.66 159.557 1893.31 157.208C1889.67 161.672 1885.91 163.786 1882.04 163.786C1879.57 163.786 1876.99 162.846 1874.4 160.967L1873.81 160.614L1874.17 160.027C1874.28 159.792 1877.22 154.389 1882.98 152.745C1885.09 152.158 1887.09 152.275 1888.61 152.628C1886.73 150.866 1884.85 149.104 1882.98 147.342C1879.33 151.805 1875.58 154.037 1871.7 154.037C1869.23 154.037 1866.65 153.097 1864.07 151.218L1863.48 150.866L1863.83 150.278C1863.95 150.044 1866.88 144.641 1872.64 142.996C1872.99 142.879 1873.23 142.879 1873.58 142.761C1867.94 138.65 1862.66 134.07 1857.84 128.902C1857.61 128.549 1857.61 128.079 1857.84 127.845C1858.19 127.61 1858.66 127.61 1858.9 127.845C1864.07 133.365 1869.7 138.298 1875.81 142.526C1876.75 142.526 1877.57 142.644 1878.39 142.879C1871.7 136.419 1866.3 128.549 1862.77 119.858C1862.66 119.505 1862.77 119.035 1863.24 118.918C1863.6 118.801 1864.07 118.918 1864.18 119.388C1867.59 127.727 1872.76 135.362 1879.22 141.587C1878.98 140.765 1878.86 139.825 1878.75 138.885C1874.52 132.308 1871.11 125.026 1869 117.391C1868.88 117.039 1869.12 116.569 1869.47 116.451C1869.82 116.334 1870.29 116.569 1870.41 116.921C1872.4 123.734 1875.22 130.311 1878.98 136.301C1878.98 136.184 1878.98 136.184 1878.98 136.066C1880.27 130.311 1885.56 127.022 1885.79 126.905L1886.38 126.553L1886.85 127.14C1891.9 133.482 1890.96 139.825 1884.03 146.285C1885.91 147.929 1887.67 149.691 1889.44 151.336C1888.97 149.809 1888.85 147.929 1889.32 145.933C1890.61 140.177 1895.9 136.889 1896.13 136.771L1896.72 136.419L1897.19 137.006C1902.24 143.466 1901.3 149.691 1894.37 156.151C1896.6 158.5 1898.95 160.732 1901.06 163.198C1900.71 161.672 1900.59 159.792 1901.3 157.796C1903.06 152.158 1908.58 149.221 1908.7 149.104L1909.29 148.752L1909.64 149.339C1914.22 156.034 1912.81 162.259 1905.53 168.249C1907.88 170.95 1910.23 173.652 1912.57 176.353C1912.22 174.709 1912.22 172.83 1913.04 170.833C1915.04 165.195 1920.68 162.611 1920.91 162.494L1921.5 162.259L1921.85 162.846C1926.2 169.776 1924.55 175.884 1916.8 181.639C1918.92 184.34 1921.03 187.042 1923.03 189.743C1922.79 188.099 1922.91 186.22 1923.85 184.223C1926.2 178.702 1931.95 176.471 1932.19 176.353L1932.78 176.118L1933.13 176.706C1937 183.87 1934.89 189.978 1926.9 195.029C1929.02 197.965 1931.01 200.901 1933.01 203.955C1932.89 202.311 1933.13 200.432 1934.19 198.552C1936.89 193.267 1942.76 191.388 1942.99 191.27L1943.58 191.035L1943.82 191.622C1947.22 199.022 1944.76 204.895 1936.42 209.476C1938.41 212.647 1940.29 215.936 1942.17 219.224C1942.17 217.58 1942.53 215.701 1943.58 213.704C1946.64 208.536 1952.63 207.009 1952.86 207.009L1953.57 206.892L1953.8 207.479C1956.74 215.113 1953.92 220.869 1945.34 224.862C1947.46 228.738 1949.45 232.614 1951.33 236.49C1951.57 236.843 1951.33 237.312 1950.98 237.547C1950.86 237.547 1950.75 237.665 1950.63 237.665C1950.39 237.665 1950.04 237.547 1949.92 237.195C1948.05 233.319 1946.05 229.443 1944.05 225.684C1940.53 227.916 1937.36 229.091 1934.42 229.091C1930.78 229.091 1927.61 227.329 1924.79 223.688L1924.44 223.1L1924.91 222.631C1925.14 222.396 1929.49 218.285 1935.24 218.285C1935.36 218.285 1935.48 218.285 1935.48 218.285C1937.59 218.285 1939.35 218.989 1940.65 219.812C1938.88 216.64 1937 213.469 1935.01 210.415C1931.37 213.117 1927.96 214.409 1924.91 214.409C1921.5 214.409 1918.45 212.764 1915.63 209.593L1915.16 209.123L1915.63 208.653C1915.86 208.419 1919.97 203.838 1925.96 203.603C1928.2 203.485 1929.96 204.073 1931.37 204.777C1929.37 201.841 1927.37 198.787 1925.38 195.968C1921.62 199.022 1918.21 200.667 1914.92 200.667C1911.75 200.667 1908.93 199.257 1906.11 196.438L1905.64 195.968L1906.11 195.381C1906.23 195.146 1910.23 190.33 1916.1 189.743C1918.21 189.508 1920.09 189.978 1921.5 190.565C1919.5 187.864 1917.51 185.162 1915.39 182.578C1911.63 186.102 1908.11 187.864 1904.7 187.864C1901.89 187.864 1899.07 186.689 1896.25 184.223L1896.01 183.518L1896.37 182.931C1896.48 182.813 1900.12 177.645 1906 176.706Z" fill="#2D6315"/>
<path d="M1862.66 360.17L1863.25 359.818C1863.48 359.7 1868.41 356.177 1874.17 356.999C1874.29 356.999 1874.4 356.999 1874.4 356.999C1876.52 357.351 1878.16 358.291 1879.34 359.23C1878.04 355.824 1876.63 352.418 1875.23 349.012C1871.23 351.126 1867.71 351.948 1864.65 351.478C1861.37 351.009 1858.55 348.894 1856.2 345.371L1855.85 344.783L1856.32 344.314C1856.55 344.196 1861.37 340.203 1867.24 340.908C1869.35 341.142 1871.11 341.965 1872.41 342.904C1870.88 339.616 1869.35 336.444 1867.83 333.273C1863.71 335.739 1860.07 336.797 1856.79 336.327C1853.73 335.857 1851.03 333.978 1848.68 330.806L1848.33 330.219L1848.8 329.749C1849.03 329.514 1853.61 325.403 1859.49 325.638C1861.6 325.756 1863.36 326.461 1864.77 327.283C1863.25 324.346 1861.6 321.41 1859.96 318.474C1855.73 321.41 1851.97 322.702 1848.56 322.115C1845.74 321.645 1843.16 320.118 1840.81 317.182L1840.34 316.712L1840.81 316.242C1841.05 316.007 1845.27 311.544 1851.26 311.426C1853.5 311.426 1855.26 312.014 1856.67 312.718C1854.79 309.665 1852.91 306.611 1850.91 303.674C1846.57 306.963 1842.69 308.373 1839.17 307.903C1836.47 307.55 1834 306.023 1831.65 303.439L1831.18 302.97L1831.65 302.5C1831.77 302.265 1835.88 297.684 1841.87 297.214C1844.1 297.097 1845.98 297.567 1847.39 298.389C1845.51 295.687 1843.63 292.986 1841.75 290.402C1837.41 294.278 1833.41 295.805 1829.65 295.335C1827.19 294.983 1824.84 293.691 1822.49 291.459L1822.02 290.989L1822.37 290.402C1822.49 290.167 1826.25 285.234 1832.24 284.412C1834.47 284.059 1836.35 284.529 1837.87 285.234C1836.35 283.237 1830.24 276.66 1828.6 274.663C1824.25 278.539 1824.72 284.647 1820.96 284.059C1818.49 283.707 1816.15 282.415 1813.8 280.183L1813.33 279.714L1813.68 279.126C1813.8 278.891 1817.56 273.958 1823.55 273.136C1823.9 273.136 1824.13 273.019 1824.48 273.019C1819.43 268.086 1814.97 262.8 1810.98 256.927C1810.74 256.575 1810.86 256.105 1811.21 255.87C1811.56 255.635 1812.03 255.753 1812.27 256.105C1816.5 262.33 1821.43 267.968 1826.83 273.136C1827.77 273.254 1828.6 273.606 1829.3 273.841C1823.55 266.441 1819.43 257.867 1817.32 248.706C1817.2 248.353 1817.44 247.883 1817.91 247.766C1818.26 247.648 1818.73 247.883 1818.85 248.353C1820.96 257.162 1824.95 265.384 1830.36 272.549C1830.24 271.727 1830.24 270.787 1830.36 269.847C1827.07 262.683 1824.95 255.048 1823.9 247.179C1823.9 246.709 1824.13 246.356 1824.6 246.356C1825.07 246.356 1825.42 246.591 1825.42 247.061C1826.36 254.108 1828.24 260.921 1831.06 267.498C1831.06 267.381 1831.06 267.381 1831.18 267.381C1833.41 261.86 1839.05 259.394 1839.28 259.276L1839.87 259.042L1840.22 259.629C1844.22 266.676 1842.46 272.784 1834.59 278.069C1836.11 279.948 1837.76 281.945 1839.28 283.942C1839.05 282.298 1839.17 280.536 1839.87 278.539C1842.1 273.019 1847.74 270.552 1847.98 270.435L1848.56 270.2L1848.92 270.787C1853.03 277.834 1851.15 283.942 1843.28 289.345C1845.16 291.929 1847.04 294.63 1848.92 297.332C1848.8 295.687 1849.03 293.926 1849.97 291.929C1852.56 286.526 1858.43 284.529 1858.66 284.412L1859.25 284.177L1859.6 284.764C1863.13 292.046 1860.9 298.037 1852.67 302.852C1854.67 305.906 1856.55 308.842 1858.43 311.896C1858.31 310.252 1858.66 308.373 1859.6 306.493C1862.42 301.208 1868.3 299.446 1868.53 299.329L1869.24 299.094L1869.47 299.681C1872.76 307.198 1870.17 313.071 1861.72 317.417C1863.36 320.353 1865.01 323.407 1866.65 326.343C1866.65 324.699 1867.12 322.819 1868.18 320.94C1871.35 315.89 1877.34 314.48 1877.57 314.363L1878.28 314.245L1878.51 314.833C1881.22 322.585 1878.4 328.222 1869.59 332.098C1871.23 335.27 1872.76 338.558 1874.29 341.847C1874.4 340.203 1874.99 338.441 1876.17 336.679C1879.57 331.863 1885.8 330.806 1886.03 330.806L1886.74 330.689L1886.97 331.394C1889.2 339.263 1885.91 344.666 1876.99 347.955C1878.51 351.361 1879.92 354.885 1881.22 358.408C1881.45 356.764 1882.04 354.885 1883.45 353.24C1887.21 348.66 1893.31 347.955 1893.67 347.955L1894.37 347.837L1894.49 348.542C1896.25 356.529 1892.61 361.697 1883.56 364.516C1885.09 368.627 1886.5 372.738 1887.79 376.966C1887.91 377.318 1887.68 377.788 1887.32 377.906C1887.21 377.906 1887.09 377.906 1886.97 377.906C1886.74 377.906 1886.5 377.671 1886.38 377.436C1885.09 373.325 1883.68 369.214 1882.27 365.103C1878.51 366.865 1875.11 367.452 1872.29 367.1C1868.65 366.513 1865.83 364.281 1863.6 360.288L1862.66 360.17Z" fill="#2D6315"/>
<path d="M1902.83 241.885C1880.63 224.619 1853.14 212.756 1837.52 189.383C1841.98 206.061 1853.5 219.921 1866.18 231.549C1878.87 243.177 1893.2 253.043 1905.41 265.024C1922.21 281.35 1935.13 301.552 1943 323.634C1944.76 328.567 1946.28 333.735 1949.22 338.198C1950.87 340.782 1955.56 346.89 1959.32 345.598C1963.2 344.188 1961.2 337.846 1960.61 335.144C1958.85 326.335 1956.15 317.643 1952.86 309.304C1946.17 292.391 1936.65 276.652 1924.79 263.027C1918.21 255.157 1910.81 248.11 1902.83 241.885Z" fill="#CCD64F"/>
<path d="M2017.58 530.124C2019.69 528.127 2021.81 526.013 2023.8 523.782C2033.67 512.506 2036.84 496.767 2032.26 482.203C2025.8 461.648 2003.72 448.728 1998.55 427.821C1994.09 409.616 2003.6 388.591 1994.44 372.265C1987.16 359.227 1971.07 354.529 1959.79 344.78C1934.07 322.464 1938.06 279.123 1914.34 254.575C1909.05 249.172 1902.47 244.827 1895.07 243.3C1887.67 241.773 1879.57 243.3 1873.81 248.233C1864.42 256.337 1863.95 270.901 1867.24 282.882C1870.53 294.862 1876.75 306.02 1878.4 318.353C1881.92 345.955 1861.6 374.262 1871.11 400.454C1876.87 416.193 1892.49 427.116 1896.84 443.325C1902.47 464.584 1886.97 486.313 1889.67 508.16C1891.79 525.543 1905.53 539.755 1921.27 547.272C1941.23 556.904 1968.25 556.199 1988.8 548.329C1999.26 544.219 2009.12 537.993 2017.58 530.124Z" fill="#88BA63"/>
<path d="M1876.75 341.728C1886.73 352.182 1902.94 364.749 1924.44 367.451C1914.1 334.563 1902.94 301.559 1889.2 269.846C1878.51 268.906 1871.23 264.795 1866.41 260.097C1866.65 259.275 1866.88 258.453 1867.12 257.748C1871.46 262.094 1878.04 266.322 1888.03 267.379C1884.74 259.98 1881.33 252.58 1877.81 245.415C1878.51 245.063 1879.22 244.71 1879.92 244.476C1889.44 263.738 1897.66 283.588 1905.17 303.673C1917.15 291.81 1919.39 273.722 1919.03 260.449C1919.86 261.624 1920.68 262.799 1921.5 263.973C1921.5 264.795 1921.5 265.735 1921.38 266.557C1920.68 283.588 1915.39 297.213 1906.11 306.022C1917.74 337.617 1927.61 369.8 1937.24 401.278L1945.93 429.937C1958.73 420.188 1968.36 382.955 1969.89 351.947C1970.6 352.416 1971.42 352.886 1972.12 353.356C1970.36 383.307 1961.32 422.185 1946.64 432.286L1950.28 444.266C1973.42 429.584 1983.4 393.173 1983.75 360.991C1984.57 361.578 1985.28 362.165 1986.1 362.87C1985.4 395.522 1974.71 432.051 1950.98 446.733L1976.7 530.948C2006.07 514.974 2011.24 483.613 2010.41 449.786C2011.24 450.844 2012.06 451.783 2012.88 452.723C2013.35 486.315 2007.36 517.206 1977.53 533.179L1982.69 550.328C1981.99 550.563 1981.17 550.798 1980.46 551.032L1960.61 486.08C1959.32 486.197 1957.91 486.197 1956.62 486.197C1933.36 486.197 1911.75 471.633 1897.42 459.065C1897.54 458.126 1897.66 457.186 1897.66 456.129C1912.22 469.284 1935.36 485.258 1959.91 483.731L1935.13 401.982C1931.84 391.411 1928.67 380.606 1925.26 369.917C1903.29 367.451 1886.62 355.118 1876.16 344.43C1876.28 343.49 1876.52 342.668 1876.75 341.728Z" fill="#DBF5C4"/>
<path d="M1889.32 511.098C1889.32 511.098 1829.42 402.1 1817.79 382.485C1799 350.537 1774.8 353.474 1779.97 383.542C1786.31 420.305 1795.71 430.994 1787.6 438.276C1779.5 445.441 1764.58 450.021 1776.8 480.795C1789.01 511.568 1798.76 531.653 1798.76 531.653L1889.32 511.098Z" fill="#2D6315"/>
<path d="M1785.96 439.689C1786.55 439.219 1787.13 438.749 1787.6 438.279C1787.72 438.279 1787.72 438.162 1787.72 438.162C1797.94 449.672 1813.56 463.062 1830 462.123L1784.43 361.816C1785.02 361.346 1785.72 360.877 1786.43 360.642L1809.8 411.852C1813.56 405.274 1814.03 389.418 1812.27 374.266C1813.21 375.441 1814.15 376.85 1815.09 378.142C1816.5 393.411 1815.44 408.446 1810.98 414.318L1858.31 518.148L1855.96 518.736L1831.18 464.354C1830.36 464.472 1829.42 464.472 1828.59 464.472C1816.85 464.472 1804.05 457.894 1791.36 445.209C1789.36 443.33 1787.6 441.45 1785.96 439.689Z" fill="#88BA63"/>
<path d="M1870.88 400.34C1870.06 398.108 1869.47 395.876 1869.12 393.527C1884.51 404.803 1897.54 419.367 1906.7 436.163C1921.15 462.591 1925.97 494.304 1919.98 523.902C1908.94 519.321 1898.6 513.801 1889.2 507.106C1887.09 485.612 1902.12 464.235 1896.49 443.328C1892.26 427.002 1876.64 416.079 1870.88 400.34Z" fill="#2D6315"/>
<path d="M1920.68 523.662C1925.26 493.829 1919.04 462.468 1903.41 436.628C1887.68 410.788 1862.78 390.821 1834.12 381.189C1829.65 411.728 1835.29 443.088 1851.15 469.515C1866.89 496.06 1891.67 513.091 1920.68 523.662Z" fill="#CCD64F"/>
<path d="M1872.76 447.2L1833.88 383.187C1834 382.6 1834 381.895 1834.12 381.308C1834.71 381.543 1835.29 381.777 1835.88 381.895L1858.55 419.128V392.466C1859.37 392.936 1860.08 393.405 1860.9 393.875V422.534C1860.9 422.652 1860.9 422.769 1860.78 422.887L1884.27 461.529L1885.33 413.608C1886.15 414.43 1886.85 415.252 1887.68 416.074L1886.5 465.288L1892.38 474.919L1893.55 422.769C1894.37 423.709 1895.08 424.766 1895.78 425.706L1894.61 478.678L1920.8 521.783C1920.68 522.371 1920.68 523.075 1920.56 523.663C1919.98 523.428 1919.39 523.193 1918.8 522.958L1902.12 495.591C1902.01 495.591 1901.89 495.591 1901.77 495.591C1901.65 495.591 1901.65 495.591 1901.54 495.591L1864.54 487.839C1863.72 486.899 1862.78 485.842 1861.95 484.903L1900.48 493.007L1874.64 450.136L1838.11 439.448C1837.88 438.508 1837.64 437.686 1837.41 436.746L1872.76 447.2Z" fill="#88BA63"/>
<path d="M1697.87 507.34C1703.74 489.017 1715.84 472.691 1732.52 463.177C1751.66 452.371 1777.03 452.019 1795.35 464.234C1810.15 474.217 1818.96 490.661 1825.78 507.222H1697.87V507.34Z" fill="#88BA63"/>
<path d="M1952.98 312.6C1946.28 292.046 1939.36 271.139 1926.32 253.873C1915.75 240.013 1901.77 229.325 1887.67 218.989C1873.58 208.771 1859.13 198.669 1847.51 185.749C1835.76 172.829 1826.83 156.621 1826.25 139.237C1835.17 158.852 1851.85 173.886 1869.35 186.454C1886.85 199.022 1905.65 209.945 1921.62 224.392C1940.88 242.01 1955.56 264.679 1963.55 289.462C1959.79 298.154 1959.44 305.671 1952.98 312.6Z" fill="#88BA63"/>
<path d="M1300.14 339.116C1305.76 326.976 1377.92 327.822 1377.92 339.116C1370.42 390.078 1369.18 415.732 1369.18 425.862C1369.18 435.991 1311.46 436.609 1307.95 427.253C1304.44 417.896 1305.92 412.5 1300.14 339.116Z" fill="#FF6C6C"/>
<path d="M1304.41 364.934C1301.31 359.431 1290.49 349.842 1285.49 341.544C1288.16 334.838 1302.95 330.208 1309.83 332.952C1316.72 335.697 1320.13 343.357 1317.45 350.063C1314.78 356.769 1311.29 367.679 1304.41 364.934Z" fill="#FF6C6C"/>
<ellipse cx="1368.39" cy="349.097" rx="14.1528" ry="14.7681" transform="rotate(-6.0882 1368.39 349.097)" fill="#FF6C6C"/>
<path d="M1293.04 323.625C1296.41 326.995 1296.32 332.485 1292.85 335.746C1289.26 339.114 1283.56 338.706 1280.48 334.861L1248.51 294.867L1256.71 287.292L1293.04 323.625Z" fill="#FBC0AE"/>
<path d="M1295.16 324.377L1311.19 333.588L1291.34 349.111L1283.13 340.105C1286.47 327.762 1292.04 325.111 1295.16 324.377Z" fill="#FF6C6C"/>
<path d="M1357.62 367.899C1334.5 361.964 1307.95 368.524 1307.95 368.524L1303.26 391.954C1303.26 420.907 1302.64 496.759 1302.64 525.656C1307.63 534.09 1316.07 534.715 1334.5 535.652C1353.84 536.636 1368.48 531.857 1372.61 525.656L1370.11 399.451C1370.11 399.451 1365.43 376.021 1357.62 367.899Z" fill="#28495C"/>
<path d="M1309.1 381.884C1309.23 362.491 1308.34 336.114 1309.88 333.029L1317.32 332.202C1316.11 333.325 1317.22 352.446 1317.31 381.938C1317.32 384.147 1315.53 385.945 1313.32 385.945H1313.12C1310.88 385.945 1309.08 384.118 1309.1 381.884Z" fill="#17394D"/>
<circle cx="1349.23" cy="382.638" r="2.48046" fill="#40728E"/>
<path d="M1351.3 406.616C1342.04 408.27 1315.61 406.478 1305.41 405.789L1306.24 428.113C1316.82 447.295 1342.48 438.311 1352.13 431.007L1351.3 406.616Z" stroke="#1B3F53"/>
<path d="M1366.18 361.752C1365.45 357.285 1368.46 352.967 1372.9 352.107C1377.63 351.193 1382.01 354.553 1382.36 359.368L1384.65 390.471C1384.9 393.991 1382.45 397.199 1379 397.868C1375.31 398.581 1371.83 396.155 1371.22 392.449L1366.18 361.752Z" fill="#FBC0AE"/>
<path d="M1305.41 409.51C1311.2 411.439 1328.07 412.652 1350.89 410.337" stroke="#1B3F53"/>
<path d="M1370.68 391.155C1370.57 387.993 1372.97 385.277 1376.12 384.989C1380.93 384.55 1384.91 388.587 1384.39 393.39L1380.28 431.88L1372.06 432.384L1370.68 391.155Z" fill="#FBC0AE"/>
<path d="M1387.51 372.304L1381.79 345.27L1360.43 350.184L1364.18 373.574C1364.08 379.177 1388.43 374.382 1387.51 372.304Z" fill="#FF6C6C"/>
<path d="M1371.67 437.251C1371.82 435.667 1372.01 432.831 1372.15 430.817C1372.23 429.598 1373.36 428.79 1374.55 429.11L1379.25 430.376C1379.97 430.57 1380.55 431.145 1380.75 431.872L1382.63 438.638C1382.84 439.424 1382.58 440.24 1381.97 440.714L1378.26 443.559C1377.59 444.07 1377.35 444.973 1377.65 445.801L1378.73 448.734C1378.8 448.915 1378.9 449.083 1378.97 449.264C1379.39 450.447 1377.79 452.361 1376.33 449.973C1374.58 447.116 1371.43 439.887 1371.67 437.251Z" fill="#FBC0AE"/>
<path d="M1379.54 449.887L1376.5 444.922C1376.31 444.611 1376.23 444.246 1376.27 443.889C1376.46 442.405 1378.42 442.086 1379.13 443.423L1381.87 448.56C1382.15 449.083 1382.07 449.72 1381.68 450.142C1381.08 450.794 1380.01 450.667 1379.54 449.887Z" fill="#FBC0AE"/>
<path d="M1380.89 447.424L1377.89 442.429C1377.71 442.117 1377.63 441.751 1377.68 441.395C1377.88 439.914 1379.84 439.615 1380.54 440.959L1383.24 446.122C1383.51 446.648 1383.43 447.282 1383.04 447.701C1382.43 448.346 1381.36 448.209 1380.89 447.424Z" fill="#FBC0AE"/>
<path d="M1382.14 444L1379.38 438.995C1379.23 438.717 1379.17 438.4 1379.21 438.09C1379.39 436.668 1381.29 436.405 1381.92 437.716L1384.38 442.867C1384.6 443.336 1384.53 443.887 1384.2 444.267C1383.63 444.924 1382.57 444.787 1382.14 444Z" fill="#FBC0AE"/>
<path d="M1257.01 281.093C1257.9 283.437 1259.17 289.359 1259.78 292.314C1259.98 293.305 1259.41 294.289 1258.45 294.611L1250.47 297.299L1244.32 289.9C1243.9 289.393 1243.76 288.707 1243.94 288.069L1246.27 279.855C1246.48 279.087 1246.23 278.266 1245.62 277.763L1240.61 273.618C1240.47 273.502 1240.31 273.413 1240.16 273.308C1238.8 272.341 1239.32 268.999 1242.96 270.604C1246.94 272.356 1255.79 277.911 1257.01 281.093Z" fill="#FBC0AE"/>
<circle cx="1313.19" cy="381.812" r="2.48046" fill="#40728E"/>
<ellipse cx="1357" cy="293.99" rx="12.432" ry="19.6506" transform="rotate(-29.5289 1357 293.99)" fill="#282828"/>
<path d="M1327.68 318.362L1351.74 300.439V331.708C1351.74 331.708 1327.68 361.337 1327.68 331.708C1327.68 327.132 1327.68 318.362 1327.68 318.362Z" fill="#FBC0AE"/>
<rect x="1306.02" y="274.774" width="48.1239" height="49.728" rx="24.0619" fill="#FBC0AE"/>
<path d="M1319.35 305.609C1317.83 305.609 1316.94 304.478 1316.94 303.083C1316.94 302.021 1317.46 301.112 1318.37 300.738C1318.88 300.529 1319.35 300.108 1319.35 299.556V298.391" stroke="#282828" stroke-width="0.5" stroke-linecap="round"/>
<circle cx="1327.37" cy="295.982" r="1.60413" fill="#282828"/>
<g filter="url(#filter2_f_913_1740)">
<ellipse cx="1329.9" cy="300.796" rx="3.20826" ry="1.60413" fill="#FF6C6C"/>
</g>
<circle cx="1312.13" cy="295.982" r="1.60413" fill="#282828"/>
<g filter="url(#filter3_f_913_1740)">
<ellipse cx="1310.52" cy="300.796" rx="2.80723" ry="1.60413" fill="#FF6C6C"/>
</g>
<path d="M1317.93 291.617C1317.53 291.216 1317.21 290.815 1316.33 290.815C1315.44 290.815 1315.12 291.216 1314.72 291.617" stroke="#282828" stroke-linecap="round"/>
<path d="M1333.97 291.617C1333.57 291.216 1333.25 290.815 1332.37 290.815C1331.48 290.815 1331.16 291.216 1330.76 291.617" stroke="#282828" stroke-linecap="round"/>
<path d="M1316.14 308.014C1316.14 312.291 1323.36 312.291 1323.36 308.014" stroke="#282828" stroke-width="0.5" stroke-linecap="round"/>
<path d="M1335.64 271.095C1355.75 273.972 1355.32 287.319 1355.75 293.865C1345.91 295.401 1325.22 294.809 1314.04 292.821C1313.63 292.747 1314.84 288.008 1314.84 287.607C1314.22 288.194 1313.24 290.013 1312.84 292.592C1308.79 291.667 1306.38 290.463 1306.89 288.996C1308.83 276.779 1315.53 268.219 1335.64 271.095Z" fill="#282828"/>
<path d="M1342.74 321.879C1342.85 321.793 1342.87 321.636 1342.78 321.528C1342.7 321.42 1342.54 321.403 1342.43 321.489L1342.74 321.879ZM1327.68 324.993C1328.52 324.997 1331.06 325.212 1333.98 324.935C1336.89 324.658 1340.24 323.885 1342.74 321.879L1342.43 321.489C1340.04 323.404 1336.81 324.163 1333.93 324.437C1331.04 324.712 1328.57 324.497 1327.68 324.493L1327.68 324.993Z" fill="#282828"/>
<ellipse cx="1352.82" cy="300.039" rx="6.01549" ry="6.81755" fill="#FBC0AE"/>
<path d="M1353.22 296.431C1357.63 296.431 1357.63 303.649 1353.22 303.649" stroke="#282828" stroke-linecap="round"/>
<ellipse cx="47.815" cy="11.2928" rx="47.815" ry="11.2928" transform="matrix(0.96341 0.268031 -0.319176 0.947695 1295.79 256.691)" fill="#FFB762"/>
<path d="M1315.8 267.111C1320.34 255.144 1333.85 248.778 1345.97 252.892L1347.94 253.56C1360.06 257.674 1366.21 270.71 1361.66 282.678C1345.78 279.22 1330.39 273.997 1315.8 267.111Z" fill="#FFB762"/>
<path d="M1363.32 274.651C1336.89 273.419 1323.59 264.545 1319.72 260.591L1317.3 264.416C1324.2 275.749 1362.38 280.839 1362.87 279.557C1363.27 278.532 1363.26 275.94 1363.32 274.651Z" fill="#FF6C6C"/>
<path d="M1353.78 386.772L1347.99 386.22C1346.38 386.067 1345.17 384.68 1345.23 383.062C1345.72 368.859 1345.83 330.744 1358.42 330.744C1360.4 330.744 1365.86 332.26 1367.93 333.225C1361.73 331.984 1357.48 346.969 1356.37 351.343C1355.26 355.716 1353.78 386.772 1353.78 386.772Z" fill="#1B3F53"/>
<circle cx="1349.83" cy="381.812" r="2.48046" fill="#40728E"/>
<path d="M1401.04 304.2C1391.26 292.739 1486.48 292.906 1486.48 304.201C1488.98 346.042 1478.59 380.816 1478.59 390.945C1478.59 401.075 1408.36 400.301 1404.85 390.945C1401.34 381.589 1406.83 377.585 1401.04 304.2Z" fill="#73AA5A"/>
<path d="M1404.5 330.774C1400.78 324.159 1387.77 312.635 1381.76 302.662C1384.98 294.603 1402.75 289.038 1411.02 292.336C1419.29 295.634 1423.39 304.841 1420.18 312.9C1416.97 320.959 1412.77 334.072 1404.5 330.774Z" fill="#73AA5A"/>
<ellipse cx="1479.29" cy="316.958" rx="16.4775" ry="17.194" transform="rotate(-6.0882 1479.29 316.958)" fill="#73AA5A"/>
<path d="M1397.91 286.267C1402.92 289.796 1404.12 296.719 1400.59 301.73C1396.74 307.194 1388.97 308.042 1384.04 303.536L1365.99 287.063C1362.43 283.819 1361.85 278.439 1364.62 274.505C1367.66 270.191 1373.62 269.157 1377.93 272.196L1397.91 286.267Z" fill="#FBC0AE"/>
<path d="M1377.79 271.881C1381.54 275.607 1381.46 281.706 1377.6 285.325C1373.6 289.077 1367.24 288.593 1363.85 284.278L1332.99 244.926L1342.11 236.476L1377.79 271.881Z" fill="#FBC0AE"/>
<path d="M1393.39 282.03L1412.66 293.1L1388.79 311.757L1378.93 300.932C1382.94 286.098 1389.63 282.912 1393.39 282.03Z" fill="#73AA5A"/>
<path d="M1402.28 259.666C1402.28 263.547 1405.06 266.694 1408.48 266.694C1411.91 266.694 1414.68 263.547 1414.68 259.666C1414.68 255.784 1411.91 252.638 1408.48 252.638C1405.06 252.638 1402.28 255.784 1402.28 259.666Z" fill="#E8AB98"/>
<path fill-rule="evenodd" clip-rule="evenodd" d="M1408.48 255.944C1408.48 255.715 1408.3 255.53 1408.07 255.53C1406.8 255.53 1405.83 256.052 1405.19 256.845C1404.55 257.628 1404.24 258.655 1404.24 259.664C1404.24 260.673 1404.55 261.7 1405.19 262.483C1405.83 263.277 1406.8 263.798 1408.07 263.798C1408.3 263.798 1408.48 263.613 1408.48 263.385C1408.48 263.157 1408.3 262.972 1408.07 262.972C1407.06 262.972 1406.32 262.563 1405.83 261.961C1405.33 261.349 1405.07 260.516 1405.07 259.664C1405.07 258.813 1405.33 257.98 1405.83 257.368C1406.32 256.765 1407.06 256.357 1408.07 256.357C1408.3 256.357 1408.48 256.172 1408.48 255.944Z" fill="#28495C"/>
<path d="M1410.45 228.509C1413.97 214.437 1428.31 205.53 1442.49 208.615L1444.28 209.005C1458.45 212.091 1467.09 226.001 1463.57 240.074C1445.42 238.247 1427.59 234.367 1410.45 228.509Z" fill="#FFB762"/>
<path d="M1463.88 229.9C1442.8 222.045 1422.96 220.391 1413.03 222.045L1411.38 225.352L1464.3 233.62L1463.88 229.9Z" fill="#73AA5A"/>
<path d="M1489.41 249.086C1487.96 256.509 1463.05 258.472 1433.78 253.471C1404.51 248.47 1381.97 238.398 1383.43 230.975C1384.88 223.552 1409.79 221.589 1439.06 226.59C1468.33 231.591 1490.87 241.663 1489.41 249.086Z" fill="#FFB762"/>
<path d="M1425.62 282.816L1457.87 263.386V297.285C1457.87 297.285 1423.78 329.118 1425.62 297.285C1425.62 292.324 1425.62 282.816 1425.62 282.816Z" fill="#FBC0AE"/>
<path d="M1407.43 254.294C1407.43 242.878 1416.69 233.623 1428.1 233.623H1438.02C1449.44 233.623 1458.69 242.878 1458.69 254.294V270.83C1458.69 282.246 1449.44 291.5 1438.02 291.5H1428.1C1416.69 291.5 1407.43 282.246 1407.43 270.83V254.294Z" fill="#FBC0AE"/>
<path fill-rule="evenodd" clip-rule="evenodd" d="M1421.87 258.84C1422.1 258.84 1422.29 259.025 1422.29 259.253V260.659C1422.29 261.366 1421.71 261.833 1421.18 261.999C1420.33 262.265 1419.81 263.064 1419.81 264.09C1419.81 264.723 1420.01 265.271 1420.35 265.655C1420.7 266.034 1421.2 266.281 1421.87 266.281C1422.1 266.281 1422.29 266.466 1422.29 266.695C1422.29 266.923 1422.1 267.108 1421.87 267.108C1420.98 267.108 1420.25 266.772 1419.74 266.208C1419.24 265.65 1418.98 264.895 1418.98 264.09C1418.98 262.782 1419.66 261.606 1420.94 261.21C1421.28 261.104 1421.46 260.865 1421.46 260.659V259.253C1421.46 259.025 1421.65 258.84 1421.87 258.84Z" fill="#28495C"/>
<path d="M1432.47 254.01C1432.47 254.923 1431.73 255.664 1430.81 255.664C1429.9 255.664 1429.16 254.923 1429.16 254.01C1429.16 253.097 1429.9 252.356 1430.81 252.356C1431.73 252.356 1432.47 253.097 1432.47 254.01Z" fill="#28495C"/>
<path d="M1416.76 254.01C1416.76 254.923 1416.02 255.664 1415.1 255.664C1414.19 255.664 1413.45 254.923 1413.45 254.01C1413.45 253.097 1414.19 252.356 1415.1 252.356C1416.02 252.356 1416.76 253.097 1416.76 254.01Z" fill="#28495C"/>
<path fill-rule="evenodd" clip-rule="evenodd" d="M1413.85 250.061C1413.82 250.096 1413.78 250.133 1413.74 250.171C1413.58 250.333 1413.32 250.333 1413.16 250.171C1412.99 250.01 1412.99 249.748 1413.16 249.587C1413.18 249.558 1413.21 249.529 1413.24 249.498C1413.41 249.326 1413.62 249.119 1413.87 248.96C1414.19 248.76 1414.58 248.639 1415.1 248.639C1415.63 248.639 1416.02 248.76 1416.34 248.96C1416.59 249.119 1416.79 249.326 1416.96 249.498C1416.99 249.529 1417.02 249.558 1417.05 249.587C1417.21 249.748 1417.21 250.01 1417.05 250.171C1416.89 250.333 1416.62 250.333 1416.46 250.171C1416.42 250.133 1416.39 250.096 1416.35 250.061C1416.19 249.89 1416.06 249.763 1415.9 249.661C1415.72 249.551 1415.49 249.465 1415.1 249.465C1414.72 249.465 1414.48 249.551 1414.31 249.661C1414.14 249.763 1414.02 249.89 1413.85 250.061Z" fill="#28495C"/>
<path fill-rule="evenodd" clip-rule="evenodd" d="M1429.56 250.061C1429.52 250.096 1429.49 250.133 1429.45 250.171C1429.29 250.333 1429.03 250.333 1428.87 250.171C1428.7 250.01 1428.7 249.748 1428.87 249.587C1428.89 249.558 1428.92 249.529 1428.95 249.498C1429.12 249.326 1429.32 249.119 1429.58 248.96C1429.9 248.76 1430.28 248.639 1430.81 248.639C1431.34 248.639 1431.73 248.76 1432.04 248.96C1432.3 249.119 1432.5 249.326 1432.67 249.498C1432.7 249.529 1432.73 249.558 1432.76 249.587C1432.92 249.748 1432.92 250.01 1432.76 250.171C1432.6 250.333 1432.33 250.333 1432.17 250.171C1432.13 250.133 1432.1 250.096 1432.06 250.061C1431.89 249.89 1431.77 249.763 1431.61 249.661C1431.43 249.551 1431.2 249.465 1430.81 249.465C1430.42 249.465 1430.19 249.551 1430.02 249.661C1429.85 249.763 1429.73 249.89 1429.56 250.061Z" fill="#28495C"/>
<path fill-rule="evenodd" clip-rule="evenodd" d="M1418.57 268.763C1418.79 268.763 1418.98 268.948 1418.98 269.176C1418.98 270.148 1419.38 270.857 1419.98 271.332C1420.6 271.816 1421.43 272.07 1422.29 272.07C1423.14 272.07 1423.98 271.816 1424.59 271.332C1425.19 270.857 1425.59 270.148 1425.59 269.176C1425.59 268.948 1425.78 268.763 1426.01 268.763C1426.24 268.763 1426.42 268.948 1426.42 269.176C1426.42 270.409 1425.89 271.354 1425.1 271.981C1424.32 272.6 1423.29 272.897 1422.29 272.897C1421.28 272.897 1420.26 272.6 1419.47 271.981C1418.68 271.354 1418.15 270.409 1418.15 269.176C1418.15 268.948 1418.34 268.763 1418.57 268.763Z" fill="#28495C"/>
<path fill-rule="evenodd" clip-rule="evenodd" d="M1425.61 292.149C1425.55 292.146 1425.49 292.143 1425.43 292.14L1425.47 291.314C1425.52 291.317 1425.59 291.32 1425.65 291.323C1427.57 291.411 1432.78 291.651 1441 289.697C1441.23 289.644 1441.45 289.782 1441.5 290.004C1441.55 290.226 1441.42 290.449 1441.19 290.502C1432.86 292.482 1427.57 292.238 1425.61 292.149Z" fill="#28495C"/>
<path d="M1442.7 241.244C1438.68 238.927 1412.39 235.276 1409.91 244.784C1407.17 244.37 1408.64 238.172 1411.38 235.689C1414.12 233.206 1421.91 232.382 1427.91 232.382C1434.85 232.382 1453.13 234.862 1458.5 240.236C1459.74 244.371 1460.92 247.589 1460 252.693L1451.35 257.6C1449.98 254.013 1446.72 243.561 1442.7 241.244Z" fill="#28495C"/>
<path d="M1463.66 259.666C1463.66 263.547 1460.88 266.694 1457.46 266.694C1454.03 266.694 1451.25 263.547 1451.25 259.666C1451.25 255.784 1454.03 252.638 1457.46 252.638C1460.88 252.638 1463.66 255.784 1463.66 259.666Z" fill="#FBC0AE"/>
<path fill-rule="evenodd" clip-rule="evenodd" d="M1457.46 255.944C1457.46 255.715 1457.64 255.53 1457.87 255.53C1459.13 255.53 1460.1 256.052 1460.75 256.845C1461.39 257.628 1461.69 258.655 1461.69 259.664C1461.69 260.673 1461.39 261.7 1460.75 262.483C1460.1 263.277 1459.13 263.798 1457.87 263.798C1457.64 263.798 1457.46 263.613 1457.46 263.385C1457.46 263.157 1457.64 262.972 1457.87 262.972C1458.88 262.972 1459.62 262.563 1460.11 261.961C1460.6 261.349 1460.87 260.516 1460.87 259.664C1460.87 258.813 1460.6 257.98 1460.11 257.368C1459.62 256.765 1458.88 256.357 1457.87 256.357C1457.64 256.357 1457.46 256.172 1457.46 255.944Z" fill="#28495C"/>
<path d="M1465.12 333.668C1430.81 325.813 1409.72 331.601 1409.72 331.601L1403.11 357.646C1403.11 386.599 1399.39 485.228 1399.39 514.125C1414.84 520.326 1425.58 521.98 1437.16 521.98C1463.5 521.98 1478.35 520.326 1482.48 514.125L1482.48 365.087C1482.48 365.087 1470.91 344.83 1465.12 333.668Z" fill="#28495C"/>
<path d="M1407.29 346.968C1407.42 327.575 1406.53 301.198 1408.07 298.113L1415.51 297.286C1414.31 298.409 1415.41 317.53 1415.51 347.022C1415.51 349.231 1413.72 351.029 1411.51 351.029H1411.31C1409.08 351.029 1407.28 349.202 1407.29 346.968Z" fill="#17394D"/>
<path d="M1449.59 348.133L1449.83 344.417C1460.16 308.864 1471.32 298.115 1473.8 298.115C1475.79 298.115 1481.24 299.631 1483.31 300.596C1477.11 299.355 1472.15 308.45 1470.5 312.171L1458.09 351.859L1452.3 351.307C1450.69 351.154 1449.49 349.749 1449.59 348.133Z" fill="#1B3F53"/>
<circle cx="1453.54" cy="347.726" r="2.48046" fill="#40728E"/>
<path d="M1444.58 339.75L1457.5 297.445C1457.62 297.066 1457.68 296.672 1457.68 296.276V287.365C1458.92 287.779 1462.14 288.936 1465.12 290.259C1467.78 291.44 1469.53 295.125 1470.27 297.373C1470.43 297.859 1470.64 298.333 1470.73 298.838C1471.36 302.667 1469.36 318.287 1469.67 319.198C1470.08 320.438 1469.25 327.466 1470.49 330.773C1471.73 334.081 1468.01 336.974 1469.25 338.215C1470.49 339.455 1467.6 341.522 1465.95 343.176C1464.29 344.829 1463.88 344.002 1462.23 343.176C1460.57 342.349 1460.57 344.416 1458.92 346.069C1457.26 347.723 1454.78 348.55 1451.89 346.069C1451.43 345.673 1451.03 345.385 1450.69 345.189C1448.88 344.166 1446.34 344.697 1445.13 343.02C1444.44 342.077 1444.24 340.866 1444.58 339.75Z" fill="#F1F1F1"/>
<path d="M1455.61 371.701C1446.35 373.354 1419.92 371.563 1409.72 370.874L1410.55 393.198C1421.13 412.38 1446.79 403.396 1456.44 396.092L1455.61 371.701Z" stroke="#1B3F53"/>
<path d="M1474.79 335.162C1473.62 328.79 1477.85 322.727 1484.23 321.621C1491.07 320.436 1497.5 325.409 1498.06 332.322L1501.09 369.805C1501.5 374.836 1498.02 379.322 1493.04 380.185C1487.69 381.113 1482.55 377.532 1481.57 372.187L1474.79 335.162Z" fill="#FBC0AE"/>
<path d="M1409.72 374.595C1415.51 376.524 1432.38 377.737 1455.2 375.422" stroke="#1B3F53"/>
<path d="M1481.57 370.985C1481.36 366.017 1485.48 361.907 1490.45 362.13C1496.81 362.416 1501.53 368.052 1500.7 374.376L1495.41 414.927L1483.46 415.521L1481.57 370.985Z" fill="#FBC0AE"/>
<path d="M1501.56 343.978L1494.9 312.503L1470.03 318.224L1474.39 345.457C1474.28 351.98 1502.63 346.397 1501.56 343.978Z" fill="#73AA5A"/>
<path d="M1482.55 420.139C1483.03 418.317 1483.52 414.583 1483.81 411.989C1483.97 410.625 1485.41 409.797 1486.66 410.365L1494.37 413.872C1495.07 414.188 1495.52 414.875 1495.54 415.64L1495.76 423.884C1495.78 424.66 1495.35 425.377 1494.66 425.724L1488.97 428.574C1488.15 428.99 1487.71 429.92 1487.92 430.822L1488.79 434.493C1488.84 434.682 1488.92 434.861 1488.97 435.049C1489.35 436.466 1486.94 438.448 1485.51 435.464C1483.82 431.93 1481.75 423.095 1482.55 420.139Z" fill="#FBC0AE"/>
<path d="M1489.63 435.973L1486.69 429.833C1486.48 429.397 1486.44 428.899 1486.59 428.438C1487.12 426.717 1489.52 426.62 1490.19 428.292L1492.73 434.61C1493.02 435.332 1492.78 436.159 1492.15 436.615C1491.29 437.235 1490.08 436.928 1489.63 435.973Z" fill="#FBC0AE"/>
<path d="M1492.41 433.405L1489.53 427.238C1489.32 426.8 1489.29 426.302 1489.44 425.843C1489.99 424.126 1492.39 424.051 1493.04 425.73L1495.52 432.07C1495.81 432.795 1495.56 433.619 1494.93 434.07C1494.06 434.682 1492.86 434.364 1492.41 433.405Z" fill="#FBC0AE"/>
<path d="M1494.61 429.71L1492.04 423.573C1491.88 423.184 1491.86 422.751 1491.98 422.348C1492.5 420.69 1494.83 420.649 1495.4 422.288L1497.59 428.572C1497.81 429.22 1497.6 429.939 1497.05 430.357C1496.22 430.993 1495.02 430.673 1494.61 429.71Z" fill="#FBC0AE"/>
<path d="M1421.05 320.026C1421.05 310.104 1424.35 300.182 1426.01 296.461V291.5L1425.18 291.087C1423.94 292.327 1421.05 293.154 1419.39 294.394C1417.3 295.963 1413.6 301.422 1413.19 302.662C1412.78 303.903 1409.47 308.45 1407.4 315.478C1405.34 322.506 1403.68 329.121 1403.27 330.361C1402.94 331.353 1403.13 333.53 1403.27 334.495L1407.4 334.908C1407.95 334.495 1409.39 333.668 1410.71 333.668C1412.36 333.668 1412.36 334.495 1413.19 334.908C1414.02 335.322 1416.08 335.322 1418.98 336.562C1421.29 337.554 1421.32 336.149 1421.05 335.322V320.026Z" fill="#F1F1F1"/>
<path d="M1340.8 227.221C1341.82 229.873 1343.26 236.632 1343.92 239.872C1344.13 240.884 1343.53 241.888 1342.54 242.189L1333.01 245.104L1328.67 239.233C1328.38 238.85 1328.25 238.377 1328.28 237.899L1329.16 225.464C1329.21 224.817 1328.94 224.191 1328.45 223.781L1322.51 218.871C1322.37 218.755 1322.21 218.666 1322.06 218.564C1320.51 217.51 1321.07 213.733 1325.16 215.532C1329.58 217.484 1339.45 223.675 1340.8 227.221Z" fill="#FBC0AE"/>
<circle cx="1411.38" cy="346.897" r="2.48046" fill="#40728E"/>
<path d="M1433.63 457.937C1433.63 457.661 1433.85 457.437 1434.13 457.438C1434.4 457.438 1434.63 457.661 1434.63 457.938L1433.63 457.937ZM1434.63 457.938L1434.63 516.042L1433.63 516.042L1433.63 457.937L1434.63 457.938Z" fill="#173B4F"/>
<path d="M1619.75 288.546C1600.86 266.415 1784.71 266.737 1784.71 288.546C1789.56 369.339 1769.48 436.485 1769.48 456.044C1769.48 475.602 1633.89 474.11 1627.11 456.044C1620.33 437.978 1630.92 430.245 1619.75 288.546Z" fill="#73AA5A"/>
<ellipse cx="1640.83" cy="324.735" rx="46.6129" ry="48.1329" fill="#73AA5A"/>
<ellipse cx="1768.69" cy="313.786" rx="31.8169" ry="33.2002" transform="rotate(31.7665 1768.69 313.786)" fill="#73AA5A"/>
<path d="M1590.48 349.637C1593.1 338.683 1604.1 331.922 1615.05 334.536C1626.99 337.386 1633.73 350.069 1629.4 361.559L1613.57 403.57C1610.45 411.842 1601.66 416.505 1593.07 414.454C1583.64 412.204 1577.82 402.736 1580.07 393.306L1590.48 349.637Z" fill="#FBC0AE"/>
<path d="M1606.91 402.503C1609.25 406.262 1608.01 411.211 1604.17 413.415C1592.23 420.268 1576.98 415.408 1571.2 402.909L1539.13 333.469L1557.49 323.091L1606.91 402.503Z" fill="#FBC0AE"/>
<path d="M1588.99 350.12L1595.73 311.563L1641.31 335.174L1633.24 362.536C1603.76 365.94 1593.26 356.222 1588.99 350.12Z" fill="#73AA5A"/>
<path d="M1622.14 202.554C1622.14 210.049 1627.5 216.124 1634.12 216.124C1640.73 216.124 1646.09 210.049 1646.09 202.554C1646.09 195.059 1640.73 188.983 1634.12 188.983C1627.5 188.983 1622.14 195.059 1622.14 202.554Z" fill="#E8AB98"/>
<path fill-rule="evenodd" clip-rule="evenodd" d="M1634.12 195.371C1634.12 194.93 1633.76 194.572 1633.32 194.572C1630.88 194.572 1629.01 195.58 1627.76 197.111C1626.53 198.623 1625.93 200.606 1625.93 202.555C1625.93 204.503 1626.53 206.486 1627.76 207.998C1629.01 209.53 1630.88 210.538 1633.32 210.538C1633.76 210.538 1634.12 210.18 1634.12 209.739C1634.12 209.298 1633.76 208.941 1633.32 208.941C1631.37 208.941 1629.95 208.153 1629 206.99C1628.04 205.808 1627.53 204.199 1627.53 202.555C1627.53 200.911 1628.04 199.302 1629 198.12C1629.95 196.957 1631.37 196.169 1633.32 196.169C1633.76 196.169 1634.12 195.811 1634.12 195.371Z" fill="#28495C"/>
<path d="M1637.9 142.393C1644.7 115.22 1672.4 98.0215 1699.77 103.98L1703.23 104.733C1730.59 110.691 1747.27 137.55 1740.48 164.723C1705.42 161.196 1671.01 153.704 1637.9 142.393Z" fill="#FFB762"/>
<path d="M1741.08 145.078C1700.37 129.911 1662.05 126.718 1642.89 129.911L1639.7 136.297L1741.88 152.262L1741.08 145.078Z" fill="#73AA5A"/>
<path d="M1790.38 182.126C1787.57 196.46 1739.47 200.251 1682.96 190.593C1626.44 180.936 1582.91 161.488 1585.72 147.155C1588.54 132.822 1636.63 129.031 1693.15 138.688C1749.66 148.345 1793.19 167.793 1790.38 182.126Z" fill="#FFB762"/>
<path d="M1667.22 247.257L1729.48 209.738V275.196C1729.48 275.196 1663.65 336.662 1667.22 275.196C1667.22 265.617 1667.22 247.257 1667.22 247.257Z" fill="#FBC0AE"/>
<path d="M1632.09 192.178C1632.09 170.134 1649.96 152.265 1672 152.265H1691.16C1713.2 152.265 1731.07 170.134 1731.07 192.178V224.108C1731.07 246.152 1713.2 264.021 1691.16 264.021H1672C1649.96 264.021 1632.09 246.152 1632.09 224.108V192.178Z" fill="#FBC0AE"/>
<path fill-rule="evenodd" clip-rule="evenodd" d="M1667.21 200.959C1667.66 200.959 1668.01 201.316 1668.01 201.757V204.471C1668.01 205.836 1666.91 206.739 1665.88 207.059C1664.23 207.574 1663.22 209.116 1663.22 211.097C1663.22 212.32 1663.61 213.377 1664.28 214.119C1664.94 214.85 1665.92 215.328 1667.21 215.328C1667.66 215.328 1668.01 215.685 1668.01 216.126C1668.01 216.567 1667.66 216.924 1667.21 216.924C1665.49 216.924 1664.07 216.276 1663.09 215.187C1662.12 214.109 1661.63 212.652 1661.63 211.097C1661.63 208.571 1662.95 206.3 1665.4 205.535C1666.06 205.33 1666.42 204.87 1666.42 204.471V201.757C1666.42 201.316 1666.77 200.959 1667.21 200.959Z" fill="#28495C"/>
<path d="M1686.37 193.772C1686.37 195.536 1684.94 196.965 1683.18 196.965C1681.42 196.965 1679.99 195.536 1679.99 193.772C1679.99 192.009 1681.42 190.579 1683.18 190.579C1684.94 190.579 1686.37 192.009 1686.37 193.772Z" fill="#28495C"/>
<path d="M1656.04 193.775C1656.04 195.539 1654.61 196.968 1652.85 196.968C1651.08 196.968 1649.65 195.539 1649.65 193.775C1649.65 192.012 1651.08 190.582 1652.85 190.582C1654.61 190.582 1656.04 192.012 1656.04 193.775Z" fill="#28495C"/>
<path fill-rule="evenodd" clip-rule="evenodd" d="M1650.43 186.141C1650.36 186.208 1650.29 186.278 1650.22 186.353C1649.91 186.665 1649.4 186.665 1649.09 186.353C1648.78 186.041 1648.78 185.536 1649.09 185.224C1649.14 185.17 1649.2 185.112 1649.26 185.052C1649.58 184.72 1649.98 184.32 1650.46 184.014C1651.08 183.628 1651.83 183.394 1652.85 183.394C1653.86 183.394 1654.61 183.628 1655.23 184.014C1655.72 184.32 1656.11 184.72 1656.44 185.052C1656.49 185.112 1656.55 185.17 1656.6 185.224C1656.92 185.536 1656.92 186.041 1656.6 186.353C1656.29 186.665 1655.79 186.665 1655.48 186.353C1655.4 186.278 1655.33 186.208 1655.27 186.141C1654.94 185.81 1654.7 185.565 1654.38 185.367C1654.04 185.155 1653.59 184.99 1652.85 184.99C1652.1 184.99 1651.65 185.155 1651.31 185.367C1651 185.565 1650.75 185.81 1650.43 186.141Z" fill="#28495C"/>
<path fill-rule="evenodd" clip-rule="evenodd" d="M1680.76 186.141C1680.69 186.208 1680.62 186.278 1680.55 186.353C1680.24 186.665 1679.73 186.665 1679.42 186.353C1679.11 186.041 1679.11 185.536 1679.42 185.224C1679.48 185.17 1679.53 185.112 1679.59 185.052C1679.92 184.72 1680.31 184.32 1680.8 184.014C1681.41 183.628 1682.16 183.394 1683.18 183.394C1684.2 183.394 1684.94 183.628 1685.56 184.014C1686.05 184.32 1686.44 184.72 1686.77 185.052C1686.83 185.112 1686.88 185.17 1686.94 185.224C1687.25 185.536 1687.25 186.041 1686.94 186.353C1686.62 186.665 1686.12 186.665 1685.81 186.353C1685.73 186.278 1685.66 186.208 1685.6 186.141C1685.27 185.81 1685.03 185.565 1684.71 185.367C1684.37 185.155 1683.93 184.99 1683.18 184.99C1682.43 184.99 1681.98 185.155 1681.64 185.367C1681.33 185.565 1681.09 185.81 1680.76 186.141Z" fill="#28495C"/>
<path fill-rule="evenodd" clip-rule="evenodd" d="M1660.83 220.115C1661.27 220.115 1661.63 220.473 1661.63 220.913C1661.63 222.791 1662.41 224.159 1663.57 225.077C1664.75 226.011 1666.36 226.501 1668.01 226.501C1669.66 226.501 1671.28 226.011 1672.46 225.077C1673.62 224.159 1674.4 222.791 1674.4 220.913C1674.4 220.473 1674.76 220.115 1675.2 220.115C1675.64 220.115 1676 220.473 1676 220.913C1676 223.294 1674.98 225.118 1673.45 226.329C1671.94 227.524 1669.96 228.098 1668.01 228.098C1666.07 228.098 1664.09 227.524 1662.58 226.329C1661.05 225.118 1660.03 223.294 1660.03 220.913C1660.03 220.473 1660.39 220.115 1660.83 220.115Z" fill="#28495C"/>
<path fill-rule="evenodd" clip-rule="evenodd" d="M1667.19 265.28C1667.07 265.274 1666.95 265.269 1666.84 265.264L1666.91 263.669C1667.02 263.674 1667.14 263.679 1667.27 263.685C1670.98 263.856 1681.04 264.32 1696.91 260.546C1697.34 260.444 1697.77 260.709 1697.87 261.138C1697.98 261.567 1697.71 261.997 1697.28 262.099C1681.2 265.924 1670.97 265.453 1667.19 265.28Z" fill="#28495C"/>
<path d="M1700.19 166.98C1692.43 162.506 1641.67 155.456 1636.88 173.816C1631.59 173.017 1634.42 161.048 1639.71 156.254C1645 151.46 1660.05 149.868 1671.64 149.868C1685.04 149.868 1720.33 154.657 1730.71 165.035C1733.1 173.017 1735.37 179.233 1733.61 189.087L1716.9 198.562C1714.25 191.637 1707.95 171.455 1700.19 166.98Z" fill="#28495C"/>
<path d="M1740.65 202.554C1740.65 210.049 1735.29 216.124 1728.68 216.124C1722.07 216.124 1716.71 210.049 1716.71 202.554C1716.71 195.059 1722.07 188.983 1728.68 188.983C1735.29 188.983 1740.65 195.059 1740.65 202.554Z" fill="#FBC0AE"/>
<path fill-rule="evenodd" clip-rule="evenodd" d="M1728.68 195.371C1728.68 194.93 1729.04 194.572 1729.48 194.572C1731.92 194.572 1733.79 195.58 1735.04 197.111C1736.27 198.623 1736.86 200.606 1736.86 202.555C1736.86 204.503 1736.27 206.486 1735.04 207.998C1733.79 209.53 1731.92 210.538 1729.48 210.538C1729.04 210.538 1728.68 210.18 1728.68 209.739C1728.68 209.298 1729.04 208.941 1729.48 208.941C1731.43 208.941 1732.85 208.153 1733.8 206.99C1734.76 205.808 1735.27 204.199 1735.27 202.555C1735.27 200.911 1734.76 199.302 1733.8 198.12C1732.85 196.957 1731.43 196.169 1729.48 196.169C1729.04 196.169 1728.68 195.811 1728.68 195.371Z" fill="#28495C"/>
<path d="M1743.48 345.442C1677.22 330.275 1636.51 341.451 1636.51 341.451L1623.74 391.741C1623.74 447.647 1616.56 503.58 1616.56 559.376C1646.89 559.376 1665.25 556.982 1687.6 548.999C1735.5 531.893 1765.03 500.305 1773.02 488.331L1777.01 406.11C1777.01 406.11 1754.66 366.995 1743.48 345.442Z" fill="#28495C"/>
<path d="M1631.78 374.911C1632.18 337.21 1630.24 282.954 1633.32 276.793L1647.69 275.196C1645.31 277.411 1647.58 315.901 1647.68 374.957C1647.69 377.166 1645.9 378.97 1643.69 378.97H1635.79C1633.55 378.97 1631.75 377.146 1631.78 374.911Z" fill="#17394D"/>
<path d="M1713.33 376.07L1713.94 366.197C1733.9 297.547 1755.45 276.791 1760.24 276.791C1764.08 276.791 1774.61 279.718 1778.6 281.581C1766.63 279.186 1757.05 296.748 1753.86 303.932L1729.91 380.566L1716.04 379.244C1714.43 379.091 1713.23 377.686 1713.33 376.07Z" fill="#1B3F53"/>
<circle cx="1721.13" cy="372.584" r="4.78958" fill="#40728E"/>
<path d="M1703.35 358.701L1728.94 274.968C1729.05 274.589 1729.11 274.195 1729.11 273.799V256.036C1731.51 256.834 1737.73 259.07 1743.48 261.624C1748.89 264.029 1752.37 271.814 1753.65 276.047C1753.79 276.537 1754.02 276.989 1754.16 277.482C1755.81 283.377 1751.65 315.68 1752.26 317.502C1753.06 319.897 1751.46 333.468 1753.86 339.854C1756.25 346.24 1749.07 351.828 1751.46 354.222C1753.86 356.617 1748.27 360.609 1745.08 363.802C1741.88 366.995 1741.09 365.398 1737.89 363.802C1734.7 362.205 1734.7 366.196 1731.51 369.389C1728.31 372.583 1723.52 374.179 1717.94 369.389C1715.38 367.197 1713.92 366.73 1712.54 367.179C1710.42 367.871 1708.08 367.912 1706.77 366.107L1703.94 362.222C1703.2 361.206 1702.99 359.902 1703.35 358.701Z" fill="#F1F1F1"/>
<path d="M1725.12 418.884C1707.24 422.077 1656.2 418.618 1636.51 417.287L1638.11 460.393C1658.55 497.433 1708.09 480.084 1726.72 465.981L1725.12 418.884Z" stroke="#1B3F53"/>
<path d="M1740.25 336.199C1746.02 325.1 1759.64 320.868 1770.69 326.745C1782.52 333.044 1786.42 348.238 1779.08 359.442L1739.3 420.183C1733.95 428.335 1723.33 431.052 1714.72 426.468C1705.46 421.539 1701.88 409.995 1706.72 400.686L1740.25 336.199Z" fill="#FBC0AE"/>
<path d="M1636.51 424.471C1647.69 428.196 1680.26 430.538 1724.32 426.067" stroke="#1B3F53"/>
<path d="M1737.23 408.432C1741.11 411.558 1741.73 417.286 1738.6 421.175C1727.93 434.415 1707.93 434.473 1697.17 421.296L1650.44 364.057L1664.6 350.039L1737.23 408.432Z" fill="#FBC0AE"/>
<path d="M1770.62 381.366L1797.76 325.488L1753.06 304.734L1727.45 351.428C1719.55 361.239 1769.38 386.315 1770.62 381.366Z" fill="#73AA5A"/>
<path d="M1573.91 256.956L1541.25 259.554C1540.09 259.646 1539.25 260.711 1539.43 261.863L1547.99 315.533C1548.15 316.529 1549.03 317.251 1550.04 317.217L1582.16 316.129C1583.35 316.089 1584.25 315.022 1584.07 313.842L1576.04 258.662C1575.89 257.619 1574.96 256.873 1573.91 256.956Z" fill="#343434"/>
<path d="M1582.28 319.233L1583.66 315.685C1583.92 315.015 1583.8 314.257 1583.35 313.7L1540 260.389L1537.3 262.701C1536.78 263.154 1536.52 263.847 1536.63 264.533L1545.41 319.942C1545.57 320.939 1546.44 321.662 1547.45 321.627L1580.49 320.509C1581.29 320.482 1582 319.98 1582.28 319.233Z" fill="#343434"/>
<path d="M1571.13 259.842L1538.44 262.387C1537.27 262.478 1536.43 263.543 1536.62 264.696L1545.41 319.938C1545.57 320.936 1546.45 321.659 1547.46 321.622L1580.34 320.43C1581.54 320.387 1582.43 319.304 1582.24 318.118L1573.26 261.522C1573.09 260.492 1572.17 259.761 1571.13 259.842Z" fill="#5A5A5A"/>
<path d="M1535.93 311.12C1535.93 316.207 1537.96 328.887 1538.78 333.839C1538.97 334.953 1540.04 335.677 1541.15 335.448L1561.1 331.32C1561.82 331.17 1562.41 330.636 1562.61 329.929L1568.3 310.743C1568.52 309.999 1568.29 309.195 1567.71 308.68L1555.47 297.802C1554.78 297.187 1554.6 296.175 1555.04 295.359L1559.74 286.633C1559.83 286.461 1559.95 286.308 1560.07 286.154C1562.04 283.615 1558.14 277.756 1553.49 283.182C1548.17 289.391 1535.93 304.734 1535.93 311.12Z" fill="#FBC0AE"/>
<path d="M1562.08 284.368L1552.83 295.162C1552.18 295.927 1551.84 296.911 1551.88 297.918C1552.02 301.677 1556.81 303.17 1559.07 300.161L1567.6 288.793C1568.57 287.494 1568.54 285.698 1567.51 284.438C1566.12 282.724 1563.52 282.691 1562.08 284.368Z" fill="#FBC0AE"/>
<path d="M1566.3 291.055L1557.15 301.934C1556.5 302.705 1556.17 303.692 1556.22 304.699C1556.4 308.456 1561.2 309.905 1563.43 306.875L1571.86 295.43C1572.82 294.122 1572.77 292.326 1571.73 291.075C1570.32 289.375 1567.72 289.365 1566.3 291.055Z" fill="#FBC0AE"/>
<path d="M1568.75 299.697L1560.25 310.682C1559.71 311.377 1559.43 312.24 1559.47 313.119C1559.6 316.739 1564.28 318.081 1566.32 315.085L1574.12 303.596C1574.93 302.412 1574.88 300.846 1574.01 299.71C1572.69 297.979 1570.08 297.973 1568.75 299.697Z" fill="#FBC0AE"/>
<path d="M1657.27 319.097C1657.27 299.939 1663.66 280.781 1666.85 273.596V264.017L1665.25 263.219C1662.86 265.614 1657.27 267.21 1654.08 269.605C1650.04 272.634 1642.9 283.175 1642.1 285.57C1641.3 287.965 1634.92 296.746 1630.93 310.316C1626.94 323.887 1623.74 336.659 1622.94 339.054C1622.31 340.97 1622.68 345.174 1622.94 347.036L1630.93 347.835C1631.99 347.036 1634.76 345.44 1637.31 345.44C1640.51 345.44 1640.51 347.036 1642.1 347.835C1643.7 348.633 1647.69 348.633 1653.28 351.028C1657.75 352.943 1657.8 350.229 1657.27 348.633V319.097Z" fill="#F1F1F1"/>
<path d="M1651.11 335.068C1655.04 338.491 1663.58 348.722 1666.68 352.483C1667.34 353.281 1667.28 354.448 1666.55 355.178L1653.72 368.043L1636.89 360.689C1636.3 360.432 1635.87 359.905 1635.73 359.272L1631.85 341.414C1631.68 340.634 1631.08 340.029 1630.3 339.871L1616.88 337.139C1616.71 337.103 1616.52 337.096 1616.34 337.09C1613.09 336.981 1610.68 330.646 1618.37 330.069C1626.55 329.455 1646.25 330.843 1651.11 335.068Z" fill="#FBC0AE"/>
<circle cx="1639.7" cy="370.987" r="4.78958" fill="#40728E"/>
<path d="M450.391 318.257H412.32V263.402C412.32 261.713 412.709 260.483 413.485 259.711C414.261 258.939 415.499 258.553 417.197 258.553H448.061V268.251H424.404V308.56H450.391V318.257ZM465.459 324.191H453.375V258.191H465.459V280.915H473.32V291.336H465.459V324.191Z" fill="#282828"/>
<path d="M402.32 324.191H390.368V258.191H402.32V324.191ZM386.696 318.257H348.32V258.553H360.272V308.56H386.696V318.257Z" fill="#282828"/>
<path d="M337.32 317.172C337.32 319.729 336.788 321.538 335.723 322.599C334.658 323.661 332.843 324.191 330.277 324.191H285.258V294.665H297.311V299.586H325.267V294.665H337.32V317.172ZM320.91 292.06H308.857L303.701 269.843C303.556 269.167 303.362 268.685 303.12 268.395C302.927 268.106 302.612 267.961 302.176 267.961H300.361C299.877 267.961 299.538 268.154 299.345 268.54C299.151 268.878 298.981 269.312 298.836 269.843L292.374 292.06H280.32L287.364 267.961H280.829V258.553H322.362V267.961H315.174L320.91 292.06ZM337.32 292.06H325.267V258.191H337.32V292.06ZM325.267 314.639V308.994H297.311V314.639H325.267Z" fill="#282828"/>
<path d="M253.32 324.191H241.248V291.603H233.829V304.726C233.829 307.253 233.393 309.513 232.52 311.506C231.648 313.499 230.411 315.175 228.811 316.536C227.211 317.946 225.272 319.015 222.993 319.744C220.763 320.522 218.29 320.911 215.575 320.911C212.86 320.911 210.363 320.522 208.084 319.744C205.854 319.015 203.939 317.946 202.339 316.536C200.739 315.175 199.502 313.499 198.629 311.506C197.757 309.513 197.32 307.253 197.32 304.726V273.376C197.32 270.849 197.757 268.589 198.629 266.596C199.502 264.603 200.739 262.927 202.339 261.566C203.939 260.156 205.854 259.087 208.084 258.358C210.363 257.58 212.86 257.191 215.575 257.191C218.29 257.191 220.763 257.58 222.993 258.358C225.272 259.087 227.211 260.156 228.811 261.566C230.411 262.927 231.648 264.603 232.52 266.596C233.393 268.589 233.829 270.849 233.829 273.376V281.104H241.248V257.702H253.32V324.191ZM209.393 302.611C209.393 308.298 211.454 311.141 215.575 311.141C219.696 311.141 221.757 308.298 221.757 302.611V275.491C221.757 269.804 219.696 266.961 215.575 266.961C211.454 266.961 209.393 269.804 209.393 275.491V302.611Z" fill="#282828"/>
<path d="M187.589 279.661H134.124V263.035C134.124 261.348 134.507 260.119 135.272 259.348C136.038 258.577 137.258 258.191 138.932 258.191H187.158V267.155H146.037V270.697H187.589V279.661ZM191.32 291.806H130.32V282.842H191.32V291.806ZM188.593 324.191H133.765V305.83H175.963V303.228H133.621V295.059H187.876V307.854C187.876 310.023 187.517 311.469 186.799 312.191C186.081 312.914 184.646 313.276 182.493 313.276H145.678V315.878H188.593V324.191Z" fill="#282828"/>
<path d="M122.32 317.184C122.32 319.737 121.792 321.543 120.735 322.602C119.678 323.662 117.877 324.191 115.33 324.191H70.6528V303.892C70.6528 301.725 71.0131 300.28 71.7337 299.558C72.4543 298.835 73.8955 298.474 76.0574 298.474H122.32V317.184ZM104.161 280.631C104.161 283.183 103.705 285.423 102.792 287.349C101.927 289.228 100.678 290.793 99.0447 292.045C97.4594 293.249 95.5378 294.164 93.2799 294.79C91.07 295.368 88.6199 295.657 85.9297 295.657C83.2394 295.657 80.7653 295.368 78.5074 294.79C76.2976 294.164 74.3759 293.249 72.7426 292.045C71.1572 290.793 69.9082 289.228 68.9954 287.349C68.1307 285.423 67.6983 283.183 67.6983 280.631V276.73C67.6983 275.574 67.9145 274.346 68.3469 273.046C68.7792 271.697 69.2837 270.638 69.8601 269.867H65.3203V260.765H79.9486V254.191H91.9107V260.765H106.539V269.867H101.999C102.528 270.638 103.008 271.697 103.44 273.046C103.921 274.346 104.161 275.574 104.161 276.73V280.631ZM122.32 295.874H110.358V258.309H122.32V295.874ZM110.358 314.8V307.865H82.6149V314.8H110.358ZM92.1989 277.019C92.1989 274.033 91.6945 271.986 90.6857 270.879C89.7249 269.723 88.1395 269.145 85.9297 269.145C83.7198 269.145 82.1105 269.723 81.1016 270.879C80.1408 271.986 79.6604 274.033 79.6604 277.019V278.681C79.6604 281.666 80.1408 283.737 81.1016 284.893C82.1105 286.001 83.7198 286.555 85.9297 286.555C88.1395 286.555 89.7249 286.001 90.6857 284.893C91.6945 283.737 92.1989 281.666 92.1989 278.681V277.019Z" fill="#282828"/>
<path d="M458.75 238.725H431.539V198.519C431.539 197.282 431.822 196.38 432.388 195.814C432.954 195.248 433.855 194.965 435.093 194.965H457.052V202.073H440.344V231.618H458.75V238.725ZM471.321 243.075H462.516V219.259H450.21V211.833H462.516V194.7H471.321V243.075Z" fill="#282828"/>
<path d="M386.824 239.574H377.807L383.959 203.293C384.03 202.798 383.995 202.48 383.853 202.338C383.712 202.161 383.394 202.073 382.899 202.073H367.569V194.965H391.544C392.428 194.965 393.047 195.195 393.401 195.655C393.755 196.079 393.861 196.698 393.719 197.511L386.824 239.574ZM407.351 243.075H398.546V194.7H407.351V211.355H413.08V218.994H407.351V243.075Z" fill="#282828"/>
<path d="M346.604 239.574H337.799V202.073H335.889C335.005 202.073 334.351 202.374 333.927 202.975C333.503 203.541 333.202 204.336 333.025 205.362L327.403 239.574H318.598L324.326 205.15C324.609 203.488 324.98 202.02 325.44 200.747C325.9 199.474 326.519 198.413 327.297 197.564C328.075 196.716 329.047 196.079 330.214 195.655C331.381 195.195 332.813 194.965 334.51 194.965H346.604V239.574ZM359.281 243.075H350.476V194.7H359.281V211.355H365.01V218.994H359.281V243.075Z" fill="#282828"/>
<path d="M315.985 222.972H270.899V216.076H288.775V213H273.711V194.541H282.516V206.21H313.492V213H298.11V216.076H315.985V222.972ZM303.786 225.199C305.341 225.199 306.756 225.412 308.029 225.836C309.337 226.225 310.451 226.808 311.371 227.586C312.325 228.364 313.068 229.319 313.598 230.451C314.129 231.547 314.394 232.802 314.394 234.217C314.394 235.631 314.129 236.886 313.598 237.983C313.068 239.114 312.325 240.069 311.371 240.847C310.451 241.625 309.337 242.208 308.029 242.597C306.756 243.022 305.341 243.234 303.786 243.234H283.099C281.543 243.234 280.111 243.022 278.803 242.597C277.53 242.208 276.416 241.625 275.461 240.847C274.542 240.069 273.817 239.114 273.286 237.983C272.756 236.886 272.491 235.631 272.491 234.217C272.491 232.802 272.756 231.547 273.286 230.451C273.817 229.319 274.542 228.364 275.461 227.586C276.416 226.808 277.53 226.225 278.803 225.836C280.111 225.412 281.543 225.199 283.099 225.199H303.786ZM302.353 236.338C304.51 236.338 305.589 235.631 305.589 234.217C305.589 232.802 304.51 232.095 302.353 232.095H284.531C282.374 232.095 281.296 232.802 281.296 234.217C281.296 235.631 282.374 236.338 284.531 236.338H302.353Z" fill="#282828"/>
<path d="M251.379 223.343H211.863V198.784C211.863 197.547 212.146 196.645 212.712 196.079C213.277 195.513 214.179 195.23 215.417 195.23H251.061V202.126H220.668V216.447H251.379V223.343ZM254.138 239.892H209.052V232.997H226.927V225.465H236.262V232.997H254.138V239.892Z" fill="#282828"/>
<path d="M203.416 229.549H194.611V212.363H181.244V206.157H194.611V203.452H181.244V197.246H194.611V194.7H203.416V229.549ZM203.734 242.969H165.384V224.934H174.189V235.543H203.734V242.969ZM190.314 222.441H162.573V194.965H171.378V215.334H190.314V222.441Z" fill="#282828"/>
<path d="M155.346 230.079H146.541V211.992H141.078V216.554C141.078 218.852 140.618 220.461 139.699 221.38C138.78 222.3 137.171 222.76 134.872 222.76H114.504V194.806H123.309V202.073H132.273V194.806H141.078V204.566H146.541V194.7H155.346V230.079ZM155.665 242.969H117.315V225.465H126.12V235.543H155.665V242.969ZM132.273 215.917V208.916H123.309V215.917H132.273Z" fill="#282828"/>
<path d="M107.277 243.075H98.4721V194.7H107.277V243.075ZM94.1226 228.913C94.1226 230.751 93.7867 232.396 93.1148 233.846C92.4429 235.295 91.4882 236.515 90.2505 237.505C89.0482 238.531 87.5984 239.309 85.9011 239.839C84.2037 240.405 82.3296 240.688 80.2786 240.688C78.2276 240.688 76.3535 240.405 74.6561 239.839C72.9588 239.309 71.4913 238.531 70.2536 237.505C69.0513 236.515 68.1142 235.295 67.4424 233.846C66.7705 232.396 66.4346 230.751 66.4346 228.913V206.104C66.4346 204.266 66.7705 202.621 67.4424 201.172C68.1142 199.722 69.0513 198.502 70.2536 197.512C71.4913 196.486 72.9588 195.708 74.6561 195.178C76.3535 194.612 78.2276 194.329 80.2786 194.329C82.3296 194.329 84.2037 194.612 85.9011 195.178C87.5984 195.708 89.0482 196.486 90.2505 197.512C91.4882 198.502 92.4429 199.722 93.1148 201.172C93.7867 202.621 94.1226 204.266 94.1226 206.104V228.913ZM75.2396 227.374C75.2396 229.425 75.6639 230.981 76.5126 232.042C77.3966 233.068 78.652 233.58 80.2786 233.58C81.9052 233.58 83.1429 233.068 83.9915 232.042C84.8756 230.981 85.3176 229.425 85.3176 227.374V207.643C85.3176 205.592 84.8756 204.054 83.9915 203.028C83.1429 201.967 81.9052 201.437 80.2786 201.437C78.652 201.437 77.3966 201.967 76.5126 203.028C75.6639 204.054 75.2396 205.592 75.2396 207.643V227.374Z" fill="#282828"/>
<path d="M360.872 168.207H355.568V154.31H347.134V155.848C347.134 157.227 346.816 158.235 346.18 158.872C345.543 159.508 344.535 159.827 343.156 159.827H321.303V136.276C321.303 135.144 321.55 134.331 322.045 133.836C322.54 133.341 323.354 133.093 324.485 133.093H347.134V137.708H355.568V132.51H360.872V168.207ZM341.83 155.053V137.867H326.607V155.053H341.83ZM361.19 180.46H324.114V163.593H329.418V175.686H361.19V180.46ZM355.568 149.43V142.588H347.134V149.43H355.568Z" fill="#282828"/>
<path d="M312.803 180.46H307.498V132.51H312.803V180.46ZM300.126 176.641H294.821V137.867H289.623C288.492 137.867 287.696 138.097 287.236 138.557C286.777 138.981 286.441 139.617 286.229 140.466L277.211 176.641H271.589L280.659 140.042C280.907 139.016 281.19 138.079 281.508 137.231C281.861 136.382 282.303 135.657 282.834 135.056C283.4 134.419 284.089 133.942 284.902 133.624C285.716 133.27 286.741 133.093 287.979 133.093H300.126V176.641Z" fill="#282828"/>
<path d="M264.362 156.962C264.362 158.341 264.044 159.349 263.407 159.985C262.771 160.622 261.763 160.94 260.384 160.94H226.384V132.774H231.688V141.845H259.058V132.774H264.362V156.962ZM259.058 156.166V146.618H231.688V156.166H259.058ZM267.704 177.277H223.042V172.503H242.721V164.122H248.025V172.503H267.704V177.277Z" fill="#282828"/>
<path d="M203.191 148.688C203.191 150.491 202.855 152.118 202.183 153.567C201.547 154.982 200.627 156.202 199.425 157.227C198.258 158.217 196.826 158.995 195.128 159.561C193.466 160.092 191.628 160.357 189.612 160.357C187.596 160.357 185.74 160.092 184.043 159.561C182.381 158.995 180.948 158.217 179.746 157.227C178.579 156.202 177.66 154.982 176.988 153.567C176.351 152.118 176.033 150.491 176.033 148.688V143.861C176.033 142.057 176.351 140.448 176.988 139.034C177.66 137.584 178.579 136.364 179.746 135.374C180.948 134.348 182.381 133.571 184.043 133.04C185.74 132.474 187.596 132.191 189.612 132.191C191.628 132.191 193.466 132.474 195.128 133.04C196.826 133.571 198.258 134.348 199.425 135.374C200.627 136.364 201.547 137.584 202.183 139.034C202.855 140.448 203.191 142.057 203.191 143.861V148.688ZM197.887 144.126C197.887 141.863 197.126 140.112 195.606 138.875C194.085 137.602 192.087 136.965 189.612 136.965C187.137 136.965 185.139 137.602 183.618 138.875C182.098 140.112 181.337 141.863 181.337 144.126V148.422C181.337 150.685 182.098 152.454 183.618 153.727C185.139 154.964 187.137 155.583 189.612 155.583C192.087 155.583 194.085 154.964 195.606 153.727C197.126 152.454 197.887 150.685 197.887 148.422V144.126ZM214.86 180.46H178.314V163.592H183.618V175.686H214.86V180.46ZM214.542 168.207H209.238V132.51H214.542V144.603H220.801V149.483H214.542V168.207Z" fill="#282828"/>
<path d="M133.228 176.641H127.923L134.076 139.087C134.147 138.592 134.112 138.274 133.97 138.132C133.829 137.955 133.51 137.867 133.015 137.867H114.716V133.093H137.948C138.832 133.093 139.451 133.323 139.805 133.783C140.158 134.207 140.264 134.826 140.123 135.639L133.228 176.641ZM154.285 180.46H148.981V155.583H140.176V150.703H148.981V132.51H154.285V180.46Z" fill="#282828"/>
<path d="M106.746 180.46H101.442V132.51H106.746V180.46ZM94.8648 165.715C94.8648 167.553 94.5289 169.198 93.857 170.647C93.2205 172.097 92.3011 173.317 91.0988 174.307C89.8965 175.333 88.4467 176.111 86.7493 176.641C85.052 177.207 83.1425 177.49 81.0208 177.49C78.8991 177.49 76.9896 177.207 75.2922 176.641C73.5949 176.111 72.145 175.333 70.9428 174.307C69.7405 173.317 68.8034 172.097 68.1315 170.647C67.495 169.198 67.1768 167.553 67.1768 165.715V144.232C67.1768 142.394 67.495 140.749 68.1315 139.299C68.8034 137.85 69.7405 136.63 70.9428 135.64C72.145 134.614 73.5949 133.836 75.2922 133.306C76.9896 132.74 78.8991 132.457 81.0208 132.457C83.1425 132.457 85.052 132.74 86.7493 133.306C88.4467 133.836 89.8965 134.614 91.0988 135.64C92.3011 136.63 93.2205 137.85 93.857 139.299C94.5289 140.749 94.8648 142.394 94.8648 144.232V165.715ZM72.481 164.176C72.481 166.934 73.1175 169.056 74.3905 170.541C75.6635 171.991 77.8736 172.716 81.0208 172.716C84.1679 172.716 86.378 171.991 87.6511 170.541C88.9241 169.056 89.5606 166.934 89.5606 164.176V145.771C89.5606 143.012 88.9241 140.908 87.6511 139.459C86.378 137.973 84.1679 137.231 81.0208 137.231C77.8736 137.231 75.6635 137.973 74.3905 139.459C73.1175 140.908 72.481 143.012 72.481 145.771V164.176Z" fill="#282828"/>
<path d="M348.787 391.889V402.853C352.653 402.853 355.448 402.683 358.609 402.124L358.827 403.777C355.497 404.409 352.628 404.555 348.52 404.555H346.794V390.236H356.931V391.889H348.787ZM366.242 396.751V398.404H362.644V410H360.651V388.146H362.644V396.751H366.242Z" fill="#6B6B6B"/>
<path d="M326.861 390.26V402.61C330.142 402.61 333.522 402.318 337.144 401.589L337.362 403.291C333.57 404.069 330.142 404.312 326.666 404.312H324.867V390.26H326.861ZM339.38 388.146H341.374V409.927H339.38V388.146Z" fill="#6B6B6B"/>
<path d="M314.392 397.358L314.611 398.963C311.037 399.546 308.072 399.668 304.036 399.668H302.286V393.566H310.162V390.819H302.213V389.214H312.131V395.097H304.231V398.039C308.096 398.039 310.94 397.917 314.392 397.358ZM317.066 408.03V405.356H306.88V408.03H317.066ZM317.066 403.8V401.223H319.035V409.659H304.911V401.223H306.88V403.8H317.066ZM317.042 388.169H319.035V400.129H317.042V388.169Z" fill="#6B6B6B"/>
<path d="M296.259 398.6V400.228H281.284V390.14H296.04V391.793H283.253V398.6H296.259ZM278.756 405.358H298.544V407.011H278.756V405.358Z" fill="#6B6B6B"/>
<path d="M259.188 397.918V403.242C262.397 403.242 265.071 403.096 268.328 402.585L268.498 404.239C265.071 404.773 262.275 404.895 258.872 404.895H257.219V396.289H264.73V391.719H257.17V390.115H266.699V397.918H259.188ZM272.364 388.121H274.357V409.976H272.364V400.714H267.915V399.085H272.364V394.733H268.061V393.105H272.364V388.121Z" fill="#6B6B6B"/>
<path d="M236.412 393.761C236.412 395.682 237.967 397.019 240.082 397.019C242.222 397.019 243.778 395.682 243.778 393.761C243.778 391.889 242.222 390.528 240.082 390.528C237.967 390.528 236.412 391.889 236.412 393.761ZM245.722 393.761C245.722 396.654 243.364 398.647 240.082 398.647C236.825 398.647 234.467 396.654 234.467 393.761C234.467 390.917 236.825 388.923 240.082 388.923C243.364 388.923 245.722 390.917 245.722 393.761ZM239.134 405.624V408.055H251.775V409.66H237.19V404.141H249.004V401.856H237.117V400.276H250.973V405.624H239.134ZM250.973 392.837H254.206V394.49H250.973V399.255H248.98V388.146H250.973V392.837Z" fill="#6B6B6B"/>
<path d="M221.022 391.961V390.186H208.234V388.776H222.991V393.322H210.252V395.194H223.38V396.628H208.283V391.961H221.022ZM210.131 406.207V408.224H223.744V409.659H208.162V404.821H221.094V402.998H208.113V401.563H223.064V406.207H210.131ZM205.755 398.282H225.519V399.789H205.755V398.282Z" fill="#6B6B6B"/>
<path d="M187.694 395.22V399.231H198.828V395.22H187.694ZM194.258 405.527H203.156V407.156H183.392V405.527H192.24V400.835H185.725V389.701H187.694V393.591H198.828V389.701H200.773V400.835H194.258V405.527Z" fill="#6B6B6B"/>
<path d="M172.673 393.809H176.976V388.169H178.994V401.15H176.976V395.438H172.673V393.809ZM173.889 398.768L172.892 400.324C170.461 399.449 168.589 397.65 167.641 395.413C166.717 397.942 164.699 399.984 162.147 400.956L161.102 399.376C164.359 398.185 166.596 395.243 166.596 392.107V391.354H161.734V389.749H173.378V391.354H168.589V392.107C168.589 394.903 170.728 397.65 173.889 398.768ZM171.798 408.395C175.08 408.395 177.073 407.471 177.073 405.891C177.073 404.311 175.08 403.363 171.798 403.363C168.516 403.363 166.523 404.311 166.523 405.891C166.523 407.471 168.516 408.395 171.798 408.395ZM171.798 401.831C176.271 401.831 179.067 403.314 179.067 405.891C179.067 408.468 176.271 409.951 171.798 409.951C167.325 409.951 164.529 408.468 164.529 405.891C164.529 403.314 167.325 401.831 171.798 401.831Z" fill="#6B6B6B"/>
<path d="M148.702 408.054V405.235H138.71V408.054H148.702ZM148.702 403.679V400.907H150.695V409.659H136.741V400.907H138.71V403.679H148.702ZM138.686 397.601C140.849 397.601 142.405 396.191 142.405 394.198C142.405 392.204 140.849 390.819 138.686 390.819C136.522 390.819 134.966 392.204 134.966 394.198C134.966 396.191 136.522 397.601 138.686 397.601ZM148.677 388.169H150.695V399.862H148.677V394.976H144.253C143.864 397.553 141.676 399.254 138.686 399.254C135.428 399.254 133.07 397.212 133.07 394.198C133.07 391.208 135.428 389.166 138.686 389.166C141.627 389.166 143.815 390.819 144.229 393.347H148.677V388.169Z" fill="#6B6B6B"/>
<path d="M117.684 390.041V393.955C117.684 397.796 120.164 401.758 123.227 403.29L121.987 404.87C119.678 403.63 117.709 401.078 116.712 398.087C115.764 401.272 113.746 403.995 111.291 405.307L110.1 403.703C113.236 402.099 115.715 397.917 115.715 393.955V390.041H117.684ZM130.739 396.993V398.647H127.141V409.951H125.147V388.169H127.141V396.993H130.739Z" fill="#6B6B6B"/>
<path d="M99.43 401.03H103.854V388.146H105.848V404.749H103.854V402.513H99.43V401.03ZM94.9813 390.504C92.915 390.504 91.505 391.427 91.505 392.813C91.505 394.223 92.915 395.147 94.9813 395.147C97.0477 395.147 98.4576 394.223 98.4576 392.813C98.4576 391.427 97.0477 390.504 94.9813 390.504ZM94.9813 396.63C91.7967 396.63 89.6088 395.147 89.6088 392.813C89.6088 390.528 91.7967 389.021 94.9813 389.021C98.1659 389.021 100.354 390.528 100.354 392.813C100.354 395.147 98.1659 396.63 94.9813 396.63ZM94.2034 403.971V399.766C92.0398 399.863 89.9492 399.887 88.1502 399.887L87.8828 398.234C91.9183 398.234 97.3151 398.186 101.934 397.602L102.104 399.036C100.184 399.328 98.1659 399.547 96.1968 399.668V403.971H94.2034ZM92.9879 407.837H106.407V409.465H90.9945V403.12H92.9879V407.837Z" fill="#6B6B6B"/>
<path d="M73.4198 392.034V394.806C73.4198 398.501 76.0453 402.269 79.2542 403.63L78.1359 405.235C75.6077 404.068 73.4684 401.564 72.4231 398.574C71.4264 401.758 69.2871 404.505 66.8075 405.769L65.6406 404.165C68.7766 402.682 71.4264 398.574 71.4264 394.806V392.034H66.3699V390.381H78.5492V392.034H73.4198ZM81.4907 388.169H83.4841V409.951H81.4907V388.169Z" fill="#6B6B6B"/>
<path d="M326.667 372.646C326.537 373.214 326.359 373.829 326.132 374.494C325.921 375.158 325.686 375.815 325.427 376.463C325.184 377.127 324.941 377.751 324.697 378.335H323.142C323.287 377.719 323.433 377.055 323.579 376.341C323.725 375.645 323.863 374.956 323.992 374.275C324.122 373.578 324.219 372.946 324.284 372.379H326.496L326.667 372.646Z" fill="#6B6B6B"/>
<path d="M305.446 362.264V366.276H316.58V362.264H305.446ZM312.01 372.572H320.908V374.201H301.144V372.572H309.992V367.88H303.477V356.746H305.446V360.636H316.58V356.746H318.525V367.88H312.01V372.572Z" fill="#6B6B6B"/>
<path d="M290.424 360.855H294.727V355.215H296.745V368.196H294.727V362.484H290.424V360.855ZM291.64 365.814L290.643 367.37C288.212 366.495 286.34 364.696 285.392 362.459C284.468 364.987 282.45 367.029 279.898 368.002L278.853 366.422C282.11 365.231 284.347 362.289 284.347 359.153V358.399H279.485V356.795H291.129V358.399H286.34V359.153C286.34 361.949 288.479 364.696 291.64 365.814ZM289.549 375.441C292.831 375.441 294.824 374.517 294.824 372.937C294.824 371.357 292.831 370.409 289.549 370.409C286.267 370.409 284.274 371.357 284.274 372.937C284.274 374.517 286.267 375.441 289.549 375.441ZM289.549 368.877C294.022 368.877 296.818 370.36 296.818 372.937C296.818 375.514 294.022 376.997 289.549 376.997C285.076 376.997 282.28 375.514 282.28 372.937C282.28 370.36 285.076 368.877 289.549 368.877Z" fill="#6B6B6B"/>
<path d="M272.388 375.1V372.28H262.397V375.1H272.388ZM272.388 370.725V367.953H274.382V376.705H260.428V367.953H262.397V370.725H272.388ZM262.372 364.647C264.536 364.647 266.092 363.237 266.092 361.244C266.092 359.25 264.536 357.865 262.372 357.865C260.209 357.865 258.653 359.25 258.653 361.244C258.653 363.237 260.209 364.647 262.372 364.647ZM272.364 355.215H274.382V366.908H272.364V362.022H267.939C267.55 364.598 265.363 366.3 262.372 366.3C259.115 366.3 256.757 364.258 256.757 361.244C256.757 358.254 259.115 356.212 262.372 356.212C265.314 356.212 267.502 357.865 267.915 360.393H272.364V355.215Z" fill="#6B6B6B"/>
<path d="M243.924 375.416C247.327 375.416 249.345 374.517 249.345 373.01C249.345 371.454 247.327 370.579 243.924 370.579C240.472 370.579 238.454 371.454 238.454 373.01C238.454 374.517 240.472 375.416 243.924 375.416ZM243.924 369.023C248.543 369.023 251.362 370.457 251.362 373.01C251.362 375.538 248.543 376.972 243.924 376.972C239.256 376.972 236.436 375.538 236.436 373.01C236.436 370.457 239.256 369.023 243.924 369.023ZM244.945 365.765H253.793V367.37H234.078V365.765H242.927V362.872H236.728V355.652H238.721V361.268H251.533V362.872H244.945V365.765Z" fill="#6B6B6B"/>
<path d="M218.688 357.865V359.47H205.828V357.865H211.249V355.191H213.243V357.865H218.688ZM208.94 364.721C208.94 366.252 210.277 367.225 212.246 367.225C214.215 367.225 215.576 366.252 215.576 364.721C215.576 363.214 214.215 362.241 212.246 362.241C210.277 362.241 208.94 363.214 208.94 364.721ZM217.473 364.721C217.473 367.176 215.333 368.781 212.246 368.781C209.159 368.781 207.044 367.176 207.044 364.721C207.044 362.29 209.159 360.685 212.246 360.685C215.333 360.685 217.473 362.29 217.473 364.721ZM211.103 370.264V374.882H223.647V376.511H209.11V370.264H211.103ZM222.675 362.387H225.884V364.065H222.675V371.552H220.682V355.191H222.675V362.387Z" fill="#6B6B6B"/>
<path d="M190.223 367.419V372.549H196.3V367.419C195.376 367.638 194.331 367.76 193.237 367.76C192.167 367.76 191.122 367.638 190.223 367.419ZM193.237 358.133C189.736 358.133 187.232 359.737 187.232 362.168C187.232 364.599 189.736 366.204 193.237 366.204C196.738 366.204 199.266 364.599 199.266 362.168C199.266 359.737 196.738 358.133 193.237 358.133ZM198.293 372.549H203.18V374.202H183.367V372.549H188.229V366.666C186.406 365.718 185.312 364.138 185.312 362.168C185.312 358.765 188.618 356.577 193.237 356.577C197.88 356.577 201.162 358.765 201.162 362.168C201.162 364.138 200.092 365.693 198.293 366.641V372.549Z" fill="#6B6B6B"/>
<path d="M178.945 355.191V366.52H176.952V355.191H178.945ZM166.085 358.23V364.04C167.252 364.016 168.444 363.967 169.635 363.894V358.23H166.085ZM174.764 363.481L174.861 364.94C170.534 365.596 165.453 365.742 161.612 365.766L161.418 364.113C162.269 364.113 163.193 364.113 164.141 364.089V358.23H162.001V356.65H173.694V358.23H171.555V363.773C172.649 363.7 173.719 363.578 174.764 363.481ZM166.742 375.174H179.772V376.754H164.773V371.309H176.976V369.121H164.7V367.565H178.945V372.792H166.742V375.174Z" fill="#6B6B6B"/>
<path d="M144.812 364.113V355.775H146.708V375.903H144.812V365.718H140.339C139.026 368.246 136.935 370.507 133.921 372.306L132.754 370.871C137.421 368.076 139.755 364.162 140.12 359.592H133.678V357.963H142.089C142.089 360.102 141.773 362.168 141.044 364.113H144.812ZM149.358 355.191H151.254V376.997H149.358V355.191Z" fill="#6B6B6B"/>
<path d="M115.301 370.361C117.003 370.361 118.121 368.149 118.121 364.575C118.121 361.074 117.003 358.862 115.301 358.862C113.551 358.862 112.457 361.074 112.457 364.575C112.457 368.149 113.551 370.361 115.301 370.361ZM122.667 363.676V355.678H124.563V375.928H122.667V365.304H119.92C119.75 369.583 117.975 372.208 115.301 372.208C112.457 372.208 110.634 369.291 110.634 364.575C110.634 359.932 112.457 357.015 115.301 357.015C117.927 357.015 119.677 359.567 119.92 363.676H122.667ZM126.994 355.191H128.891V376.997H126.994V355.191Z" fill="#6B6B6B"/>
<path d="M103.27 363.871V360.662H92.4525V363.871H103.27ZM105.264 356.067V365.5H90.4834V356.067H92.4525V359.058H103.27V356.067H105.264ZM107.768 368.125V369.73H98.8217V377.023H96.8283V369.73H87.9795V368.125H107.768Z" fill="#6B6B6B"/>
<path d="M75.5096 375.416C78.913 375.416 80.9307 374.517 80.9307 373.01C80.9307 371.454 78.913 370.579 75.5096 370.579C72.0576 370.579 70.0398 371.454 70.0398 373.01C70.0398 374.517 72.0576 375.416 75.5096 375.416ZM75.5096 369.023C80.1285 369.023 82.9484 370.457 82.9484 373.01C82.9484 375.538 80.1285 376.972 75.5096 376.972C70.8421 376.972 68.0221 375.538 68.0221 373.01C68.0221 370.457 70.8421 369.023 75.5096 369.023ZM76.5306 365.765H85.3794V367.37H65.6641V365.765H74.5129V362.872H68.3138V355.652H70.3073V361.268H83.1186V362.872H76.5306V365.765Z" fill="#6B6B6B"/>
<path d="M688.59 424.035C686.505 423.805 681.552 424.01 678.86 424.148C677.828 424.2 677.01 425.035 676.967 426.065L676.66 433.408L684.382 436.8C684.659 436.921 684.96 436.978 685.264 436.966L694.644 436.595L698.636 436.291C700.233 436.167 701.979 435.902 699.72 433.052C697.383 430.102 691.525 424.358 688.59 424.035Z" fill="#FBC0AE"/>
</g>
<defs>
<filter id="filter0_f_913_1740" x="662.894" y="324.677" width="13.9922" height="10.9961" filterUnits="userSpaceOnUse" color-interpolation-filters="sRGB">
<feFlood flood-opacity="0" result="BackgroundImageFix"/>
<feBlend mode="normal" in="SourceGraphic" in2="BackgroundImageFix" result="shape"/>
<feGaussianBlur stdDeviation="2" result="effect1_foregroundBlur_913_1740"/>
</filter>
<filter id="filter1_f_913_1740" x="683.118" y="324.677" width="13.2432" height="10.9961" filterUnits="userSpaceOnUse" color-interpolation-filters="sRGB">
<feFlood flood-opacity="0" result="BackgroundImageFix"/>
<feBlend mode="normal" in="SourceGraphic" in2="BackgroundImageFix" result="shape"/>
<feGaussianBlur stdDeviation="2" result="effect1_foregroundBlur_913_1740"/>
</filter>
<filter id="filter2_f_913_1740" x="1322.69" y="295.191" width="14.416" height="11.208" filterUnits="userSpaceOnUse" color-interpolation-filters="sRGB">
<feFlood flood-opacity="0" result="BackgroundImageFix"/>
<feBlend mode="normal" in="SourceGraphic" in2="BackgroundImageFix" result="shape"/>
<feGaussianBlur stdDeviation="2" result="effect1_foregroundBlur_913_1740"/>
</filter>
<filter id="filter3_f_913_1740" x="1303.71" y="295.191" width="13.6152" height="11.208" filterUnits="userSpaceOnUse" color-interpolation-filters="sRGB">
<feFlood flood-opacity="0" result="BackgroundImageFix"/>
<feBlend mode="normal" in="SourceGraphic" in2="BackgroundImageFix" result="shape"/>
<feGaussianBlur stdDeviation="2" result="effect1_foregroundBlur_913_1740"/>
</filter>
<clipPath id="clip0_913_1740">
<rect width="1854.68" height="365.819" fill="white" transform="translate(65.3203 93.1914)"/>
</clipPath>
</defs>
</svg>
