<svg width="1218" height="392" viewBox="0 0 1218 392" fill="none" xmlns="http://www.w3.org/2000/svg">
<rect width="1266" height="459" rx="30" fill="#ECFFF0"/>
<path d="M0 241.662V30C0 13.4315 13.4315 0 30 0H414.387C315.511 188.5 135.502 230 0 241.662Z" fill="#45F697"/>
<rect x="37.6602" y="216" width="394.651" height="36" fill="#45FF9B"/>
<path d="M410.388 233.257H373.473V178.402C373.473 176.713 373.849 175.483 374.602 174.711C375.355 173.939 376.555 173.553 378.202 173.553H408.129V183.251H385.19V223.56H410.388V233.257ZM424.999 239.191H413.282V173.191H424.999V195.915H432.622V206.336H424.999V239.191Z" fill="#282828"/>
<path d="M363.776 239.191H352.186V173.191H363.776V239.191ZM348.626 233.257H311.414V173.553H323.003V223.56H348.626V233.257Z" fill="#282828"/>
<path d="M300.747 232.172C300.747 234.729 300.231 236.538 299.198 237.599C298.166 238.661 296.405 239.191 293.918 239.191H250.264V209.665H261.952V214.586H289.059V209.665H300.747V232.172ZM284.835 207.06H273.147L268.148 184.843C268.007 184.167 267.819 183.685 267.585 183.395C267.397 183.106 267.092 182.961 266.669 182.961H264.909C264.44 182.961 264.111 183.154 263.924 183.54C263.736 183.878 263.572 184.312 263.431 184.843L257.164 207.06H245.477L252.306 182.961H245.969V173.553H286.243V182.961H279.273L284.835 207.06ZM300.747 207.06H289.059V173.191H300.747V207.06ZM289.059 229.639V223.994H261.952V229.639H289.059Z" fill="#282828"/>
<path d="M219.297 239.191H207.591V206.603H200.397V219.726C200.397 222.253 199.974 224.513 199.128 226.506C198.282 228.499 197.083 230.175 195.532 231.536C193.98 232.946 192.1 234.015 189.89 234.744C187.727 235.522 185.33 235.911 182.697 235.911C180.064 235.911 177.643 235.522 175.433 234.744C173.271 234.015 171.413 232.946 169.862 231.536C168.311 230.175 167.112 228.499 166.265 226.506C165.419 224.513 164.996 222.253 164.996 219.726V188.376C164.996 185.849 165.419 183.589 166.265 181.596C167.112 179.603 168.311 177.927 169.862 176.566C171.413 175.156 173.271 174.087 175.433 173.358C177.643 172.58 180.064 172.191 182.697 172.191C185.33 172.191 187.727 172.58 189.89 173.358C192.1 174.087 193.98 175.156 195.532 176.566C197.083 177.927 198.282 179.603 199.128 181.596C199.974 183.589 200.397 185.849 200.397 188.376V196.104H207.591V172.702H219.297V239.191ZM176.703 217.611C176.703 223.298 178.701 226.141 182.697 226.141C186.693 226.141 188.691 223.298 188.691 217.611V190.491C188.691 184.804 186.693 181.961 182.697 181.961C178.701 181.961 176.703 184.804 176.703 190.491V217.611Z" fill="#282828"/>
<path d="M155.558 194.661H103.715V178.035C103.715 176.348 104.087 175.119 104.829 174.348C105.571 173.577 106.754 173.191 108.378 173.191H155.141V182.155H115.267V185.697H155.558V194.661ZM159.177 206.806H100.027V197.842H159.177V206.806ZM156.532 239.191H103.368V220.83H144.285V218.228H103.228V210.059H155.836V222.854C155.836 225.023 155.488 226.469 154.793 227.191C154.097 227.914 152.705 228.276 150.617 228.276H114.919V230.878H156.532V239.191Z" fill="#282828"/>
<path d="M92.2706 232.184C92.2706 234.737 91.7582 236.543 90.7334 237.602C89.7085 238.662 87.9617 239.191 85.4928 239.191H42.1707V218.892C42.1707 216.725 42.5201 215.28 43.2188 214.558C43.9176 213.835 45.315 213.474 47.4113 213.474H92.2706V232.184ZM74.6623 195.631C74.6623 198.183 74.2197 200.423 73.3346 202.349C72.4962 204.228 71.285 205.793 69.7012 207.045C68.1639 208.249 66.3006 209.164 64.1112 209.79C61.9684 210.368 59.5927 210.657 56.9841 210.657C54.3754 210.657 51.9764 210.368 49.787 209.79C47.6442 209.164 45.7809 208.249 44.1971 207.045C42.6598 205.793 41.4487 204.228 40.5636 202.349C39.7251 200.423 39.3059 198.183 39.3059 195.631V191.73C39.3059 190.574 39.5155 189.346 39.9347 188.046C40.354 186.697 40.8431 185.638 41.4021 184.867H37V175.765H51.1845V169.191H62.7836V175.765H76.9681V184.867H72.566C73.0784 185.638 73.5443 186.697 73.9635 188.046C74.4293 189.346 74.6623 190.574 74.6623 191.73V195.631ZM92.2706 210.874H80.6715V173.309H92.2706V210.874ZM80.6715 229.8V222.865H53.7698V229.8H80.6715ZM63.0631 192.019C63.0631 189.033 62.574 186.986 61.5958 185.879C60.6641 184.723 59.1269 184.145 56.9841 184.145C54.8412 184.145 53.2807 184.723 52.3025 185.879C51.3708 186.986 50.905 189.033 50.905 192.019V193.681C50.905 196.666 51.3708 198.737 52.3025 199.893C53.2807 201.001 54.8412 201.555 56.9841 201.555C59.1269 201.555 60.6641 201.001 61.5958 199.893C62.574 198.737 63.0631 196.666 63.0631 193.681V192.019Z" fill="#282828"/>
<path d="M418.494 153.725H392.109V113.519C392.109 112.282 392.384 111.38 392.932 110.814C393.481 110.248 394.355 109.965 395.555 109.965H416.849V117.073H400.647V146.618H418.494V153.725ZM430.684 158.075H422.146V134.259H410.214V126.833H422.146V109.7H430.684V158.075Z" fill="#282828"/>
<path d="M348.748 154.574H340.005L345.971 118.293C346.039 117.798 346.005 117.48 345.868 117.338C345.731 117.161 345.422 117.073 344.942 117.073H330.078V109.965H353.326C354.183 109.965 354.783 110.195 355.126 110.655C355.469 111.079 355.572 111.698 355.435 112.511L348.748 154.574ZM368.653 158.075H360.115V109.7H368.653V126.355H374.208V133.994H368.653V158.075Z" fill="#282828"/>
<path d="M309.75 154.574H301.212V117.073H299.361C298.504 117.073 297.869 117.374 297.458 117.975C297.046 118.541 296.755 119.336 296.583 120.362L291.132 154.574H282.594L288.148 120.15C288.423 118.488 288.783 117.02 289.229 115.747C289.674 114.474 290.274 113.413 291.029 112.564C291.783 111.716 292.726 111.079 293.858 110.655C294.989 110.195 296.378 109.965 298.024 109.965H309.75V154.574ZM322.043 158.075H313.505V109.7H322.043V126.355H327.598V133.994H322.043V158.075Z" fill="#282828"/>
<path d="M280.058 137.972H236.34V131.076H253.673V128H239.066V109.541H247.604V121.21H277.64V128H262.725V131.076H280.058V137.972ZM268.228 140.199C269.737 140.199 271.108 140.412 272.343 140.836C273.612 141.225 274.692 141.808 275.583 142.586C276.509 143.364 277.229 144.319 277.743 145.451C278.258 146.547 278.515 147.802 278.515 149.217C278.515 150.631 278.258 151.886 277.743 152.983C277.229 154.114 276.509 155.069 275.583 155.847C274.692 156.625 273.612 157.208 272.343 157.597C271.108 158.022 269.737 158.234 268.228 158.234H248.169C246.661 158.234 245.272 158.022 244.003 157.597C242.769 157.208 241.689 156.625 240.763 155.847C239.872 155.069 239.169 154.114 238.654 152.983C238.14 151.886 237.883 150.631 237.883 149.217C237.883 147.802 238.14 146.547 238.654 145.451C239.169 144.319 239.872 143.364 240.763 142.586C241.689 141.808 242.769 141.225 244.003 140.836C245.272 140.412 246.661 140.199 248.169 140.199H268.228ZM266.84 151.338C268.931 151.338 269.977 150.631 269.977 149.217C269.977 147.802 268.931 147.095 266.84 147.095H249.558C247.466 147.095 246.421 147.802 246.421 149.217C246.421 150.631 247.466 151.338 249.558 151.338H266.84Z" fill="#282828"/>
<path d="M217.415 138.343H179.097V113.784C179.097 112.547 179.371 111.645 179.92 111.079C180.469 110.513 181.343 110.23 182.543 110.23H217.106V117.126H187.635V131.447H217.415V138.343ZM220.089 154.892H176.371V147.997H193.704V140.465H202.756V147.997H220.089V154.892Z" fill="#282828"/>
<path d="M170.908 144.549H162.37V127.363H149.409V121.157H162.37V118.452H149.409V112.246H162.37V109.7H170.908V144.549ZM171.217 157.969H134.031V139.934H142.568V150.543H171.217V157.969ZM158.204 137.441H131.305V109.965H139.843V130.334H158.204V137.441Z" fill="#282828"/>
<path d="M124.295 145.079H115.757V126.992H110.459V131.554C110.459 133.852 110.014 135.461 109.122 136.38C108.231 137.3 106.67 137.76 104.442 137.76H84.6914V109.806H93.2293V117.073H101.921V109.806H110.459V119.566H115.757V109.7H124.295V145.079ZM124.603 157.969H87.4173V140.465H95.9552V150.543H124.603V157.969ZM101.921 130.917V123.916H93.2293V130.917H101.921Z" fill="#282828"/>
<path d="M77.6814 158.075H69.1436V109.7H77.6814V158.075ZM64.9261 143.913C64.9261 145.751 64.6003 147.396 63.9489 148.846C63.2974 150.295 62.3716 151.515 61.1715 152.505C60.0057 153.531 58.5998 154.309 56.954 154.839C55.3081 155.405 53.4908 155.688 51.5021 155.688C49.5134 155.688 47.6961 155.405 46.0502 154.839C44.4044 154.309 42.9814 153.531 41.7813 152.505C40.6155 151.515 39.7068 150.295 39.0554 148.846C38.4039 147.396 38.0781 145.751 38.0781 143.913V121.104C38.0781 119.266 38.4039 117.621 39.0554 116.172C39.7068 114.722 40.6155 113.502 41.7813 112.512C42.9814 111.486 44.4044 110.708 46.0502 110.178C47.6961 109.612 49.5134 109.329 51.5021 109.329C53.4908 109.329 55.3081 109.612 56.954 110.178C58.5998 110.708 60.0057 111.486 61.1715 112.512C62.3716 113.502 63.2974 114.722 63.9489 116.172C64.6003 117.621 64.9261 119.266 64.9261 121.104V143.913ZM46.616 142.374C46.616 144.425 47.0274 145.981 47.8504 147.042C48.7076 148.068 49.9248 148.58 51.5021 148.58C53.0794 148.58 54.2795 148.068 55.1024 147.042C55.9596 145.981 56.3882 144.425 56.3882 142.374V122.643C56.3882 120.592 55.9596 119.054 55.1024 118.028C54.2795 116.967 53.0794 116.437 51.5021 116.437C49.9248 116.437 48.7076 116.967 47.8504 118.028C47.0274 119.054 46.616 120.592 46.616 122.643V142.374Z" fill="#282828"/>
<path d="M323.588 83.2072H318.444V69.3101H310.267V70.8483C310.267 72.2274 309.958 73.2352 309.341 73.8717C308.724 74.5083 307.746 74.8265 306.409 74.8265H285.219V51.2758C285.219 50.1442 285.459 49.3309 285.939 48.8358C286.419 48.3408 287.207 48.0932 288.305 48.0932H310.267V52.7079H318.444V47.5098H323.588V83.2072ZM305.123 70.0527V52.867H290.362V70.0527H305.123ZM323.896 95.4599H287.945V78.5925H293.088V90.6861H323.896V95.4599ZM318.444 64.4302V57.5878H310.267V64.4302H318.444Z" fill="#282828"/>
<path d="M276.975 95.4599H271.832V47.5098H276.975V95.4599ZM264.683 91.6409H259.539V52.867H254.499C253.402 52.867 252.63 53.0969 252.184 53.5566C251.739 53.9809 251.413 54.6174 251.207 55.4661L242.464 91.6409H237.012L245.807 55.0418C246.047 54.0163 246.321 53.0792 246.63 52.2305C246.973 51.3818 247.401 50.6569 247.915 50.0558C248.464 49.4193 249.133 48.9419 249.921 48.6237C250.71 48.27 251.704 48.0932 252.904 48.0932H264.683V91.6409Z" fill="#282828"/>
<path d="M230.004 71.9617C230.004 73.3408 229.695 74.3486 229.078 74.9851C228.461 75.6216 227.484 75.9398 226.146 75.9398H193.178V47.7744H198.321V56.8446H224.86V47.7744H230.004V71.9617ZM224.86 71.166V61.6184H198.321V71.166H224.86ZM233.244 92.2768H189.938V87.503H209.019V79.1224H214.162V87.503H233.244V92.2768Z" fill="#282828"/>
<path d="M170.689 63.6875C170.689 65.491 170.363 67.1176 169.712 68.5674C169.095 69.9819 168.203 71.2018 167.037 72.2273C165.906 73.2175 164.517 73.9954 162.871 74.5612C161.26 75.0916 159.477 75.3568 157.522 75.3568C155.568 75.3568 153.768 75.0916 152.122 74.5612C150.51 73.9954 149.122 73.2175 147.956 72.2273C146.824 71.2018 145.933 69.9819 145.281 68.5674C144.664 67.1176 144.355 65.491 144.355 63.6875V58.8607C144.355 57.0573 144.664 55.4483 145.281 54.0339C145.933 52.584 146.824 51.3641 147.956 50.3739C149.122 49.3485 150.51 48.5705 152.122 48.0401C153.768 47.4743 155.568 47.1914 157.522 47.1914C159.477 47.1914 161.26 47.4743 162.871 48.0401C164.517 48.5705 165.906 49.3485 167.037 50.3739C168.203 51.3641 169.095 52.584 169.712 54.0339C170.363 55.4483 170.689 57.0573 170.689 58.8607V63.6875ZM165.546 59.1259C165.546 56.8628 164.809 55.1124 163.334 53.8747C161.86 52.6017 159.922 51.9652 157.522 51.9652C155.122 51.9652 153.185 52.6017 151.71 53.8747C150.236 55.1124 149.499 56.8628 149.499 59.1259V63.4223C149.499 65.6855 150.236 67.4535 151.71 68.7265C153.185 69.9642 155.122 70.583 157.522 70.583C159.922 70.583 161.86 69.9642 163.334 68.7265C164.809 67.4535 165.546 65.6855 165.546 63.4223V59.1259ZM182.004 95.4598H146.567V78.5924H151.71V90.686H182.004V95.4598ZM181.696 83.2071H176.552V47.5097H181.696V59.6033H187.765V64.4832H181.696V83.2071Z" fill="#282828"/>
<path d="M102.845 91.6409H97.7013L103.668 54.087C103.736 53.5919 103.702 53.2737 103.565 53.1322C103.428 52.9554 103.119 52.867 102.639 52.867H84.8945V48.0932H107.422C108.279 48.0932 108.879 48.3231 109.222 48.7828C109.565 49.2071 109.668 49.8259 109.531 50.6393L102.845 91.6409ZM123.263 95.4599H118.12V70.5831H109.582V65.7032H118.12V47.5098H123.263V95.4599Z" fill="#282828"/>
<path d="M77.1697 95.4602H72.0264V47.5101H77.1697V95.4602ZM65.6487 80.7145C65.6487 82.5533 65.323 84.1976 64.6715 85.6474C64.0543 87.0972 63.1628 88.3172 61.997 89.3073C60.8312 90.3328 59.4254 91.1108 57.7795 91.6412C56.1337 92.207 54.2821 92.4899 52.2248 92.4899C50.1674 92.4899 48.3159 92.207 46.67 91.6412C45.0242 91.1108 43.6183 90.3328 42.4525 89.3073C41.2867 88.3172 40.3781 87.0972 39.7266 85.6474C39.1094 84.1976 38.8008 82.5533 38.8008 80.7145V59.2324C38.8008 57.3936 39.1094 55.7493 39.7266 54.2995C40.3781 52.8497 41.2867 51.6297 42.4525 50.6396C43.6183 49.6141 45.0242 48.8361 46.67 48.3057C48.3159 47.7399 50.1674 47.457 52.2248 47.457C54.2821 47.457 56.1337 47.7399 57.7795 48.3057C59.4254 48.8361 60.8312 49.6141 61.997 50.6396C63.1628 51.6297 64.0543 52.8497 64.6715 54.2995C65.323 55.7493 65.6487 57.3936 65.6487 59.2324V80.7145ZM43.9441 79.1763C43.9441 81.9345 44.5613 84.0562 45.7957 85.5413C47.03 86.9912 49.1731 87.7161 52.2248 87.7161C55.2764 87.7161 57.4195 86.9912 58.6539 85.5413C59.8883 84.0562 60.5055 81.9345 60.5055 79.1763V60.7706C60.5055 58.0124 59.8883 55.9084 58.6539 54.4586C57.4195 52.9734 55.2764 52.2308 52.2248 52.2308C49.1731 52.2308 47.03 52.9734 45.7957 54.4586C44.5613 55.9084 43.9441 58.0124 43.9441 60.7706V79.1763Z" fill="#282828"/>
<path d="M311.863 306.889V317.853C315.611 317.853 318.321 317.683 321.386 317.124L321.598 318.777C318.369 319.409 315.587 319.555 311.603 319.555H309.93V305.236H319.759V306.889H311.863ZM328.788 311.751V313.404H325.299V325H323.366V303.146H325.299V311.751H328.788Z" fill="#6B6B6B"/>
<path d="M290.605 305.26V317.61C293.787 317.61 297.064 317.318 300.576 316.589L300.788 318.291C297.111 319.069 293.787 319.312 290.416 319.312H288.672V305.26H290.605ZM302.745 303.146H304.678V324.927H302.745V303.146Z" fill="#6B6B6B"/>
<path d="M278.513 312.358L278.725 313.963C275.26 314.546 272.384 314.668 268.471 314.668H266.774V308.566H274.411V305.819H266.703V304.214H276.321V310.097H268.66V313.039C272.408 313.039 275.166 312.917 278.513 312.358ZM281.106 323.03V320.356H271.229V323.03H281.106ZM281.106 318.8V316.223H283.015V324.659H269.32V316.223H271.229V318.8H281.106ZM281.082 303.169H283.015V315.129H281.082V303.169Z" fill="#6B6B6B"/>
<path d="M260.933 313.6V315.228H246.412V305.14H260.721V306.793H248.322V313.6H260.933ZM243.961 320.358H263.149V322.011H243.961V320.358Z" fill="#6B6B6B"/>
<path d="M224.984 312.918V318.242C228.095 318.242 230.688 318.096 233.847 317.585L234.012 319.239C230.688 319.773 227.978 319.895 224.677 319.895H223.074V311.289H230.358V306.719H223.027V305.115H232.268V312.918H224.984ZM237.76 303.121H239.693V324.976H237.76V315.714H233.446V314.085H237.76V309.733H233.588V308.105H237.76V303.121Z" fill="#6B6B6B"/>
<path d="M202.898 308.761C202.898 310.682 204.406 312.019 206.457 312.019C208.531 312.019 210.04 310.682 210.04 308.761C210.04 306.889 208.531 305.528 206.457 305.528C204.406 305.528 202.898 306.889 202.898 308.761ZM211.926 308.761C211.926 311.654 209.639 313.647 206.457 313.647C203.298 313.647 201.012 311.654 201.012 308.761C201.012 305.917 203.298 303.923 206.457 303.923C209.639 303.923 211.926 305.917 211.926 308.761ZM205.538 320.624V323.055H217.795V324.66H203.652V319.141H215.108V316.856H203.581V315.276H217.017V320.624H205.538ZM217.017 307.837H220.152V309.49H217.017V314.255H215.084V303.146H217.017V307.837Z" fill="#6B6B6B"/>
<path d="M187.975 306.961V305.186H175.576V303.776H189.885V308.322H177.533V310.194H190.262V311.628H175.623V306.961H187.975ZM177.415 321.207V323.224H190.615V324.659H175.506V319.821H188.046V317.998H175.458V316.563H189.955V321.207H177.415ZM173.172 313.282H192.336V314.789H173.172V313.282Z" fill="#6B6B6B"/>
<path d="M155.657 310.22V314.231H166.453V310.22H155.657ZM162.021 320.527H170.649V322.156H151.484V320.527H160.065V315.835H153.747V304.701H155.657V308.591H166.453V304.701H168.339V315.835H162.021V320.527Z" fill="#6B6B6B"/>
<path d="M141.095 308.809H145.268V303.169H147.224V316.15H145.268V310.438H141.095V308.809ZM142.274 313.768L141.308 315.324C138.95 314.449 137.135 312.65 136.216 310.413C135.32 312.942 133.364 314.984 130.889 315.956L129.875 314.376C133.034 313.185 135.202 310.243 135.202 307.107V306.354H130.488V304.749H141.779V306.354H137.135V307.107C137.135 309.903 139.21 312.65 142.274 313.768ZM140.247 323.395C143.429 323.395 145.362 322.471 145.362 320.891C145.362 319.311 143.429 318.363 140.247 318.363C137.065 318.363 135.132 319.311 135.132 320.891C135.132 322.471 137.065 323.395 140.247 323.395ZM140.247 316.831C144.584 316.831 147.295 318.314 147.295 320.891C147.295 323.468 144.584 324.951 140.247 324.951C135.91 324.951 133.199 323.468 133.199 320.891C133.199 318.314 135.91 316.831 140.247 316.831Z" fill="#6B6B6B"/>
<path d="M117.848 323.054V320.235H108.16V323.054H117.848ZM117.848 318.679V315.907H119.781V324.659H106.251V315.907H108.16V318.679H117.848ZM108.137 312.601C110.235 312.601 111.743 311.191 111.743 309.198C111.743 307.204 110.235 305.819 108.137 305.819C106.039 305.819 104.53 307.204 104.53 309.198C104.53 311.191 106.039 312.601 108.137 312.601ZM117.825 303.169H119.781V314.862H117.825V309.976H113.535C113.158 312.553 111.036 314.254 108.137 314.254C104.978 314.254 102.691 312.212 102.691 309.198C102.691 306.208 104.978 304.166 108.137 304.166C110.989 304.166 113.11 305.819 113.511 308.347H117.825V303.169Z" fill="#6B6B6B"/>
<path d="M87.7764 305.041V308.955C87.7764 312.796 90.1808 316.758 93.1509 318.29L91.9488 319.87C89.7094 318.63 87.8 316.078 86.8336 313.087C85.9142 316.272 83.9577 318.995 81.5769 320.307L80.4219 318.703C83.4627 317.099 85.8671 312.917 85.8671 308.955V305.041H87.7764ZM100.435 311.993V313.647H96.9461V324.951H95.0132V303.169H96.9461V311.993H100.435Z" fill="#6B6B6B"/>
<path d="M70.0719 316.03H74.362V303.146H76.295V319.749H74.362V317.513H70.0719V316.03ZM65.7581 305.504C63.7545 305.504 62.3873 306.427 62.3873 307.813C62.3873 309.223 63.7545 310.147 65.7581 310.147C67.7618 310.147 69.129 309.223 69.129 307.813C69.129 306.427 67.7618 305.504 65.7581 305.504ZM65.7581 311.63C62.6701 311.63 60.5486 310.147 60.5486 307.813C60.5486 305.528 62.6701 304.021 65.7581 304.021C68.8461 304.021 70.9676 305.528 70.9676 307.813C70.9676 310.147 68.8461 311.63 65.7581 311.63ZM65.0038 318.971V314.766C62.9059 314.863 60.8786 314.887 59.1343 314.887L58.875 313.234C62.788 313.234 68.0211 313.186 72.4998 312.602L72.6648 314.036C70.8026 314.328 68.8461 314.547 66.9367 314.668V318.971H65.0038ZM63.8252 322.837H76.8371V324.465H61.8923V318.12H63.8252V322.837Z" fill="#6B6B6B"/>
<path d="M44.8517 307.034V309.806C44.8517 313.501 47.3976 317.269 50.5091 318.63L49.4248 320.235C46.9733 319.068 44.8989 316.564 43.8853 313.574C42.9188 316.758 40.8444 319.505 38.4401 320.769L37.3086 319.165C40.3494 317.682 42.9188 313.574 42.9188 309.806V307.034H38.0158V305.381H49.8255V307.034H44.8517ZM52.6778 303.169H54.6107V324.951H52.6778V303.169Z" fill="#6B6B6B"/>
<path d="M290.414 287.646C290.288 288.214 290.116 288.829 289.895 289.494C289.691 290.158 289.463 290.815 289.212 291.463C288.976 292.127 288.74 292.751 288.505 293.335H286.996C287.138 292.719 287.279 292.055 287.42 291.341C287.562 290.645 287.695 289.956 287.821 289.275C287.947 288.578 288.041 287.946 288.104 287.379H290.249L290.414 287.646Z" fill="#6B6B6B"/>
<path d="M269.84 277.264V281.276H280.636V277.264H269.84ZM276.205 287.572H284.832V289.201H265.668V287.572H274.248V282.88H267.931V271.746H269.84V275.636H280.636V271.746H282.522V282.88H276.205V287.572Z" fill="#6B6B6B"/>
<path d="M255.271 275.855H259.444V270.215H261.4V283.196H259.444V277.484H255.271V275.855ZM256.45 280.814L255.483 282.37C253.126 281.495 251.311 279.696 250.392 277.459C249.496 279.987 247.539 282.029 245.064 283.002L244.051 281.422C247.209 280.231 249.378 277.289 249.378 274.153V273.399H244.664V271.795H255.955V273.399H251.311V274.153C251.311 276.949 253.385 279.696 256.45 280.814ZM254.423 290.441C257.605 290.441 259.538 289.517 259.538 287.937C259.538 286.357 257.605 285.409 254.423 285.409C251.24 285.409 249.307 286.357 249.307 287.937C249.307 289.517 251.24 290.441 254.423 290.441ZM254.423 283.877C258.76 283.877 261.471 285.36 261.471 287.937C261.471 290.514 258.76 291.997 254.423 291.997C250.085 291.997 247.374 290.514 247.374 287.937C247.374 285.36 250.085 283.877 254.423 283.877Z" fill="#6B6B6B"/>
<path d="M237.786 290.1V287.28H228.098V290.1H237.786ZM237.786 285.725V282.953H239.719V291.705H226.188V282.953H228.098V285.725H237.786ZM228.074 279.647C230.172 279.647 231.681 278.237 231.681 276.244C231.681 274.25 230.172 272.865 228.074 272.865C225.976 272.865 224.468 274.25 224.468 276.244C224.468 278.237 225.976 279.647 228.074 279.647ZM237.762 270.215H239.719V281.908H237.762V277.022H233.472C233.095 279.598 230.974 281.3 228.074 281.3C224.915 281.3 222.629 279.258 222.629 276.244C222.629 273.254 224.915 271.212 228.074 271.212C230.926 271.212 233.048 272.865 233.449 275.393H237.762V270.215Z" fill="#6B6B6B"/>
<path d="M210.184 290.416C213.484 290.416 215.44 289.517 215.44 288.01C215.44 286.454 213.484 285.579 210.184 285.579C206.836 285.579 204.88 286.454 204.88 288.01C204.88 289.517 206.836 290.416 210.184 290.416ZM210.184 284.023C214.662 284.023 217.397 285.457 217.397 288.01C217.397 290.538 214.662 291.972 210.184 291.972C205.658 291.972 202.923 290.538 202.923 288.01C202.923 285.457 205.658 284.023 210.184 284.023ZM211.174 280.765H219.754V282.37H200.637V280.765H209.217V277.872H203.206V270.652H205.139V276.268H217.562V277.872H211.174V280.765Z" fill="#6B6B6B"/>
<path d="M185.712 272.865V274.47H173.242V272.865H178.499V270.191H180.432V272.865H185.712ZM176.259 279.721C176.259 281.252 177.556 282.225 179.465 282.225C181.375 282.225 182.695 281.252 182.695 279.721C182.695 278.214 181.375 277.241 179.465 277.241C177.556 277.241 176.259 278.214 176.259 279.721ZM184.533 279.721C184.533 282.176 182.459 283.781 179.465 283.781C176.472 283.781 174.421 282.176 174.421 279.721C174.421 277.29 176.472 275.685 179.465 275.685C182.459 275.685 184.533 277.29 184.533 279.721ZM178.357 285.264V289.882H190.521V291.511H176.424V285.264H178.357ZM189.578 277.387H192.689V279.065H189.578V286.552H187.645V270.191H189.578V277.387Z" fill="#6B6B6B"/>
<path d="M158.112 282.419V287.549H164.005V282.419C163.11 282.638 162.096 282.76 161.035 282.76C159.998 282.76 158.984 282.638 158.112 282.419ZM161.035 273.133C157.641 273.133 155.213 274.737 155.213 277.168C155.213 279.599 157.641 281.204 161.035 281.204C164.43 281.204 166.881 279.599 166.881 277.168C166.881 274.737 164.43 273.133 161.035 273.133ZM165.938 287.549H170.676V289.202H151.465V287.549H156.179V281.666C154.411 280.718 153.351 279.138 153.351 277.168C153.351 273.765 156.556 271.577 161.035 271.577C165.538 271.577 168.72 273.765 168.72 277.168C168.72 279.138 167.683 280.693 165.938 281.641V287.549Z" fill="#6B6B6B"/>
<path d="M147.175 270.191V281.52H145.242V270.191H147.175ZM134.706 273.23V279.04C135.837 279.016 136.992 278.967 138.147 278.894V273.23H134.706ZM143.121 278.481L143.215 279.94C139.019 280.596 134.093 280.742 130.368 280.766L130.18 279.113C131.005 279.113 131.9 279.113 132.82 279.089V273.23H130.745V271.65H142.084V273.23H140.009V278.773C141.07 278.7 142.107 278.578 143.121 278.481ZM135.342 290.174H147.977V291.754H133.433V286.309H145.266V284.121H133.362V282.565H147.175V287.792H135.342V290.174Z" fill="#6B6B6B"/>
<path d="M114.079 279.113V270.775H115.917V290.903H114.079V280.718H109.741C108.468 283.246 106.441 285.507 103.518 287.306L102.387 285.871C106.913 283.076 109.176 279.162 109.529 274.592H103.282V272.963H111.439C111.439 275.102 111.132 277.168 110.425 279.113H114.079ZM118.487 270.191H120.325V291.997H118.487V270.191Z" fill="#6B6B6B"/>
<path d="M85.4634 285.361C87.1135 285.361 88.1978 283.149 88.1978 279.575C88.1978 276.074 87.1135 273.862 85.4634 273.862C83.7662 273.862 82.7054 276.074 82.7054 279.575C82.7054 283.149 83.7662 285.361 85.4634 285.361ZM92.6058 278.676V270.678H94.4445V290.928H92.6058V280.304H89.9421C89.7771 284.583 88.0564 287.208 85.4634 287.208C82.7054 287.208 80.9375 284.291 80.9375 279.575C80.9375 274.932 82.7054 272.015 85.4634 272.015C88.0092 272.015 89.7064 274.567 89.9421 278.676H92.6058ZM96.8017 270.191H98.6403V291.997H96.8017V270.191Z" fill="#6B6B6B"/>
<path d="M73.7958 278.871V275.662H63.3061V278.871H73.7958ZM75.7287 271.067V280.5H61.3967V271.067H63.3061V274.058H73.7958V271.067H75.7287ZM78.1566 283.125V284.73H69.482V292.023H67.5491V284.73H58.9688V283.125H78.1566Z" fill="#6B6B6B"/>
<path d="M46.8788 290.416C50.179 290.416 52.1355 289.517 52.1355 288.01C52.1355 286.454 50.179 285.579 46.8788 285.579C43.5316 285.579 41.5751 286.454 41.5751 288.01C41.5751 289.517 43.5316 290.416 46.8788 290.416ZM46.8788 284.023C51.3576 284.023 54.092 285.457 54.092 288.01C54.092 290.538 51.3576 291.972 46.8788 291.972C42.3529 291.972 39.6185 290.538 39.6185 288.01C39.6185 285.457 42.3529 284.023 46.8788 284.023ZM47.8689 280.765H56.4492V282.37H37.332V280.765H45.9124V277.872H39.9014V270.652H41.8343V276.268H54.257V277.872H47.8689V280.765Z" fill="#6B6B6B"/>
<path d="M516.887 293.635C524.471 281.386 450.636 281.564 450.636 293.635C448.692 338.353 456.754 375.517 456.754 386.343C456.754 397.169 511.209 396.343 513.931 386.343C516.653 376.344 512.399 372.064 516.887 293.635Z" fill="#73AA5A"/>
<ellipse cx="16.1215" cy="17.5246" rx="16.1215" ry="17.5246" transform="matrix(-1 0 0 1 523.531 287.21)" fill="#73AA5A"/>
<ellipse cx="13.792" cy="14.6236" rx="13.792" ry="14.6236" transform="matrix(-0.86498 0.501807 0.478861 0.877891 463.023 283.306)" fill="#73AA5A"/>
<path d="M528.482 327.904C527.122 322.026 521.27 318.429 515.412 319.871C509.038 321.439 505.398 328.253 507.647 334.408L516.296 358.075C517.917 362.513 522.587 364.996 527.182 363.866C532.209 362.629 535.338 357.538 534.171 352.495L528.482 327.904Z" fill="#FBC0AE"/>
<path d="M519.74 357.346C518.51 359.385 519.191 362.085 521.242 363.299C527.62 367.073 535.715 364.49 538.751 357.711L555.966 319.279L546.164 313.566L519.74 357.346Z" fill="#FBC0AE"/>
<path d="M529.338 328.449L523.273 299.731L501.409 320.22L505.716 335.285C521.455 337.159 527.06 331.809 529.338 328.449Z" fill="#73AA5A"/>
<path d="M460.219 325.743C492.032 317.392 511.579 323.545 511.579 323.545L515.57 351.583C515.57 382.364 517.434 375.518 517.434 406.239C502.869 406.239 497.781 442.215 487.049 437.82C464.052 428.401 454.166 407.687 450.333 401.095L452.197 352.226C452.197 352.226 454.853 337.61 460.219 325.743Z" fill="#28495C"/>
<path d="M508.575 338.869C508.428 317.758 509.375 288.786 507.758 285.413L500.004 284.515C501.266 285.739 500.103 306.67 500.01 338.923C500.004 341.132 501.795 342.93 504.004 342.93H504.558C506.791 342.93 508.591 341.102 508.575 338.869Z" fill="#17394D"/>
<path d="M477.178 340.985L476.937 336.903C471.338 297.23 470.194 286.312 467.732 286.312C465.762 286.312 461.971 287.225 459.919 288.239C461.722 288.881 463.525 297.873 464.126 301.084L468.729 344.728L474.485 344.147C476.085 343.986 477.273 342.591 477.178 340.985Z" fill="#1B3F53"/>
<ellipse cx="2.61429" cy="2.69609" rx="2.61429" ry="2.69609" transform="matrix(-1 0 0 1 476.473 338.436)" fill="#40728E"/>
<path d="M467.63 355.382C475.922 356.92 499.588 355.254 508.719 354.613L507.978 375.37C498.502 393.206 475.527 384.852 466.89 378.061L467.63 355.382Z" stroke="#1B3F53"/>
<path d="M466.502 318.866C465.782 314.261 461.518 311.155 456.916 311.881C452.192 312.627 448.924 317.119 449.667 321.846L454.158 350.418C454.927 355.313 458.93 358.983 463.851 359.308C468.469 359.612 472.231 355.475 471.512 350.882L466.502 318.866Z" fill="#FBC0AE"/>
<path d="M508.719 358.208C503.617 359.865 488.749 360.907 468.633 358.918" stroke="#1B3F53"/>
<path d="M459.058 347.456C456.903 347.123 454.883 348.619 454.571 350.778C453.512 358.119 459.447 364.552 466.851 364.091L497.698 362.171L497.997 353.467L459.058 347.456Z" fill="#FBC0AE"/>
<path d="M449.331 333.203L444.65 304.406L463.322 301.956L469.107 324.636C471.709 329.756 449.447 335.541 449.331 333.203Z" fill="#73AA5A"/>
<path d="M538.259 277.225L553.821 278.502C554.985 278.597 555.828 279.667 555.649 280.821L551.348 308.627C551.194 309.621 550.326 310.34 549.321 310.305L534.031 309.771C532.839 309.729 531.939 308.656 532.106 307.473L536.135 278.924C536.282 277.882 537.21 277.139 538.259 277.225Z" fill="#343434"/>
<path d="M532.702 310.858L532.361 309.952C532.114 309.294 532.227 308.558 532.659 308.01L555.497 279.043L556.563 279.985C557.078 280.441 557.327 281.126 557.223 281.803L552.73 311.052C552.577 312.047 551.708 312.767 550.703 312.732L534.518 312.167C533.707 312.139 532.989 311.621 532.702 310.858Z" fill="#343434"/>
<path d="M539.732 278.811L555.322 280.063C556.487 280.156 557.332 281.226 557.153 282.381L552.729 311.049C552.575 312.046 551.704 312.766 550.697 312.728L535.014 312.142C533.813 312.097 532.914 311.007 533.097 309.819L537.615 280.485C537.773 279.456 538.694 278.727 539.732 278.811Z" fill="#5A5A5A"/>
<path d="M557.52 307.099C557.52 309.562 556.652 315.325 556.156 318.417C555.977 319.536 554.897 320.269 553.788 320.037L544.665 318.122C543.942 317.971 543.362 317.434 543.156 316.726L540.443 307.442C540.228 306.705 540.453 305.91 541.024 305.396L546.583 300.384C547.265 299.77 547.441 298.771 547.011 297.96L544.904 293.993C544.813 293.821 544.688 293.67 544.588 293.504C543.726 292.083 545.757 289.157 548.168 292.01C551.002 295.364 557.52 303.65 557.52 307.099Z" fill="#FBC0AE"/>
<path d="M543.732 292.273L548.668 298.216C549.004 298.621 549.179 299.137 549.159 299.666C549.081 301.71 546.47 302.525 545.272 300.879L540.726 294.631C540.225 293.942 540.246 292.999 540.777 292.325C541.53 291.371 542.962 291.345 543.732 292.273Z" fill="#FBC0AE"/>
<path d="M541.483 295.954L546.365 301.944C546.698 302.352 546.868 302.87 546.843 303.398C546.747 305.442 544.129 306.232 542.946 304.574L538.456 298.283C537.961 297.59 537.99 296.648 538.527 295.979C539.288 295.031 540.721 295.02 541.483 295.954Z" fill="#FBC0AE"/>
<path d="M540.169 300.71L544.707 306.759C544.982 307.126 545.123 307.578 545.106 308.039C545.034 310.004 542.486 310.735 541.409 309.1L537.248 302.783C536.836 302.157 536.861 301.337 537.311 300.731C538.025 299.77 539.455 299.759 540.169 300.71Z" fill="#FBC0AE"/>
<ellipse cx="2.61429" cy="2.69609" rx="2.61429" ry="2.69609" transform="matrix(-1 0 0 1 507.848 334.842)" fill="#40728E"/>
<ellipse cx="11.3449" cy="18.2186" rx="11.3449" ry="18.2186" transform="matrix(-0.863467 -0.504405 -0.481416 0.876492 486.746 241.407)" fill="#282828"/>
<path d="M494.738 274.415L472.948 257.677V286.88C472.948 286.88 493.915 304.887 494.738 286.88C494.738 282.606 494.738 274.415 494.738 274.415Z" fill="#FBC0AE"/>
<rect width="43.5807" height="46.4425" rx="21.7903" transform="matrix(-1 0 0 1 514.348 233.706)" fill="#FBC0AE"/>
<path d="M497.758 263.668C499.134 263.668 499.938 262.612 499.938 261.309C499.938 260.352 499.504 259.527 498.728 259.157C498.23 258.919 497.758 258.502 497.758 257.949V256.927" stroke="#282828" stroke-linecap="round"/>
<ellipse cx="1.45269" cy="1.49814" rx="1.45269" ry="1.49814" transform="matrix(-1 0 0 1 491.945 253.183)" fill="#282828"/>
<g filter="url(#filter0_f_1763_17802)">
<ellipse cx="2.90538" cy="1.49814" rx="2.90538" ry="1.49814" transform="matrix(-1 0 0 1 491.105 257.677)" fill="#FF6C6C"/>
</g>
<ellipse cx="1.45269" cy="1.49814" rx="1.45269" ry="1.49814" transform="matrix(-1 0 0 1 505.746 253.183)" fill="#282828"/>
<g filter="url(#filter1_f_1763_17802)">
<ellipse cx="2.54221" cy="1.49814" rx="2.54221" ry="1.49814" transform="matrix(-1 0 0 1 509.992 257.677)" fill="#FF6C6C"/>
</g>
<path d="M503.567 249.435C503.93 249.06 504.218 248.686 505.02 248.686C505.822 248.686 506.109 249.06 506.473 249.435" stroke="#282828" stroke-linecap="round"/>
<path d="M489.04 249.435C489.403 249.06 489.69 248.686 490.493 248.686C491.295 248.686 491.582 249.06 491.945 249.435" stroke="#282828" stroke-linecap="round"/>
<path d="M500.664 265.917C500.664 269.912 494.127 269.912 494.127 265.917" stroke="#282828" stroke-linecap="round"/>
<path d="M487.528 230.27C469.318 232.957 469.706 245.422 469.318 251.536C478.234 252.97 496.962 252.417 507.088 250.56C507.462 250.492 506.362 246.066 506.362 245.691C506.925 246.239 507.814 247.938 508.177 250.347C511.847 249.483 514.024 248.359 513.564 246.988C511.809 235.579 505.737 227.584 487.528 230.27Z" fill="#282828"/>
<path d="M480.923 277.902C480.709 277.725 480.676 277.409 480.849 277.196C481.023 276.983 481.337 276.954 481.55 277.131L480.923 277.902ZM494.747 280.875C494.014 280.878 491.672 281.08 489.014 280.819C486.352 280.558 483.25 279.828 480.923 277.902L481.55 277.131C483.647 278.865 486.509 279.567 489.099 279.821C491.692 280.075 493.889 279.875 494.73 279.872L494.747 280.875Z" fill="#282828"/>
<ellipse cx="5.44759" cy="6.36711" rx="5.44759" ry="6.36711" transform="matrix(-1 0 0 1 477.418 250.936)" fill="#FBC0AE"/>
<path d="M471.609 253.932C467.614 253.932 467.614 260.673 471.609 260.673" stroke="#282828" stroke-linecap="round"/>
<ellipse cx="43.3997" cy="10.5145" rx="43.3997" ry="10.5145" transform="matrix(-0.961218 0.275788 0.310439 0.950593 523.621 216.818)" fill="#FFB762"/>
<path d="M505.497 226.549C501.385 215.372 488.939 209.501 477.698 213.436L476.872 213.725C465.631 217.66 459.853 229.91 463.965 241.087C478.351 237.858 492.289 232.979 505.497 226.549Z" fill="#FFB762"/>
<path d="M462.459 233.592C486.394 232.441 498.44 224.154 501.948 220.461L504.142 224.033C497.889 234.618 463.315 239.371 462.869 238.174C462.512 237.217 462.514 234.796 462.459 233.592Z" fill="#FF6C6C"/>
<path d="M1563 394.191C1506.08 375.523 1433.42 361.622 1360.77 349.214C1253.52 330.89 1120.17 321.182 986.817 320.263C742.442 318.54 499.954 348.065 360.625 394.191H1563Z" fill="#80B550"/>
<path d="M1182.05 118.285C1184.1 117.932 1185.92 118.285 1187.4 118.755C1185.24 116.053 1182.96 113.352 1180.57 110.65C1176.92 114.526 1173.39 116.523 1169.86 116.523C1167.24 116.523 1164.62 115.466 1162 113.234L1161.55 112.764L1161.89 112.177C1162 111.942 1165.31 106.774 1170.89 105.482C1172.94 105.012 1174.87 105.247 1176.36 105.835C1174.19 103.486 1172.03 101.136 1169.75 98.7874C1166.22 103.251 1162.57 105.365 1158.82 105.365C1156.42 105.365 1153.92 104.425 1151.41 102.546L1150.84 102.194L1151.19 101.606C1151.3 101.371 1154.15 95.9684 1159.73 94.3241C1161.78 93.7368 1163.71 93.8542 1165.19 94.2066C1163.37 92.4448 1161.55 90.683 1159.73 88.9212C1156.2 93.3844 1152.55 95.6161 1148.79 95.6161C1146.4 95.6161 1143.9 94.6764 1141.39 92.7972L1140.82 92.4448L1141.16 91.8575C1141.28 91.6226 1144.12 86.2197 1149.7 84.5753C1150.05 84.4579 1150.27 84.4579 1150.62 84.3404C1145.15 80.2295 1140.02 75.6488 1135.35 70.4808C1135.13 70.1284 1135.13 69.6586 1135.35 69.4237C1135.7 69.1888 1136.15 69.1888 1136.38 69.4237C1141.39 74.944 1146.86 79.8771 1152.78 84.1055C1153.69 84.1055 1154.49 84.223 1155.29 84.4579C1148.79 77.9979 1143.55 70.1284 1140.14 61.4368C1140.02 61.0844 1140.14 60.6146 1140.59 60.4971C1140.94 60.3797 1141.39 60.4971 1141.5 60.9669C1144.81 69.3062 1149.82 76.9408 1156.08 83.1659C1155.85 82.3437 1155.74 81.4041 1155.63 80.4644C1151.53 73.8869 1148.22 66.6048 1146.17 58.9702C1146.06 58.6178 1146.29 58.148 1146.63 58.0306C1146.97 57.9131 1147.43 58.148 1147.54 58.5004C1149.48 65.3128 1152.21 71.8902 1155.85 77.8804C1155.85 77.763 1155.85 77.763 1155.85 77.6455C1157.11 71.8902 1162.23 68.6015 1162.46 68.484L1163.03 68.1317L1163.49 68.7189C1168.38 75.0615 1167.47 81.4041 1160.75 87.8641C1162.57 89.5084 1164.28 91.2703 1165.99 92.9146C1165.54 91.3877 1165.42 89.5084 1165.88 87.5117C1167.13 81.7564 1172.26 78.4677 1172.48 78.3502L1173.05 77.9979L1173.51 78.5851C1178.41 85.0451 1177.49 91.2702 1170.77 97.7303C1172.94 100.079 1175.22 102.311 1177.27 104.778C1176.92 103.251 1176.81 101.371 1177.49 99.3746C1179.2 93.7368 1184.56 90.8004 1184.67 90.683L1185.24 90.3306L1185.58 90.9179C1190.02 97.6128 1188.66 103.838 1181.59 109.828C1183.87 112.53 1186.15 115.231 1188.43 117.932C1188.09 116.288 1188.09 114.409 1188.88 112.412C1190.82 106.774 1196.29 104.19 1196.51 104.073L1197.08 103.838L1197.43 104.425C1201.64 111.355 1200.04 117.463 1192.53 123.218C1194.58 125.919 1196.63 128.621 1198.56 131.322C1198.34 129.678 1198.45 127.799 1199.36 125.802C1201.64 120.282 1207.22 118.05 1207.45 117.932L1208.02 117.698L1208.36 118.285C1212.12 125.45 1210.07 131.557 1202.32 136.608C1204.37 139.544 1206.31 142.48 1208.24 145.534C1208.13 143.89 1208.36 142.011 1209.38 140.131C1212 134.846 1217.7 132.967 1217.93 132.849L1218.49 132.614L1218.72 133.202C1222.03 140.601 1219.63 146.474 1211.55 151.055C1213.48 154.226 1215.31 157.515 1217.13 160.803C1217.13 159.159 1217.47 157.28 1218.49 155.283C1221.46 150.115 1227.26 148.588 1227.49 148.588L1228.18 148.471L1228.4 149.058C1231.25 156.693 1228.52 162.448 1220.2 166.441C1222.25 170.317 1224.19 174.193 1226.01 178.069C1226.24 178.422 1226.01 178.891 1225.67 179.126C1225.56 179.126 1225.44 179.244 1225.33 179.244C1225.1 179.244 1224.76 179.126 1224.65 178.774C1222.82 174.898 1220.89 171.022 1218.95 167.263C1215.53 169.495 1212.46 170.67 1209.61 170.67C1206.08 170.67 1203.01 168.908 1200.27 165.267L1199.93 164.679L1200.39 164.21C1200.61 163.975 1204.83 159.864 1210.41 159.864C1210.52 159.864 1210.64 159.864 1210.64 159.864C1212.69 159.864 1214.39 160.569 1215.65 161.391C1213.94 158.219 1212.12 155.048 1210.18 151.994C1206.65 154.696 1203.35 155.988 1200.39 155.988C1197.08 155.988 1194.12 154.343 1191.39 151.172L1190.93 150.702L1191.39 150.233C1191.62 149.998 1195.6 145.417 1201.41 145.182C1203.58 145.065 1205.28 145.652 1206.65 146.357C1204.71 143.42 1202.78 140.366 1200.84 137.547C1197.2 140.601 1193.89 142.246 1190.71 142.246C1187.63 142.246 1184.9 140.836 1182.16 138.017L1181.71 137.547L1182.16 136.96C1182.28 136.725 1186.15 131.91 1191.84 131.322C1193.89 131.087 1195.72 131.557 1197.08 132.144C1195.15 129.443 1193.21 126.742 1191.16 124.158C1187.52 127.681 1184.1 129.443 1180.8 129.443C1178.06 129.443 1175.33 128.268 1172.6 125.802L1172.37 125.097L1172.71 124.51C1172.82 124.392 1176.36 119.224 1182.05 118.285Z" fill="#2D6315"/>
<path d="M1140.03 301.749L1140.6 301.397C1140.82 301.279 1145.61 297.756 1151.19 298.578C1151.3 298.578 1151.42 298.578 1151.42 298.578C1153.47 298.93 1155.06 299.87 1156.2 300.81C1154.95 297.403 1153.58 293.997 1152.21 290.591C1148.34 292.705 1144.92 293.527 1141.96 293.058C1138.77 292.588 1136.04 290.474 1133.76 286.95L1133.42 286.363L1133.88 285.893C1134.11 285.775 1138.77 281.782 1144.47 282.487C1146.52 282.722 1148.23 283.544 1149.48 284.483C1148 281.195 1146.52 278.023 1145.04 274.852C1141.05 277.319 1137.52 278.376 1134.33 277.906C1131.37 277.436 1128.75 275.557 1126.47 272.385L1126.13 271.798L1126.59 271.328C1126.82 271.093 1131.26 266.983 1136.95 267.217C1139 267.335 1140.71 268.04 1142.08 268.862C1140.6 265.925 1139 262.989 1137.41 260.053C1133.31 262.989 1129.66 264.281 1126.36 263.694C1123.63 263.224 1121.12 261.697 1118.84 258.761L1118.39 258.291L1118.84 257.821C1119.07 257.586 1123.17 253.123 1128.98 253.005C1131.14 253.005 1132.85 253.593 1134.22 254.297C1132.4 251.244 1130.57 248.19 1128.64 245.253C1124.42 248.542 1120.67 249.952 1117.25 249.482C1114.63 249.129 1112.24 247.603 1109.96 245.019L1109.5 244.549L1109.96 244.079C1110.07 243.844 1114.06 239.263 1119.87 238.793C1122.03 238.676 1123.85 239.146 1125.22 239.968C1123.4 237.267 1121.58 234.565 1119.75 231.981C1115.54 235.857 1111.67 237.384 1108.02 236.914C1105.63 236.562 1103.35 235.27 1101.08 233.038L1100.62 232.568L1100.96 231.981C1101.08 231.746 1104.72 226.813 1110.53 225.991C1112.69 225.639 1114.52 226.108 1116 226.813C1114.52 224.816 1108.59 218.239 1107 216.242C1102.79 220.118 1103.24 226.226 1099.6 225.639C1097.2 225.286 1094.93 223.994 1092.65 221.762L1092.19 221.293L1092.53 220.705C1092.65 220.471 1096.29 215.537 1102.1 214.715C1102.44 214.715 1102.67 214.598 1103.01 214.598C1098.12 209.665 1093.79 204.379 1089.92 198.506C1089.69 198.154 1089.8 197.684 1090.14 197.449C1090.48 197.214 1090.94 197.332 1091.17 197.684C1095.27 203.909 1100.05 209.547 1105.29 214.715C1106.2 214.833 1107 215.185 1107.68 215.42C1102.1 208.02 1098.12 199.446 1096.07 190.285C1095.95 189.932 1096.18 189.462 1096.63 189.345C1096.98 189.228 1097.43 189.462 1097.55 189.932C1099.6 198.741 1103.47 206.963 1108.71 214.128C1108.59 213.306 1108.59 212.366 1108.71 211.426C1105.52 204.262 1103.47 196.627 1102.44 188.758C1102.44 188.288 1102.67 187.936 1103.13 187.936C1103.58 187.936 1103.92 188.17 1103.92 188.64C1104.84 195.688 1106.66 202.5 1109.39 209.077C1109.39 208.96 1109.39 208.96 1109.5 208.96C1111.67 203.44 1117.14 200.973 1117.36 200.856L1117.93 200.621L1118.27 201.208C1122.15 208.255 1120.44 214.363 1112.81 219.648C1114.29 221.528 1115.88 223.524 1117.36 225.521C1117.14 223.877 1117.25 222.115 1117.93 220.118C1120.1 214.598 1125.56 212.131 1125.79 212.014L1126.36 211.779L1126.7 212.366C1130.69 219.413 1128.87 225.521 1121.24 230.924C1123.06 233.508 1124.88 236.209 1126.7 238.911C1126.59 237.267 1126.82 235.505 1127.73 233.508C1130.23 228.105 1135.93 226.108 1136.16 225.991L1136.72 225.756L1137.07 226.343C1140.48 233.625 1138.32 239.616 1130.35 244.431C1132.28 247.485 1134.11 250.421 1135.93 253.475C1135.81 251.831 1136.16 249.952 1137.07 248.072C1139.8 242.787 1145.49 241.025 1145.72 240.908L1146.41 240.673L1146.63 241.26C1149.82 248.777 1147.32 254.65 1139.12 258.996C1140.71 261.932 1142.31 264.986 1143.9 267.922C1143.9 266.278 1144.36 264.399 1145.38 262.519C1148.46 257.469 1154.26 256.059 1154.49 255.942L1155.18 255.824L1155.4 256.412C1158.02 264.164 1155.29 269.801 1146.75 273.677C1148.34 276.849 1149.82 280.137 1151.3 283.426C1151.42 281.782 1151.99 280.02 1153.12 278.258C1156.43 273.443 1162.46 272.385 1162.69 272.385L1163.38 272.268L1163.6 272.973C1165.77 280.842 1162.58 286.245 1153.92 289.534C1155.4 292.94 1156.77 296.464 1158.02 299.987C1158.25 298.343 1158.82 296.464 1160.19 294.819C1163.83 290.239 1169.75 289.534 1170.09 289.534L1170.78 289.416L1170.89 290.121C1172.6 298.108 1169.07 303.276 1160.3 306.095C1161.78 310.206 1163.15 314.317 1164.4 318.545C1164.51 318.898 1164.29 319.367 1163.94 319.485C1163.83 319.485 1163.72 319.485 1163.6 319.485C1163.38 319.485 1163.15 319.25 1163.03 319.015C1161.78 314.904 1160.41 310.793 1159.05 306.682C1155.4 308.444 1152.1 309.031 1149.37 308.679C1145.84 308.092 1143.1 305.86 1140.94 301.867L1140.03 301.749Z" fill="#2D6315"/>
<path d="M1178.97 183.464C1157.45 166.198 1130.8 154.335 1115.65 130.962C1119.98 147.64 1131.14 161.5 1143.44 173.128C1155.74 184.756 1169.63 194.622 1181.48 206.603C1197.76 222.929 1210.29 243.131 1217.92 265.213C1219.63 270.146 1221.11 275.314 1223.96 279.777C1225.55 282.361 1230.11 288.469 1233.75 287.177C1237.51 285.767 1235.58 279.425 1235.01 276.723C1233.3 267.914 1230.68 259.222 1227.49 250.883C1221 233.97 1211.77 218.231 1200.27 204.606C1193.89 196.737 1186.72 189.689 1178.97 183.464Z" fill="#CCD64F"/>
<path d="M1290.25 471.703C1292.3 469.706 1294.35 467.592 1296.28 465.361C1305.85 454.085 1308.92 438.346 1304.48 423.782C1298.22 403.227 1276.81 390.307 1271.8 369.4C1267.47 351.195 1276.69 330.17 1267.81 313.844C1260.75 300.807 1245.15 296.108 1234.21 286.36C1209.27 264.043 1213.14 220.702 1190.14 196.154C1185.01 190.751 1178.63 186.406 1171.46 184.879C1164.28 183.352 1156.42 184.879 1150.84 189.812C1141.73 197.916 1141.28 212.481 1144.47 224.461C1147.66 236.441 1153.69 247.6 1155.29 259.932C1158.7 287.534 1139 315.841 1148.22 342.033C1153.81 357.772 1168.95 368.695 1173.17 384.904C1178.63 406.163 1163.6 427.893 1166.22 449.739C1168.27 467.122 1181.59 481.334 1196.86 488.852C1216.22 498.483 1242.41 497.778 1262.34 489.909C1272.48 485.798 1282.05 479.573 1290.25 471.703Z" fill="#88BA63"/>
<path d="M1153.69 283.307C1163.37 293.761 1179.09 306.328 1199.93 309.03C1189.91 276.142 1179.09 243.138 1165.76 211.425C1155.4 210.485 1148.34 206.374 1143.67 201.676C1143.9 200.854 1144.12 200.032 1144.35 199.327C1148.57 203.673 1154.94 207.901 1164.62 208.958C1161.44 201.559 1158.13 194.159 1154.72 186.994C1155.4 186.642 1156.08 186.29 1156.77 186.055C1165.99 205.317 1173.96 225.167 1181.25 245.252C1192.87 233.389 1195.03 215.301 1194.69 202.029C1195.49 203.203 1196.29 204.378 1197.08 205.552C1197.08 206.374 1197.08 207.314 1196.97 208.136C1196.29 225.167 1191.16 238.792 1182.16 247.601C1193.44 279.196 1203.01 311.379 1212.34 342.857L1220.77 371.516C1233.19 361.767 1242.53 324.534 1244.01 293.526C1244.69 293.996 1245.49 294.465 1246.17 294.935C1244.46 324.886 1235.69 363.764 1221.46 373.865L1224.99 385.845C1247.42 371.163 1257.1 334.752 1257.45 302.57C1258.24 303.157 1258.93 303.744 1259.72 304.449C1259.04 337.101 1248.68 373.63 1225.67 388.312L1250.61 472.527C1279.08 456.553 1284.1 425.193 1283.3 391.366C1284.1 392.423 1284.89 393.362 1285.69 394.302C1286.15 427.894 1280.34 458.785 1251.41 474.758L1256.42 491.907C1255.74 492.142 1254.94 492.377 1254.26 492.612L1235.01 427.659C1233.76 427.777 1232.39 427.777 1231.14 427.777C1208.59 427.777 1187.63 413.212 1173.74 400.645C1173.85 399.705 1173.96 398.765 1173.96 397.708C1188.09 410.863 1210.52 426.837 1234.33 425.31L1210.29 343.561C1207.11 332.991 1204.03 322.185 1200.73 311.496C1179.43 309.03 1163.26 296.697 1153.12 286.009C1153.23 285.069 1153.46 284.247 1153.69 283.307Z" fill="#DBF5C4"/>
<path d="M1165.88 452.677C1165.88 452.677 1107.79 343.679 1096.52 324.064C1078.3 292.116 1054.83 295.053 1059.84 325.121C1065.99 361.884 1075.11 372.573 1067.25 379.855C1059.39 387.02 1044.92 391.601 1056.77 422.374C1068.61 453.147 1078.07 473.232 1078.07 473.232L1165.88 452.677Z" fill="#2D6315"/>
<path d="M1065.65 381.268C1066.22 380.798 1066.79 380.328 1067.25 379.858C1067.36 379.858 1067.36 379.741 1067.36 379.741C1077.27 391.251 1092.42 404.641 1108.36 403.702L1064.17 303.395C1064.74 302.925 1065.42 302.456 1066.11 302.221L1088.77 353.431C1092.42 346.854 1092.87 330.997 1091.16 315.845C1092.08 317.02 1092.99 318.429 1093.9 319.721C1095.26 334.991 1094.24 350.025 1089.91 355.898L1135.81 459.728L1133.53 460.315L1109.5 405.933C1108.7 406.051 1107.79 406.051 1106.99 406.051C1095.61 406.051 1083.19 399.473 1070.89 386.788C1068.96 384.909 1067.25 383.03 1065.65 381.268Z" fill="#88BA63"/>
<path d="M1148 341.919C1147.2 339.687 1146.63 337.456 1146.29 335.106C1161.21 346.382 1173.85 360.947 1182.74 377.743C1196.75 404.17 1201.42 435.883 1195.61 465.481C1184.9 460.9 1174.88 455.38 1165.77 448.685C1163.72 427.191 1178.3 405.814 1172.83 384.907C1168.73 368.581 1153.58 357.658 1148 341.919Z" fill="#2D6315"/>
<path d="M1196.29 465.241C1200.73 435.408 1194.69 404.047 1179.55 378.207C1164.29 352.367 1140.14 332.4 1112.35 322.769C1108.02 353.307 1113.49 384.667 1128.87 411.095C1144.13 437.639 1168.16 454.67 1196.29 465.241Z" fill="#CCD64F"/>
<path d="M1149.82 388.779L1112.12 324.766C1112.23 324.179 1112.23 323.474 1112.35 322.887C1112.92 323.122 1113.49 323.357 1114.06 323.474L1136.04 360.707V334.045C1136.84 334.515 1137.52 334.985 1138.32 335.454V364.113C1138.32 364.231 1138.32 364.348 1138.2 364.466L1160.98 403.108L1162.01 355.187C1162.8 356.009 1163.49 356.831 1164.28 357.653L1163.14 406.867L1168.84 416.498L1169.98 364.348C1170.78 365.288 1171.46 366.345 1172.14 367.285L1171 420.257L1196.4 463.363C1196.29 463.95 1196.29 464.655 1196.17 465.242C1195.6 465.007 1195.03 464.772 1194.46 464.537L1178.29 437.17C1178.18 437.17 1178.06 437.17 1177.95 437.17C1177.84 437.17 1177.84 437.17 1177.72 437.17L1141.85 429.418C1141.05 428.479 1140.14 427.421 1139.34 426.482L1176.7 434.586L1151.64 391.715L1116.22 381.027C1115.99 380.087 1115.77 379.265 1115.54 378.325L1149.82 388.779Z" fill="#88BA63"/>
<path d="M1235.61 258.18C1229.12 237.625 1222.4 216.718 1209.75 199.452C1199.5 185.593 1185.95 174.904 1172.28 164.568C1158.62 154.35 1144.61 144.248 1133.33 131.328C1121.94 118.408 1113.29 102.2 1112.72 84.8164C1121.37 104.431 1137.55 119.466 1154.52 132.033C1171.49 144.601 1189.71 155.524 1205.2 169.971C1223.88 187.589 1238.11 210.258 1245.86 235.041C1242.21 243.733 1241.87 251.25 1235.61 258.18Z" fill="#88BA63"/>
<path d="M583.001 300.222C583.142 298.642 583.332 295.812 583.461 293.8C583.54 292.575 584.672 291.771 585.855 292.1L590.31 293.337C591.031 293.537 591.607 294.123 591.804 294.858L593.627 301.633C593.836 302.407 593.587 303.208 592.991 303.679L589.377 306.538C588.734 307.047 588.5 307.932 588.791 308.749L589.847 311.706C589.911 311.887 590.011 312.055 590.074 312.236C590.483 313.419 588.935 315.332 587.518 312.945C585.822 310.088 582.766 302.859 583.001 300.222Z" fill="#FBC0AE"/>
<path d="M590.612 312.844L587.666 307.878C587.488 307.577 587.414 307.225 587.456 306.881C587.639 305.413 589.565 305.101 590.25 306.43L592.9 311.561C593.162 312.069 593.09 312.682 592.72 313.094C592.131 313.75 591.075 313.624 590.612 312.844Z" fill="#FBC0AE"/>
<path d="M591.926 310.38L589.019 305.385C588.843 305.083 588.772 304.731 588.818 304.388C589.011 302.922 590.941 302.631 591.617 303.966L594.226 309.124C594.484 309.634 594.407 310.245 594.033 310.653C593.438 311.302 592.383 311.166 591.926 310.38Z" fill="#FBC0AE"/>
<path d="M593.135 306.957L590.465 301.952C590.322 301.683 590.264 301.378 590.301 301.08C590.474 299.675 592.341 299.421 592.944 300.72L595.33 305.866C595.541 306.32 595.475 306.85 595.161 307.22C594.603 307.88 593.555 307.744 593.135 306.957Z" fill="#FBC0AE"/>
<path d="M591.203 209.088C596.656 196.947 666.628 197.793 666.628 209.088C659.358 260.05 658.147 285.704 658.147 295.833C658.147 305.963 602.18 306.581 598.776 297.224C595.373 287.868 596.815 282.472 591.203 209.088Z" fill="#FF6C6C"/>
<path d="M613.857 208.218C611.373 213.99 610.194 228.4 606.64 237.366C599.877 239.231 587.706 230.143 585.851 222.985C583.995 215.828 587.973 208.514 594.735 206.649C601.498 204.784 612.001 201.06 613.857 208.218Z" fill="#FF6C6C"/>
<ellipse cx="13.7283" cy="14.7631" rx="13.7283" ry="14.7631" transform="matrix(0.994005 -0.109339 0.102876 0.994694 642.223 205.885)" fill="#FF6C6C"/>
<path d="M588.829 240.496C589.224 236.601 592.728 233.82 596.605 234.325C600.669 234.854 603.444 238.757 602.611 242.77L591.785 294.916L583.313 294.916L588.829 240.496Z" fill="#FBC0AE"/>
<path d="M587.692 239.876L585.558 221.516L609.135 228.156L606.891 240.12C595.359 244.819 590.072 241.942 587.692 239.876Z" fill="#FF6C6C"/>
<path d="M646.937 237.871C624.522 231.935 598.774 238.496 598.774 238.496L594.231 261.926C594.231 290.878 593.625 366.731 593.625 395.627C598.472 404.062 606.65 404.687 624.522 405.624C643.278 406.607 657.468 401.829 661.477 395.627L659.054 269.423C659.054 269.423 654.51 245.993 646.937 237.871Z" fill="#28495C"/>
<path d="M599.889 251.88C600.016 232.485 599.151 206.087 600.648 203.001L607.863 202.174C606.694 203.297 607.764 222.428 607.857 251.932C607.864 254.129 606.083 255.917 603.886 255.917C601.665 255.917 599.875 254.101 599.889 251.88Z" fill="#17394D"/>
<ellipse cx="638.808" cy="252.609" rx="2.4052" ry="2.48046" fill="#40728E"/>
<path d="M640.813 276.588C631.833 278.241 606.204 276.45 596.316 275.761L597.118 298.085C607.38 317.267 632.261 308.282 641.614 300.979L640.813 276.588Z" stroke="#1B3F53"/>
<path d="M655.209 231.504C654.518 227.158 657.455 222.938 661.77 222.077C666.353 221.163 670.581 224.399 670.914 229.076L673.16 260.61C673.404 264.033 671.018 267.172 667.664 267.841C664.093 268.554 660.733 266.216 660.161 262.619L655.209 231.504Z" fill="#FBC0AE"/>
<path d="M596.316 279.481C601.929 281.411 618.284 282.623 640.412 280.308" stroke="#1B3F53"/>
<path d="M659.593 260.947C659.493 257.882 661.816 255.249 664.873 254.961C669.542 254.522 673.411 258.429 672.927 263.095L668.909 301.852L660.942 302.356L659.593 260.947Z" fill="#FBC0AE"/>
<path d="M675.928 242.276L670.381 215.242L649.663 220.155L653.301 243.546C653.206 249.149 676.814 244.354 675.928 242.276Z" fill="#FF6C6C"/>
<path d="M660.572 307.222C660.712 305.642 660.902 302.812 661.031 300.8C661.11 299.575 662.242 298.771 663.426 299.1L667.88 300.337C668.601 300.537 669.177 301.123 669.375 301.858L671.198 308.633C671.406 309.407 671.157 310.208 670.561 310.679L666.947 313.538C666.304 314.047 666.07 314.932 666.362 315.749L667.417 318.706C667.481 318.887 667.582 319.055 667.644 319.236C668.053 320.419 666.505 322.332 665.088 319.945C663.392 317.088 660.337 309.859 660.572 307.222Z" fill="#FBC0AE"/>
<path d="M668.182 319.844L665.237 314.878C665.058 314.577 664.984 314.225 665.027 313.881C665.209 312.413 667.135 312.101 667.821 313.43L670.471 318.561C670.733 319.069 670.66 319.682 670.29 320.094C669.701 320.75 668.645 320.624 668.182 319.844Z" fill="#FBC0AE"/>
<path d="M669.496 317.38L666.59 312.385C666.414 312.083 666.343 311.731 666.388 311.388C666.582 309.922 668.512 309.631 669.187 310.966L671.796 316.124C672.054 316.634 671.977 317.245 671.603 317.653C671.009 318.302 669.953 318.166 669.496 317.38Z" fill="#FBC0AE"/>
<path d="M670.705 313.957L668.035 308.952C667.892 308.683 667.835 308.378 667.871 308.08C668.044 306.675 669.911 306.421 670.514 307.72L672.901 312.866C673.111 313.32 673.045 313.85 672.732 314.22C672.174 314.88 671.125 314.744 670.705 313.957Z" fill="#FBC0AE"/>
<ellipse cx="603.858" cy="251.784" rx="2.4052" ry="2.48046" fill="#40728E"/>
<ellipse cx="12.1475" cy="19.5074" rx="12.1475" ry="19.5074" transform="matrix(0.863467 -0.504405 0.481416 0.876492 626.469 152.991)" fill="#282828"/>
<path d="M617.91 188.333L641.242 170.411V201.68C641.242 201.68 617.91 231.309 617.91 201.68C617.91 197.104 617.91 188.333 617.91 188.333Z" fill="#FBC0AE"/>
<rect x="596.918" y="144.746" width="46.6638" height="49.728" rx="23.3319" fill="#FBC0AE"/>
<path d="M609.837 175.581C608.364 175.581 607.504 174.45 607.504 173.054C607.504 172.003 607.992 171.102 608.863 170.721C609.369 170.5 609.837 170.08 609.837 169.528V168.362" stroke="#282828" stroke-width="0.5" stroke-linecap="round"/>
<ellipse cx="617.614" cy="165.954" rx="1.55546" ry="1.60413" fill="#282828"/>
<g filter="url(#filter2_f_1763_17802)">
<ellipse cx="620.068" cy="170.767" rx="3.11092" ry="1.60413" fill="#FF6C6C"/>
</g>
<ellipse cx="602.837" cy="165.954" rx="1.55546" ry="1.60413" fill="#282828"/>
<g filter="url(#filter3_f_1763_17802)">
<ellipse cx="601.273" cy="170.767" rx="2.72205" ry="1.60413" fill="#FF6C6C"/>
</g>
<path d="M608.459 161.589C608.07 161.188 607.762 160.787 606.903 160.787C606.044 160.787 605.737 161.188 605.348 161.589" stroke="#282828" stroke-linecap="round"/>
<path d="M624.013 161.589C623.624 161.188 623.317 160.787 622.458 160.787C621.599 160.787 621.291 161.188 620.902 161.589" stroke="#282828" stroke-linecap="round"/>
<path d="M606.727 177.985C606.727 182.263 613.726 182.263 613.726 177.985" stroke="#282828" stroke-width="0.5" stroke-linecap="round"/>
<path d="M625.635 141.067C645.133 143.944 644.717 157.291 645.133 163.837C635.587 165.373 615.533 164.781 604.691 162.792C604.291 162.719 605.469 157.98 605.469 157.579C604.865 158.166 603.913 159.985 603.524 162.564C599.595 161.639 597.264 160.435 597.757 158.968C599.636 146.751 606.137 138.19 625.635 141.067Z" fill="#282828"/>
<path d="M632.524 191.849C632.631 191.76 632.647 191.602 632.561 191.496C632.474 191.389 632.317 191.375 632.21 191.463L632.524 191.849ZM617.906 194.966C618.721 194.969 621.187 195.185 624.015 194.908C626.845 194.63 630.098 193.856 632.524 191.849L632.21 191.463C629.899 193.375 626.766 194.135 623.973 194.408C621.177 194.683 618.784 194.468 617.914 194.464L617.906 194.966Z" fill="#282828"/>
<ellipse cx="642.29" cy="170.011" rx="5.83297" ry="6.81755" fill="#FBC0AE"/>
<path d="M642.68 166.402C646.957 166.402 646.957 173.621 642.68 173.621" stroke="#282828" stroke-linecap="round"/>
<ellipse cx="46.47" cy="11.2583" rx="46.47" ry="11.2583" transform="matrix(0.961218 0.275788 -0.310439 0.950593 586.988 126.663)" fill="#FFB762"/>
<path d="M606.398 137.083C610.802 125.115 624.128 118.829 636.163 123.042L637.049 123.352C649.084 127.565 655.271 140.682 650.868 152.649C635.464 149.192 620.541 143.968 606.398 137.083Z" fill="#FFB762"/>
<path d="M652.478 144.622C626.85 143.39 613.951 134.517 610.195 130.563L607.847 134.387C614.542 145.721 651.561 150.81 652.039 149.529C652.421 148.504 652.419 145.912 652.478 144.622Z" fill="#FF6C6C"/>
<path d="M643.219 256.744L637.677 256.199C636.071 256.041 634.871 254.66 634.925 253.047C635.4 238.855 635.504 200.716 647.718 200.716C649.642 200.716 654.933 202.232 656.938 203.196C650.925 201.956 646.809 216.941 645.73 221.315C644.651 225.688 643.219 256.744 643.219 256.744Z" fill="#1B3F53"/>
<ellipse cx="639.386" cy="251.784" rx="2.4052" ry="2.48046" fill="#40728E"/>
<path d="M677.734 290.62C678.317 288.834 679.006 285.144 679.449 282.574C679.683 281.218 681.163 280.494 682.37 281.157L689.525 285.084C690.2 285.454 690.611 286.179 690.584 286.949L690.295 295.201C690.269 295.966 689.814 296.643 689.123 296.947L683.437 299.443C682.611 299.806 682.14 300.69 682.29 301.595L682.912 305.334C682.944 305.526 683.015 305.711 683.052 305.902C683.33 307.34 680.878 309.165 679.676 306.099C678.251 302.467 676.79 293.52 677.734 290.62Z" fill="#FBC0AE"/>
<path d="M683.622 306.842L681.149 300.53C680.979 300.096 680.973 299.616 681.134 299.182C681.749 297.513 684.112 297.583 684.658 299.285L686.729 305.74C686.959 306.457 686.687 307.236 686.063 307.643C685.189 308.214 684.008 307.826 683.622 306.842Z" fill="#FBC0AE"/>
<path d="M686.47 304.452L684.053 298.117C683.887 297.682 683.886 297.201 684.05 296.768C684.68 295.106 687.042 295.198 687.574 296.906L689.587 303.38C689.811 304.099 689.531 304.875 688.904 305.276C688.024 305.838 686.847 305.44 686.47 304.452Z" fill="#FBC0AE"/>
<path d="M688.826 300.903L686.709 294.618C686.579 294.233 686.585 293.816 686.724 293.436C687.313 291.832 689.603 291.953 690.053 293.612L691.788 300.013C691.961 300.652 691.718 301.329 691.18 301.703C690.335 302.29 689.159 301.891 688.826 300.903Z" fill="#FBC0AE"/>
<path d="M689.047 179.837C679.564 168.376 771.889 168.543 771.889 179.837C774.32 221.679 764.238 256.453 764.238 266.582C764.238 276.711 696.147 275.938 692.743 266.582C689.34 257.226 694.659 253.221 689.047 179.837Z" fill="#73AA5A"/>
<path d="M714.558 176.993C711.679 183.978 710.526 201.317 706.419 212.162C698.327 214.534 683.535 203.85 681.174 195.285C678.813 186.72 683.459 177.853 691.551 175.48C699.643 173.108 712.197 168.428 714.558 176.993Z" fill="#73AA5A"/>
<ellipse cx="15.9833" cy="17.1882" rx="15.9833" ry="17.1882" transform="matrix(0.994005 -0.109339 0.102876 0.994694 747.27 177.245)" fill="#73AA5A"/>
<path d="M684.26 209.066C684.013 203.116 688.636 198.079 694.585 197.817C701.057 197.531 706.303 202.976 705.779 209.434L703.754 234.414C703.376 239.071 699.587 242.724 694.921 242.93C689.818 243.155 685.51 239.201 685.298 234.098L684.26 209.066Z" fill="#FBC0AE"/>
<path d="M683.698 215.549L680.799 193.527L709.252 201.047L706.775 215.468C693.003 221.339 686.597 217.985 683.698 215.549Z" fill="#73AA5A"/>
<path d="M685.161 233.831C685.784 228.727 690.506 225.197 695.575 226.046C700.825 226.925 704.241 232.117 702.966 237.281L690.934 286.04L679.042 283.966L685.161 233.831Z" fill="#FBC0AE"/>
<path d="M751.179 209.305C717.907 201.45 697.463 207.238 697.463 207.238L691.049 233.283C691.049 262.235 687.441 360.865 687.441 389.761C702.42 395.963 712.842 397.616 724.067 397.616C749.607 397.616 764.007 395.963 768.016 389.761L768.015 240.724C768.015 240.724 756.791 220.467 751.179 209.305Z" fill="#28495C"/>
<path d="M695.104 222.629C695.231 203.234 694.366 176.837 695.863 173.75L703.078 172.923C701.908 174.046 702.979 193.177 703.072 222.681C703.079 224.878 701.297 226.666 699.101 226.666C696.88 226.666 695.09 224.85 695.104 222.629Z" fill="#17394D"/>
<path d="M736.124 223.784L736.35 220.054C746.372 184.501 757.195 173.752 759.6 173.752C761.525 173.752 766.816 175.268 768.82 176.232C762.807 174.992 757.997 184.087 756.393 187.808L744.367 227.495L738.825 226.951C737.22 226.793 736.026 225.394 736.124 223.784Z" fill="#1B3F53"/>
<ellipse cx="739.956" cy="223.362" rx="2.4052" ry="2.48046" fill="#40728E"/>
<path d="M731.239 215.469L743.802 173.067C743.911 172.698 743.967 172.315 743.967 171.93V163.002C745.169 163.415 748.296 164.573 751.182 165.896C753.764 167.079 755.469 170.775 756.182 173.022C756.335 173.501 756.539 173.966 756.619 174.462C757.238 178.269 755.297 193.922 755.592 194.835C755.993 196.075 755.191 203.103 756.394 206.41C757.596 209.717 753.989 212.611 755.191 213.851C756.394 215.092 753.588 217.159 751.984 218.812C750.381 220.466 749.98 219.639 748.376 218.812C746.773 217.985 746.773 220.053 745.169 221.706C743.566 223.36 741.161 224.187 738.355 221.706C737.952 221.35 737.604 221.082 737.294 220.889C735.535 219.793 732.948 220.292 731.754 218.599C731.112 217.689 730.923 216.536 731.239 215.469Z" fill="#F1F1F1"/>
<path d="M741.961 247.339C732.982 248.992 707.353 247.201 697.465 246.512L698.267 268.836C708.529 288.018 733.409 279.033 742.763 271.73L741.961 247.339Z" stroke="#1B3F53"/>
<path d="M760.498 210.487C759.397 204.288 763.529 198.364 769.727 197.256C776.358 196.071 782.559 200.863 783.086 207.579L786.077 245.68C786.461 250.573 783.07 254.962 778.239 255.825C773.055 256.751 768.105 253.299 767.183 248.113L760.498 210.487Z" fill="#FBC0AE"/>
<path d="M697.465 250.231C703.077 252.161 719.432 253.373 741.56 251.058" stroke="#1B3F53"/>
<path d="M767.121 246.373C766.922 241.539 770.937 237.545 775.769 237.768C781.93 238.054 786.504 243.503 785.728 249.634L780.55 290.563L768.965 291.157L767.121 246.373Z" fill="#FBC0AE"/>
<path d="M786.519 219.615L780.061 188.14L755.941 193.86L760.176 221.093C760.065 227.617 787.551 222.034 786.519 219.615Z" fill="#73AA5A"/>
<path d="M768.098 295.766C768.571 293.945 769.036 290.217 769.324 287.623C769.475 286.256 770.909 285.441 772.155 286.025L779.53 289.482C780.227 289.809 780.682 290.506 780.701 291.276L780.912 299.535C780.931 300.298 780.519 301.001 779.848 301.348L774.32 304.207C773.519 304.621 773.103 305.532 773.307 306.423L774.155 310.12C774.198 310.309 774.28 310.489 774.329 310.677C774.694 312.093 772.357 314.074 770.971 311.091C769.33 307.557 767.33 298.721 768.098 295.766Z" fill="#FBC0AE"/>
<path d="M774.955 311.576L772.105 305.436C771.909 305.015 771.875 304.538 772.008 304.095C772.521 302.392 774.887 302.311 775.535 303.974L777.991 310.282C778.263 310.981 778.039 311.774 777.443 312.219C776.604 312.845 775.399 312.534 774.955 311.576Z" fill="#FBC0AE"/>
<path d="M777.649 309.008L774.854 302.841C774.662 302.418 774.632 301.94 774.769 301.499C775.297 299.801 777.664 299.742 778.297 301.412L780.697 307.743C780.963 308.444 780.731 309.235 780.131 309.674C779.287 310.292 778.085 309.97 777.649 309.008Z" fill="#FBC0AE"/>
<path d="M779.791 305.315L777.298 299.178C777.146 298.803 777.126 298.388 777.242 298.002C777.732 296.364 780.028 296.339 780.577 297.965L782.695 304.241C782.906 304.867 782.704 305.555 782.192 305.961C781.383 306.603 780.183 306.28 779.791 305.315Z" fill="#FBC0AE"/>
<ellipse cx="699.065" cy="222.535" rx="2.4052" ry="2.48046" fill="#40728E"/>
<path d="M720.629 333.574C720.629 333.298 720.853 333.074 721.129 333.074C721.405 333.074 721.629 333.298 721.629 333.574L720.629 333.574ZM721.629 333.574L721.629 391.679L720.629 391.679L720.629 333.574L721.629 333.574Z" fill="#173B4F"/>
<path d="M708.446 195.662C708.446 185.74 711.653 175.819 713.256 172.098V167.137L712.454 166.724C711.252 167.964 708.446 168.791 706.842 170.031C704.814 171.6 701.23 177.059 700.829 178.299C700.428 179.539 697.221 184.087 695.217 191.115C693.213 198.143 691.609 204.757 691.208 205.998C690.888 206.99 691.075 209.167 691.208 210.132L695.217 210.545C695.751 210.132 697.141 209.305 698.424 209.305C700.027 209.305 700.027 210.132 700.829 210.545C701.631 210.958 703.635 210.958 706.441 212.199C708.686 213.191 708.713 211.785 708.446 210.958V195.662Z" fill="#F1F1F1"/>
<path d="M715.9 93.9963C709.224 97.229 706.168 102.459 706.031 106.69C716.585 113.286 740.57 119.757 747.149 123.49C754.551 106.69 741.393 96.6097 735.225 93.9963C729.057 91.3829 719.755 92.1294 715.9 93.9963Z" fill="#73AB5A"/>
<path d="M731.415 106.463C732.22 94.6799 732.622 94.7105 734.633 93.5702C721.12 88.7051 712.112 95.0599 709.297 98.8609C716.268 102.155 730.45 107.679 731.415 106.463Z" fill="#F0F0F0"/>
<path d="M719.384 95.1334C714.033 92.3905 698.033 94.9126 695.55 99.248C692.145 105.191 694.183 104.578 697.08 107.121L733.003 106.106C730.571 103.363 723.664 97.3278 719.384 95.1334Z" fill="#D5D5D5"/>
<path d="M718.504 95.9078C713.124 93.2266 697.153 95.9328 694.716 100.297C691.375 106.278 693.407 105.642 696.331 108.152L732.241 106.722C729.78 104.008 722.808 98.0528 718.504 95.9078Z" fill="#A7A7A7"/>
<rect x="693.852" y="107.299" width="50.4223" height="59" rx="25.2111" fill="#FBC0AE"/>
<ellipse cx="723.427" cy="129.799" rx="1.45449" ry="1.5" fill="#282828"/>
<ellipse cx="706.943" cy="129.799" rx="1.45449" ry="1.5" fill="#282828"/>
<path d="M711.309 161.565L744.277 141.299V176.658C744.277 176.658 726.102 184.85 711.309 176.658C711.309 171.483 711.309 161.565 711.309 161.565Z" fill="#FBC0AE"/>
<path d="M708.397 125.299C708.034 124.299 707.746 123.299 706.943 123.299C706.139 123.299 705.852 124.299 705.488 125.299" stroke="#282828" stroke-linecap="round"/>
<path d="M724.882 125.299C724.518 124.299 724.23 123.299 723.427 123.299C722.624 123.299 722.336 124.299 721.973 125.299" stroke="#282828" stroke-linecap="round"/>
<path d="M731.052 118.191C726.938 115.767 703.178 112.38 697.485 121.893C694.68 121.461 693.694 110.523 696.499 107.926C699.304 105.329 710.272 103.305 716.416 103.305C723.521 103.304 738.985 102.733 746.114 113.058C748.772 116.908 749.707 124.828 748.772 130.166L739.912 135.299C738.51 131.548 735.167 120.614 731.052 118.191Z" fill="#373737"/>
<path d="M748.088 125.299C747.646 125.299 746.444 111.703 732.641 104.699C735.73 103.463 732.288 104.781 737.937 103.463C744.998 101.815 749.537 113.062 749.095 115.122C748.742 116.77 748.529 125.299 748.088 125.299Z" fill="#73AA5A"/>
<ellipse cx="744.275" cy="133.799" rx="5.81796" ry="6.5" fill="#FBC0AE"/>
<path fill-rule="evenodd" clip-rule="evenodd" d="M743.791 131.3C743.791 131.024 744.009 130.8 744.276 130.8C745.68 130.8 746.777 131.278 747.525 132.037C748.27 132.793 748.64 133.799 748.64 134.8C748.64 135.801 748.27 136.807 747.525 137.562C746.777 138.322 745.68 138.8 744.276 138.8C744.009 138.8 743.791 138.576 743.791 138.3C743.791 138.024 744.009 137.8 744.276 137.8C745.459 137.8 746.301 137.403 746.845 136.85C747.394 136.293 747.67 135.549 747.67 134.8C747.67 134.051 747.394 133.307 746.845 132.75C746.301 132.197 745.459 131.8 744.276 131.8C744.009 131.8 743.791 131.576 743.791 131.3ZM715.187 132.8C715.454 132.8 715.671 133.024 715.671 133.3V134.4C715.671 135.244 715.012 135.859 714.282 135.958C712.519 136.196 711.793 137.068 711.793 137.85C711.793 138.323 712.037 138.791 712.593 139.163C713.156 139.539 714.026 139.8 715.187 139.8C715.454 139.8 715.671 140.024 715.671 140.3C715.671 140.576 715.454 140.8 715.187 140.8C713.899 140.8 712.829 140.512 712.066 140.002C711.294 139.487 710.823 138.73 710.823 137.85C710.823 136.305 712.212 135.229 714.156 134.966C714.487 134.922 714.702 134.66 714.702 134.4V133.3C714.702 133.024 714.919 132.8 715.187 132.8ZM709.498 138.818C709.756 138.892 709.907 139.167 709.836 139.434C709.587 140.359 709.037 143.067 708.883 146.324C708.87 146.6 708.643 146.813 708.375 146.799C708.108 146.786 707.902 146.551 707.915 146.276C708.072 142.944 708.633 140.162 708.901 139.166C708.973 138.9 709.24 138.744 709.498 138.818ZM722.708 138.863C722.943 138.729 723.238 138.816 723.368 139.057C723.914 140.071 725.048 142.882 725.366 146.251C725.392 146.526 725.197 146.771 724.93 146.797C724.663 146.824 724.426 146.623 724.401 146.348C724.097 143.129 723.008 140.45 722.52 139.542C722.39 139.301 722.474 138.997 722.708 138.863ZM711.308 143.8C711.576 143.8 711.793 144.024 711.793 144.3C711.793 145.135 712.139 145.741 712.662 146.152C713.199 146.574 713.938 146.8 714.702 146.8C715.465 146.8 716.205 146.574 716.741 146.152C717.264 145.741 717.611 145.135 717.611 144.3C717.611 144.024 717.828 143.8 718.095 143.8C718.363 143.8 718.58 144.024 718.58 144.3C718.58 145.465 718.078 146.358 717.329 146.948C716.593 147.526 715.635 147.8 714.702 147.8C713.768 147.8 712.811 147.526 712.075 146.948C711.325 146.358 710.823 145.465 710.823 144.3C710.823 144.024 711.04 143.8 711.308 143.8ZM728.276 165.337C728.342 165.605 728.185 165.877 727.926 165.946C719.746 168.102 714.526 167.319 712.601 167.03C712.538 167.02 712.478 167.011 712.422 167.003L712.56 166.013C712.617 166.022 712.677 166.031 712.742 166.04C714.613 166.322 719.69 167.085 727.686 164.977C727.945 164.908 728.209 165.07 728.276 165.337Z" fill="#282828"/>
<path d="M872.691 203.354C854.381 181.224 1032.65 181.546 1032.65 203.355C1037.35 284.148 1017.88 351.293 1017.88 370.852C1017.88 390.411 886.4 388.918 879.828 370.852C873.257 352.786 883.528 345.053 872.691 203.354Z" fill="#73AA5A"/>
<ellipse cx="893.132" cy="239.544" rx="45.1987" ry="48.1329" fill="#73AA5A"/>
<ellipse cx="31.1221" cy="32.9241" rx="31.1221" ry="32.9241" transform="matrix(0.84281 0.538212 -0.514767 0.85733 1007.84 183.617)" fill="#73AA5A"/>
<path d="M844.434 263.943C846.904 253.267 857.532 246.735 868.172 249.353C879.749 252.201 886.358 264.577 882.274 275.756L866.566 318.739C863.621 326.799 855.14 331.309 846.794 329.256C837.665 327.01 831.982 317.763 834.101 308.604L844.434 263.943Z" fill="#FBC0AE"/>
<path d="M860.308 317.414C862.544 321.117 861.306 326.02 857.58 328.226C845.998 335.081 831.296 330.389 825.781 318.078L794.515 248.278L812.318 237.9L860.308 317.414Z" fill="#FBC0AE"/>
<path d="M842.873 264.928L849.407 226.371L893.597 249.983L885.775 277.344C857.19 280.748 847.01 271.03 842.873 264.928Z" fill="#73AA5A"/>
<path d="M875.013 117.362C875.013 124.857 880.211 130.933 886.624 130.933C893.036 130.933 898.234 124.857 898.234 117.362C898.234 109.868 893.036 103.792 886.624 103.792C880.211 103.792 875.013 109.868 875.013 117.362Z" fill="#E8AB98"/>
<path fill-rule="evenodd" clip-rule="evenodd" d="M886.625 110.179C886.625 109.738 886.278 109.381 885.851 109.381C883.488 109.381 881.672 110.388 880.462 111.92C879.267 113.432 878.691 115.415 878.691 117.363C878.691 119.312 879.267 121.295 880.462 122.807C881.672 124.338 883.488 125.346 885.851 125.346C886.278 125.346 886.625 124.989 886.625 124.548C886.625 124.107 886.278 123.75 885.851 123.75C883.957 123.75 882.58 122.961 881.662 121.798C880.728 120.616 880.239 119.007 880.239 117.363C880.239 115.72 880.728 114.111 881.662 112.928C882.58 111.766 883.957 110.977 885.851 110.977C886.278 110.977 886.625 110.62 886.625 110.179Z" fill="#28495C"/>
<path d="M890.295 57.2019C896.884 30.0285 923.741 12.8301 950.28 18.7883L953.634 19.5415C980.173 25.4997 996.345 52.3582 989.755 79.5317C955.767 76.005 922.395 68.5128 890.295 57.2019Z" fill="#FFB762"/>
<path d="M990.346 59.8865C950.87 44.7198 913.716 41.5265 895.139 44.7195L892.043 51.1056L991.12 67.0709L990.346 59.8865Z" fill="#73AA5A"/>
<path d="M1038.15 96.9349C1035.42 111.268 988.783 115.059 933.983 105.402C879.184 95.745 836.972 76.2969 839.7 61.9636C842.429 47.6302 889.064 43.8393 943.864 53.4964C998.663 63.1535 1040.88 82.6015 1038.15 96.9349Z" fill="#FFB762"/>
<path d="M918.717 162.065L979.093 124.547V190.004C979.093 190.004 915.264 251.471 918.717 190.004C918.717 180.425 918.717 162.065 918.717 162.065Z" fill="#FBC0AE"/>
<path d="M884.656 106.986C884.656 84.943 901.984 67.0732 923.358 67.0732H941.935C963.31 67.0732 980.638 84.943 980.638 106.986V138.917C980.638 160.96 963.31 178.83 941.935 178.83H923.358C901.984 178.83 884.656 160.96 884.656 138.917V106.986Z" fill="#FBC0AE"/>
<path fill-rule="evenodd" clip-rule="evenodd" d="M918.715 115.768C919.143 115.768 919.489 116.125 919.489 116.566V119.28C919.489 120.645 918.415 121.547 917.419 121.868C915.818 122.382 914.845 123.925 914.845 125.906C914.845 127.128 915.221 128.186 915.869 128.927C916.508 129.659 917.455 130.136 918.715 130.136C919.143 130.136 919.489 130.494 919.489 130.935C919.489 131.375 919.143 131.733 918.715 131.733C917.044 131.733 915.669 131.084 914.719 129.996C913.777 128.917 913.297 127.46 913.297 125.906C913.297 123.38 914.579 121.108 916.959 120.343C917.595 120.139 917.941 119.679 917.941 119.28V116.566C917.941 116.125 918.288 115.768 918.715 115.768Z" fill="#28495C"/>
<path d="M937.294 108.581C937.294 110.344 935.908 111.774 934.198 111.774C932.488 111.774 931.102 110.344 931.102 108.581C931.102 106.817 932.488 105.388 934.198 105.388C935.908 105.388 937.294 106.817 937.294 108.581Z" fill="#28495C"/>
<path d="M907.88 108.584C907.88 110.347 906.494 111.777 904.784 111.777C903.074 111.777 901.688 110.347 901.688 108.584C901.688 106.82 903.074 105.391 904.784 105.391C906.494 105.391 907.88 106.82 907.88 108.584Z" fill="#28495C"/>
<path fill-rule="evenodd" clip-rule="evenodd" d="M902.439 100.949C902.375 101.016 902.308 101.087 902.235 101.161C901.933 101.473 901.443 101.473 901.141 101.161C900.838 100.85 900.838 100.344 901.141 100.032C901.193 99.9781 901.248 99.9207 901.305 99.8611C901.62 99.5288 902 99.1289 902.474 98.8228C903.073 98.4364 903.798 98.2021 904.784 98.2021C905.77 98.2021 906.496 98.4364 907.094 98.8228C907.568 99.1289 907.948 99.5288 908.264 99.8611C908.321 99.9207 908.375 99.9782 908.428 100.032C908.73 100.344 908.73 100.85 908.428 101.161C908.125 101.473 907.635 101.473 907.333 101.161C907.261 101.087 907.193 101.016 907.129 100.949C906.813 100.619 906.578 100.373 906.273 100.176C905.944 99.9636 905.508 99.7987 904.784 99.7987C904.06 99.7987 903.625 99.9636 903.296 100.176C902.99 100.373 902.756 100.619 902.439 100.949Z" fill="#28495C"/>
<path fill-rule="evenodd" clip-rule="evenodd" d="M931.853 100.949C931.789 101.016 931.722 101.087 931.649 101.161C931.347 101.473 930.857 101.473 930.555 101.161C930.253 100.85 930.253 100.344 930.555 100.032C930.608 99.9781 930.662 99.9207 930.719 99.8611C931.034 99.5288 931.414 99.1289 931.888 98.8228C932.487 98.4364 933.212 98.2021 934.198 98.2021C935.184 98.2021 935.91 98.4364 936.508 98.8228C936.982 99.1289 937.362 99.5288 937.678 99.8611C937.735 99.9207 937.789 99.9782 937.842 100.032C938.144 100.344 938.144 100.85 937.842 101.161C937.54 101.473 937.049 101.473 936.747 101.161C936.675 101.087 936.607 101.016 936.543 100.949C936.227 100.619 935.993 100.373 935.687 100.176C935.358 99.9636 934.922 99.7987 934.198 99.7987C933.474 99.7987 933.039 99.9636 932.71 100.176C932.404 100.373 932.17 100.619 931.853 100.949Z" fill="#28495C"/>
<path fill-rule="evenodd" clip-rule="evenodd" d="M912.524 134.924C912.952 134.924 913.298 135.281 913.298 135.722C913.298 137.599 914.055 138.968 915.181 139.885C916.327 140.819 917.891 141.31 919.49 141.31C921.09 141.31 922.654 140.819 923.8 139.885C924.926 138.968 925.683 137.599 925.683 135.722C925.683 135.281 926.029 134.924 926.457 134.924C926.884 134.924 927.231 135.281 927.231 135.722C927.231 138.102 926.246 139.927 924.76 141.138C923.294 142.333 921.374 142.906 919.49 142.906C917.607 142.906 915.687 142.333 914.221 141.138C912.735 139.927 911.75 138.102 911.75 135.722C911.75 135.281 912.097 134.924 912.524 134.924Z" fill="#28495C"/>
<path fill-rule="evenodd" clip-rule="evenodd" d="M918.697 180.088C918.576 180.083 918.462 180.077 918.354 180.072L918.423 178.477C918.532 178.482 918.647 178.488 918.77 178.494C922.365 178.665 932.122 179.128 947.513 175.355C947.929 175.253 948.346 175.518 948.445 175.947C948.544 176.376 948.287 176.806 947.871 176.908C932.273 180.732 922.355 180.262 918.697 180.088Z" fill="#28495C"/>
<path d="M950.687 81.789C943.163 77.3145 893.947 70.2643 889.303 88.6244C884.173 87.8253 886.912 75.8569 892.042 71.0628C897.172 66.2687 911.768 64.6768 923.003 64.6768C935.998 64.6767 970.22 69.4659 980.283 79.8434C982.605 87.8261 984.801 94.0414 983.091 103.896L966.889 113.371C964.324 106.446 958.211 86.2635 950.687 81.789Z" fill="#28495C"/>
<path d="M989.928 117.362C989.928 124.857 984.73 130.933 978.318 130.933C971.905 130.933 966.707 124.857 966.707 117.362C966.707 109.868 971.905 103.792 978.318 103.792C984.73 103.792 989.928 109.868 989.928 117.362Z" fill="#FBC0AE"/>
<path fill-rule="evenodd" clip-rule="evenodd" d="M978.316 110.179C978.316 109.738 978.663 109.381 979.09 109.381C981.454 109.381 983.27 110.388 984.48 111.92C985.675 113.432 986.25 115.415 986.25 117.363C986.25 119.312 985.675 121.295 984.48 122.807C983.27 124.338 981.454 125.346 979.09 125.346C978.663 125.346 978.316 124.989 978.316 124.548C978.316 124.107 978.663 123.75 979.09 123.75C980.984 123.75 982.361 122.961 983.28 121.798C984.214 120.616 984.702 119.007 984.702 117.363C984.702 115.72 984.214 114.111 983.28 112.928C982.361 111.766 980.984 110.977 979.09 110.977C978.663 110.977 978.316 110.62 978.316 110.179Z" fill="#28495C"/>
<path d="M992.67 260.251C928.425 245.084 888.949 256.259 888.949 256.259L876.564 306.55C876.564 362.456 869.598 418.389 869.598 474.185C899.011 474.185 916.814 471.79 938.487 463.808C984.93 446.702 1013.57 415.114 1021.31 403.14L1025.18 320.919C1025.18 320.919 1003.51 281.804 992.67 260.251Z" fill="#28495C"/>
<path d="M884.355 289.722C884.749 252.02 882.863 197.763 885.851 191.601L899.784 190.005C897.477 192.219 899.682 230.709 899.78 289.766C899.784 291.975 897.993 293.779 895.784 293.779H888.366C886.132 293.779 884.332 291.955 884.355 289.722Z" fill="#17394D"/>
<path d="M963.429 290.893L964.028 281.006C983.379 212.355 1004.28 191.6 1008.92 191.6C1012.64 191.6 1022.86 194.526 1026.73 196.389C1015.11 193.994 1005.83 211.556 1002.73 218.741L979.509 295.374L966.13 294.06C964.524 293.902 963.331 292.503 963.429 290.893Z" fill="#1B3F53"/>
<ellipse cx="970.996" cy="287.392" rx="4.64426" ry="4.78958" fill="#40728E"/>
<path d="M953.742 273.559L978.57 189.761C978.679 189.392 978.735 189.009 978.735 188.625V170.845C981.057 171.643 987.094 173.878 992.668 176.433C997.921 178.84 1001.29 186.638 1002.53 190.868C1002.67 191.351 1002.89 191.795 1003.02 192.28C1004.63 198.146 1000.59 230.487 1001.18 232.311C1001.96 234.706 1000.41 248.276 1002.73 254.662C1005.05 261.048 998.086 266.636 1000.41 269.031C1002.73 271.426 997.312 275.417 994.216 278.61C991.12 281.803 990.345 280.207 987.249 278.61C984.153 277.014 984.153 281.005 981.057 284.198C977.961 287.391 973.317 288.988 967.898 284.198C965.54 282.114 964.145 281.588 962.863 281.928C960.661 282.512 958.288 282.644 956.974 280.782L954.308 277.001C953.603 276.001 953.394 274.733 953.742 273.559Z" fill="#F1F1F1"/>
<path d="M974.868 333.692C957.529 336.885 908.042 333.426 888.949 332.096L890.497 375.202C910.313 412.241 958.355 394.892 976.416 380.79L974.868 333.692Z" stroke="#1B3F53"/>
<path d="M989.699 250.678C995.203 239.761 1008.35 235.681 1019.07 241.563C1030.54 247.86 1034.42 262.866 1027.43 273.875L988.464 335.224C983.372 343.241 973.126 345.855 964.771 341.27C955.798 336.344 952.259 324.941 956.867 315.8L989.699 250.678Z" fill="#FBC0AE"/>
<path d="M888.949 339.279C899.786 343.005 931.367 345.346 974.094 340.876" stroke="#1B3F53"/>
<path d="M986.585 323.226C990.364 326.36 990.969 332.095 987.931 335.985C977.592 349.223 958.175 349.251 947.718 336.044L902.449 278.866L916.18 264.847L986.585 323.226Z" fill="#FBC0AE"/>
<path d="M1018.99 296.175L1045.31 240.296L1001.96 219.542L977.128 266.237C969.465 276.048 1017.78 301.123 1018.99 296.175Z" fill="#73AA5A"/>
<path d="M828.191 171.769L796.643 174.357C795.48 174.452 794.637 175.522 794.816 176.676L803.118 230.346C803.272 231.34 804.14 232.059 805.145 232.024L836.175 230.94C837.368 230.899 838.267 229.825 838.1 228.642L830.315 173.468C830.168 172.426 829.239 171.683 828.191 171.769Z" fill="#343434"/>
<path d="M836.377 234.011L837.709 230.47C837.956 229.812 837.844 229.075 837.412 228.528L795.365 175.197L792.754 177.506C792.239 177.962 791.99 178.648 792.094 179.324L800.609 234.754C800.762 235.75 801.63 236.469 802.636 236.434L834.562 235.32C835.373 235.291 836.09 234.774 836.377 234.011Z" fill="#343434"/>
<path d="M825.491 174.655L793.912 177.191C792.748 177.284 791.903 178.354 792.081 179.509L800.606 234.75C800.76 235.747 801.631 236.467 802.638 236.429L834.407 235.242C835.607 235.197 836.506 234.107 836.323 232.919L827.608 176.329C827.45 175.3 826.529 174.571 825.491 174.655Z" fill="#5A5A5A"/>
<path d="M791.418 225.929C791.418 231.007 793.375 243.653 794.177 248.623C794.359 249.747 795.443 250.476 796.556 250.239L815.788 246.136C816.51 245.982 817.089 245.442 817.293 244.732L822.812 225.522C823.021 224.793 822.8 224.009 822.241 223.496L810.353 212.598C809.686 211.986 809.513 211.002 809.932 210.198L814.505 201.441C814.594 201.27 814.712 201.116 814.828 200.962C816.733 198.422 812.955 192.566 808.447 197.99C803.287 204.2 791.418 219.543 791.418 225.929Z" fill="#FBC0AE"/>
<path d="M816.731 199.225L807.767 210.019C807.157 210.754 806.839 211.692 806.876 212.652C807.017 216.366 811.758 217.846 813.934 214.855L822.19 203.507C823.1 202.256 823.062 200.544 822.098 199.32C820.731 197.586 818.13 197.541 816.731 199.225Z" fill="#FBC0AE"/>
<path d="M820.823 205.913L811.956 216.791C811.352 217.532 811.043 218.472 811.088 219.432C811.262 223.144 816.017 224.579 818.166 221.568L826.321 210.143C827.22 208.884 827.167 207.172 826.191 205.957C824.81 204.237 822.207 204.215 820.823 205.913Z" fill="#FBC0AE"/>
<path d="M823.206 214.551L814.964 225.536C814.463 226.203 814.207 227.024 814.238 227.861C814.369 231.43 818.997 232.758 820.953 229.788L828.51 218.315C829.259 217.179 829.213 215.688 828.396 214.588C827.1 212.842 824.502 212.824 823.206 214.551Z" fill="#FBC0AE"/>
<path d="M909.071 233.906C909.071 214.747 915.263 195.589 918.36 188.405V178.826L916.811 178.027C914.489 180.422 909.071 182.019 905.975 184.413C902.058 187.442 895.138 197.984 894.364 200.379C893.59 202.773 887.398 211.554 883.528 225.125C879.658 238.695 876.561 251.468 875.787 253.862C875.168 255.778 875.529 259.982 875.787 261.845L883.528 262.643C884.56 261.845 887.243 260.248 889.72 260.248C892.816 260.248 892.816 261.845 894.364 262.643C895.912 263.441 899.783 263.441 905.201 265.836C909.535 267.752 909.587 265.038 909.071 263.441V233.906Z" fill="#F1F1F1"/>
<path d="M903.098 249.877C906.906 253.293 915.16 263.492 918.18 267.27C918.828 268.081 918.771 269.263 918.057 270.002L905.63 282.851L889.331 275.506C888.748 275.244 888.322 274.705 888.186 274.061L884.433 256.248C884.266 255.454 883.662 254.835 882.896 254.675L869.917 251.948C869.741 251.912 869.561 251.905 869.382 251.898C866.226 251.784 863.896 245.454 871.352 244.877C879.286 244.264 898.39 245.652 903.098 249.877Z" fill="#FBC0AE"/>
<ellipse cx="892.039" cy="285.795" rx="4.64426" ry="4.78958" fill="#40728E"/>
<path d="M506.332 353.035C504.32 352.806 499.555 353.008 496.936 353.146C495.911 353.199 495.104 354.028 495.062 355.053L494.764 362.408L502.228 365.789C502.512 365.917 502.822 365.978 503.134 365.965L512.202 365.595L516.074 365.291C517.622 365.167 519.315 364.902 517.124 362.052C514.858 359.102 509.177 353.358 506.332 353.035Z" fill="#FBC0AE"/>
<defs>
<filter id="filter0_f_1763_17802" x="481.293" y="253.677" width="13.8125" height="10.9961" filterUnits="userSpaceOnUse" color-interpolation-filters="sRGB">
<feFlood flood-opacity="0" result="BackgroundImageFix"/>
<feBlend mode="normal" in="SourceGraphic" in2="BackgroundImageFix" result="shape"/>
<feGaussianBlur stdDeviation="2" result="effect1_foregroundBlur_1763_17802"/>
</filter>
<filter id="filter1_f_1763_17802" x="500.906" y="253.677" width="13.0859" height="10.9961" filterUnits="userSpaceOnUse" color-interpolation-filters="sRGB">
<feFlood flood-opacity="0" result="BackgroundImageFix"/>
<feBlend mode="normal" in="SourceGraphic" in2="BackgroundImageFix" result="shape"/>
<feGaussianBlur stdDeviation="2" result="effect1_foregroundBlur_1763_17802"/>
</filter>
<filter id="filter2_f_1763_17802" x="612.957" y="165.163" width="14.2227" height="11.208" filterUnits="userSpaceOnUse" color-interpolation-filters="sRGB">
<feFlood flood-opacity="0" result="BackgroundImageFix"/>
<feBlend mode="normal" in="SourceGraphic" in2="BackgroundImageFix" result="shape"/>
<feGaussianBlur stdDeviation="2" result="effect1_foregroundBlur_1763_17802"/>
</filter>
<filter id="filter3_f_1763_17802" x="594.551" y="165.163" width="13.4453" height="11.208" filterUnits="userSpaceOnUse" color-interpolation-filters="sRGB">
<feFlood flood-opacity="0" result="BackgroundImageFix"/>
<feBlend mode="normal" in="SourceGraphic" in2="BackgroundImageFix" result="shape"/>
<feGaussianBlur stdDeviation="2" result="effect1_foregroundBlur_1763_17802"/>
</filter>
</defs>
</svg>
