<svg xmlns="http://www.w3.org/2000/svg" width="125" height="37" viewBox="0 0 125 37" fill="none">
  <path d="M98.2456 36.8371C95.9902 36.8371 94.1537 35.0242 94.1245 32.769L93.7021 0.162109L109.347 11.6821L124.517 0.162109V32.7421C124.517 35.0037 122.684 36.8371 120.422 36.8371C118.161 36.8371 116.327 35.0037 116.327 32.7421V16.7221L109.347 21.8071L102.367 16.7221V32.7156C102.367 34.9918 100.522 36.8371 98.2456 36.8371Z" fill="black"/>
  <path d="M89.8709 30.8483C91.538 33.4326 89.6827 36.8371 86.6073 36.8371C85.153 36.8371 83.8206 36.0246 83.1547 34.7317L77.1291 23.0321H70.6041V32.7421C70.6041 35.0037 68.7707 36.8371 66.5091 36.8371C64.2475 36.8371 62.4141 35.0037 62.4141 32.7421V0.162109H77.1741C86.4891 0.162109 91.9341 5.11211 91.9341 12.7171C91.9341 17.7571 89.5491 21.6271 85.2291 23.6521L89.8709 30.8483ZM70.6041 7.40711V15.7871H76.8141C81.1341 15.7871 83.5 15.2521 83.5 11.7871C83.5 8.32211 81.1341 7.40711 76.8141 7.40711H70.6041Z" fill="black"/>
  <path d="M55.6454 36.8371C53.356 36.8371 51.5 34.9811 51.5 32.6917V22.7871H42.5L38.5088 34.2236C37.9626 35.7887 36.4863 36.8371 34.8286 36.8371C32.0887 36.8371 30.2039 34.0848 31.1944 31.5302L40.386 7.82401C42.1767 3.20563 46.621 0.162109 51.5744 0.162109H59.7909V32.6917C59.7909 34.9811 57.9349 36.8371 55.6454 36.8371ZM44.5 15.7871H51.5V7.28711C49.6688 7.28711 48.0023 8.34467 47.2226 10.0016L44.5 15.7871Z" fill="black"/>
  <path d="M17.095 36.8371C14.8334 36.8371 13 35.0037 13 32.7421V15.1621C13 6.87784 19.7157 0.162109 28 0.162109H40.91L37.91 7.36211H29.515C24.9172 7.36211 21.19 11.0893 21.19 15.6871H34.84L31.84 22.7971H21.19V32.7421C21.19 35.0037 19.3566 36.8371 17.095 36.8371Z" fill="black"/>
  <rect y="27.7871" width="9" height="9" fill="black"/>
</svg>
