<svg width="201" height="135" viewBox="0 0 201 135" fill="none" xmlns="http://www.w3.org/2000/svg">
<path d="M151.236 52.3121C153.047 50.9837 153.273 25.5037 147.839 9.20111C146.889 6.34827 142.746 17.5333 142.746 17.5333C143.764 34.5604 136.277 47.9267 142.39 51.1872C145.007 52.5832 149.424 53.6404 151.236 52.3121Z" fill="#282828"/>
<path d="M131.678 57.7543C140.653 44.6366 176.555 46.016 187.601 58.4444C189.332 97.0566 182.311 112.616 182.311 121.963C182.311 131.311 137.201 128.176 138.582 119.201C139.963 110.225 139.425 125.269 131.678 57.7543Z" fill="#FF6C6C"/>
<circle cx="139.272" cy="63.277" r="10.3561" fill="#FF6C6C"/>
<ellipse cx="178.927" cy="66.2405" rx="11.1993" ry="11.6862" transform="rotate(29.3593 178.927 66.2405)" fill="#FF6C6C"/>
<path d="M148.486 39.922L168.96 28.0664L167.889 50.6846C167.889 50.6846 148.246 74.3238 148.486 50.6846C148.486 46.9946 148.486 39.922 148.486 39.922Z" fill="#FBC0AE"/>
<rect x="131.022" y="4.77246" width="38.8075" height="40.1011" rx="19.4037" fill="#FBC0AE"/>
<path d="M145.798 30.6434C144.573 30.6434 143.857 29.7312 143.857 28.606C143.857 27.8199 144.207 27.1378 144.835 26.798C145.321 26.5353 145.798 26.1209 145.798 25.5686V24.8223" stroke="#282828" stroke-width="0.5" stroke-linecap="round"/>
<path d="M153.562 22.8844C153.562 23.5988 152.983 24.178 152.268 24.178C151.554 24.178 150.975 23.5988 150.975 22.8844C150.975 22.17 151.554 23.2351 152.268 23.2351C152.983 23.2351 153.562 22.17 153.562 22.8844Z" fill="#282828"/>
<g filter="url(#filter0_f_467_2062)">
<ellipse cx="154.307" cy="26.7633" rx="2.58717" ry="1.29358" fill="#FF6C6C"/>
</g>
<path d="M141.272 22.8844C141.272 23.5988 140.693 24.178 139.978 24.178C139.264 24.178 138.685 23.5988 138.685 22.8844C138.685 22.17 139.264 23.2351 139.978 23.2351C140.693 23.2351 141.272 22.17 141.272 22.8844Z" fill="#282828"/>
<g filter="url(#filter1_f_467_2062)">
<ellipse cx="137.167" cy="26.7633" rx="2.26377" ry="1.29358" fill="#FF6C6C"/>
</g>
<path d="M140.624 18.3528C140.301 18.0295 140.045 17.7061 139.331 17.7061C138.616 17.7061 138.361 18.0295 138.037 18.3528" stroke="#282828" stroke-linecap="round"/>
<path d="M153.562 18.3528C153.238 18.0295 152.983 17.7061 152.268 17.7061C151.554 17.7061 151.298 18.0295 150.975 18.3528" stroke="#282828" stroke-linecap="round"/>
<path d="M149.034 35.1719C149.034 31.7223 143.213 31.7223 143.213 35.1719" stroke="#282828" stroke-width="0.5" stroke-linecap="round"/>
<path d="M160.666 42.7967C160.773 42.7103 160.791 42.553 160.704 42.4453C160.618 42.3376 160.46 42.3203 160.353 42.4067L160.666 42.7967ZM148.485 45.3184C149.159 45.3212 151.216 45.4952 153.569 45.2714C155.925 45.0475 158.639 44.4226 160.666 42.7967L160.353 42.4067C158.44 43.9416 155.843 44.553 153.522 44.7737C151.2 44.9945 149.214 44.8214 148.487 44.8184L148.485 45.3184Z" fill="#282828"/>
<path d="M55.26 16.5122V18.4022H49.302V10.7882H55.134V12.6782H51.66V16.5122H55.26ZM48.366 16.0982L48.528 18.0422C46.89 18.3662 45.468 18.4022 43.47 18.4022H42.426V10.7882H48.24V12.6782H44.802V16.4402C46.098 16.4222 47.178 16.3322 48.366 16.0982ZM49.914 22.1642H56.286V24.0722H41.274V22.1642H47.538V19.1042H49.914V22.1642ZM65.2846 24.4142C66.9766 24.4142 67.8406 24.2342 67.8406 23.7482C67.8406 23.2622 66.9766 23.0642 65.2846 23.0642C63.6106 23.0642 62.7466 23.2622 62.7466 23.7482C62.7466 24.2342 63.6106 24.4142 65.2846 24.4142ZM65.2846 21.4802C68.4886 21.4802 70.3606 22.2722 70.3606 23.7482C70.3606 25.2062 68.4886 25.9982 65.2846 25.9982C62.0986 25.9982 60.2446 25.2062 60.2446 23.7482C60.2446 22.2722 62.0986 21.4802 65.2846 21.4802ZM66.4906 18.0782V19.2302H71.4406V21.0122H59.1826V19.2302H64.1146V18.0782H66.4906ZM66.5986 15.7022H72.8626V17.5742H57.8326V15.7022H64.2226V14.5502H59.7406V9.69019H62.1166V12.7142H71.2426V14.5502H66.5986V15.7022ZM84.7412 16.9622L83.6612 18.8162C81.7532 18.3122 80.4572 17.2502 79.6832 15.8822C78.9272 17.3762 77.5952 18.5462 75.6332 19.0862L74.5352 17.2502C77.1452 16.5302 78.3512 14.7482 78.4412 12.9302H75.0932V11.0582H78.4412V9.34819H80.8172V11.0582H84.1472V12.9302H80.8172C80.9252 14.6042 82.1492 16.2962 84.7412 16.9622ZM79.4672 21.7142V23.9462H85.8392V21.7142H79.4672ZM77.1272 25.8002V19.8422H88.1612V25.8002H77.1272ZM85.7672 9.42019H88.1612V19.1222H85.7672V9.42019ZM91.2018 23.1902C91.2018 22.6382 91.3518 22.2542 91.6518 22.0382C91.9518 21.8102 92.3178 21.6962 92.7498 21.6962C93.1698 21.6962 93.5298 21.8102 93.8298 22.0382C94.1298 22.2542 94.2798 22.6382 94.2798 23.1902C94.2798 23.7182 94.1298 24.1022 93.8298 24.3422C93.5298 24.5702 93.1698 24.6842 92.7498 24.6842C92.3178 24.6842 91.9518 24.5702 91.6518 24.3422C91.3518 24.1022 91.2018 23.7182 91.2018 23.1902ZM96.3346 23.1902C96.3346 22.6382 96.4846 22.2542 96.7846 22.0382C97.0846 21.8102 97.4506 21.6962 97.8826 21.6962C98.3026 21.6962 98.6626 21.8102 98.9626 22.0382C99.2626 22.2542 99.4126 22.6382 99.4126 23.1902C99.4126 23.7182 99.2626 24.1022 98.9626 24.3422C98.6626 24.5702 98.3026 24.6842 97.8826 24.6842C97.4506 24.6842 97.0846 24.5702 96.7846 24.3422C96.4846 24.1022 96.3346 23.7182 96.3346 23.1902Z" fill="#878787"/>
<rect x="0.5" y="122.45" width="200" height="12" rx="1" fill="#673E3E"/>
<rect x="87.4912" y="117.819" width="78.7067" height="4.14246" rx="2.07123" fill="#A8A8A8"/>
<path d="M174.815 78.5142C175.362 74.5534 179.187 71.9502 183.074 72.8924C186.438 73.7078 188.679 76.9225 188.278 80.3601L185.324 105.701C184.871 109.586 181.356 112.336 177.479 111.836C173.558 111.331 170.785 107.7 171.326 103.781L174.815 78.5142Z" fill="#FBC0AE"/>
<path d="M188.954 91.2271L190.363 67.4195L173.853 67.1398L171.152 87.1536C169.149 91.725 188.992 93.2482 188.954 91.2271Z" fill="#FF6C6C"/>
<path d="M126.439 84.9937C127.437 80.8103 131.637 78.2281 135.821 79.2262C140.304 80.2958 142.882 85.0033 141.37 89.3568L133.144 113.033C132.043 116.201 128.721 118.021 125.459 117.242C121.95 116.405 119.785 112.882 120.622 109.374L126.439 84.9937Z" fill="#FBC0AE"/>
<path d="M123.255 86.6827L128.916 62.587L143.416 71.5615L141.345 92.2733C139.964 96.4157 122.703 88.8217 123.255 86.6827Z" fill="#FF6C6C"/>
<path d="M131.176 102.974C133.038 102.695 134.784 103.99 135.062 105.854C136.006 112.2 130.905 117.763 124.496 117.377L96.659 115.696L96.3933 108.181L131.176 102.974Z" fill="#FBC0AE"/>
<path d="M90.4972 107.831C92.1858 107.645 96.1024 107.797 98.4234 107.912C99.4553 107.963 100.275 108.799 100.318 109.828L100.564 115.742L94.1137 118.575C93.837 118.696 93.5356 118.753 93.2323 118.741L85.3883 118.431L82.0191 118.174C80.6717 118.07 79.1982 117.846 81.1045 115.441C83.0772 112.951 88.0208 108.104 90.4972 107.831Z" fill="#FBC0AE"/>
<rect x="10.166" y="34.9707" width="111.846" height="67.6601" rx="6" fill="#A8A8A8"/>
<rect x="6.02344" y="34.9707" width="111.846" height="67.6601" rx="6" fill="#D9D9D9"/>
<path d="M30.5 58.6143C30.5 60.7328 28.933 62.4502 27 62.4502C25.067 62.4502 23.5 60.7328 23.5 58.6143C23.5 56.4958 25.5 52.5462 27 51.4502C28.5 52.8202 30.5 56.4958 30.5 58.6143Z" fill="#7C89FF"/>
<path d="M22.5 65.6143C22.5 67.7328 20.933 69.4502 19 69.4502C17.067 69.4502 15.5 67.7328 15.5 65.6143C15.5 63.4958 17.5 59.5462 19 58.4502C20.5 59.8202 22.5 63.4958 22.5 65.6143Z" fill="#7C89FF"/>
<rect x="50.21" y="54.3018" width="16.5698" height="67.6601" rx="2" fill="#A8A8A8"/>
<rect x="47.4482" y="54.3018" width="16.5698" height="67.6601" rx="2" fill="#C1C1C1"/>
<rect x="40.5439" y="116.439" width="45.567" height="5.52328" rx="2.76164" fill="#A8A8A8"/>
<rect x="29.4971" y="116.439" width="45.567" height="5.52328" rx="2.76164" fill="#C1C1C1"/>
<path d="M180.367 102.974C182.229 102.695 183.976 103.99 184.253 105.854C185.198 112.2 180.096 117.763 173.688 117.377L145.85 115.696L145.585 108.181L180.367 102.974Z" fill="#FBC0AE"/>
<path d="M141.587 107.831C143.276 107.645 147.192 107.797 149.513 107.912C150.545 107.963 151.364 108.799 151.407 109.828L151.654 115.742L145.204 118.575C144.927 118.696 144.626 118.753 144.322 118.741L136.478 118.431L133.109 118.174C131.762 118.07 130.288 117.846 132.195 115.441C134.167 112.951 139.111 108.104 141.587 107.831Z" fill="#FBC0AE"/>
<path d="M139.963 92.9654C141.344 89.5133 142.034 80.6761 142.034 78.4668" stroke="#B44848" stroke-width="0.5" stroke-linecap="round"/>
<path d="M172.605 74.9245L170.838 87.5318C170.903 87.9619 171.445 88.9604 173.102 89.5127" stroke="#B44848" stroke-width="0.5" stroke-linecap="round"/>
<path d="M157.136 0.897773C175.864 3.20016 175.465 13.8825 175.864 19.1217C173.555 19.4312 170.962 25.202 167.676 25.3049C167.093 25.3232 165.54 19.7454 163.76 19.7811C154.271 19.9716 144.346 19.4052 137.02 18.2855C136.636 18.2268 137.767 14.4339 137.767 14.113C137.187 14.5825 136.273 16.0388 135.899 18.1026C132.125 17.3623 129.887 16.3988 130.359 15.2245C132.164 5.44695 138.409 -1.40462 157.136 0.897773Z" fill="#282828"/>
<path d="M177.47 54.1008C179.283 52.76 179.509 27.0415 174.07 10.5863C173.118 7.70679 168.971 18.9965 168.971 18.9965C169.991 36.183 162.512 53.3694 168.631 56.6605C171.251 58.0695 175.657 55.4416 177.47 54.1008Z" fill="#282828"/>
<ellipse cx="168.759" cy="25.1471" rx="4.85093" ry="5.49773" fill="#FBC0AE"/>
<path d="M169.084 22.2373C172.641 22.2373 172.641 28.0584 169.084 28.0584" stroke="#282828" stroke-linecap="round"/>
<defs>
<filter id="filter0_f_467_2062" x="147.72" y="21.4697" width="13.1748" height="10.5869" filterUnits="userSpaceOnUse" color-interpolation-filters="sRGB">
<feFlood flood-opacity="0" result="BackgroundImageFix"/>
<feBlend mode="normal" in="SourceGraphic" in2="BackgroundImageFix" result="shape"/>
<feGaussianBlur stdDeviation="2" result="effect1_foregroundBlur_467_2062"/>
</filter>
<filter id="filter1_f_467_2062" x="130.903" y="21.4697" width="12.5273" height="10.5869" filterUnits="userSpaceOnUse" color-interpolation-filters="sRGB">
<feFlood flood-opacity="0" result="BackgroundImageFix"/>
<feBlend mode="normal" in="SourceGraphic" in2="BackgroundImageFix" result="shape"/>
<feGaussianBlur stdDeviation="2" result="effect1_foregroundBlur_467_2062"/>
</filter>
</defs>
</svg>
