<svg width="199" height="124" viewBox="0 0 199 124" fill="none" xmlns="http://www.w3.org/2000/svg">
<g clip-path="url(#clip0_467_2107)">
<path d="M133.746 20.6302V20.5502H123.486V18.4502H136.386V20.6302C136.386 23.2102 136.386 25.7302 135.706 29.5102L133.086 29.2702C133.746 25.7502 133.746 23.1302 133.746 20.6302ZM121.766 30.6102H138.426V32.7702H121.766V30.6102ZM149.625 23.7902V17.1502H152.085V34.3502H149.625V25.9102H146.745C145.705 28.0102 144.025 29.8302 141.425 31.3502L139.925 29.4902C143.605 27.2902 145.225 24.6302 145.545 21.0302H140.945V18.9302H148.165C148.165 20.6702 148.005 22.2902 147.565 23.7902H149.625ZM153.505 16.7302H156.005V35.1502H153.505V16.7302Z" fill="#878787"/>
<path d="M63.4912 72.1649C63.4911 63.7558 124.741 60.5207 124.741 68.9297C126.481 100.081 118.893 125.971 118.893 133.512C118.893 141.053 72.3922 140.478 69.9562 133.512C67.5202 126.546 66.6232 129.781 63.4912 72.1649Z" fill="#7E90FF"/>
<ellipse cx="116.103" cy="79.5996" rx="14.1582" ry="14.7738" transform="rotate(-6.8682 116.103 79.5996)" fill="#7E90FF"/>
<path d="M65.3234 53.537C68.8695 57.307 68.6879 63.238 64.9178 66.7841C60.8219 70.6366 54.2791 70.04 50.9475 65.5102L37.7199 47.5252C35.3158 44.2565 35.7306 39.7075 38.6862 36.9275C41.9138 33.8916 46.9914 34.0471 50.0272 37.2747L65.3234 53.537Z" fill="#F6BAA6"/>
<path d="M46.9228 48.8253C43.0083 50.3047 38.6357 48.3306 37.1564 44.4161C35.5914 40.2751 37.8946 35.6801 42.1488 34.4559L73.9476 25.3051C77.0681 24.4071 80.3553 26.0548 81.5032 29.0923C82.7204 32.313 81.0962 35.9106 77.8755 37.1278L46.9228 48.8253Z" fill="#F6BAA6"/>
<path d="M65.702 52.6019L78.965 67.2914L64.7677 88.3822L48.6555 66.6177C54.6682 55.4358 62.5251 52.6147 65.702 52.6019Z" fill="#7E90FF"/>
<path d="M80.7727 25.4574C85.9808 24.6782 90.5513 28.965 90.107 34.2123C89.7372 38.5798 85.9818 41.8742 81.6034 41.6721L75.677 41.3985C71.908 41.2244 68.8412 38.304 68.4833 34.548C68.1013 30.5388 70.9223 26.9312 74.9053 26.3353L80.7727 25.4574Z" fill="#F7BAA6"/>
<path d="M86.9631 2.04893C81.935 4.40993 79.6335 8.22943 79.5303 11.3197C87.4792 16.1369 105.545 20.8629 110.5 23.5897C116.075 11.3197 106.164 3.95761 101.519 2.04893C96.8734 0.140244 89.8667 0.685483 86.9631 2.04893Z" fill="#73AB5A"/>
<path d="M98.6518 11.1527C99.2576 2.54721 99.5605 2.5696 101.075 1.7368C90.8975 -1.81645 84.1125 2.82478 81.9922 5.60076C87.2425 8.00661 97.9248 12.0411 98.6518 11.1527Z" fill="#F0F0F0"/>
<path d="M89.5863 2.87915C85.5564 0.875834 73.5055 2.71782 71.6347 5.88418C69.0702 10.2247 70.6052 9.77724 72.7874 11.6343L99.8445 10.8925C98.0127 8.8892 92.8103 4.4818 89.5863 2.87915Z" fill="#D5D5D5"/>
<path d="M88.9244 3.44452C84.8723 1.48634 73.1122 3.63392 71.0074 6.64981C69.3193 9.06867 70.0215 10.5541 72.2243 12.3867L99.2714 11.3428C97.4173 9.3601 92.1661 5.01107 88.9244 3.44452Z" fill="#A7A7A7"/>
<path d="M83.6391 53.4445L107.647 38.9785V64.2171C107.647 64.2171 82.8817 89.7081 83.6391 64.2171C83.6391 60.5236 83.6391 53.4445 83.6391 53.4445Z" fill="#FBC0AE"/>
<path d="M128.9 43.5502V40.7102H124.88V43.5502H128.9ZM131.48 38.6302V45.6302H122.28V38.6302H131.48ZM132.64 46.7102L132.8 48.6502C131.18 48.8702 129.56 49.0302 127.96 49.1302V55.6302H125.32V49.2302C123.84 49.2902 122.42 49.2902 121.1 49.2902L120.8 47.1502C124.42 47.1302 128.76 47.1302 132.64 46.7102ZM133.82 37.7502H136.46V56.1502H133.82V52.1502H130.12V50.1502H133.82V37.7502ZM140.938 48.4302L139.898 46.3102C143.678 45.7302 145.818 43.5302 146.138 41.1902H140.638V39.0902H154.518V41.1902H149.018C149.338 43.5302 151.478 45.6502 155.358 46.2302L154.338 48.3302C151.098 47.7502 148.778 46.1702 147.598 44.0302C146.418 46.2102 144.138 47.8302 140.938 48.4302ZM151.858 51.9502H155.958V54.0902H139.238V51.9502H143.358V48.2102H145.998V51.9502H149.218V48.2102H151.858V51.9502ZM161.277 52.3502C161.157 52.8169 161.004 53.3235 160.817 53.8702C160.63 54.4035 160.43 54.9369 160.217 55.4702C160.004 56.0169 159.784 56.5369 159.557 57.0302H157.417C157.51 56.6302 157.604 56.2169 157.697 55.7902C157.79 55.3635 157.877 54.9302 157.957 54.4902C158.05 54.0635 158.13 53.6502 158.197 53.2502C158.277 52.8502 158.344 52.4769 158.397 52.1302H161.137L161.277 52.3502ZM157.937 44.9902C157.937 44.3769 158.104 43.9502 158.437 43.7102C158.77 43.4569 159.177 43.3302 159.657 43.3302C160.124 43.3302 160.524 43.4569 160.857 43.7102C161.19 43.9502 161.357 44.3769 161.357 44.9902C161.357 45.5769 161.19 46.0035 160.857 46.2702C160.524 46.5235 160.124 46.6502 159.657 46.6502C159.177 46.6502 158.77 46.5235 158.437 46.2702C158.104 46.0035 157.937 45.5769 157.937 44.9902ZM166.98 52.3502C166.86 52.8169 166.707 53.3235 166.52 53.8702C166.333 54.4035 166.133 54.9369 165.92 55.4702C165.707 56.0169 165.487 56.5369 165.26 57.0302H163.12C163.213 56.6302 163.307 56.2169 163.4 55.7902C163.493 55.3635 163.58 54.9302 163.66 54.4902C163.753 54.0635 163.833 53.6502 163.9 53.2502C163.98 52.8502 164.047 52.4769 164.1 52.1302H166.84L166.98 52.3502ZM163.64 44.9902C163.64 44.3769 163.807 43.9502 164.14 43.7102C164.473 43.4569 164.88 43.3302 165.36 43.3302C165.827 43.3302 166.227 43.4569 166.56 43.7102C166.893 43.9502 167.06 44.3769 167.06 44.9902C167.06 45.5769 166.893 46.0035 166.56 46.2702C166.227 46.5235 165.827 46.6502 165.36 46.6502C164.88 46.6502 164.473 46.5235 164.14 46.2702C163.807 46.0035 163.64 45.5769 163.64 44.9902Z" fill="#878787"/>
<rect x="70.0967" y="13.7402" width="38.1656" height="43.0902" rx="19.0828" fill="#FBC0AE"/>
<circle cx="82.5" cy="37.9502" r="0.5" fill="#282828"/>
<path d="M82.3867 30.7587C83.5523 30.7587 84.2334 31.6268 84.2334 32.6977C84.2334 33.4281 83.9166 34.0642 83.3452 34.3949C82.8672 34.6715 82.3867 35.0845 82.3867 35.6368L82.3867 36.2988" stroke="#282828" stroke-linecap="round"/>
<path d="M86.6949 38.7614C87.0027 39.0692 87.2461 39.377 87.9261 39.377C88.606 39.377 88.8494 39.0692 89.1572 38.7614" stroke="#282828" stroke-linecap="round"/>
<path d="M74.9996 38.7614C75.3074 39.0692 75.5508 39.377 76.2308 39.377C76.9107 39.377 77.1541 39.0692 77.4619 38.7614" stroke="#282828" stroke-linecap="round"/>
<path d="M85.54 27.9121C85.54 24.629 79.9999 24.629 79.9999 27.9121" stroke="#282828" stroke-linecap="round"/>
<path d="M95.2918 56.3203C95.5594 56.252 95.7208 55.9796 95.6524 55.7121C95.584 55.4446 95.3117 55.2831 95.0442 55.3515L95.2918 56.3203ZM83.5618 57.0955C84.8985 57.2872 88.9042 57.9532 95.2918 56.3203L95.0442 55.3515C88.8383 56.9378 84.9812 56.2888 83.7038 56.1056L83.5618 57.0955Z" fill="#282828"/>
<path d="M97.2558 20.031C94.2639 18.3057 74.8467 16.3711 73 23.4502C70.9601 23.1421 70.0903 14.5732 72.1302 12.7248C74.1701 10.8763 82.1451 9.4357 86.6126 9.43569C91.7797 9.43567 103.024 9.02884 108.208 16.3778C110.141 19.1178 110.821 24.7552 110.141 28.5548L103.698 32.2079C102.678 29.5379 100.248 21.7562 97.2558 20.031Z" fill="#282828"/>
<ellipse cx="107.338" cy="33.1308" rx="4.61681" ry="5.23238" fill="#FBC0AE"/>
<path d="M107.646 30.3613C111.032 30.3613 111.032 35.9015 107.646 35.9015" stroke="#282828" stroke-linecap="round"/>
<path d="M110.405 26.0518C110.097 26.0518 109.259 15.8949 99.6328 10.6626C101.787 9.73914 99.3866 10.7241 103.326 9.73921C108.251 8.50806 111.944 18.0494 111.636 19.5883C111.39 20.8195 110.713 26.0518 110.405 26.0518Z" fill="#73AA5A"/>
<path d="M110.139 89.3309C110.004 84.3922 113.899 80.3177 118.839 80.2301C124.182 80.1354 128.461 84.7151 127.997 90.0332L125.968 113.328C125.633 117.176 122.461 120.133 118.595 120.201C114.394 120.276 110.895 116.931 110.78 112.731L110.139 89.3309Z" fill="#FBC0AE"/>
<path d="M110.923 111.867C111.348 108.071 114.959 105.435 118.703 106.19C123.498 107.155 126.417 111.99 125.046 116.693L116.256 146.855L107.115 145.899L110.923 111.867Z" fill="#FBC0AE"/>
<path d="M128.037 102.576L130.267 78.8084L110 80.4507L107.499 97.9508C106.015 102.536 128.27 104.506 128.037 102.576Z" fill="#7E90FF"/>
</g>
<defs>
<clipPath id="clip0_467_2107">
<rect width="199" height="123" fill="white" transform="translate(0 0.450195)"/>
</clipPath>
</defs>
</svg>
