<svg width="211" height="147" viewBox="0 0 211 147" fill="none" xmlns="http://www.w3.org/2000/svg">
<path d="M73.8376 130.382C74.7412 128.876 76.3688 127.954 78.1251 127.954H116.192C118.236 127.954 120.075 129.199 120.834 131.097L121.847 133.63C123.161 136.914 120.742 140.487 117.205 140.487H76.6054C72.7189 140.487 70.3183 136.247 72.3179 132.914L73.8376 130.382Z" fill="#A4A4A4"/>
<rect x="86.6338" y="23.8721" width="20.8881" height="111.124" rx="7" fill="#878787"/>
<rect x="0.932617" y="6.68457" width="197.183" height="111.124" rx="10" fill="#A4A4A4"/>
<rect x="5.11035" y="10.8613" width="188.828" height="101.934" rx="5" fill="#F2F2F2"/>
<path d="M129.487 125.71V135.69C131.807 135.63 134.167 135.45 136.627 134.97L136.927 137.13C133.947 137.73 131.147 137.89 128.427 137.89H126.867V125.71H129.487ZM138.747 123.73H141.387V142.23H138.747V131.57H133.787V129.43H138.747V123.73ZM156.426 130.01V126.73H148.846V130.01H156.426ZM159.006 124.65V132.09H146.246V124.65H159.006ZM161.006 134.05V136.15H153.926V142.17H151.286V136.15H144.326V134.05H161.006ZM169.444 130.53V126.93H165.844V130.53H169.444ZM172.044 124.87V132.59H163.264V124.87H172.044ZM166.904 134.47V139.55C167.884 139.47 168.844 139.31 169.764 139.01L170.124 141.09C168.604 141.61 167.164 141.71 165.364 141.71H164.344V134.47H166.904ZM174.084 140.41C174.804 140.41 175.304 140.13 175.304 139.59C175.304 139.03 174.804 138.77 174.084 138.77C173.384 138.77 172.864 139.03 172.864 139.59C172.864 140.13 173.384 140.41 174.084 140.41ZM174.084 136.99C176.184 136.99 177.644 137.99 177.644 139.59C177.644 141.17 176.184 142.19 174.084 142.19C171.984 142.19 170.524 141.17 170.524 139.59C170.524 137.99 171.984 136.99 174.084 136.99ZM175.404 133.35V134.65H178.704V136.53H169.484V134.65H172.844V133.35H175.404ZM177.224 127.59H179.664V129.75H177.224V132.89H174.584V123.75H177.224V127.59ZM184.463 127.59V135.59C187.083 135.55 189.263 135.41 191.643 135.01L191.903 137.19C189.123 137.69 186.603 137.79 183.403 137.79H181.843V125.45H190.423V127.59H184.463ZM198.223 130.55V132.73H195.543V142.21H192.903V123.75H195.543V130.55H198.223ZM199.801 139.05C199.801 138.437 199.968 138.01 200.301 137.77C200.634 137.517 201.041 137.39 201.521 137.39C201.988 137.39 202.388 137.517 202.721 137.77C203.054 138.01 203.221 138.437 203.221 139.05C203.221 139.637 203.054 140.064 202.721 140.33C202.388 140.584 201.988 140.71 201.521 140.71C201.041 140.71 200.634 140.584 200.301 140.33C199.968 140.064 199.801 139.637 199.801 139.05ZM205.504 139.05C205.504 138.437 205.671 138.01 206.004 137.77C206.338 137.517 206.744 137.39 207.224 137.39C207.691 137.39 208.091 137.517 208.424 137.77C208.758 138.01 208.924 138.437 208.924 139.05C208.924 139.637 208.758 140.064 208.424 140.33C208.091 140.584 207.691 140.71 207.224 140.71C206.744 140.71 206.338 140.584 206.004 140.33C205.671 140.064 205.504 139.637 205.504 139.05Z" fill="#878787"/>
<rect x="18.9785" y="22.2236" width="52.4734" height="77.5391" rx="9.5" fill="white" stroke="#E7E7E7"/>
<rect x="22.6562" y="33.4209" width="45.1182" height="12.5328" rx="3" fill="#E8E8E8"/>
<g opacity="0.6">
<circle cx="30.6562" cy="39.6875" r="4" fill="#757AFF"/>
<circle cx="30.6562" cy="39.6875" r="2" fill="#04D6BC"/>
</g>
<path opacity="0.6" d="M38.9383 37.3675L38.8193 38.5715L39.9323 38.2285L40.0583 39.2365L39.0993 39.3065L39.7363 40.2585L38.8403 40.7275L38.3993 39.7615L38.0353 40.7205L37.0903 40.2585L37.7273 39.3065L36.7683 39.2225L36.9223 38.2285L38.0143 38.5715L37.8953 37.3675H38.9383ZM42.4383 37.3675L42.3193 38.5715L43.4323 38.2285L43.5583 39.2365L42.5993 39.3065L43.2363 40.2585L42.3403 40.7275L41.8993 39.7615L41.5353 40.7205L40.5903 40.2585L41.2273 39.3065L40.2683 39.2225L40.4223 38.2285L41.5143 38.5715L41.3953 37.3675H42.4383ZM45.9383 37.3675L45.8193 38.5715L46.9323 38.2285L47.0583 39.2365L46.0993 39.3065L46.7363 40.2585L45.8403 40.7275L45.3993 39.7615L45.0353 40.7205L44.0903 40.2585L44.7273 39.3065L43.7683 39.2225L43.9223 38.2285L45.0143 38.5715L44.8953 37.3675H45.9383ZM47.8143 37.5075H50.9083C50.9083 39.4815 50.2433 41.0915 47.9543 42.1975L47.4713 41.4695C49.1163 40.6785 49.8303 39.6705 49.9633 38.2425H47.8143V37.5075ZM51.8953 36.8355H52.8263V43.2825H51.8953V36.8355ZM57.3407 39.6075L56.4377 39.5025C56.5427 38.9005 56.5707 38.4315 56.5777 38.0465H54.1767V37.3115H57.4877V37.7105C57.4877 38.1585 57.4877 38.7955 57.3407 39.6075ZM57.7677 39.8665L57.8237 40.5245C56.4937 40.7695 54.9957 40.7975 53.8897 40.8045L53.8057 40.0695C54.1627 40.0695 54.5617 40.0695 54.9817 40.0625V38.8095H55.8847V40.0275C56.5217 39.9995 57.1657 39.9505 57.7677 39.8665ZM55.6677 41.2385V42.4425H59.2447V43.1775H54.7437V41.2385H55.6677ZM59.0417 38.8025H59.8117V39.5655H59.0417V41.6655H58.1177V36.8355H59.0417V38.8025Z" fill="#616161"/>
<rect x="54.9062" y="0.5" width="52.4734" height="77.5391" rx="9.5" fill="white" stroke="#E7E7E7"/>
<rect x="128.432" y="0.5" width="52.4734" height="77.5391" rx="9.5" fill="white" stroke="#E7E7E7"/>
<g opacity="0.2">
<path d="M141.309 29.6082L141.209 30.5082L142.119 30.2532L142.199 30.8682L141.369 30.9282L141.914 31.6532L141.359 31.9482L140.979 31.1832L140.644 31.9432L140.069 31.6532L140.609 30.9282L139.784 30.8632L139.879 30.2532L140.769 30.5082L140.669 29.6082H141.309ZM144.034 29.6082L143.934 30.5082L144.844 30.2532L144.924 30.8682L144.094 30.9282L144.639 31.6532L144.084 31.9482L143.704 31.1832L143.369 31.9432L142.794 31.6532L143.334 30.9282L142.509 30.8632L142.604 30.2532L143.494 30.5082L143.394 29.6082H144.034ZM146.758 29.6082L146.658 30.5082L147.568 30.2532L147.648 30.8682L146.818 30.9282L147.363 31.6532L146.808 31.9482L146.428 31.1832L146.093 31.9432L145.518 31.6532L146.058 30.9282L145.233 30.8632L145.328 30.2532L146.218 30.5082L146.118 29.6082H146.758ZM149.798 30.2182V30.4732C149.798 31.2232 150.168 32.0182 150.938 32.3382L150.578 32.8582C150.043 32.6282 149.678 32.1782 149.473 31.6232C149.268 32.2232 148.898 32.7282 148.358 32.9732L147.983 32.4482C148.753 32.1032 149.128 31.2582 149.128 30.4732V30.2182H148.168V29.6732H150.748V30.2182H149.798ZM151.173 29.2332H151.833V33.8382H151.173V29.2332ZM154.967 31.9082H155.832V29.2332H156.492V32.7232H155.832V32.3582H154.967V31.9082ZM154.082 29.8682C153.772 29.8682 153.557 29.9882 153.557 30.2132C153.557 30.4382 153.772 30.5532 154.082 30.5532C154.387 30.5532 154.602 30.4382 154.602 30.2132C154.602 29.9882 154.387 29.8682 154.082 29.8682ZM154.082 31.0332C153.407 31.0332 152.937 30.7032 152.937 30.2132C152.937 29.7232 153.407 29.3882 154.082 29.3882C154.752 29.3882 155.227 29.7232 155.227 30.2132C155.227 30.7032 154.752 31.0332 154.082 31.0332ZM153.837 33.2332H156.592V33.7582H153.177V32.3882H153.817V31.7732C153.412 31.7932 153.027 31.7982 152.682 31.7982L152.597 31.2732C153.437 31.2682 154.557 31.2582 155.527 31.1332L155.572 31.6032C155.212 31.6632 154.842 31.7032 154.472 31.7332V32.6032H153.837V33.2332ZM158.912 29.5882V30.2582C158.912 31.0882 159.237 31.9232 159.977 32.2882L159.577 32.8082C159.097 32.5632 158.772 32.1182 158.582 31.5682C158.382 32.1532 158.037 32.6382 157.517 32.8932L157.122 32.3582C157.897 31.9932 158.247 31.1132 158.247 30.2582V29.5882H158.912ZM161.492 31.0032V31.5532H160.822V33.8382H160.162V29.2332H160.822V31.0032H161.492ZM165.012 33.2582V32.8482H163.272V33.2582H165.012ZM165.012 32.3482V31.9082H165.667V33.7832H162.617V31.9082H163.272V32.3482H165.012ZM163.087 31.0732C163.427 31.0732 163.672 30.8682 163.672 30.5232C163.672 30.1782 163.427 29.9732 163.087 29.9732C162.752 29.9732 162.507 30.1782 162.507 30.5232C162.507 30.8682 162.752 31.0732 163.087 31.0732ZM165.007 29.2332H165.667V31.7082H165.007V30.7832H164.277C164.152 31.2832 163.682 31.6232 163.087 31.6232C162.397 31.6232 161.877 31.1632 161.877 30.5232C161.877 29.8832 162.397 29.4232 163.087 29.4232C163.672 29.4232 164.142 29.7582 164.272 30.2482H165.007V29.2332Z" fill="#6F6F6F"/>
<path d="M141.309 40.6082L141.209 41.5082L142.119 41.2532L142.199 41.8682L141.369 41.9282L141.914 42.6532L141.359 42.9482L140.979 42.1832L140.644 42.9432L140.069 42.6532L140.609 41.9282L139.784 41.8632L139.879 41.2532L140.769 41.5082L140.669 40.6082H141.309ZM144.034 40.6082L143.934 41.5082L144.844 41.2532L144.924 41.8682L144.094 41.9282L144.639 42.6532L144.084 42.9482L143.704 42.1832L143.369 42.9432L142.794 42.6532L143.334 41.9282L142.509 41.8632L142.604 41.2532L143.494 41.5082L143.394 40.6082H144.034ZM146.758 40.6082L146.658 41.5082L147.568 41.2532L147.648 41.8682L146.818 41.9282L147.363 42.6532L146.808 42.9482L146.428 42.1832L146.093 42.9432L145.518 42.6532L146.058 41.9282L145.233 41.8632L145.328 41.2532L146.218 41.5082L146.118 40.6082H146.758ZM149.798 41.2182V41.4732C149.798 42.2232 150.168 43.0182 150.938 43.3382L150.578 43.8582C150.043 43.6282 149.678 43.1782 149.473 42.6232C149.268 43.2232 148.898 43.7282 148.358 43.9732L147.983 43.4482C148.753 43.1032 149.128 42.2582 149.128 41.4732V41.2182H148.168V40.6732H150.748V41.2182H149.798ZM151.173 40.2332H151.833V44.8382H151.173V40.2332ZM154.967 42.9082H155.832V40.2332H156.492V43.7232H155.832V43.3582H154.967V42.9082ZM154.082 40.8682C153.772 40.8682 153.557 40.9882 153.557 41.2132C153.557 41.4382 153.772 41.5532 154.082 41.5532C154.387 41.5532 154.602 41.4382 154.602 41.2132C154.602 40.9882 154.387 40.8682 154.082 40.8682ZM154.082 42.0332C153.407 42.0332 152.937 41.7032 152.937 41.2132C152.937 40.7232 153.407 40.3882 154.082 40.3882C154.752 40.3882 155.227 40.7232 155.227 41.2132C155.227 41.7032 154.752 42.0332 154.082 42.0332ZM153.837 44.2332H156.592V44.7582H153.177V43.3882H153.817V42.7732C153.412 42.7932 153.027 42.7982 152.682 42.7982L152.597 42.2732C153.437 42.2682 154.557 42.2582 155.527 42.1332L155.572 42.6032C155.212 42.6632 154.842 42.7032 154.472 42.7332V43.6032H153.837V44.2332ZM158.912 40.5882V41.2582C158.912 42.0882 159.237 42.9232 159.977 43.2882L159.577 43.8082C159.097 43.5632 158.772 43.1182 158.582 42.5682C158.382 43.1532 158.037 43.6382 157.517 43.8932L157.122 43.3582C157.897 42.9932 158.247 42.1132 158.247 41.2582V40.5882H158.912ZM161.492 42.0032V42.5532H160.822V44.8382H160.162V40.2332H160.822V42.0032H161.492ZM165.012 44.2582V43.8482H163.272V44.2582H165.012ZM165.012 43.3482V42.9082H165.667V44.7832H162.617V42.9082H163.272V43.3482H165.012ZM163.087 42.0732C163.427 42.0732 163.672 41.8682 163.672 41.5232C163.672 41.1782 163.427 40.9732 163.087 40.9732C162.752 40.9732 162.507 41.1782 162.507 41.5232C162.507 41.8682 162.752 42.0732 163.087 42.0732ZM165.007 40.2332H165.667V42.7082H165.007V41.7832H164.277C164.152 42.2832 163.682 42.6232 163.087 42.6232C162.397 42.6232 161.877 42.1632 161.877 41.5232C161.877 40.8832 162.397 40.4232 163.087 40.4232C163.672 40.4232 164.142 40.7582 164.272 41.2482H165.007V40.2332Z" fill="#6F6F6F"/>
<path d="M141.309 51.6082L141.209 52.5082L142.119 52.2532L142.199 52.8682L141.369 52.9282L141.914 53.6532L141.359 53.9482L140.979 53.1832L140.644 53.9432L140.069 53.6532L140.609 52.9282L139.784 52.8632L139.879 52.2532L140.769 52.5082L140.669 51.6082H141.309ZM144.034 51.6082L143.934 52.5082L144.844 52.2532L144.924 52.8682L144.094 52.9282L144.639 53.6532L144.084 53.9482L143.704 53.1832L143.369 53.9432L142.794 53.6532L143.334 52.9282L142.509 52.8632L142.604 52.2532L143.494 52.5082L143.394 51.6082H144.034ZM146.758 51.6082L146.658 52.5082L147.568 52.2532L147.648 52.8682L146.818 52.9282L147.363 53.6532L146.808 53.9482L146.428 53.1832L146.093 53.9432L145.518 53.6532L146.058 52.9282L145.233 52.8632L145.328 52.2532L146.218 52.5082L146.118 51.6082H146.758ZM149.798 52.2182V52.4732C149.798 53.2232 150.168 54.0182 150.938 54.3382L150.578 54.8582C150.043 54.6282 149.678 54.1782 149.473 53.6232C149.268 54.2232 148.898 54.7282 148.358 54.9732L147.983 54.4482C148.753 54.1032 149.128 53.2582 149.128 52.4732V52.2182H148.168V51.6732H150.748V52.2182H149.798ZM151.173 51.2332H151.833V55.8382H151.173V51.2332ZM154.967 53.9082H155.832V51.2332H156.492V54.7232H155.832V54.3582H154.967V53.9082ZM154.082 51.8682C153.772 51.8682 153.557 51.9882 153.557 52.2132C153.557 52.4382 153.772 52.5532 154.082 52.5532C154.387 52.5532 154.602 52.4382 154.602 52.2132C154.602 51.9882 154.387 51.8682 154.082 51.8682ZM154.082 53.0332C153.407 53.0332 152.937 52.7032 152.937 52.2132C152.937 51.7232 153.407 51.3882 154.082 51.3882C154.752 51.3882 155.227 51.7232 155.227 52.2132C155.227 52.7032 154.752 53.0332 154.082 53.0332ZM153.837 55.2332H156.592V55.7582H153.177V54.3882H153.817V53.7732C153.412 53.7932 153.027 53.7982 152.682 53.7982L152.597 53.2732C153.437 53.2682 154.557 53.2582 155.527 53.1332L155.572 53.6032C155.212 53.6632 154.842 53.7032 154.472 53.7332V54.6032H153.837V55.2332ZM158.912 51.5882V52.2582C158.912 53.0882 159.237 53.9232 159.977 54.2882L159.577 54.8082C159.097 54.5632 158.772 54.1182 158.582 53.5682C158.382 54.1532 158.037 54.6382 157.517 54.8932L157.122 54.3582C157.897 53.9932 158.247 53.1132 158.247 52.2582V51.5882H158.912ZM161.492 53.0032V53.5532H160.822V55.8382H160.162V51.2332H160.822V53.0032H161.492ZM165.012 55.2582V54.8482H163.272V55.2582H165.012ZM165.012 54.3482V53.9082H165.667V55.7832H162.617V53.9082H163.272V54.3482H165.012ZM163.087 53.0732C163.427 53.0732 163.672 52.8682 163.672 52.5232C163.672 52.1782 163.427 51.9732 163.087 51.9732C162.752 51.9732 162.507 52.1782 162.507 52.5232C162.507 52.8682 162.752 53.0732 163.087 53.0732ZM165.007 51.2332H165.667V53.7082H165.007V52.7832H164.277C164.152 53.2832 163.682 53.6232 163.087 53.6232C162.397 53.6232 161.877 53.1632 161.877 52.5232C161.877 51.8832 162.397 51.4232 163.087 51.4232C163.672 51.4232 164.142 51.7582 164.272 52.2482H165.007V51.2332Z" fill="#6F6F6F"/>
</g>
<rect x="89.998" y="23.8945" width="52.4734" height="77.5391" rx="9.5" fill="white" stroke="#E7E7E7"/>
<circle cx="96.5107" cy="29.5723" r="2" fill="#D9D9D9"/>
<circle cx="102.511" cy="29.5723" r="2" fill="#FFF0A0"/>
<circle cx="108.511" cy="29.5723" r="2" fill="#FFC1C1"/>
<circle cx="60.584" cy="7.0127" r="2" fill="#D9D9D9"/>
<circle cx="66.584" cy="7.0127" r="2" fill="#FFF0A0"/>
<circle cx="72.584" cy="7.0127" r="2" fill="#FFC1C1"/>
<circle cx="134.109" cy="7.0127" r="2" fill="#D9D9D9"/>
<circle cx="140.109" cy="7.0127" r="2" fill="#FFF0A0"/>
<circle cx="146.109" cy="7.0127" r="2" fill="#FFC1C1"/>
<circle cx="25.4922" cy="28.7363" r="2" fill="#D9D9D9"/>
<circle cx="31.4922" cy="28.7363" r="2" fill="#FFF0A0"/>
<circle cx="37.4922" cy="28.7363" r="2" fill="#FFC1C1"/>
<path d="M96.1907 50.4959L96.0907 51.3959L97.0007 51.1409L97.0807 51.7559L96.2507 51.8159L96.7957 52.5409L96.2407 52.8359L95.8607 52.0709L95.5257 52.8309L94.9507 52.5409L95.4907 51.8159L94.6657 51.7509L94.7607 51.1409L95.6507 51.3959L95.5507 50.4959H96.1907ZM98.9154 50.4959L98.8154 51.3959L99.7254 51.1409L99.8054 51.7559L98.9754 51.8159L99.5204 52.5409L98.9654 52.8359L98.5854 52.0709L98.2504 52.8309L97.6754 52.5409L98.2154 51.8159L97.3904 51.7509L97.4854 51.1409L98.3754 51.3959L98.2754 50.4959H98.9154ZM101.64 50.4959L101.54 51.3959L102.45 51.1409L102.53 51.7559L101.7 51.8159L102.245 52.5409L101.69 52.8359L101.31 52.0709L100.975 52.8309L100.4 52.5409L100.94 51.8159L100.115 51.7509L100.21 51.1409L101.1 51.3959L101 50.4959H101.64ZM104.68 51.1059V51.3609C104.68 52.1109 105.05 52.9059 105.82 53.2259L105.46 53.7459C104.925 53.5159 104.56 53.0659 104.355 52.5109C104.15 53.1109 103.78 53.6159 103.24 53.8609L102.865 53.3359C103.635 52.9909 104.01 52.1459 104.01 51.3609V51.1059H103.05V50.5609H105.63V51.1059H104.68ZM106.055 50.1209H106.715V54.7259H106.055V50.1209ZM109.849 52.7959H110.714V50.1209H111.374V53.6109H110.714V53.2459H109.849V52.7959ZM108.964 50.7559C108.654 50.7559 108.439 50.8759 108.439 51.1009C108.439 51.3259 108.654 51.4409 108.964 51.4409C109.269 51.4409 109.484 51.3259 109.484 51.1009C109.484 50.8759 109.269 50.7559 108.964 50.7559ZM108.964 51.9209C108.289 51.9209 107.819 51.5909 107.819 51.1009C107.819 50.6109 108.289 50.2759 108.964 50.2759C109.634 50.2759 110.109 50.6109 110.109 51.1009C110.109 51.5909 109.634 51.9209 108.964 51.9209ZM108.719 54.1209H111.474V54.6459H108.059V53.2759H108.699V52.6609C108.294 52.6809 107.909 52.6859 107.564 52.6859L107.479 52.1609C108.319 52.1559 109.439 52.1459 110.409 52.0209L110.454 52.4909C110.094 52.5509 109.724 52.5909 109.354 52.6209V53.4909H108.719V54.1209ZM113.794 50.4759V51.1459C113.794 51.9759 114.119 52.8109 114.859 53.1759L114.459 53.6959C113.979 53.4509 113.654 53.0059 113.464 52.4559C113.264 53.0409 112.919 53.5259 112.399 53.7809L112.004 53.2459C112.779 52.8809 113.129 52.0009 113.129 51.1459V50.4759H113.794ZM116.374 51.8909V52.4409H115.704V54.7259H115.044V50.1209H115.704V51.8909H116.374ZM119.893 54.1459V53.7359H118.153V54.1459H119.893ZM119.893 53.2359V52.7959H120.548V54.6709H117.498V52.7959H118.153V53.2359H119.893ZM117.968 51.9609C118.308 51.9609 118.553 51.7559 118.553 51.4109C118.553 51.0659 118.308 50.8609 117.968 50.8609C117.633 50.8609 117.388 51.0659 117.388 51.4109C117.388 51.7559 117.633 51.9609 117.968 51.9609ZM119.888 50.1209H120.548V52.5959H119.888V51.6709H119.158C119.033 52.1709 118.563 52.5109 117.968 52.5109C117.278 52.5109 116.758 52.0509 116.758 51.4109C116.758 50.7709 117.278 50.3109 117.968 50.3109C118.553 50.3109 119.023 50.6459 119.153 51.1359H119.888V50.1209Z" fill="#6F6F6F"/>
<path d="M96.1907 61.4959L96.0907 62.3959L97.0007 62.1409L97.0807 62.7559L96.2507 62.8159L96.7957 63.5409L96.2407 63.8359L95.8607 63.0709L95.5257 63.8309L94.9507 63.5409L95.4907 62.8159L94.6657 62.7509L94.7607 62.1409L95.6507 62.3959L95.5507 61.4959H96.1907ZM98.9154 61.4959L98.8154 62.3959L99.7254 62.1409L99.8054 62.7559L98.9754 62.8159L99.5204 63.5409L98.9654 63.8359L98.5854 63.0709L98.2504 63.8309L97.6754 63.5409L98.2154 62.8159L97.3904 62.7509L97.4854 62.1409L98.3754 62.3959L98.2754 61.4959H98.9154ZM101.64 61.4959L101.54 62.3959L102.45 62.1409L102.53 62.7559L101.7 62.8159L102.245 63.5409L101.69 63.8359L101.31 63.0709L100.975 63.8309L100.4 63.5409L100.94 62.8159L100.115 62.7509L100.21 62.1409L101.1 62.3959L101 61.4959H101.64ZM104.68 62.1059V62.3609C104.68 63.1109 105.05 63.9059 105.82 64.2259L105.46 64.7459C104.925 64.5159 104.56 64.0659 104.355 63.5109C104.15 64.1109 103.78 64.6159 103.24 64.8609L102.865 64.3359C103.635 63.9909 104.01 63.1459 104.01 62.3609V62.1059H103.05V61.5609H105.63V62.1059H104.68ZM106.055 61.1209H106.715V65.7259H106.055V61.1209ZM109.849 63.7959H110.714V61.1209H111.374V64.6109H110.714V64.2459H109.849V63.7959ZM108.964 61.7559C108.654 61.7559 108.439 61.8759 108.439 62.1009C108.439 62.3259 108.654 62.4409 108.964 62.4409C109.269 62.4409 109.484 62.3259 109.484 62.1009C109.484 61.8759 109.269 61.7559 108.964 61.7559ZM108.964 62.9209C108.289 62.9209 107.819 62.5909 107.819 62.1009C107.819 61.6109 108.289 61.2759 108.964 61.2759C109.634 61.2759 110.109 61.6109 110.109 62.1009C110.109 62.5909 109.634 62.9209 108.964 62.9209ZM108.719 65.1209H111.474V65.6459H108.059V64.2759H108.699V63.6609C108.294 63.6809 107.909 63.6859 107.564 63.6859L107.479 63.1609C108.319 63.1559 109.439 63.1459 110.409 63.0209L110.454 63.4909C110.094 63.5509 109.724 63.5909 109.354 63.6209V64.4909H108.719V65.1209ZM113.794 61.4759V62.1459C113.794 62.9759 114.119 63.8109 114.859 64.1759L114.459 64.6959C113.979 64.4509 113.654 64.0059 113.464 63.4559C113.264 64.0409 112.919 64.5259 112.399 64.7809L112.004 64.2459C112.779 63.8809 113.129 63.0009 113.129 62.1459V61.4759H113.794ZM116.374 62.8909V63.4409H115.704V65.7259H115.044V61.1209H115.704V62.8909H116.374ZM119.893 65.1459V64.7359H118.153V65.1459H119.893ZM119.893 64.2359V63.7959H120.548V65.6709H117.498V63.7959H118.153V64.2359H119.893ZM117.968 62.9609C118.308 62.9609 118.553 62.7559 118.553 62.4109C118.553 62.0659 118.308 61.8609 117.968 61.8609C117.633 61.8609 117.388 62.0659 117.388 62.4109C117.388 62.7559 117.633 62.9609 117.968 62.9609ZM119.888 61.1209H120.548V63.5959H119.888V62.6709H119.158C119.033 63.1709 118.563 63.5109 117.968 63.5109C117.278 63.5109 116.758 63.0509 116.758 62.4109C116.758 61.7709 117.278 61.3109 117.968 61.3109C118.553 61.3109 119.023 61.6459 119.153 62.1359H119.888V61.1209Z" fill="#6F6F6F"/>
<path d="M96.1907 72.4959L96.0907 73.3959L97.0007 73.1409L97.0807 73.7559L96.2507 73.8159L96.7957 74.5409L96.2407 74.8359L95.8607 74.0709L95.5257 74.8309L94.9507 74.5409L95.4907 73.8159L94.6657 73.7509L94.7607 73.1409L95.6507 73.3959L95.5507 72.4959H96.1907ZM98.9154 72.4959L98.8154 73.3959L99.7254 73.1409L99.8054 73.7559L98.9754 73.8159L99.5204 74.5409L98.9654 74.8359L98.5854 74.0709L98.2504 74.8309L97.6754 74.5409L98.2154 73.8159L97.3904 73.7509L97.4854 73.1409L98.3754 73.3959L98.2754 72.4959H98.9154ZM101.64 72.4959L101.54 73.3959L102.45 73.1409L102.53 73.7559L101.7 73.8159L102.245 74.5409L101.69 74.8359L101.31 74.0709L100.975 74.8309L100.4 74.5409L100.94 73.8159L100.115 73.7509L100.21 73.1409L101.1 73.3959L101 72.4959H101.64ZM104.68 73.1059V73.3609C104.68 74.1109 105.05 74.9059 105.82 75.2259L105.46 75.7459C104.925 75.5159 104.56 75.0659 104.355 74.5109C104.15 75.1109 103.78 75.6159 103.24 75.8609L102.865 75.3359C103.635 74.9909 104.01 74.1459 104.01 73.3609V73.1059H103.05V72.5609H105.63V73.1059H104.68ZM106.055 72.1209H106.715V76.7259H106.055V72.1209ZM109.849 74.7959H110.714V72.1209H111.374V75.6109H110.714V75.2459H109.849V74.7959ZM108.964 72.7559C108.654 72.7559 108.439 72.8759 108.439 73.1009C108.439 73.3259 108.654 73.4409 108.964 73.4409C109.269 73.4409 109.484 73.3259 109.484 73.1009C109.484 72.8759 109.269 72.7559 108.964 72.7559ZM108.964 73.9209C108.289 73.9209 107.819 73.5909 107.819 73.1009C107.819 72.6109 108.289 72.2759 108.964 72.2759C109.634 72.2759 110.109 72.6109 110.109 73.1009C110.109 73.5909 109.634 73.9209 108.964 73.9209ZM108.719 76.1209H111.474V76.6459H108.059V75.2759H108.699V74.6609C108.294 74.6809 107.909 74.6859 107.564 74.6859L107.479 74.1609C108.319 74.1559 109.439 74.1459 110.409 74.0209L110.454 74.4909C110.094 74.5509 109.724 74.5909 109.354 74.6209V75.4909H108.719V76.1209ZM113.794 72.4759V73.1459C113.794 73.9759 114.119 74.8109 114.859 75.1759L114.459 75.6959C113.979 75.4509 113.654 75.0059 113.464 74.4559C113.264 75.0409 112.919 75.5259 112.399 75.7809L112.004 75.2459C112.779 74.8809 113.129 74.0009 113.129 73.1459V72.4759H113.794ZM116.374 73.8909V74.4409H115.704V76.7259H115.044V72.1209H115.704V73.8909H116.374ZM119.893 76.1459V75.7359H118.153V76.1459H119.893ZM119.893 75.2359V74.7959H120.548V76.6709H117.498V74.7959H118.153V75.2359H119.893ZM117.968 73.9609C118.308 73.9609 118.553 73.7559 118.553 73.4109C118.553 73.0659 118.308 72.8609 117.968 72.8609C117.633 72.8609 117.388 73.0659 117.388 73.4109C117.388 73.7559 117.633 73.9609 117.968 73.9609ZM119.888 72.1209H120.548V74.5959H119.888V73.6709H119.158C119.033 74.1709 118.563 74.5109 117.968 74.5109C117.278 74.5109 116.758 74.0509 116.758 73.4109C116.758 72.7709 117.278 72.3109 117.968 72.3109C118.553 72.3109 119.023 72.6459 119.153 73.1359H119.888V72.1209Z" fill="#6F6F6F"/>
<g opacity="0.3">
<path d="M61.9349 30.4432L61.8349 31.3432L62.7449 31.0882L62.8249 31.7032L61.9949 31.7632L62.5399 32.4882L61.9849 32.7832L61.6049 32.0182L61.2699 32.7782L60.6949 32.4882L61.2349 31.7632L60.4099 31.6982L60.5049 31.0882L61.3949 31.3432L61.2949 30.4432H61.9349ZM64.6595 30.4432L64.5595 31.3432L65.4695 31.0882L65.5495 31.7032L64.7195 31.7632L65.2645 32.4882L64.7095 32.7832L64.3295 32.0182L63.9945 32.7782L63.4195 32.4882L63.9595 31.7632L63.1345 31.6982L63.2295 31.0882L64.1195 31.3432L64.0195 30.4432H64.6595ZM67.3841 30.4432L67.2841 31.3432L68.1941 31.0882L68.2741 31.7032L67.4441 31.7632L67.9891 32.4882L67.4341 32.7832L67.0541 32.0182L66.7191 32.7782L66.1441 32.4882L66.6841 31.7632L65.8591 31.6982L65.9541 31.0882L66.8441 31.3432L66.7441 30.4432H67.3841ZM70.4237 31.0532V31.3082C70.4237 32.0582 70.7937 32.8532 71.5637 33.1732L71.2037 33.6932C70.6687 33.4632 70.3037 33.0132 70.0987 32.4582C69.8937 33.0582 69.5237 33.5632 68.9837 33.8082L68.6087 33.2832C69.3787 32.9382 69.7537 32.0932 69.7537 31.3082V31.0532H68.7937V30.5082H71.3737V31.0532H70.4237ZM71.7987 30.0682H72.4587V34.6732H71.7987V30.0682ZM75.5933 32.7432H76.4583V30.0682H77.1183V33.5582H76.4583V33.1932H75.5933V32.7432ZM74.7083 30.7032C74.3983 30.7032 74.1833 30.8232 74.1833 31.0482C74.1833 31.2732 74.3983 31.3882 74.7083 31.3882C75.0133 31.3882 75.2283 31.2732 75.2283 31.0482C75.2283 30.8232 75.0133 30.7032 74.7083 30.7032ZM74.7083 31.8682C74.0333 31.8682 73.5633 31.5382 73.5633 31.0482C73.5633 30.5582 74.0333 30.2232 74.7083 30.2232C75.3783 30.2232 75.8533 30.5582 75.8533 31.0482C75.8533 31.5382 75.3783 31.8682 74.7083 31.8682ZM74.4633 34.0682H77.2183V34.5932H73.8033V33.2232H74.4433V32.6082C74.0383 32.6282 73.6533 32.6332 73.3083 32.6332L73.2233 32.1082C74.0633 32.1032 75.1833 32.0932 76.1533 31.9682L76.1983 32.4382C75.8383 32.4982 75.4683 32.5382 75.0983 32.5682V33.4382H74.4633V34.0682ZM79.5379 30.4232V31.0932C79.5379 31.9232 79.8629 32.7582 80.6029 33.1232L80.2029 33.6432C79.7229 33.3982 79.3979 32.9532 79.2079 32.4032C79.0079 32.9882 78.6629 33.4732 78.1429 33.7282L77.7479 33.1932C78.5229 32.8282 78.8729 31.9482 78.8729 31.0932V30.4232H79.5379ZM82.1179 31.8382V32.3882H81.4479V34.6732H80.7879V30.0682H81.4479V31.8382H82.1179ZM85.6375 34.0932V33.6832H83.8975V34.0932H85.6375ZM85.6375 33.1832V32.7432H86.2925V34.6182H83.2425V32.7432H83.8975V33.1832H85.6375ZM83.7125 31.9082C84.0525 31.9082 84.2975 31.7032 84.2975 31.3582C84.2975 31.0132 84.0525 30.8082 83.7125 30.8082C83.3775 30.8082 83.1325 31.0132 83.1325 31.3582C83.1325 31.7032 83.3775 31.9082 83.7125 31.9082ZM85.6325 30.0682H86.2925V32.5432H85.6325V31.6182H84.9025C84.7775 32.1182 84.3075 32.4582 83.7125 32.4582C83.0225 32.4582 82.5025 31.9982 82.5025 31.3582C82.5025 30.7182 83.0225 30.2582 83.7125 30.2582C84.2975 30.2582 84.7675 30.5932 84.8975 31.0832H85.6325V30.0682Z" fill="#6F6F6F"/>
<path d="M61.9349 41.4432L61.8349 42.3432L62.7449 42.0882L62.8249 42.7032L61.9949 42.7632L62.5399 43.4882L61.9849 43.7832L61.6049 43.0182L61.2699 43.7782L60.6949 43.4882L61.2349 42.7632L60.4099 42.6982L60.5049 42.0882L61.3949 42.3432L61.2949 41.4432H61.9349ZM64.6595 41.4432L64.5595 42.3432L65.4695 42.0882L65.5495 42.7032L64.7195 42.7632L65.2645 43.4882L64.7095 43.7832L64.3295 43.0182L63.9945 43.7782L63.4195 43.4882L63.9595 42.7632L63.1345 42.6982L63.2295 42.0882L64.1195 42.3432L64.0195 41.4432H64.6595ZM67.3841 41.4432L67.2841 42.3432L68.1941 42.0882L68.2741 42.7032L67.4441 42.7632L67.9891 43.4882L67.4341 43.7832L67.0541 43.0182L66.7191 43.7782L66.1441 43.4882L66.6841 42.7632L65.8591 42.6982L65.9541 42.0882L66.8441 42.3432L66.7441 41.4432H67.3841ZM70.4237 42.0532V42.3082C70.4237 43.0582 70.7937 43.8532 71.5637 44.1732L71.2037 44.6932C70.6687 44.4632 70.3037 44.0132 70.0987 43.4582C69.8937 44.0582 69.5237 44.5632 68.9837 44.8082L68.6087 44.2832C69.3787 43.9382 69.7537 43.0932 69.7537 42.3082V42.0532H68.7937V41.5082H71.3737V42.0532H70.4237ZM71.7987 41.0682H72.4587V45.6732H71.7987V41.0682ZM75.5933 43.7432H76.4583V41.0682H77.1183V44.5582H76.4583V44.1932H75.5933V43.7432ZM74.7083 41.7032C74.3983 41.7032 74.1833 41.8232 74.1833 42.0482C74.1833 42.2732 74.3983 42.3882 74.7083 42.3882C75.0133 42.3882 75.2283 42.2732 75.2283 42.0482C75.2283 41.8232 75.0133 41.7032 74.7083 41.7032ZM74.7083 42.8682C74.0333 42.8682 73.5633 42.5382 73.5633 42.0482C73.5633 41.5582 74.0333 41.2232 74.7083 41.2232C75.3783 41.2232 75.8533 41.5582 75.8533 42.0482C75.8533 42.5382 75.3783 42.8682 74.7083 42.8682ZM74.4633 45.0682H77.2183V45.5932H73.8033V44.2232H74.4433V43.6082C74.0383 43.6282 73.6533 43.6332 73.3083 43.6332L73.2233 43.1082C74.0633 43.1032 75.1833 43.0932 76.1533 42.9682L76.1983 43.4382C75.8383 43.4982 75.4683 43.5382 75.0983 43.5682V44.4382H74.4633V45.0682ZM79.5379 41.4232V42.0932C79.5379 42.9232 79.8629 43.7582 80.6029 44.1232L80.2029 44.6432C79.7229 44.3982 79.3979 43.9532 79.2079 43.4032C79.0079 43.9882 78.6629 44.4732 78.1429 44.7282L77.7479 44.1932C78.5229 43.8282 78.8729 42.9482 78.8729 42.0932V41.4232H79.5379ZM82.1179 42.8382V43.3882H81.4479V45.6732H80.7879V41.0682H81.4479V42.8382H82.1179ZM85.6375 45.0932V44.6832H83.8975V45.0932H85.6375ZM85.6375 44.1832V43.7432H86.2925V45.6182H83.2425V43.7432H83.8975V44.1832H85.6375ZM83.7125 42.9082C84.0525 42.9082 84.2975 42.7032 84.2975 42.3582C84.2975 42.0132 84.0525 41.8082 83.7125 41.8082C83.3775 41.8082 83.1325 42.0132 83.1325 42.3582C83.1325 42.7032 83.3775 42.9082 83.7125 42.9082ZM85.6325 41.0682H86.2925V43.5432H85.6325V42.6182H84.9025C84.7775 43.1182 84.3075 43.4582 83.7125 43.4582C83.0225 43.4582 82.5025 42.9982 82.5025 42.3582C82.5025 41.7182 83.0225 41.2582 83.7125 41.2582C84.2975 41.2582 84.7675 41.5932 84.8975 42.0832H85.6325V41.0682Z" fill="#6F6F6F"/>
<path d="M61.9349 52.4432L61.8349 53.3432L62.7449 53.0882L62.8249 53.7032L61.9949 53.7632L62.5399 54.4882L61.9849 54.7832L61.6049 54.0182L61.2699 54.7782L60.6949 54.4882L61.2349 53.7632L60.4099 53.6982L60.5049 53.0882L61.3949 53.3432L61.2949 52.4432H61.9349ZM64.6595 52.4432L64.5595 53.3432L65.4695 53.0882L65.5495 53.7032L64.7195 53.7632L65.2645 54.4882L64.7095 54.7832L64.3295 54.0182L63.9945 54.7782L63.4195 54.4882L63.9595 53.7632L63.1345 53.6982L63.2295 53.0882L64.1195 53.3432L64.0195 52.4432H64.6595ZM67.3841 52.4432L67.2841 53.3432L68.1941 53.0882L68.2741 53.7032L67.4441 53.7632L67.9891 54.4882L67.4341 54.7832L67.0541 54.0182L66.7191 54.7782L66.1441 54.4882L66.6841 53.7632L65.8591 53.6982L65.9541 53.0882L66.8441 53.3432L66.7441 52.4432H67.3841ZM70.4237 53.0532V53.3082C70.4237 54.0582 70.7937 54.8532 71.5637 55.1732L71.2037 55.6932C70.6687 55.4632 70.3037 55.0132 70.0987 54.4582C69.8937 55.0582 69.5237 55.5632 68.9837 55.8082L68.6087 55.2832C69.3787 54.9382 69.7537 54.0932 69.7537 53.3082V53.0532H68.7937V52.5082H71.3737V53.0532H70.4237ZM71.7987 52.0682H72.4587V56.6732H71.7987V52.0682ZM75.5933 54.7432H76.4583V52.0682H77.1183V55.5582H76.4583V55.1932H75.5933V54.7432ZM74.7083 52.7032C74.3983 52.7032 74.1833 52.8232 74.1833 53.0482C74.1833 53.2732 74.3983 53.3882 74.7083 53.3882C75.0133 53.3882 75.2283 53.2732 75.2283 53.0482C75.2283 52.8232 75.0133 52.7032 74.7083 52.7032ZM74.7083 53.8682C74.0333 53.8682 73.5633 53.5382 73.5633 53.0482C73.5633 52.5582 74.0333 52.2232 74.7083 52.2232C75.3783 52.2232 75.8533 52.5582 75.8533 53.0482C75.8533 53.5382 75.3783 53.8682 74.7083 53.8682ZM74.4633 56.0682H77.2183V56.5932H73.8033V55.2232H74.4433V54.6082C74.0383 54.6282 73.6533 54.6332 73.3083 54.6332L73.2233 54.1082C74.0633 54.1032 75.1833 54.0932 76.1533 53.9682L76.1983 54.4382C75.8383 54.4982 75.4683 54.5382 75.0983 54.5682V55.4382H74.4633V56.0682ZM79.5379 52.4232V53.0932C79.5379 53.9232 79.8629 54.7582 80.6029 55.1232L80.2029 55.6432C79.7229 55.3982 79.3979 54.9532 79.2079 54.4032C79.0079 54.9882 78.6629 55.4732 78.1429 55.7282L77.7479 55.1932C78.5229 54.8282 78.8729 53.9482 78.8729 53.0932V52.4232H79.5379ZM82.1179 53.8382V54.3882H81.4479V56.6732H80.7879V52.0682H81.4479V53.8382H82.1179ZM85.6375 56.0932V55.6832H83.8975V56.0932H85.6375ZM85.6375 55.1832V54.7432H86.2925V56.6182H83.2425V54.7432H83.8975V55.1832H85.6375ZM83.7125 53.9082C84.0525 53.9082 84.2975 53.7032 84.2975 53.3582C84.2975 53.0132 84.0525 52.8082 83.7125 52.8082C83.3775 52.8082 83.1325 53.0132 83.1325 53.3582C83.1325 53.7032 83.3775 53.9082 83.7125 53.9082ZM85.6325 52.0682H86.2925V54.5432H85.6325V53.6182H84.9025C84.7775 54.1182 84.3075 54.4582 83.7125 54.4582C83.0225 54.4582 82.5025 53.9982 82.5025 53.3582C82.5025 52.7182 83.0225 52.2582 83.7125 52.2582C84.2975 52.2582 84.7675 52.5932 84.8975 53.0832H85.6325V52.0682Z" fill="#6F6F6F"/>
</g>
<g opacity="0.2">
<path d="M26.1263 52.1668L26.0263 53.0668L26.9363 52.8118L27.0163 53.4268L26.1863 53.4868L26.7313 54.2118L26.1763 54.5068L25.7963 53.7418L25.4613 54.5018L24.8863 54.2118L25.4263 53.4868L24.6013 53.4218L24.6963 52.8118L25.5863 53.0668L25.4863 52.1668H26.1263ZM28.8509 52.1668L28.7509 53.0668L29.6609 52.8118L29.7409 53.4268L28.9109 53.4868L29.4559 54.2118L28.9009 54.5068L28.5209 53.7418L28.1859 54.5018L27.6109 54.2118L28.1509 53.4868L27.3259 53.4218L27.4209 52.8118L28.3109 53.0668L28.2109 52.1668H28.8509ZM31.5755 52.1668L31.4755 53.0668L32.3855 52.8118L32.4655 53.4268L31.6355 53.4868L32.1805 54.2118L31.6255 54.5068L31.2455 53.7418L30.9105 54.5018L30.3355 54.2118L30.8755 53.4868L30.0505 53.4218L30.1455 52.8118L31.0355 53.0668L30.9355 52.1668H31.5755ZM34.6151 52.7768V53.0318C34.6151 53.7818 34.9851 54.5768 35.7551 54.8968L35.3951 55.4168C34.8601 55.1868 34.4951 54.7368 34.2901 54.1818C34.0851 54.7818 33.7151 55.2868 33.1751 55.5318L32.8001 55.0068C33.5701 54.6618 33.9451 53.8168 33.9451 53.0318V52.7768H32.9851V52.2318H35.5651V52.7768H34.6151ZM35.9901 51.7918H36.6501V56.3968H35.9901V51.7918ZM39.7847 54.4668H40.6497V51.7918H41.3097V55.2818H40.6497V54.9168H39.7847V54.4668ZM38.8997 52.4268C38.5897 52.4268 38.3747 52.5468 38.3747 52.7718C38.3747 52.9968 38.5897 53.1118 38.8997 53.1118C39.2047 53.1118 39.4197 52.9968 39.4197 52.7718C39.4197 52.5468 39.2047 52.4268 38.8997 52.4268ZM38.8997 53.5918C38.2247 53.5918 37.7547 53.2618 37.7547 52.7718C37.7547 52.2818 38.2247 51.9468 38.8997 51.9468C39.5697 51.9468 40.0447 52.2818 40.0447 52.7718C40.0447 53.2618 39.5697 53.5918 38.8997 53.5918ZM38.6547 55.7918H41.4097V56.3168H37.9947V54.9468H38.6347V54.3318C38.2297 54.3518 37.8447 54.3568 37.4997 54.3568L37.4147 53.8318C38.2547 53.8268 39.3747 53.8168 40.3447 53.6918L40.3897 54.1618C40.0297 54.2218 39.6597 54.2618 39.2897 54.2918V55.1618H38.6547V55.7918ZM43.7293 52.1468V52.8168C43.7293 53.6468 44.0543 54.4818 44.7943 54.8468L44.3943 55.3668C43.9143 55.1218 43.5893 54.6768 43.3993 54.1268C43.1993 54.7118 42.8543 55.1968 42.3343 55.4518L41.9393 54.9168C42.7143 54.5518 43.0643 53.6718 43.0643 52.8168V52.1468H43.7293ZM46.3093 53.5618V54.1118H45.6393V56.3968H44.9793V51.7918H45.6393V53.5618H46.3093ZM49.8289 55.8168V55.4068H48.0889V55.8168H49.8289ZM49.8289 54.9068V54.4668H50.4839V56.3418H47.4339V54.4668H48.0889V54.9068H49.8289ZM47.9039 53.6318C48.2439 53.6318 48.4889 53.4268 48.4889 53.0818C48.4889 52.7368 48.2439 52.5318 47.9039 52.5318C47.5689 52.5318 47.3239 52.7368 47.3239 53.0818C47.3239 53.4268 47.5689 53.6318 47.9039 53.6318ZM49.8239 51.7918H50.4839V54.2668H49.8239V53.3418H49.0939C48.9689 53.8418 48.4989 54.1818 47.9039 54.1818C47.2139 54.1818 46.6939 53.7218 46.6939 53.0818C46.6939 52.4418 47.2139 51.9818 47.9039 51.9818C48.4889 51.9818 48.9589 52.3168 49.0889 52.8068H49.8239V51.7918Z" fill="#6F6F6F"/>
<path d="M26.1263 63.1668L26.0263 64.0668L26.9363 63.8118L27.0163 64.4268L26.1863 64.4868L26.7313 65.2118L26.1763 65.5068L25.7963 64.7418L25.4613 65.5018L24.8863 65.2118L25.4263 64.4868L24.6013 64.4218L24.6963 63.8118L25.5863 64.0668L25.4863 63.1668H26.1263ZM28.8509 63.1668L28.7509 64.0668L29.6609 63.8118L29.7409 64.4268L28.9109 64.4868L29.4559 65.2118L28.9009 65.5068L28.5209 64.7418L28.1859 65.5018L27.6109 65.2118L28.1509 64.4868L27.3259 64.4218L27.4209 63.8118L28.3109 64.0668L28.2109 63.1668H28.8509ZM31.5755 63.1668L31.4755 64.0668L32.3855 63.8118L32.4655 64.4268L31.6355 64.4868L32.1805 65.2118L31.6255 65.5068L31.2455 64.7418L30.9105 65.5018L30.3355 65.2118L30.8755 64.4868L30.0505 64.4218L30.1455 63.8118L31.0355 64.0668L30.9355 63.1668H31.5755ZM34.6151 63.7768V64.0318C34.6151 64.7818 34.9851 65.5768 35.7551 65.8968L35.3951 66.4168C34.8601 66.1868 34.4951 65.7368 34.2901 65.1818C34.0851 65.7818 33.7151 66.2868 33.1751 66.5318L32.8001 66.0068C33.5701 65.6618 33.9451 64.8168 33.9451 64.0318V63.7768H32.9851V63.2318H35.5651V63.7768H34.6151ZM35.9901 62.7918H36.6501V67.3968H35.9901V62.7918ZM39.7847 65.4668H40.6497V62.7918H41.3097V66.2818H40.6497V65.9168H39.7847V65.4668ZM38.8997 63.4268C38.5897 63.4268 38.3747 63.5468 38.3747 63.7718C38.3747 63.9968 38.5897 64.1118 38.8997 64.1118C39.2047 64.1118 39.4197 63.9968 39.4197 63.7718C39.4197 63.5468 39.2047 63.4268 38.8997 63.4268ZM38.8997 64.5918C38.2247 64.5918 37.7547 64.2618 37.7547 63.7718C37.7547 63.2818 38.2247 62.9468 38.8997 62.9468C39.5697 62.9468 40.0447 63.2818 40.0447 63.7718C40.0447 64.2618 39.5697 64.5918 38.8997 64.5918ZM38.6547 66.7918H41.4097V67.3168H37.9947V65.9468H38.6347V65.3318C38.2297 65.3518 37.8447 65.3568 37.4997 65.3568L37.4147 64.8318C38.2547 64.8268 39.3747 64.8168 40.3447 64.6918L40.3897 65.1618C40.0297 65.2218 39.6597 65.2618 39.2897 65.2918V66.1618H38.6547V66.7918ZM43.7293 63.1468V63.8168C43.7293 64.6468 44.0543 65.4818 44.7943 65.8468L44.3943 66.3668C43.9143 66.1218 43.5893 65.6768 43.3993 65.1268C43.1993 65.7118 42.8543 66.1968 42.3343 66.4518L41.9393 65.9168C42.7143 65.5518 43.0643 64.6718 43.0643 63.8168V63.1468H43.7293ZM46.3093 64.5618V65.1118H45.6393V67.3968H44.9793V62.7918H45.6393V64.5618H46.3093ZM49.8289 66.8168V66.4068H48.0889V66.8168H49.8289ZM49.8289 65.9068V65.4668H50.4839V67.3418H47.4339V65.4668H48.0889V65.9068H49.8289ZM47.9039 64.6318C48.2439 64.6318 48.4889 64.4268 48.4889 64.0818C48.4889 63.7368 48.2439 63.5318 47.9039 63.5318C47.5689 63.5318 47.3239 63.7368 47.3239 64.0818C47.3239 64.4268 47.5689 64.6318 47.9039 64.6318ZM49.8239 62.7918H50.4839V65.2668H49.8239V64.3418H49.0939C48.9689 64.8418 48.4989 65.1818 47.9039 65.1818C47.2139 65.1818 46.6939 64.7218 46.6939 64.0818C46.6939 63.4418 47.2139 62.9818 47.9039 62.9818C48.4889 62.9818 48.9589 63.3168 49.0889 63.8068H49.8239V62.7918Z" fill="#6F6F6F"/>
<path d="M26.1263 74.1668L26.0263 75.0668L26.9363 74.8118L27.0163 75.4268L26.1863 75.4868L26.7313 76.2118L26.1763 76.5068L25.7963 75.7418L25.4613 76.5018L24.8863 76.2118L25.4263 75.4868L24.6013 75.4218L24.6963 74.8118L25.5863 75.0668L25.4863 74.1668H26.1263ZM28.8509 74.1668L28.7509 75.0668L29.6609 74.8118L29.7409 75.4268L28.9109 75.4868L29.4559 76.2118L28.9009 76.5068L28.5209 75.7418L28.1859 76.5018L27.6109 76.2118L28.1509 75.4868L27.3259 75.4218L27.4209 74.8118L28.3109 75.0668L28.2109 74.1668H28.8509ZM31.5755 74.1668L31.4755 75.0668L32.3855 74.8118L32.4655 75.4268L31.6355 75.4868L32.1805 76.2118L31.6255 76.5068L31.2455 75.7418L30.9105 76.5018L30.3355 76.2118L30.8755 75.4868L30.0505 75.4218L30.1455 74.8118L31.0355 75.0668L30.9355 74.1668H31.5755ZM34.6151 74.7768V75.0318C34.6151 75.7818 34.9851 76.5768 35.7551 76.8968L35.3951 77.4168C34.8601 77.1868 34.4951 76.7368 34.2901 76.1818C34.0851 76.7818 33.7151 77.2868 33.1751 77.5318L32.8001 77.0068C33.5701 76.6618 33.9451 75.8168 33.9451 75.0318V74.7768H32.9851V74.2318H35.5651V74.7768H34.6151ZM35.9901 73.7918H36.6501V78.3968H35.9901V73.7918ZM39.7847 76.4668H40.6497V73.7918H41.3097V77.2818H40.6497V76.9168H39.7847V76.4668ZM38.8997 74.4268C38.5897 74.4268 38.3747 74.5468 38.3747 74.7718C38.3747 74.9968 38.5897 75.1118 38.8997 75.1118C39.2047 75.1118 39.4197 74.9968 39.4197 74.7718C39.4197 74.5468 39.2047 74.4268 38.8997 74.4268ZM38.8997 75.5918C38.2247 75.5918 37.7547 75.2618 37.7547 74.7718C37.7547 74.2818 38.2247 73.9468 38.8997 73.9468C39.5697 73.9468 40.0447 74.2818 40.0447 74.7718C40.0447 75.2618 39.5697 75.5918 38.8997 75.5918ZM38.6547 77.7918H41.4097V78.3168H37.9947V76.9468H38.6347V76.3318C38.2297 76.3518 37.8447 76.3568 37.4997 76.3568L37.4147 75.8318C38.2547 75.8268 39.3747 75.8168 40.3447 75.6918L40.3897 76.1618C40.0297 76.2218 39.6597 76.2618 39.2897 76.2918V77.1618H38.6547V77.7918ZM43.7293 74.1468V74.8168C43.7293 75.6468 44.0543 76.4818 44.7943 76.8468L44.3943 77.3668C43.9143 77.1218 43.5893 76.6768 43.3993 76.1268C43.1993 76.7118 42.8543 77.1968 42.3343 77.4518L41.9393 76.9168C42.7143 76.5518 43.0643 75.6718 43.0643 74.8168V74.1468H43.7293ZM46.3093 75.5618V76.1118H45.6393V78.3968H44.9793V73.7918H45.6393V75.5618H46.3093ZM49.8289 77.8168V77.4068H48.0889V77.8168H49.8289ZM49.8289 76.9068V76.4668H50.4839V78.3418H47.4339V76.4668H48.0889V76.9068H49.8289ZM47.9039 75.6318C48.2439 75.6318 48.4889 75.4268 48.4889 75.0818C48.4889 74.7368 48.2439 74.5318 47.9039 74.5318C47.5689 74.5318 47.3239 74.7368 47.3239 75.0818C47.3239 75.4268 47.5689 75.6318 47.9039 75.6318ZM49.8239 73.7918H50.4839V76.2668H49.8239V75.3418H49.0939C48.9689 75.8418 48.4989 76.1818 47.9039 76.1818C47.2139 76.1818 46.6939 75.7218 46.6939 75.0818C46.6939 74.4418 47.2139 73.9818 47.9039 73.9818C48.4889 73.9818 48.9589 74.3168 49.0889 74.8068H49.8239V73.7918Z" fill="#6F6F6F"/>
</g>
<rect x="93.6758" y="33.4209" width="44.2827" height="10.8618" rx="2" fill="#E8E8E8"/>
<circle cx="102.817" cy="38.8516" r="4" fill="#FF7575"/>
<circle cx="102.817" cy="38.8516" r="2" fill="#5259FF"/>
<path d="M111.099 36.5316L110.98 37.7356L112.093 37.3926L112.219 38.4006L111.26 38.4706L111.897 39.4226L111.001 39.8916L110.56 38.9256L110.196 39.8846L109.251 39.4226L109.888 38.4706L108.929 38.3866L109.083 37.3926L110.175 37.7356L110.056 36.5316H111.099ZM114.599 36.5316L114.48 37.7356L115.593 37.3926L115.719 38.4006L114.76 38.4706L115.397 39.4226L114.501 39.8916L114.06 38.9256L113.696 39.8846L112.751 39.4226L113.388 38.4706L112.429 38.3866L112.583 37.3926L113.675 37.7356L113.556 36.5316H114.599ZM118.099 36.5316L117.98 37.7356L119.093 37.3926L119.219 38.4006L118.26 38.4706L118.897 39.4226L118.001 39.8916L117.56 38.9256L117.196 39.8846L116.251 39.4226L116.888 38.4706L115.929 38.3866L116.083 37.3926L117.175 37.7356L117.056 36.5316H118.099ZM119.975 36.6716H123.069C123.069 38.6456 122.404 40.2556 120.115 41.3616L119.632 40.6336C121.277 39.8426 121.991 38.8346 122.124 37.4066H119.975V36.6716ZM124.056 35.9996H124.987V42.4466H124.056V35.9996ZM129.502 38.7716L128.599 38.6666C128.704 38.0646 128.732 37.5956 128.739 37.2106H126.338V36.4756H129.649V36.8746C129.649 37.3226 129.649 37.9596 129.502 38.7716ZM129.929 39.0306L129.985 39.6886C128.655 39.9336 127.157 39.9616 126.051 39.9686L125.967 39.2336C126.324 39.2336 126.723 39.2336 127.143 39.2266V37.9736H128.046V39.1916C128.683 39.1636 129.327 39.1146 129.929 39.0306ZM127.829 40.4026V41.6066H131.406V42.3416H126.905V40.4026H127.829ZM131.203 37.9666H131.973V38.7296H131.203V40.8296H130.279V35.9996H131.203V37.9666Z" fill="#616161"/>
<rect x="132.109" y="11.6973" width="45.1182" height="12.5328" rx="3" fill="#E8E8E8"/>
<g opacity="0.6">
<circle cx="138.669" cy="17.9639" r="4" fill="#FF7575"/>
<circle cx="138.669" cy="17.9639" r="2" fill="#04D619"/>
</g>
<path opacity="0.6" d="M146.951 15.6439L146.832 16.8479L147.945 16.5049L148.071 17.5129L147.112 17.5829L147.749 18.5349L146.853 19.0039L146.412 18.0379L146.048 18.9969L145.103 18.5349L145.74 17.5829L144.781 17.4989L144.935 16.5049L146.027 16.8479L145.908 15.6439H146.951ZM150.451 15.6439L150.332 16.8479L151.445 16.5049L151.571 17.5129L150.612 17.5829L151.249 18.5349L150.353 19.0039L149.912 18.0379L149.548 18.9969L148.603 18.5349L149.24 17.5829L148.281 17.4989L148.435 16.5049L149.527 16.8479L149.408 15.6439H150.451ZM153.951 15.6439L153.832 16.8479L154.945 16.5049L155.071 17.5129L154.112 17.5829L154.749 18.5349L153.853 19.0039L153.412 18.0379L153.048 18.9969L152.103 18.5349L152.74 17.5829L151.781 17.4989L151.935 16.5049L153.027 16.8479L152.908 15.6439H153.951ZM157.962 16.4979V16.8549C157.962 17.9049 158.48 19.0179 159.558 19.4659L159.054 20.1939C158.305 19.8719 157.794 19.2419 157.507 18.4649C157.22 19.3049 156.702 20.0119 155.946 20.3549L155.421 19.6199C156.499 19.1369 157.024 17.9539 157.024 16.8549V16.4979H155.68V15.7349H159.292V16.4979H157.962ZM159.887 15.1189H160.811V21.5659H159.887V15.1189ZM164.275 16.4979V16.8549C164.275 17.8349 164.786 18.9759 165.843 19.4659L165.332 20.1939C164.618 19.8649 164.114 19.2209 163.827 18.4579C163.54 19.2979 163.022 20.0049 162.287 20.3549L161.769 19.6199C162.826 19.1299 163.351 17.9189 163.351 16.8549V16.4979H162.014V15.7349H165.556V16.4979H164.275ZM167.894 17.5759V18.3389H166.956V21.5659H166.032V15.1189H166.956V17.5759H167.894ZM170.351 16.9389V17.0719C170.351 18.0449 170.68 19.0319 171.59 19.5149L171.093 20.2009C170.526 19.8999 170.155 19.3889 169.924 18.7729C169.707 19.4449 169.329 20.0189 168.748 20.3549L168.23 19.6619C169.147 19.1229 169.476 18.0659 169.476 17.0719V16.9389H168.468V16.1969H169.476V15.3289H170.351V16.1969H171.338V16.9389H170.351ZM171.702 17.5549V15.2239H172.563V21.2719H171.702V18.3039H170.967V17.5549H171.702ZM173.004 15.1119H173.879V21.5589H173.004V15.1119Z" fill="#616161"/>
<rect x="58.584" y="11.6973" width="45.1182" height="12.5328" rx="3" fill="#E8E8E8"/>
<g opacity="0.6">
<circle cx="65.1436" cy="17.9639" r="4" fill="#8875FF"/>
<circle cx="65.1436" cy="17.9639" r="2" fill="#D64304"/>
</g>
<path opacity="0.6" d="M73.4256 15.6439L73.3066 16.8479L74.4196 16.5049L74.5456 17.5129L73.5866 17.5829L74.2236 18.5349L73.3276 19.0039L72.8866 18.0379L72.5226 18.9969L71.5776 18.5349L72.2146 17.5829L71.2556 17.4989L71.4096 16.5049L72.5016 16.8479L72.3826 15.6439H73.4256ZM76.9256 15.6439L76.8066 16.8479L77.9196 16.5049L78.0456 17.5129L77.0866 17.5829L77.7236 18.5349L76.8276 19.0039L76.3866 18.0379L76.0226 18.9969L75.0776 18.5349L75.7146 17.5829L74.7556 17.4989L74.9096 16.5049L76.0016 16.8479L75.8826 15.6439H76.9256ZM80.4256 15.6439L80.3066 16.8479L81.4196 16.5049L81.5456 17.5129L80.5866 17.5829L81.2236 18.5349L80.3276 19.0039L79.8866 18.0379L79.5226 18.9969L78.5776 18.5349L79.2146 17.5829L78.2556 17.4989L78.4096 16.5049L79.5016 16.8479L79.3826 15.6439H80.4256ZM84.4366 16.4979V16.8549C84.4366 17.9049 84.9546 19.0179 86.0326 19.4659L85.5286 20.1939C84.7796 19.8719 84.2686 19.2419 83.9816 18.4649C83.6946 19.3049 83.1766 20.0119 82.4206 20.3549L81.8956 19.6199C82.9736 19.1369 83.4986 17.9539 83.4986 16.8549V16.4979H82.1546V15.7349H85.7666V16.4979H84.4366ZM86.3616 15.1189H87.2856V21.5659H86.3616V15.1189ZM90.75 16.4979V16.8549C90.75 17.8349 91.261 18.9759 92.318 19.4659L91.807 20.1939C91.093 19.8649 90.589 19.2209 90.302 18.4579C90.015 19.2979 89.497 20.0049 88.762 20.3549L88.244 19.6199C89.301 19.1299 89.826 17.9189 89.826 16.8549V16.4979H88.489V15.7349H92.031V16.4979H90.75ZM94.369 17.5759V18.3389H93.431V21.5659H92.507V15.1189H93.431V17.5759H94.369ZM96.8255 16.9389V17.0719C96.8255 18.0449 97.1545 19.0319 98.0645 19.5149L97.5675 20.2009C97.0005 19.8999 96.6295 19.3889 96.3985 18.7729C96.1815 19.4449 95.8035 20.0189 95.2225 20.3549L94.7045 19.6619C95.6215 19.1229 95.9505 18.0659 95.9505 17.0719V16.9389H94.9425V16.1969H95.9505V15.3289H96.8255V16.1969H97.8125V16.9389H96.8255ZM98.1765 17.5549V15.2239H99.0375V21.2719H98.1765V18.3039H97.4415V17.5549H98.1765ZM99.4785 15.1119H100.353V21.5589H99.4785V15.1119Z" fill="#616161"/>
</svg>
