<svg xmlns="http://www.w3.org/2000/svg" width="88" height="94" viewBox="0 0 88 94" fill="none">
  <ellipse cx="43.6726" cy="41.9641" rx="43.6726" ry="41.9641" transform="matrix(-1 0 0 1 87.6719 10.0723)" fill="#45FF9B"/>
  <path d="M79.8145 76.1894C72.7803 71.528 33.8127 65.4646 7.02684 73.7421C15.4702 90.6431 53.0286 107.988 79.8145 76.1894Z" fill="#73AA5A"/>
  <path d="M52.3455 1.81639C58.2892 4.49816 61.0098 8.83659 61.1318 12.3467C51.7353 17.8183 30.3796 23.1865 24.522 26.2838C17.9322 12.3467 29.6474 3.98439 35.1389 1.81639C40.6303 -0.351614 48.9131 0.267703 52.3455 1.81639Z" fill="#73AB5A"/>
  <path d="M38.5331 12.1566C37.817 2.38192 37.4589 2.40735 35.6686 1.46141C47.6995 -2.5746 55.7201 2.69721 58.2266 5.85034C52.0201 8.58305 39.3925 13.1656 38.5331 12.1566Z" fill="#F0F0F0"/>
  <path d="M49.2407 2.75811C54.0046 0.482624 68.25 2.57487 70.4615 6.17142C73.4931 11.1016 71.6785 10.5934 69.0989 12.7028L37.1145 11.8602C39.2799 9.5847 45.4296 4.5785 49.2407 2.75811Z" fill="#D5D5D5"/>
  <path d="M50.0241 3.4011C54.8141 1.17687 69.0344 3.42182 71.2039 7.04188C74.178 12.0043 72.3694 11.4766 69.7655 13.5582L37.7929 12.3725C39.9846 10.1204 46.1921 5.18049 50.0241 3.4011Z" fill="#A7A7A7"/>
  <path d="M55.3662 58.3845L26.9869 41.9531V70.6207C26.9869 70.6207 42.6318 77.2631 55.3662 70.6207C55.3662 66.4254 55.3662 58.3845 55.3662 58.3845Z" fill="#FBC0AE"/>
  <rect width="45.1159" height="48.9446" rx="22.5579" transform="matrix(-1 0 0 1 71.373 13.2842)" fill="#FBC0AE"/>
  <path d="M53.1826 41.2519C54.5608 41.2519 55.3662 40.2658 55.3662 39.0494C55.3662 38.1564 54.9322 37.3876 54.1562 37.0418C53.6517 36.8171 53.1826 36.3991 53.1826 35.8468V34.959" stroke="#282828" stroke-linecap="round"/>
  <path d="M44.4428 31.4638C44.4428 32.2362 45.0944 32.8623 45.8982 32.8623C46.7019 32.8623 47.3535 32.2362 47.3535 31.4638C47.3535 30.6915 46.7019 30.0654 45.8982 30.0654C45.0944 30.0654 44.4428 30.6915 44.4428 31.4638Z" fill="#282828"/>
  <ellipse cx="1.45535" cy="1.39842" rx="1.45535" ry="1.39842" transform="matrix(-1 0 0 1 61.9111 30.0654)" fill="#282828"/>
  <path d="M59.0004 27.9687C59.3643 27.6191 59.652 27.2695 60.4558 27.2695C61.2595 27.2695 61.5473 27.6191 61.9111 27.9687" stroke="#282828" stroke-width="1.5" stroke-linecap="round"/>
  <path d="M44.4428 27.9687C44.8067 27.6191 45.0944 27.2695 45.8982 27.2695C46.7019 27.2695 46.9897 27.6191 47.3535 27.9687" stroke="#282828" stroke-width="1.5" stroke-linecap="round"/>
  <path d="M49.5371 46.1475C49.5371 43.7002 56.0862 43.7002 56.0862 46.1475" stroke="#282828" stroke-linecap="round"/>
  <path d="M39.0889 21.8284C42.6728 19.8688 63.3688 17.1308 68.3278 24.822C70.7714 24.4721 71.6304 15.6292 69.1868 13.5296C66.7433 11.43 57.19 9.79368 51.8383 9.79366C45.6487 9.79364 32.1792 9.33153 25.9693 17.679C23.6541 20.7912 22.8395 27.1945 23.6541 31.5103L31.3715 35.6598C32.5933 32.627 35.505 23.7881 39.0889 21.8284Z" fill="#373737"/>
  <path d="M41.6144 61.5854C41.3465 61.5197 41.1844 61.2491 41.2522 60.9811C41.32 60.7131 41.5922 60.5492 41.86 60.615L41.6144 61.5854ZM55.4379 62.4637C53.8641 62.6806 49.1453 63.4352 41.6144 61.5854L41.86 60.615C49.2159 62.4217 53.7919 61.6827 55.3082 61.4738L55.4379 62.4637Z" fill="#282828"/>
  <path d="M57.9078 39.8535C58.3931 40.6693 59.4364 43 59.7275 45.7968" stroke="#282828" stroke-linecap="round"/>
  <path d="M46.6322 39.8535C46.147 40.6693 45.1037 43 44.8125 45.7968" stroke="#282828" stroke-linecap="round"/>
  <path d="M23.5519 27.9692C23.9619 27.9692 25.0781 16.2928 37.8975 10.2778C35.0284 9.21618 38.2254 10.3485 32.979 9.21626C26.421 7.80094 22.2064 17.4599 22.6163 19.2291C22.9442 20.6444 23.142 27.9692 23.5519 27.9692Z" fill="#73AA5A"/>
  <ellipse cx="5.45757" cy="5.94327" rx="5.45757" ry="5.94327" transform="matrix(-1 0 0 1 32.8086 29.3672)" fill="#FBC0AE"/>
  <path d="M26.9863 32.1641C22.9841 32.1641 22.9841 38.4569 26.9863 38.4569" stroke="#282828" stroke-width="1.5" stroke-linecap="round"/>
</svg>
