<svg xmlns="http://www.w3.org/2000/svg" width="94" height="94" viewBox="0 0 94 94" fill="none">
  <ellipse cx="46.9998" cy="48.8082" rx="46.9998" ry="45.192" fill="#45FF9B"/>
  <path d="M12.5352 79.5379C24.3522 61.8887 63.4203 55.0109 82.7215 78.0316C68.9349 94.6018 35.7217 102.435 12.5352 79.5379Z" fill="#785AAA"/>
  <path d="M12.4628 56.4193C10.8906 32.2443 10.8909 21.2936 15.7871 12.7764L36.3944 53.1888L38.1349 60.5727C37.1196 60.8804 35.698 60.7 32.3193 59.9252C28.3403 59.0126 22.5128 60.5727 21.1652 61.4957C20.1314 62.2038 17.681 63.5858 15.0703 62.6628C12.4595 61.7398 12.7935 61.5035 12.4628 56.4193Z" fill="#282828"/>
  <path d="M35.9912 50.1246L62.7954 30.9277V64.4202C62.7954 64.4202 48.0188 72.1807 35.9912 64.4202C35.9913 59.5189 35.9912 50.1246 35.9912 50.1246Z" fill="#FBC0AE"/>
  <rect x="13.1572" y="3.61621" width="52.0131" height="53.0253" rx="26.0065" fill="#FBC0AE"/>
  <path d="M32.2761 37.8003C30.5843 37.8003 29.5957 36.5887 29.5957 35.0941C29.5957 33.9182 30.2077 32.9174 31.2928 32.5441C31.815 32.3645 32.2761 31.9402 32.2761 31.3879V30.0684" stroke="#282828" stroke-width="1.5" stroke-linecap="round"/>
  <ellipse cx="41.2127" cy="27.4907" rx="1.78695" ry="1.71821" fill="#282828"/>
  <g filter="url(#filter0_f_467_1892)">
    <ellipse cx="44.0407" cy="32.6459" rx="3.57389" ry="1.71821" fill="#FF6C6C"/>
  </g>
  <path d="M49.1914 16.4333C45.6362 12.5623 35.8711 9.98063 30.971 10.4118C21.1941 11.272 18.5243 13.9726 14.5247 18.7037C14.3026 18.9665 13.9024 15.5441 14.5269 14.1786C15.1515 12.8132 16.7719 9.52511 18.5277 7.40093C20.3053 5.25036 28.7857 -0.802813 40.3034 0.0890007C62.5235 1.80951 67.7211 11.0569 70.5227 17.2936C74.9668 27.1863 75.4112 46.1112 73.1892 56.864C72.4916 60.2397 65.3677 58.6704 62.5235 62.4554C59.6793 66.2404 54.9687 67.1868 51.4135 66.3265C50.0802 59.8748 51.9467 49.1219 54.0799 40.5196C56.7463 29.7668 52.2024 19.7116 49.1914 16.4333Z" fill="#282828"/>
  <ellipse cx="24.2332" cy="27.4907" rx="1.78695" ry="1.71821" fill="#282828"/>
  <g filter="url(#filter1_f_467_1892)">
    <ellipse cx="20.3635" cy="32.6459" rx="3.12715" ry="1.71821" fill="#FF6C6C"/>
  </g>
  <path d="M25.7565 22.0808C25.3098 21.6512 24.9565 21.2217 23.9696 21.2217C22.9827 21.2217 22.6294 21.6512 22.1826 22.0808" stroke="#282828" stroke-width="1.5" stroke-linecap="round"/>
  <path d="M40.056 21.2219C40.5027 21.6515 40.856 22.0811 41.8429 22.0811C42.8298 22.0811 43.1831 21.6515 43.6299 21.2219" stroke="#282828" stroke-width="1.5" stroke-linecap="round"/>
  <path d="M37.0391 42.9199C35.3668 39.2768 29.6481 42.419 29.1956 44.6245" stroke="#282828" stroke-width="1.5" stroke-linecap="round"/>
  <path d="M45.9247 55.402C46.1616 55.2629 46.2371 54.9577 46.0933 54.7204C45.9494 54.4831 45.6407 54.4034 45.4038 54.5425L45.9247 55.402ZM36.0314 57.457C36.5509 57.4236 38.1923 57.4081 40.0805 57.1594C41.9685 56.9107 44.1885 56.421 45.9247 55.402L45.4038 54.5425C43.8401 55.4603 41.7791 55.9287 39.9333 56.1719C38.0877 56.415 36.5425 56.4249 35.9511 56.4629L36.0314 57.457Z" fill="#282828"/>
  <ellipse cx="63.9891" cy="30.4987" rx="6.70104" ry="7.3024" fill="#FBC0AE"/>
  <path d="M64.4434 26.6338C69.3575 26.6338 69.3575 34.3657 64.4434 34.3657" stroke="#282828" stroke-width="1.5" stroke-linecap="round"/>
  <path d="M25.7161 36.9414C25.1205 37.9437 23.8398 40.8074 23.4824 44.2438" stroke="#282828" stroke-width="1.5" stroke-linecap="round"/>
  <path d="M39.5642 36.9414C40.1598 37.9437 41.4405 40.8074 41.7979 44.2438" stroke="#282828" stroke-width="1.5" stroke-linecap="round"/>
  <defs>
    <filter id="filter0_f_467_1892" x="36.4668" y="26.9277" width="15.1475" height="11.4365" filterUnits="userSpaceOnUse" color-interpolation-filters="sRGB">
      <feFlood flood-opacity="0" result="BackgroundImageFix"/>
      <feBlend mode="normal" in="SourceGraphic" in2="BackgroundImageFix" result="shape"/>
      <feGaussianBlur stdDeviation="2" result="effect1_foregroundBlur_467_1892"/>
    </filter>
    <filter id="filter1_f_467_1892" x="13.2363" y="26.9277" width="14.2539" height="11.4365" filterUnits="userSpaceOnUse" color-interpolation-filters="sRGB">
      <feFlood flood-opacity="0" result="BackgroundImageFix"/>
      <feBlend mode="normal" in="SourceGraphic" in2="BackgroundImageFix" result="shape"/>
      <feGaussianBlur stdDeviation="2" result="effect1_foregroundBlur_467_1892"/>
    </filter>
  </defs>
</svg>
