<svg width="297" height="337" viewBox="0 0 297 337" fill="none" xmlns="http://www.w3.org/2000/svg">
<circle cx="138.351" cy="173.83" r="117.049" fill="#45F697"/>
<path d="M134.366 121.891C122.584 108.083 237.298 108.284 237.298 121.892C240.318 172.303 227.792 214.199 227.792 226.403C227.792 238.607 143.187 237.675 138.959 226.403C134.73 215.13 141.339 210.306 134.366 121.891Z" fill="#73AA5A"/>
<ellipse cx="147.518" cy="144.473" rx="29.0844" ry="30.0328" fill="#73AA5A"/>
<ellipse cx="227.3" cy="137.642" rx="19.8523" ry="20.7155" transform="rotate(31.7665 227.3 137.642)" fill="#73AA5A"/>
<path d="M116.107 160.011C117.738 153.176 124.6 148.958 131.434 150.588C138.887 152.366 143.089 160.28 140.387 167.45L130.508 193.663C128.563 198.824 123.083 201.734 117.718 200.454C111.834 199.05 108.202 193.142 109.606 187.258L116.107 160.011Z" fill="#FBC0AE"/>
<path d="M126.356 192.998C127.816 195.343 127.038 198.431 124.643 199.806C117.191 204.083 107.677 201.05 104.074 193.251L84.059 149.924L95.5149 143.449L126.356 192.998Z" fill="#FBC0AE"/>
<path d="M115.178 160.312L119.382 136.254L147.818 150.987L142.784 168.059C124.391 170.183 117.84 164.12 115.178 160.312Z" fill="#73AA5A"/>
<path d="M135.86 68.2379C135.86 72.9143 139.205 76.7053 143.332 76.7053C147.458 76.7053 150.803 72.9143 150.803 68.2379C150.803 63.5615 147.458 59.7705 143.332 59.7705C139.205 59.7705 135.86 63.5615 135.86 68.2379Z" fill="#E8AB98"/>
<path fill-rule="evenodd" clip-rule="evenodd" d="M143.331 63.7549C143.331 63.4798 143.108 63.2568 142.833 63.2568C141.312 63.2568 140.144 63.8856 139.365 64.8411C138.596 65.7846 138.226 67.0219 138.226 68.2376C138.226 69.4534 138.596 70.6907 139.365 71.6341C140.144 72.5897 141.312 73.2185 142.833 73.2185C143.108 73.2185 143.331 72.9955 143.331 72.7204C143.331 72.4453 143.108 72.2223 142.833 72.2223C141.614 72.2223 140.728 71.7303 140.137 71.0049C139.536 70.2673 139.222 69.2633 139.222 68.2376C139.222 67.212 139.536 66.208 140.137 65.4704C140.728 64.745 141.614 64.253 142.833 64.253C143.108 64.253 143.331 64.03 143.331 63.7549Z" fill="#28495C"/>
<path d="M145.695 30.6999C149.935 13.7448 167.217 3.01377 184.294 6.73144L186.453 7.20137C203.53 10.919 213.936 27.6776 209.696 44.6327C187.825 42.4321 166.351 37.7574 145.695 30.6999Z" fill="#FFB762"/>
<path d="M210.075 32.3745C184.673 22.9111 160.765 20.9186 148.811 22.9109L146.818 26.8956L210.573 36.8572L210.075 32.3745Z" fill="#73AA5A"/>
<path d="M240.835 55.4906C239.079 64.434 209.07 66.7993 173.808 60.7737C138.545 54.7481 111.383 42.6134 113.138 33.67C114.894 24.7266 144.903 22.3613 180.166 28.3868C215.428 34.4124 242.59 46.5472 240.835 55.4906Z" fill="#FFB762"/>
<path d="M163.983 96.1295L202.833 72.7197V113.562C202.833 113.562 161.76 151.915 163.983 113.562C163.983 107.585 163.983 96.1295 163.983 96.1295Z" fill="#FBC0AE"/>
<path d="M142.065 61.7624C142.065 48.0083 153.215 36.8584 166.969 36.8584H178.923C192.678 36.8584 203.827 48.0083 203.827 61.7624V81.6857C203.827 95.4398 192.678 106.59 178.923 106.59H166.969C153.215 106.59 142.065 95.4398 142.065 81.6857V61.7624Z" fill="#FBC0AE"/>
<path fill-rule="evenodd" clip-rule="evenodd" d="M163.982 67.2402C164.257 67.2402 164.48 67.4632 164.48 67.7383V69.4318C164.48 70.2833 163.789 70.8466 163.148 71.0464C162.117 71.3675 161.491 72.33 161.491 73.5659C161.491 74.3288 161.733 74.9886 162.15 75.4514C162.561 75.9079 163.171 76.2057 163.982 76.2057C164.257 76.2057 164.48 76.4287 164.48 76.7038C164.48 76.9789 164.257 77.2019 163.982 77.2019C162.906 77.2019 162.022 76.7972 161.41 76.118C160.804 75.4451 160.495 74.5359 160.495 73.5659C160.495 71.9899 161.32 70.5725 162.851 70.0953C163.261 69.9678 163.484 69.6807 163.484 69.4318V67.7383C163.484 67.4632 163.707 67.2402 163.982 67.2402Z" fill="#28495C"/>
<path d="M175.937 62.7589C175.937 63.8593 175.045 64.7512 173.944 64.7512C172.844 64.7512 171.952 63.8593 171.952 62.7589C171.952 61.6586 172.844 60.7666 173.944 60.7666C175.045 60.7666 175.937 61.6586 175.937 62.7589Z" fill="#28495C"/>
<path d="M157.009 62.7589C157.009 63.8593 156.117 64.7512 155.017 64.7512C153.916 64.7512 153.024 63.8593 153.024 62.7589C153.024 61.6586 153.916 60.7666 155.017 60.7666C156.117 60.7666 157.009 61.6586 157.009 62.7589Z" fill="#28495C"/>
<path fill-rule="evenodd" clip-rule="evenodd" d="M153.508 57.9973C153.467 58.0391 153.423 58.0832 153.377 58.1296C153.182 58.3242 152.867 58.3242 152.672 58.1296C152.478 57.9351 152.478 57.6198 152.672 57.4252C152.706 57.3914 152.741 57.3555 152.778 57.3183C152.981 57.111 153.225 56.8614 153.53 56.6704C153.915 56.4293 154.382 56.2832 155.017 56.2832C155.651 56.2832 156.118 56.4293 156.503 56.6704C156.808 56.8614 157.053 57.111 157.256 57.3183C157.292 57.3555 157.327 57.3914 157.361 57.4252C157.556 57.6198 157.556 57.9351 157.361 58.1296C157.167 58.3242 156.851 58.3242 156.657 58.1296C156.61 58.0832 156.567 58.0391 156.526 57.9973C156.322 57.791 156.171 57.638 155.974 57.5147C155.763 57.3823 155.483 57.2794 155.017 57.2794C154.551 57.2794 154.271 57.3823 154.059 57.5147C153.862 57.638 153.711 57.791 153.508 57.9973Z" fill="#28495C"/>
<path fill-rule="evenodd" clip-rule="evenodd" d="M172.436 57.9973C172.394 58.0391 172.351 58.0832 172.304 58.1296C172.11 58.3242 171.794 58.3242 171.6 58.1296C171.405 57.9351 171.405 57.6198 171.6 57.4252C171.634 57.3914 171.669 57.3555 171.705 57.3183C171.909 57.111 172.153 56.8614 172.458 56.6704C172.843 56.4293 173.31 56.2832 173.945 56.2832C174.579 56.2832 175.046 56.4293 175.431 56.6704C175.736 56.8614 175.98 57.111 176.184 57.3183C176.22 57.3555 176.255 57.3914 176.289 57.4252C176.484 57.6198 176.484 57.9351 176.289 58.1296C176.095 58.3242 175.779 58.3242 175.585 58.1296C175.538 58.0832 175.495 58.0391 175.453 57.9973C175.25 57.791 175.099 57.638 174.902 57.5147C174.691 57.3823 174.41 57.2794 173.945 57.2794C173.479 57.2794 173.198 57.3823 172.987 57.5147C172.79 57.638 172.639 57.791 172.436 57.9973Z" fill="#28495C"/>
<path fill-rule="evenodd" clip-rule="evenodd" d="M159.997 79.1953C160.272 79.1953 160.495 79.4183 160.495 79.6934C160.495 80.8646 160.982 81.7185 161.707 82.2911C162.444 82.8739 163.451 83.18 164.48 83.18C165.509 83.18 166.515 82.8739 167.253 82.2911C167.978 81.7185 168.464 80.8646 168.464 79.6934C168.464 79.4183 168.687 79.1953 168.963 79.1953C169.238 79.1953 169.461 79.4183 169.461 79.6934C169.461 81.1786 168.827 82.317 167.87 83.0727C166.927 83.8181 165.692 84.1761 164.48 84.1761C163.268 84.1761 162.033 83.8181 161.089 83.0727C160.133 82.317 159.499 81.1786 159.499 79.6934C159.499 79.4183 159.722 79.1953 159.997 79.1953Z" fill="#28495C"/>
<path fill-rule="evenodd" clip-rule="evenodd" d="M163.97 107.377C163.892 107.373 163.818 107.37 163.749 107.367L163.793 106.371C163.863 106.375 163.937 106.378 164.016 106.382C166.33 106.488 172.608 106.778 182.512 104.423C182.78 104.359 183.048 104.525 183.112 104.792C183.175 105.06 183.01 105.329 182.742 105.392C172.705 107.778 166.323 107.485 163.97 107.377Z" fill="#28495C"/>
<path d="M184.556 46.0415C179.714 43.2496 148.045 38.8506 145.056 50.3065C141.755 49.808 143.518 42.3402 146.819 39.3489C150.12 36.3575 159.512 35.3643 166.742 35.3643C175.104 35.3642 197.125 38.3525 203.6 44.8276C205.094 49.8084 206.507 53.6865 205.407 59.8353L194.981 65.747C193.331 61.4262 189.397 48.8334 184.556 46.0415Z" fill="#28495C"/>
<path d="M209.806 68.2379C209.806 72.9143 206.461 76.7053 202.334 76.7053C198.208 76.7053 194.863 72.9143 194.863 68.2379C194.863 63.5615 198.208 59.7705 202.334 59.7705C206.461 59.7705 209.806 63.5615 209.806 68.2379Z" fill="#FBC0AE"/>
<path fill-rule="evenodd" clip-rule="evenodd" d="M202.335 63.7549C202.335 63.4798 202.558 63.2568 202.833 63.2568C204.354 63.2568 205.522 63.8856 206.301 64.8411C207.07 65.7846 207.44 67.0219 207.44 68.2376C207.44 69.4534 207.07 70.6907 206.301 71.6341C205.522 72.5897 204.354 73.2185 202.833 73.2185C202.558 73.2185 202.335 72.9955 202.335 72.7204C202.335 72.4453 202.558 72.2223 202.833 72.2223C204.052 72.2223 204.938 71.7303 205.529 71.0049C206.13 70.2673 206.444 69.2633 206.444 68.2376C206.444 67.212 206.13 66.208 205.529 65.4704C204.938 64.745 204.052 64.253 202.833 64.253C202.558 64.253 202.335 64.03 202.335 63.7549Z" fill="#28495C"/>
<path d="M211.569 157.394C170.228 147.93 144.826 154.904 144.826 154.904L136.857 186.283C136.857 221.165 132.374 256.065 132.374 290.88C151.301 290.88 162.757 289.385 176.703 284.405C206.588 273.731 225.017 254.022 229.998 246.55L232.488 195.248C232.488 195.248 218.542 170.842 211.569 157.394Z" fill="#28495C"/>
<path d="M141.885 174.254C142.073 150.819 140.952 118.322 142.833 114.56L151.799 113.563C150.334 114.926 151.695 138.31 151.793 174.309C151.799 176.519 150.008 178.314 147.799 178.314H145.902C143.668 178.314 141.867 176.489 141.885 174.254Z" fill="#17394D"/>
<path d="M192.824 175.416L193.141 170.345C205.593 127.51 219.041 114.56 222.029 114.56C224.42 114.56 230.995 116.386 233.485 117.548C226.014 116.054 220.037 127.012 218.045 131.495L203.102 179.31L195.533 178.589C193.922 178.436 192.723 177.031 192.824 175.416Z" fill="#1B3F53"/>
<circle cx="197.623" cy="174.329" r="2.98849" fill="#40728E"/>
<path d="M186.749 164.949L202.428 113.636C202.544 113.257 202.603 112.863 202.603 112.467V101.608C204.097 102.106 207.982 103.501 211.568 105.095C214.829 106.544 216.965 111.125 217.824 113.816C217.98 114.303 218.2 114.773 218.298 115.276C219.143 119.605 216.677 138.85 217.047 139.961C217.545 141.455 216.549 149.922 218.043 153.907C219.537 157.892 215.055 161.378 216.549 162.872C218.043 164.367 214.557 166.857 212.564 168.849C210.572 170.842 210.074 169.845 208.082 168.849C206.089 167.853 206.089 170.344 204.097 172.336C202.105 174.328 199.116 175.324 195.63 172.336C194.871 171.685 194.266 171.278 193.749 171.06C191.692 170.194 189.076 170.858 187.763 169.053L187.339 168.471C186.601 167.455 186.382 166.15 186.749 164.949Z" fill="#F1F1F1"/>
<path d="M200.113 203.217C188.956 205.209 157.112 203.051 144.826 202.221L145.822 229.117C158.573 252.228 189.487 241.403 201.109 232.604L200.113 203.217Z" stroke="#1B3F53"/>
<path d="M209.549 151.625C213.15 144.701 221.654 142.06 228.543 145.727C235.927 149.657 238.362 159.138 233.783 166.128L208.956 204.028C205.624 209.114 198.998 210.81 193.624 207.95C187.845 204.874 185.608 197.671 188.628 191.863L209.549 151.625Z" fill="#FBC0AE"/>
<path d="M144.826 206.705C151.799 209.029 172.121 210.49 199.615 207.701" stroke="#1B3F53"/>
<path d="M207.667 196.697C210.092 198.647 210.476 202.221 208.522 204.648C201.868 212.909 189.389 212.945 182.676 204.723L153.515 169.008L162.351 160.261L207.667 196.697Z" fill="#FBC0AE"/>
<path d="M228.504 179.807L245.438 144.942L217.546 131.992L201.566 161.127C196.635 167.249 227.727 182.895 228.504 179.807Z" fill="#73AA5A"/>
<path d="M105.059 102.24L86.1965 103.741C85.0335 103.833 84.1962 104.897 84.38 106.049L89.4896 138.078C89.6485 139.074 90.5243 139.796 91.5323 139.762L110.073 139.134C111.265 139.093 112.156 138.027 111.985 136.847L107.197 103.946C107.045 102.903 106.11 102.156 105.059 102.24Z" fill="#343434"/>
<path d="M111.17 140.578L111.691 139.234C111.951 138.564 111.832 137.806 111.379 137.249L84.6079 104.324L83.2438 105.494C82.7165 105.946 82.4615 106.639 82.5702 107.325L87.8777 140.826C88.0357 141.823 88.9119 142.546 89.9208 142.512L109.373 141.853C110.174 141.826 110.881 141.324 111.17 140.578Z" fill="#343434"/>
<path d="M103.334 104.037L84.4417 105.509C83.2776 105.599 82.4383 106.664 82.6219 107.817L87.8751 140.823C88.034 141.821 88.9126 142.544 89.9227 142.508L108.928 141.819C110.128 141.775 111.019 140.692 110.831 139.506L105.464 105.718C105.301 104.688 104.374 103.956 103.334 104.037Z" fill="#5A5A5A"/>
<path d="M82.0674 135.977C82.0674 138.914 83.1498 145.91 83.719 149.385C83.9015 150.5 84.9755 151.227 86.0815 150.999L97.3317 148.671C98.0536 148.522 98.6347 147.988 98.8442 147.281L102.128 136.199C102.348 135.455 102.118 134.651 101.539 134.136L94.7052 128.062C94.0124 127.446 93.8336 126.435 94.273 125.619L96.8707 120.795C96.9629 120.623 97.0882 120.471 97.1952 120.309C98.2677 118.682 95.8725 115.222 93.0252 118.544C89.7046 122.419 82.0674 131.992 82.0674 135.977Z" fill="#FBC0AE"/>
<path d="M98.3819 119.286L92.614 126.021C92.2051 126.498 91.9916 127.113 92.0162 127.741C92.1081 130.086 95.0941 131.017 96.5029 129.14L101.825 122.047C102.433 121.237 102.411 120.116 101.772 119.33C100.903 118.261 99.278 118.24 98.3819 119.286Z" fill="#FBC0AE"/>
<path d="M101.015 123.458L95.3092 130.246C94.9048 130.727 94.6969 131.343 94.7273 131.971C94.8407 134.315 97.8352 135.219 99.2267 133.329L104.483 126.188C105.084 125.371 105.052 124.251 104.406 123.471C103.527 122.409 101.902 122.404 101.015 123.458Z" fill="#FBC0AE"/>
<path d="M102.542 128.85L97.239 135.705C96.9032 136.139 96.7305 136.677 96.7513 137.226C96.837 139.484 99.7565 140.321 101.026 138.452L105.896 131.283C106.398 130.545 106.37 129.568 105.827 128.859C105 127.779 103.375 127.775 102.542 128.85Z" fill="#FBC0AE"/>
<path d="M157.776 140.956C157.776 129.003 161.761 117.049 163.753 112.566V106.589L162.757 106.091C161.263 107.585 157.776 108.581 155.784 110.075C153.264 111.965 148.811 118.543 148.313 120.037C147.815 121.531 143.83 127.01 141.339 135.478C138.849 143.945 136.857 151.914 136.359 153.409C135.96 154.604 136.193 157.227 136.359 158.389L141.339 158.887C142.004 158.389 143.73 157.393 145.324 157.393C147.316 157.393 147.316 158.389 148.313 158.887C149.309 159.385 151.799 159.385 155.286 160.88C158.075 162.075 158.108 160.382 157.776 159.385V140.956Z" fill="#F1F1F1"/>
<path d="M153.931 150.919C156.22 152.911 161.007 158.597 163.211 161.258C163.87 162.054 163.811 163.221 163.083 163.951L155.56 171.494L145.412 167.059C144.823 166.802 144.393 166.275 144.256 165.643L142.022 155.361C141.852 154.581 141.243 153.976 140.468 153.819L132.677 152.232C132.499 152.196 132.316 152.192 132.136 152.174C130.157 151.98 128.784 148.154 133.503 147.8C138.608 147.417 150.901 148.283 153.931 150.919Z" fill="#FBC0AE"/>
<circle cx="146.817" cy="173.332" r="2.98849" fill="#40728E"/>
<circle cx="48.8849" cy="300.328" r="9.80675" stroke="#45F697" stroke-width="12"/>
<circle cx="7.15517" cy="277.567" r="3.95497" stroke="#45F697" stroke-width="6"/>
<g filter="url(#filter0_b_467_1817)">
<circle cx="233.193" cy="273.457" r="63.5432" fill="#9DFFA7" fill-opacity="0.3"/>
<circle cx="233.193" cy="273.457" r="63.0432" stroke="url(#paint0_linear_467_1817)"/>
</g>
<defs>
<filter id="filter0_b_467_1817" x="159.649" y="199.914" width="147.086" height="147.086" filterUnits="userSpaceOnUse" color-interpolation-filters="sRGB">
<feFlood flood-opacity="0" result="BackgroundImageFix"/>
<feGaussianBlur in="BackgroundImageFix" stdDeviation="5"/>
<feComposite in2="SourceAlpha" operator="in" result="effect1_backgroundBlur_467_1817"/>
<feBlend mode="normal" in="SourceGraphic" in2="effect1_backgroundBlur_467_1817" result="shape"/>
</filter>
<linearGradient id="paint0_linear_467_1817" x1="196.1" y1="201.097" x2="244.442" y2="315.414" gradientUnits="userSpaceOnUse">
<stop stop-color="white"/>
<stop offset="1" stop-color="white" stop-opacity="0"/>
</linearGradient>
</defs>
</svg>
