<svg width="402" height="486" viewBox="0 0 402 486" fill="none" xmlns="http://www.w3.org/2000/svg">
<g clip-path="url(#clip0_783_846)">
<rect width="402" height="486" fill="white"/>
<rect y="-6" width="402" height="460" fill="url(#paint0_linear_783_846)"/>
<circle cx="198.512" cy="204.64" r="112.881" fill="#45F697"/>
<path d="M194.669 154.551C183.306 141.234 293.935 141.428 293.935 154.551C296.848 203.167 284.768 243.571 284.768 255.34C284.768 267.11 203.176 266.211 199.098 255.34C195.02 244.469 201.393 239.816 194.669 154.551Z" fill="#73AA5A"/>
<ellipse cx="207.352" cy="176.329" rx="28.0487" ry="28.9634" fill="#73AA5A"/>
<ellipse cx="284.293" cy="169.74" rx="19.1454" ry="19.9778" transform="rotate(31.7665 284.293 169.74)" fill="#73AA5A"/>
<path d="M177.06 191.312C178.632 184.721 185.25 180.653 191.841 182.225C199.029 183.94 203.081 191.572 200.475 198.486L190.948 223.766C189.072 228.744 183.787 231.55 178.613 230.315C172.939 228.961 169.436 223.264 170.79 217.589L177.06 191.312Z" fill="#FBC0AE"/>
<path d="M186.944 223.125C188.352 225.386 187.602 228.364 185.292 229.69C178.106 233.814 168.93 230.89 165.456 223.369L146.154 181.584L157.201 175.34L186.944 223.125Z" fill="#FBC0AE"/>
<path d="M176.164 191.603L180.219 168.401L207.642 182.609L202.788 199.074C185.049 201.122 178.732 195.274 176.164 191.603Z" fill="#73AA5A"/>
<path d="M196.11 102.807C196.11 107.317 199.336 110.973 203.315 110.973C207.295 110.973 210.521 107.317 210.521 102.807C210.521 98.2976 207.295 94.6416 203.315 94.6416C199.336 94.6416 196.11 98.2976 196.11 102.807Z" fill="#E8AB98"/>
<path fill-rule="evenodd" clip-rule="evenodd" d="M203.314 98.4843C203.314 98.219 203.099 98.0039 202.834 98.0039C201.368 98.0039 200.241 98.6102 199.49 99.5318C198.748 100.442 198.391 101.635 198.391 102.807C198.391 103.98 198.748 105.173 199.49 106.083C200.241 107.004 201.368 107.611 202.834 107.611C203.099 107.611 203.314 107.396 203.314 107.13C203.314 106.865 203.099 106.65 202.834 106.65C201.659 106.65 200.804 106.176 200.234 105.476C199.655 104.765 199.352 103.796 199.352 102.807C199.352 101.818 199.655 100.85 200.234 100.139C200.804 99.439 201.659 98.9646 202.834 98.9646C203.099 98.9646 203.314 98.7495 203.314 98.4843Z" fill="#28495C"/>
<path d="M205.594 66.6066C209.684 50.2553 226.35 39.9064 242.819 43.4917L244.901 43.9449C261.37 47.5302 271.406 63.692 267.316 80.0433C246.224 77.9211 225.515 73.4128 205.594 66.6066Z" fill="#FFB762"/>
<path d="M267.681 68.2215C243.184 59.0951 220.127 57.1736 208.599 59.095L206.678 62.9377L268.162 72.5446L267.681 68.2215Z" fill="#73AA5A"/>
<path d="M297.347 90.5148C295.654 99.1397 266.713 101.421 232.707 95.6098C198.7 89.7988 172.505 78.0962 174.198 69.4713C175.891 60.8464 204.832 58.5652 238.838 64.3763C272.845 70.1873 299.04 81.8899 297.347 90.5148Z" fill="#FFB762"/>
<path d="M223.23 129.706L260.697 107.13V146.518C260.697 146.518 221.087 183.505 223.23 146.518C223.231 140.754 223.23 129.706 223.23 129.706Z" fill="#FBC0AE"/>
<path d="M202.094 96.5631C202.094 83.2988 212.847 72.5459 226.111 72.5459H237.639C250.904 72.5459 261.656 83.2988 261.656 96.5631V115.777C261.656 129.041 250.904 139.794 237.639 139.794H226.111C212.847 139.794 202.094 129.041 202.094 115.777V96.5631Z" fill="#FBC0AE"/>
<path fill-rule="evenodd" clip-rule="evenodd" d="M223.23 101.846C223.495 101.846 223.71 102.061 223.71 102.326V103.959C223.71 104.78 223.044 105.324 222.425 105.516C221.432 105.826 220.828 106.754 220.828 107.946C220.828 108.682 221.061 109.318 221.463 109.764C221.86 110.205 222.448 110.492 223.23 110.492C223.495 110.492 223.71 110.707 223.71 110.972C223.71 111.238 223.495 111.453 223.23 111.453C222.193 111.453 221.339 111.062 220.749 110.407C220.165 109.758 219.867 108.882 219.867 107.946C219.867 106.426 220.663 105.059 222.139 104.599C222.534 104.476 222.749 104.199 222.749 103.959V102.326C222.749 102.061 222.964 101.846 223.23 101.846Z" fill="#28495C"/>
<path d="M234.76 97.5239C234.76 98.5851 233.9 99.4453 232.838 99.4453C231.777 99.4453 230.917 98.5851 230.917 97.5239C230.917 96.4628 231.777 95.6025 232.838 95.6025C233.9 95.6025 234.76 96.4628 234.76 97.5239Z" fill="#28495C"/>
<path d="M216.506 97.5239C216.506 98.5851 215.646 99.4453 214.584 99.4453C213.523 99.4453 212.663 98.5851 212.663 97.5239C212.663 96.4628 213.523 95.6025 214.584 95.6025C215.646 95.6025 216.506 96.4628 216.506 97.5239Z" fill="#28495C"/>
<path fill-rule="evenodd" clip-rule="evenodd" d="M213.129 92.9313C213.089 92.9717 213.047 93.0142 213.003 93.059C212.815 93.2466 212.511 93.2466 212.323 93.059C212.136 92.8714 212.136 92.5673 212.323 92.3797C212.356 92.347 212.39 92.3124 212.425 92.2766C212.621 92.0766 212.857 91.836 213.151 91.6518C213.522 91.4193 213.973 91.2783 214.584 91.2783C215.196 91.2783 215.646 91.4193 216.018 91.6518C216.312 91.836 216.548 92.0766 216.744 92.2766C216.779 92.3124 216.813 92.347 216.845 92.3797C217.033 92.5673 217.033 92.8714 216.845 93.059C216.658 93.2466 216.354 93.2466 216.166 93.059C216.121 93.0142 216.079 92.9717 216.04 92.9313C215.843 92.7324 215.698 92.5849 215.508 92.466C215.304 92.3382 215.034 92.239 214.584 92.239C214.135 92.239 213.865 92.3382 213.661 92.466C213.471 92.5849 213.325 92.7324 213.129 92.9313Z" fill="#28495C"/>
<path fill-rule="evenodd" clip-rule="evenodd" d="M231.383 92.9313C231.343 92.9717 231.301 93.0142 231.257 93.059C231.069 93.2466 230.765 93.2466 230.577 93.059C230.39 92.8714 230.39 92.5673 230.577 92.3797C230.61 92.347 230.644 92.3124 230.679 92.2766C230.875 92.0766 231.111 91.836 231.405 91.6518C231.776 91.4193 232.226 91.2783 232.838 91.2783C233.45 91.2783 233.9 91.4193 234.272 91.6518C234.566 91.836 234.802 92.0766 234.998 92.2766C235.033 92.3124 235.067 92.347 235.099 92.3797C235.287 92.5673 235.287 92.8714 235.099 93.059C234.912 93.2466 234.608 93.2466 234.42 93.059C234.375 93.0142 234.333 92.9717 234.293 92.9313C234.097 92.7324 233.952 92.5849 233.762 92.466C233.558 92.3382 233.288 92.239 232.838 92.239C232.389 92.239 232.119 92.3382 231.915 92.466C231.725 92.5849 231.579 92.7324 231.383 92.9313Z" fill="#28495C"/>
<path fill-rule="evenodd" clip-rule="evenodd" d="M219.388 113.375C219.653 113.375 219.868 113.59 219.868 113.855C219.868 114.985 220.337 115.808 221.036 116.361C221.748 116.923 222.718 117.218 223.711 117.218C224.703 117.218 225.674 116.923 226.385 116.361C227.084 115.808 227.553 114.985 227.553 113.855C227.553 113.59 227.768 113.375 228.034 113.375C228.299 113.375 228.514 113.59 228.514 113.855C228.514 115.288 227.903 116.386 226.981 117.114C226.071 117.833 224.88 118.178 223.711 118.178C222.542 118.178 221.351 117.833 220.441 117.114C219.518 116.386 218.907 115.288 218.907 113.855C218.907 113.59 219.122 113.375 219.388 113.375Z" fill="#28495C"/>
<path fill-rule="evenodd" clip-rule="evenodd" d="M223.218 140.553C223.143 140.549 223.072 140.546 223.005 140.543L223.048 139.583C223.115 139.586 223.187 139.589 223.263 139.593C225.494 139.696 231.549 139.975 241.1 137.704C241.358 137.643 241.617 137.802 241.679 138.06C241.74 138.318 241.581 138.577 241.322 138.639C231.643 140.94 225.488 140.657 223.218 140.553Z" fill="#28495C"/>
<path d="M243.072 81.4015C238.403 78.7091 207.861 74.4667 204.979 85.5146C201.795 85.0338 203.495 77.832 206.678 74.9472C209.862 72.0624 218.92 71.1045 225.892 71.1045C233.956 71.1045 255.193 73.9863 261.438 80.2308C262.879 85.0343 264.242 88.7743 263.18 94.7041L253.126 100.405C251.534 96.2384 247.741 84.094 243.072 81.4015Z" fill="#28495C"/>
<path d="M267.422 102.807C267.422 107.317 264.196 110.973 260.217 110.973C256.238 110.973 253.012 107.317 253.012 102.807C253.012 98.2976 256.238 94.6416 260.217 94.6416C264.196 94.6416 267.422 98.2976 267.422 102.807Z" fill="#FBC0AE"/>
<path fill-rule="evenodd" clip-rule="evenodd" d="M260.218 98.4843C260.218 98.219 260.433 98.0039 260.698 98.0039C262.165 98.0039 263.292 98.6102 264.043 99.5318C264.784 100.442 265.141 101.635 265.141 102.807C265.141 103.98 264.784 105.173 264.043 106.083C263.292 107.004 262.165 107.611 260.698 107.611C260.433 107.611 260.218 107.396 260.218 107.13C260.218 106.865 260.433 106.65 260.698 106.65C261.873 106.65 262.728 106.176 263.298 105.476C263.877 104.765 264.181 103.796 264.181 102.807C264.181 101.818 263.877 100.85 263.298 100.139C262.728 99.439 261.873 98.9646 260.698 98.9646C260.433 98.9646 260.218 98.7495 260.218 98.4843Z" fill="#28495C"/>
<path d="M269.123 188.788C229.254 179.662 204.757 186.387 204.757 186.387L197.071 216.648C197.071 250.289 192.748 283.946 192.748 317.521C211.001 317.521 222.049 316.08 235.499 311.276C264.319 300.983 282.092 281.975 286.895 274.77L289.297 225.295C289.297 225.295 275.848 201.758 269.123 188.788Z" fill="#28495C"/>
<path d="M201.922 204.903C202.097 182.314 201.024 151.1 202.835 147.48L211.481 146.52C210.071 147.832 211.378 170.323 211.475 204.959C211.481 207.168 209.69 208.964 207.481 208.964H205.939C203.705 208.964 201.904 207.138 201.922 204.903Z" fill="#17394D"/>
<path d="M251.051 206.065L251.35 201.278C263.359 159.969 276.328 147.479 279.21 147.479C281.516 147.479 287.857 149.241 290.258 150.362C283.053 148.921 277.289 159.488 275.368 163.811L260.957 209.924L253.761 209.239C252.149 209.085 250.95 207.681 251.051 206.065Z" fill="#1B3F53"/>
<circle cx="255.673" cy="205.121" r="2.88206" fill="#40728E"/>
<path d="M245.207 196.006L260.301 146.609C260.417 146.23 260.475 145.836 260.475 145.44V134.989C261.916 135.47 265.663 136.815 269.122 138.352C272.256 139.745 274.312 144.136 275.146 146.735C275.303 147.222 275.522 147.693 275.617 148.196C276.417 152.422 274.049 170.907 274.405 171.976C274.886 173.417 273.925 181.583 275.366 185.425C276.807 189.268 272.484 192.631 273.925 194.072C275.366 195.513 272.004 197.914 270.082 199.836C268.161 201.757 267.681 200.796 265.759 199.836C263.838 198.875 263.838 201.277 261.916 203.198C259.995 205.119 257.113 206.08 253.751 203.198C253.083 202.626 252.539 202.248 252.07 202.027C250.051 201.075 247.392 201.72 246.079 199.915L245.797 199.528C245.059 198.512 244.84 197.208 245.207 196.006Z" fill="#F1F1F1"/>
<path d="M258.075 232.98C247.315 234.902 216.605 232.82 204.757 232.02L205.718 257.958C218.014 280.246 247.828 269.807 259.036 261.321L258.075 232.98Z" stroke="#1B3F53"/>
<path d="M267.175 183.226C270.647 176.548 278.848 174.001 285.493 177.537C292.614 181.327 294.962 190.47 290.546 197.212L266.603 233.762C263.39 238.668 256.999 240.302 251.817 237.544C246.244 234.578 244.087 227.632 246.999 222.03L267.175 183.226Z" fill="#FBC0AE"/>
<path d="M204.757 236.344C211.482 238.585 231.08 239.994 257.595 237.304" stroke="#1B3F53"/>
<path d="M265.359 226.691C267.698 228.572 268.069 232.019 266.184 234.359C259.767 242.326 247.733 242.361 241.258 234.432L213.136 199.989L221.657 191.554L265.359 226.691Z" fill="#FBC0AE"/>
<path d="M285.454 210.404L301.786 176.78L274.887 164.291L259.476 192.389C254.721 198.292 284.705 213.381 285.454 210.404Z" fill="#73AA5A"/>
<path d="M166.339 135.604L148.291 137.039C147.128 137.132 146.291 138.196 146.475 139.348L151.38 170.098C151.539 171.094 152.415 171.816 153.423 171.782L171.161 171.181C172.353 171.141 173.244 170.074 173.073 168.894L168.477 137.309C168.325 136.266 167.39 135.52 166.339 135.604Z" fill="#343434"/>
<path d="M172.316 172.528L172.786 171.314C173.046 170.645 172.927 169.887 172.474 169.33L146.682 137.609L145.397 138.711C144.87 139.163 144.615 139.856 144.723 140.542L149.826 172.749C149.984 173.746 150.86 174.469 151.869 174.435L170.519 173.803C171.319 173.776 172.026 173.274 172.316 172.528Z" fill="#343434"/>
<path d="M164.676 137.337L146.599 138.745C145.435 138.836 144.596 139.9 144.779 141.053L149.823 172.746C149.982 173.744 150.861 174.467 151.871 174.43L170.056 173.771C171.256 173.727 172.147 172.644 171.959 171.459L166.806 139.017C166.643 137.988 165.716 137.256 164.676 137.337Z" fill="#5A5A5A"/>
<path d="M144.232 168.134C144.232 170.947 145.261 177.617 145.813 180.993C145.996 182.108 147.07 182.835 148.176 182.607L158.911 180.386C159.633 180.236 160.214 179.702 160.424 178.995L163.565 168.392C163.786 167.649 163.556 166.845 162.977 166.329L156.462 160.539C155.77 159.923 155.591 158.912 156.03 158.096L158.504 153.502C158.596 153.331 158.721 153.179 158.827 153.016C159.847 151.443 157.541 148.124 154.8 151.323C151.598 155.059 144.232 164.292 144.232 168.134Z" fill="#FBC0AE"/>
<path d="M159.966 152.038L154.403 158.533C154.009 158.994 153.803 159.586 153.827 160.192C153.915 162.454 156.795 163.352 158.154 161.541L163.286 154.701C163.873 153.919 163.852 152.839 163.235 152.08C162.397 151.049 160.83 151.029 159.966 152.038Z" fill="#FBC0AE"/>
<path d="M162.505 156.061L157.003 162.607C156.612 163.071 156.412 163.666 156.441 164.271C156.551 166.532 159.439 167.404 160.78 165.581L165.85 158.694C166.429 157.907 166.398 156.826 165.775 156.073C164.927 155.05 163.36 155.044 162.505 156.061Z" fill="#FBC0AE"/>
<path d="M163.978 161.262L158.864 167.872C158.54 168.291 158.373 168.81 158.393 169.339C158.476 171.517 161.291 172.324 162.516 170.522L167.212 163.608C167.696 162.896 167.669 161.953 167.146 161.27C166.348 160.228 164.781 160.224 163.978 161.262Z" fill="#FBC0AE"/>
<path d="M217.245 172.937C217.245 161.408 221.088 149.88 223.009 145.557V139.793L222.048 139.312C220.607 140.754 217.245 141.714 215.323 143.155C212.893 144.978 208.599 151.321 208.118 152.762C207.638 154.203 203.795 159.487 201.394 167.653C198.992 175.819 197.07 183.504 196.59 184.945C196.206 186.098 196.43 188.628 196.59 189.749L201.394 190.229C202.034 189.749 203.699 188.788 205.236 188.788C207.158 188.788 207.158 189.749 208.118 190.229C209.079 190.709 211.481 190.709 214.843 192.15C217.533 193.303 217.565 191.67 217.245 190.709V172.937Z" fill="#F1F1F1"/>
<path d="M213.538 182.544C215.73 184.452 220.3 189.875 222.444 192.463C223.103 193.258 223.046 194.428 222.318 195.158L215.109 202.386L205.355 198.124C204.767 197.867 204.336 197.34 204.199 196.708L202.062 186.873C201.893 186.094 201.283 185.489 200.509 185.331L193.05 183.812C192.872 183.776 192.689 183.772 192.509 183.753C190.605 183.555 189.294 179.877 193.837 179.536C198.761 179.166 210.616 180.002 213.538 182.544Z" fill="#FBC0AE"/>
<circle cx="206.676" cy="204.159" r="2.88206" fill="#40728E"/>
<circle cx="112.231" cy="326.633" r="9.24387" stroke="#45F697" stroke-width="12"/>
<circle cx="71.9876" cy="304.682" r="3.7073" stroke="#45F697" stroke-width="6"/>
<g filter="url(#filter0_b_783_846)">
<circle cx="289.976" cy="300.719" r="61.2804" fill="#9DFFA7" fill-opacity="0.3"/>
<circle cx="289.976" cy="300.719" r="60.7804" stroke="url(#paint1_linear_783_846)"/>
</g>
<path d="M279.691 412.675C274.237 412.675 269.797 408.292 269.726 402.839L268.705 324L306.533 351.854L343.212 324V402.774C343.212 408.242 338.779 412.675 333.31 412.675C327.842 412.675 323.409 408.242 323.409 402.774V364.04L306.533 376.335L289.656 364.04V402.71C289.656 408.214 285.194 412.675 279.691 412.675Z" fill="#144101"/>
<path d="M259.444 398.195C263.474 404.444 258.989 412.675 251.553 412.675C248.036 412.675 244.815 410.711 243.205 407.585L228.636 379.297H212.859V402.774C212.859 408.242 208.426 412.675 202.958 412.675C197.49 412.675 193.057 408.242 193.057 402.774V324H228.744C251.267 324 264.432 335.968 264.432 354.356C264.432 366.542 258.665 375.9 248.22 380.796L259.444 398.195ZM212.859 341.517V361.779H227.874C238.319 361.779 244.04 360.486 244.04 352.108C244.04 343.73 238.319 341.517 227.874 341.517H212.859Z" fill="#144101"/>
<path d="M176.69 412.675C171.167 412.675 166.667 408.198 166.667 402.675V378.704H144.906L135.256 406.356C133.936 410.14 130.366 412.675 126.358 412.675C119.733 412.675 115.176 406.02 117.571 399.844L144.007 331.662C145.798 327.044 150.242 324 155.195 324H186.713V402.675C186.713 408.198 182.213 412.675 176.69 412.675ZM149.742 361.779H166.667V341.227C162.24 341.227 158.21 343.784 156.325 347.79L149.742 361.779Z" fill="#144101"/>
<path d="M83.4803 412.675C78.012 412.675 73.5791 408.242 73.5791 402.774V339C73.5791 330.716 80.2948 324 88.5791 324H141.062L133.808 341.409H103.381C97.8586 341.409 93.3814 345.886 93.3814 351.409V361.537H126.385L119.132 378.728H93.3814V402.774C93.3814 408.242 88.9485 412.675 83.4803 412.675Z" fill="#144101"/>
<rect x="38" y="390.794" width="21.7608" height="21.7608" fill="#144101"/>
<path d="M52.7991 443.685C55.3821 443.685 56.7051 443.223 56.7051 442.215C56.7051 441.186 55.3821 440.745 52.7991 440.745C50.2161 440.745 48.8931 441.186 48.8931 442.215C48.8931 443.223 50.2161 443.685 52.7991 443.685ZM52.7991 438.624C56.9781 438.624 59.5191 439.926 59.5191 442.215C59.5191 444.504 56.9781 445.806 52.7991 445.806C48.6201 445.806 46.1001 444.504 46.1001 442.215C46.1001 439.926 48.6201 438.624 52.7991 438.624ZM54.2481 435.411H61.6191V437.595H44.1261V435.411H51.4761V433.479H46.3101V426.801H49.0821V431.274H59.6661V433.479H54.2481V435.411ZM76.8425 443.37V441.648H69.5345V443.37H76.8425ZM76.8425 439.548V437.7H79.5935V445.575H66.7835V437.7H69.5345V439.548H76.8425ZM68.7575 434.193C70.1855 434.193 71.2145 433.332 71.2145 431.883C71.2145 430.434 70.1855 429.573 68.7575 429.573C67.3505 429.573 66.3215 430.434 66.3215 431.883C66.3215 433.332 67.3505 434.193 68.7575 434.193ZM76.8215 426.465H79.5935V436.86H76.8215V432.975H73.7555C73.2305 435.075 71.2565 436.503 68.7575 436.503C65.8595 436.503 63.6755 434.571 63.6755 431.883C63.6755 429.195 65.8595 427.263 68.7575 427.263C71.2145 427.263 73.1885 428.67 73.7345 430.728H76.8215V426.465ZM93.0739 434.76L90.3649 434.445C90.6799 432.639 90.7639 431.232 90.7849 430.077H83.5819V427.872H93.5149V429.069C93.5149 430.413 93.5149 432.324 93.0739 434.76ZM94.3549 435.537L94.5229 437.511C90.5329 438.246 86.0389 438.33 82.7209 438.351L82.4689 436.146C83.5399 436.146 84.7369 436.146 85.9969 436.125V432.366H88.7059V436.02C90.6169 435.936 92.5489 435.789 94.3549 435.537ZM88.0549 439.653V443.265H98.7859V445.47H85.2829V439.653H88.0549ZM98.1769 432.345H100.487V434.634H98.1769V440.934H95.4049V426.444H98.1769V432.345ZM115.458 440.787V435.978H112.371V433.752H115.458V431.589H112.371V429.384H115.458V426.465H118.23V440.787H115.458ZM111.93 435.684L112.224 437.91C109.809 438.33 107.646 438.414 104.286 438.414H102.795V431.946H108.507V429.993H102.774V427.788H111.237V434.025H105.546V436.188C108.108 436.167 109.914 436.041 111.93 435.684ZM108.087 443.244H118.713V445.449H105.315V439.653H108.087V443.244ZM134.31 430.602V431.673C134.31 434.823 135.864 438.162 139.098 439.506L137.586 441.69C135.339 440.724 133.806 438.834 132.945 436.503C132.084 439.023 130.53 441.144 128.262 442.173L126.687 439.968C129.921 438.519 131.496 434.97 131.496 431.673V430.602H127.464V428.313H138.3V430.602H134.31ZM140.085 426.465H142.857V445.806H140.085V426.465ZM156.022 437.7H159.655V426.465H162.427V441.123H159.655V439.59H156.022V437.7ZM152.305 429.132C151.003 429.132 150.1 429.636 150.1 430.581C150.1 431.526 151.003 432.009 152.305 432.009C153.586 432.009 154.489 431.526 154.489 430.581C154.489 429.636 153.586 429.132 152.305 429.132ZM152.305 434.025C149.47 434.025 147.496 432.639 147.496 430.581C147.496 428.523 149.47 427.116 152.305 427.116C155.119 427.116 157.114 428.523 157.114 430.581C157.114 432.639 155.119 434.025 152.305 434.025ZM151.276 443.265H162.847V445.47H148.504V439.716H151.192V437.133C149.491 437.217 147.874 437.238 146.425 437.238L146.068 435.033C149.596 435.012 154.3 434.97 158.374 434.445L158.563 436.419C157.051 436.671 155.497 436.839 153.943 436.965V440.619H151.276V443.265ZM172.589 427.956V430.77C172.589 434.256 173.954 437.763 177.062 439.296L175.382 441.48C173.366 440.451 172.001 438.582 171.203 436.272C170.363 438.729 168.914 440.766 166.73 441.837L165.071 439.59C168.326 438.057 169.796 434.361 169.796 430.77V427.956H172.589ZM183.425 433.899V436.209H180.611V445.806H177.839V426.465H180.611V433.899H183.425ZM198.208 443.37V441.648H190.9V443.37H198.208ZM198.208 439.548V437.7H200.959V445.575H188.149V437.7H190.9V439.548H198.208ZM190.123 434.193C191.551 434.193 192.58 433.332 192.58 431.883C192.58 430.434 191.551 429.573 190.123 429.573C188.716 429.573 187.687 430.434 187.687 431.883C187.687 433.332 188.716 434.193 190.123 434.193ZM198.187 426.465H200.959V436.86H198.187V432.975H195.121C194.596 435.075 192.622 436.503 190.123 436.503C187.225 436.503 185.041 434.571 185.041 431.883C185.041 429.195 187.225 427.263 190.123 427.263C192.58 427.263 194.554 428.67 195.1 430.728H198.187V426.465ZM225.606 426.486V437.448H222.834V426.486H225.606ZM217.206 433.647V429.804H213.258V433.647H217.206ZM219.915 427.62V435.81H210.528V427.62H219.915ZM225.921 440.535H220.587C220.881 441.816 222.813 443.37 226.635 443.685L225.753 445.743C222.54 445.47 220.293 444.315 219.117 442.845C217.941 444.336 215.673 445.47 212.418 445.743L211.557 443.685C215.421 443.349 217.353 441.879 217.647 440.535H212.292V438.477H217.71V436.902H220.524V438.477H225.921V440.535ZM244.836 431.127H247.734V426.465H250.506V437.973H247.734V433.374H244.836V431.127ZM245.991 435.285L244.647 437.448C242.547 436.755 241.098 435.39 240.258 433.689C239.418 435.642 237.885 437.217 235.638 437.973L234.231 435.789C237.297 434.718 238.704 432.261 238.788 429.846H234.987V427.62H245.382V429.846H241.623C241.707 432.051 243.051 434.319 245.991 435.285ZM243.975 443.727C246.495 443.727 247.818 443.202 247.818 442.11C247.818 441.018 246.495 440.493 243.975 440.493C241.434 440.493 240.111 441.018 240.111 442.11C240.111 443.202 241.434 443.727 243.975 443.727ZM243.975 438.393C248.07 438.393 250.59 439.758 250.59 442.11C250.59 444.462 248.07 445.827 243.975 445.827C239.859 445.827 237.339 444.462 237.339 442.11C237.339 439.758 239.859 438.393 243.975 438.393ZM258.253 432.849V435.558H266.527V432.849H258.253ZM263.776 441.312H271.168V443.559H253.654V441.312H261.004V437.763H255.502V427.662H258.253V430.665H266.527V427.662H269.257V437.763H263.776V441.312ZM285.614 429.615V428.67H275.114V426.801H288.344V431.358H277.886V432.366H288.68V434.235H275.156V429.615H285.614ZM277.718 442.719V443.769H288.932V445.638H274.967V440.976H285.656V439.989H274.946V438.12H288.407V442.719H277.718ZM272.972 435.159H290.486V437.154H272.972V435.159ZM309.149 428.502L309.128 430.665H297.746V428.502H302.03V426.444H304.823V428.502H309.149ZM301.337 435.075C301.337 436.146 302.198 436.713 303.437 436.713C304.655 436.713 305.537 436.146 305.537 435.075C305.537 434.025 304.655 433.458 303.437 433.458C302.198 433.458 301.337 434.025 301.337 435.075ZM308.183 435.075C308.183 437.301 306.209 438.813 303.437 438.813C300.665 438.813 298.691 437.301 298.691 435.075C298.691 432.891 300.665 431.358 303.437 431.358C306.209 431.358 308.183 432.891 308.183 435.075ZM303.269 439.863V443.265H313.664V445.47H300.497V439.863H303.269ZM312.971 432.366H315.533V434.655H312.971V440.934H310.199V426.465H312.971V432.366ZM324.309 435.537V432.807H320.634V435.537H324.309ZM327.018 433.836V437.742H317.883V427.746H320.634V430.686H324.309V427.767H327.018V431.61H330.462V426.486H333.234V440.745H330.462V433.836H327.018ZM323.238 443.265H333.654V445.47H320.466V439.359H323.238V443.265ZM340.729 439.275C341.8 439.275 342.409 437.826 342.409 434.844C342.409 431.883 341.8 430.434 340.729 430.434C339.679 430.434 339.049 431.883 339.049 434.844C339.049 437.826 339.679 439.275 340.729 439.275ZM346.42 433.584V426.78H349.003V444.945H346.42V435.831H344.908C344.656 439.611 343.081 441.879 340.729 441.879C338.167 441.879 336.55 439.233 336.55 434.844C336.55 430.476 338.167 427.83 340.729 427.83C343.018 427.83 344.572 429.972 344.887 433.584H346.42ZM350.347 426.444H352.972V445.785H350.347V426.444Z" fill="#282828"/>
</g>
<defs>
<filter id="filter0_b_783_846" x="218.695" y="229.438" width="142.561" height="142.561" filterUnits="userSpaceOnUse" color-interpolation-filters="sRGB">
<feFlood flood-opacity="0" result="BackgroundImageFix"/>
<feGaussianBlur in="BackgroundImageFix" stdDeviation="5"/>
<feComposite in2="SourceAlpha" operator="in" result="effect1_backgroundBlur_783_846"/>
<feBlend mode="normal" in="SourceGraphic" in2="effect1_backgroundBlur_783_846" result="shape"/>
</filter>
<linearGradient id="paint0_linear_783_846" x1="201" y1="-6" x2="201" y2="454" gradientUnits="userSpaceOnUse">
<stop stop-color="#C1FFCF"/>
<stop offset="1" stop-color="white" stop-opacity="0"/>
</linearGradient>
<linearGradient id="paint1_linear_783_846" x1="254.204" y1="230.935" x2="300.824" y2="341.181" gradientUnits="userSpaceOnUse">
<stop stop-color="white"/>
<stop offset="1" stop-color="white" stop-opacity="0"/>
</linearGradient>
<clipPath id="clip0_783_846">
<rect width="402" height="486" fill="white"/>
</clipPath>
</defs>
</svg>
