<svg width="500" height="763" viewBox="0 0 500 763" fill="none" xmlns="http://www.w3.org/2000/svg">
<g clip-path="url(#clip0_2765_1423)">
<rect width="500" height="763" fill="#ECFFF0"/>
<path d="M973 764C930.437 749.872 876.116 739.353 821.795 729.963C741.607 716.096 641.901 708.75 542.195 708.054C359.479 706.75 178.174 729.094 74 764H973Z" fill="#80B550"/>
<path d="M417.045 676.25C407.798 661.767 497.831 661.978 497.831 676.251C500.201 729.125 490.37 773.067 490.37 785.867C490.37 798.668 423.969 797.691 420.65 785.867C417.331 774.044 422.518 768.984 417.045 676.25Z" fill="#73AA5A"/>
<circle cx="428.707" cy="689.153" r="20.3168" fill="#73AA5A"/>
<ellipse cx="487.914" cy="687.683" rx="16.6906" ry="17.4163" transform="rotate(29.3593 487.914 687.683)" fill="#73AA5A"/>
<path d="M402.829 717.097C404.531 709.966 411.691 705.565 418.822 707.266C426.598 709.121 430.982 717.378 428.163 724.859L417.856 752.209C415.826 757.595 410.108 760.63 404.51 759.295C398.371 757.83 394.582 751.666 396.046 745.527L402.829 717.097Z" fill="#FBC0AE"/>
<path d="M413.546 751.55C415.058 753.978 414.253 757.176 411.772 758.6C404.005 763.057 394.086 759.841 390.412 751.674L368.889 703.827L381.346 699.817L413.546 751.55Z" fill="#FBC0AE"/>
<path d="M401.864 717.414L409.259 683.459L435.921 707.684L430.669 725.497C411.477 727.713 404.642 721.386 401.864 717.414Z" fill="#73AA5A"/>
<path d="M486.149 714.214C447.357 704.34 423.521 711.615 423.521 711.615L418.655 744.767C418.655 781.162 418.655 781.354 417.316 807.176C432.497 810.304 439.353 811.628 453.433 811.628C469.85 811.628 493.529 811.104 498.203 803.309L495.93 745.527C495.93 745.527 492.693 728.245 486.149 714.214Z" fill="#28495C"/>
<path d="M427.139 730.476C426.914 705.912 421.788 675.175 429.837 666.578L439.996 665.449C432.358 675.269 437.279 692.524 437.616 730.532C437.635 732.741 435.843 734.536 433.633 734.536H431.192C428.958 734.536 427.16 732.71 427.139 730.476Z" fill="#17394D"/>
<path d="M465.433 732.746L465.758 727.409C472.586 680.501 473.98 667.592 476.983 667.592C479.385 667.592 484.008 668.67 486.51 669.87C484.311 670.629 482.113 681.26 481.38 685.057L475.768 736.661L468.136 735.914C466.529 735.757 465.335 734.357 465.433 732.746Z" fill="#1B3F53"/>
<circle cx="469.508" cy="732.41" r="3.18782" fill="#40728E"/>
<path d="M477.11 749.259C466.999 751.077 438.142 749.107 427.008 748.35L427.911 772.892C439.466 793.981 467.481 784.103 478.013 776.074L477.11 749.259Z" stroke="#1B3F53"/>
<path d="M478.436 706.377C479.341 700.77 484.565 696.965 490.179 697.824C495.937 698.706 499.897 704.149 498.965 709.901L493.592 743.042C492.623 749.024 487.679 753.519 481.644 753.905C476.035 754.263 471.514 749.272 472.412 743.711L478.436 706.377Z" fill="#FBC0AE"/>
<path d="M427.008 752.6C433.229 754.559 451.359 755.791 475.888 753.439" stroke="#1B3F53"/>
<path d="M487.708 739.865C490.257 739.484 492.649 741.256 493.029 743.81C494.322 752.499 487.337 760.117 478.561 759.588L440.441 757.287L440.078 746.995L487.708 739.865Z" fill="#FBC0AE"/>
<path d="M499.419 723.034L505.128 688.985L482.36 686.088L475.305 712.905C472.132 718.958 499.278 725.799 499.419 723.034Z" fill="#73AA5A"/>
<path d="M391.376 656.823L370.002 658.608C368.842 658.704 368.009 659.768 368.193 660.917L373.58 694.496C373.741 695.496 374.624 696.218 375.636 696.177L396.645 695.327C397.831 695.279 398.714 694.215 398.543 693.04L393.521 658.528C393.369 657.482 392.429 656.735 391.376 656.823Z" fill="#343434"/>
<path d="M397.612 696.774L399.009 692.482C399.225 691.817 399.078 691.087 398.622 690.557L371.14 658.678L368.73 660.266C368.075 660.698 367.732 661.473 367.855 662.249L373.386 697.157C373.544 698.154 374.42 698.877 375.429 698.843L395.778 698.154C396.619 698.125 397.352 697.574 397.612 696.774Z" fill="#343434"/>
<path d="M389.581 658.692L369.696 660.24C368.531 660.331 367.692 661.395 367.876 662.548L373.384 697.155C373.543 698.153 374.421 698.876 375.431 698.84L395.436 698.114C396.635 698.071 397.527 696.988 397.338 695.802L391.712 660.372C391.548 659.342 390.621 658.611 389.581 658.692Z" fill="#5A5A5A"/>
<path d="M367.496 692.169C367.496 695.192 368.635 702.416 369.225 705.951C369.41 707.061 370.478 707.785 371.58 707.561L383.43 705.151C384.151 705.004 384.734 704.473 384.946 703.768L388.376 692.384C388.603 691.632 388.369 690.818 387.778 690.301L380.628 684.051C379.921 683.433 379.739 682.408 380.19 681.585L382.905 676.626C382.999 676.454 383.126 676.303 383.235 676.141C384.362 674.478 381.867 670.924 378.9 674.328C375.444 678.294 367.496 688.091 367.496 692.169Z" fill="#FBC0AE"/>
<path d="M384.336 674.607L378.318 681.634C377.891 682.132 377.668 682.773 377.694 683.428C377.79 685.875 380.905 686.847 382.375 684.888L387.928 677.488C388.563 676.642 388.54 675.473 387.873 674.652C386.966 673.537 385.271 673.515 384.336 674.607Z" fill="#FBC0AE"/>
<path d="M387.086 678.959L381.133 686.041C380.711 686.543 380.494 687.186 380.526 687.841C380.644 690.288 383.768 691.231 385.22 689.258L390.705 681.807C391.332 680.956 391.298 679.787 390.624 678.972C389.707 677.865 388.011 677.859 387.086 678.959Z" fill="#FBC0AE"/>
<path d="M388.679 684.586L383.145 691.737C382.795 692.19 382.615 692.752 382.637 693.324C382.726 695.68 385.772 696.554 387.097 694.604L392.178 687.124C392.701 686.353 392.672 685.334 392.106 684.594C391.243 683.468 389.547 683.463 388.679 684.586Z" fill="#FBC0AE"/>
<circle cx="431.254" cy="728.16" r="3.18782" fill="#40728E"/>
<ellipse cx="476.445" cy="626.611" rx="13.7282" ry="21.6995" transform="rotate(-29.5289 476.445 626.611)" fill="#282828"/>
<path d="M444.059 653.523L470.629 633.732V668.261C470.629 668.261 445.063 689.553 444.059 668.261C444.059 663.208 444.059 653.523 444.059 653.523Z" fill="#FBC0AE"/>
<rect x="420.148" y="605.389" width="53.1415" height="54.9129" rx="26.5708" fill="#FBC0AE"/>
<path d="M440.376 640.817C438.699 640.817 437.719 639.568 437.719 638.027C437.719 636.817 438.323 635.787 439.394 635.401C439.914 635.213 440.376 634.789 440.376 634.237V632.846" stroke="#282828" stroke-width="0.5" stroke-linecap="round"/>
<circle cx="449.236" cy="630.191" r="1.77138" fill="#282828"/>
<g filter="url(#filter0_f_2765_1423)">
<ellipse cx="452.031" cy="635.504" rx="3.54277" ry="1.77138" fill="#FF6C6C"/>
</g>
<circle cx="432.408" cy="630.191" r="1.77138" fill="#282828"/>
<g filter="url(#filter1_f_2765_1423)">
<ellipse cx="428.557" cy="635.504" rx="3.09992" ry="1.77138" fill="#FF6C6C"/>
</g>
<path d="M433.293 623.989C432.85 623.546 432.5 623.104 431.521 623.104C430.543 623.104 430.193 623.546 429.75 623.989" stroke="#282828" stroke-linecap="round"/>
<path d="M451.008 623.989C450.565 623.546 450.215 623.104 449.236 623.104C448.258 623.104 447.908 623.546 447.465 623.989" stroke="#282828" stroke-linecap="round"/>
<path d="M436.836 643.475C436.836 648.198 444.807 648.198 444.807 643.475" stroke="#282828" stroke-width="0.5" stroke-linecap="round"/>
<path d="M452.85 601.327C475.055 604.503 474.581 619.242 475.055 626.471C464.183 628.166 441.346 627.513 428.999 625.317C428.543 625.236 429.884 620.003 429.884 619.56C429.197 620.208 428.113 622.217 427.67 625.065C423.195 624.043 420.541 622.714 421.102 621.093C423.242 607.603 430.645 598.15 452.85 601.327Z" fill="#282828"/>
<path d="M460.679 657.386C460.786 657.299 460.804 657.142 460.717 657.034C460.631 656.927 460.474 656.909 460.366 656.996L460.679 657.386ZM444.058 660.818C444.99 660.822 447.793 661.06 451.011 660.754C454.23 660.448 457.925 659.595 460.679 657.386L460.366 656.996C457.725 659.114 454.148 659.954 450.963 660.257C447.777 660.56 445.045 660.323 444.06 660.318L444.058 660.818Z" fill="#282828"/>
<ellipse cx="471.822" cy="633.292" rx="6.64269" ry="7.52838" fill="#FBC0AE"/>
<path d="M472.266 629.305C477.137 629.305 477.137 637.276 472.266 637.276" stroke="#282828" stroke-width="0.5" stroke-linecap="round"/>
<ellipse cx="52.8004" cy="12.4702" rx="52.8004" ry="12.4702" transform="matrix(0.96341 0.268031 -0.319176 0.947695 408.836 585.422)" fill="#FFB762"/>
<path d="M430.94 596.928C435.954 583.713 450.87 576.683 464.254 581.226L466.428 581.964C479.812 586.507 486.597 600.902 481.583 614.117C464.038 610.299 447.048 604.532 430.94 596.928Z" fill="#FFB762"/>
<path d="M483.424 605.254C454.237 603.894 439.548 594.095 435.271 589.729L432.596 593.952C440.221 606.468 482.379 612.087 482.923 610.673C483.358 609.541 483.356 606.678 483.424 605.254Z" fill="#FF6C6C"/>
<path d="M433.281 747.151C435.692 746.886 441.504 747.136 444.476 747.291C445.508 747.345 446.325 748.179 446.368 749.209L446.723 757.713L437.969 761.558C437.692 761.679 437.391 761.736 437.088 761.724L426.46 761.304L421.962 760.961C420.163 760.822 418.195 760.523 420.74 757.311C423.374 753.988 429.975 747.516 433.281 747.151Z" fill="#FBC0AE"/>
<path d="M249.739 118.918L171.758 66.299V64.4062L254.282 115.889L249.739 118.918Z" fill="#D0D0D0"/>
<path d="M249.561 117.783L172.511 65.4336C171.857 64.9896 171.953 63.9986 172.679 63.6873L176.879 61.8872C178.165 61.3364 179.644 61.4967 180.782 62.3099L253.482 114.291C254.051 114.698 254.037 115.548 253.455 115.936L250.677 117.788C250.339 118.014 249.897 118.012 249.561 117.783Z" fill="#D9D9D9"/>
<path d="M293.271 143.902C287.97 152.902 264.879 151.473 254.28 143.145C247.466 137.088 240.651 124.511 245.952 115.51C251.253 106.51 265.597 107.561 278.632 115.238C291.667 122.915 298.572 134.901 293.271 143.902Z" fill="#D0D0D0"/>
<ellipse cx="269.933" cy="129.229" rx="27.645" ry="15.9798" transform="rotate(30.4974 269.933 129.229)" fill="#D9D9D9"/>
<circle opacity="0.6" cx="287.213" cy="104.912" r="39.3694" fill="#D6FFD0"/>
<path d="M319.077 108.304L308 110.116C306.636 110.339 306.395 109.803 306.273 109.056L305.555 104.666C305.35 103.415 305.906 102.94 306.709 102.809C307.456 102.687 308.227 102.944 308.469 104.075L316.707 102.727C316.571 101.541 317.207 101.092 317.973 100.967C318.776 100.835 319.456 101.127 319.658 102.36L320.376 106.749C320.498 107.497 320.44 108.081 319.077 108.304ZM309.028 107.493L317.266 106.146L317.098 105.118L308.86 106.466L309.028 107.493ZM308.548 101.741C305.653 102.215 304.152 101.367 303.667 98.3968C303.175 95.3894 304.289 94.1139 307.222 93.6342C310.099 93.1637 311.615 93.9898 312.11 97.0159C312.629 100.191 311.443 101.268 308.548 101.741ZM308.145 99.2754C309.116 99.1166 309.27 98.7654 309.065 97.5139C308.857 96.2437 308.581 95.9628 307.628 96.1186C306.676 96.2744 306.504 96.6286 306.711 97.8988C306.916 99.1503 307.173 99.4343 308.145 99.2754ZM317.775 100.347C316.935 100.484 316.198 100.202 315.993 98.9507L315.776 97.6244L314.562 97.823C313.217 98.043 312.846 97.5284 312.72 96.7626C312.623 96.1648 312.715 95.4401 314.135 95.2079L315.349 95.0093L315.172 93.9259C314.967 92.6744 315.616 92.1847 316.419 92.0533C317.203 91.925 317.987 92.1421 318.198 93.431L319.019 98.4557C319.23 99.7446 318.578 100.216 317.775 100.347Z" fill="#65A847"/>
<path d="M290.793 112.357C290.366 112.446 289.859 112.394 289.478 111.939C288.842 111.218 289.041 110.438 289.749 109.727C291.534 107.978 291.859 106.448 291.517 104.356L290.472 97.9672C290.262 96.6784 290.972 96.2169 291.757 96.0886C292.541 95.9602 293.362 96.1712 293.573 97.4601L294.618 103.848C294.954 105.903 295.756 107.172 297.984 108.246C298.882 108.694 299.319 109.37 298.946 110.256C298.736 110.731 298.377 111.001 297.932 111.093C297.652 111.139 297.347 111.15 297.033 110.991C295.781 110.371 294.75 109.581 293.925 108.641C293.455 109.869 292.792 110.975 291.856 111.818C291.553 112.079 291.201 112.271 290.793 112.357ZM302.168 110.841C301.327 110.979 300.59 110.697 300.386 109.445L298.299 96.6871C298.094 95.4356 298.743 94.9459 299.546 94.8145C300.331 94.6862 301.114 94.9033 301.325 96.1922L302.058 100.675L303.235 100.483C304.655 100.251 305.051 100.915 305.149 101.512C305.271 102.259 305.089 102.903 303.669 103.135L302.492 103.328L303.412 108.95C303.623 110.239 302.971 110.71 302.168 110.841Z" fill="#65A847"/>
<path d="M287.519 113.449L276.088 115.319C274.724 115.542 274.483 115.006 274.361 114.259L274.025 112.204C273.823 110.972 274.44 110.525 275.281 110.388C276.065 110.26 276.84 110.421 277.051 111.709L277.191 112.569L287.11 110.946C288.548 110.711 288.914 111.304 289.011 111.901C289.134 112.648 288.939 113.217 287.519 113.449ZM278.64 110.989C277.818 111.124 277.081 110.957 276.879 109.724L276.769 109.051L274.472 109.427C273.033 109.662 272.677 109.126 272.579 108.528C272.457 107.781 272.661 107.268 274.081 107.036L281.403 105.838C282.823 105.606 283.179 106.027 283.301 106.775C283.399 107.372 283.232 107.994 281.794 108.229L279.795 108.556L279.905 109.229C280.116 110.518 279.424 110.861 278.64 110.989ZM277.19 105.875C274.294 106.349 272.662 105.868 272.204 103.066C271.746 100.264 273.136 99.2695 276.032 98.796C278.927 98.3224 280.562 98.8221 281.021 101.624C281.512 104.631 280.085 105.402 277.19 105.875ZM276.826 103.653C277.816 103.491 278.147 103.168 277.976 102.122C277.805 101.076 277.388 100.876 276.398 101.038C275.408 101.199 275.078 101.522 275.249 102.568C275.42 103.614 275.836 103.815 276.826 103.653ZM286.832 109.362C285.991 109.499 285.254 109.217 285.05 107.965L284.417 104.099L283.465 104.255C282.045 104.487 281.658 103.879 281.56 103.281C281.438 102.534 281.629 101.946 283.049 101.714L284.002 101.558L283.598 99.0927C283.394 97.8412 284.042 97.3515 284.846 97.2201C285.63 97.0918 286.414 97.3089 286.625 98.5978L288.076 107.47C288.287 108.759 287.635 109.23 286.832 109.362Z" fill="#65A847"/>
<path d="M258.902 117.572C258.476 117.66 257.969 117.609 257.587 117.154C256.952 116.433 257.15 115.653 257.858 114.942C259.647 113.211 260.09 111.585 259.757 109.549L258.917 104.412L257.367 104.666C256.003 104.889 255.566 104.327 255.459 103.674C255.334 102.908 255.582 102.311 256.945 102.088L262.773 101.135C264.137 100.912 264.562 101.399 264.687 102.164C264.794 102.818 264.558 103.49 263.195 103.713L262.018 103.905L262.858 109.042C263.191 111.078 264.105 112.328 266.355 113.418C267.253 113.866 267.69 114.542 267.317 115.428C267.107 115.904 266.748 116.173 266.303 116.265C266.023 116.311 265.718 116.323 265.404 116.163C264.074 115.537 263.012 114.675 262.141 113.685C261.664 114.991 260.954 116.162 259.965 117.033C259.662 117.294 259.31 117.486 258.902 117.572ZM271.585 115.842C270.744 115.98 270.007 115.698 269.803 114.446L267.716 101.688C267.511 100.437 268.16 99.9469 268.963 99.8155C269.748 99.6872 270.531 99.9043 270.742 101.193L272.829 113.951C273.04 115.24 272.388 115.711 271.585 115.842Z" fill="#65A847"/>
<path d="M388.578 61.6504C390.71 61.8781 392.69 62.9405 394.061 64.5342C395.431 66.1279 396.117 68.3288 395.964 70.4537C393.984 69.8466 392.462 69.0118 391.167 67.4181C389.949 65.8244 388.654 63.6235 388.578 61.6504Z" fill="#5E9436"/>
<path d="M391.395 72.1258C395.963 71.5945 400.76 72.7329 404.644 75.3132C400.075 76.6792 395.05 75.0855 391.395 72.1258Z" fill="#5E9436"/>
<path d="M437.387 79.8652C439.367 80.1688 441.118 81.2313 442.26 82.9009C443.402 84.4946 443.783 86.6195 443.402 88.5168C439.671 86.999 437.615 83.8874 437.387 79.8652Z" fill="#5E9436"/>
<path d="M439.293 107.333C442.187 107.181 444.928 105.739 446.755 103.462C448.583 101.185 449.344 98.2256 448.887 95.3418C443.176 97.0114 439.978 101.413 439.293 107.333Z" fill="#5E9436"/>
<path d="M470.969 84.116C475.461 81.9911 480.258 83.3571 482.924 86.8481C478.888 88.8971 474.091 87.9864 470.969 84.116Z" fill="#5E9436"/>
<path d="M414.695 65.6738C418.655 66.7363 422.234 69.1648 424.67 72.4281C427.107 75.6914 428.402 79.7895 428.325 83.8876C421.015 81.1555 415.228 73.4147 414.695 65.6738Z" fill="#CCD64F"/>
<path d="M467.618 93.8287C467.237 89.2753 465.257 84.7977 462.135 81.3826C459.013 78.0434 454.673 75.6908 450.104 75.0078C449.8 80.0166 451.551 84.9495 454.978 88.5922C458.48 92.3109 462.592 93.9046 467.618 93.8287Z" fill="#CCD64F"/>
<path d="M465.941 108.476C473.099 109.083 480.409 105.364 484.064 99.2173C480.333 98.3066 476.754 98.6102 473.251 100.204C469.749 101.798 467.617 104.985 465.941 108.476Z" fill="#CCD64F"/>
<path d="M433.352 93.1447C435.255 92.9929 437.235 92.8411 439.139 93.2206C441.042 93.6 442.87 94.6625 443.784 96.3321C441.804 97.0151 439.443 96.7874 437.387 96.1803C435.407 95.725 434.646 94.8143 433.352 93.1447Z" fill="#CCD64F"/>
<path d="M388.199 77.3614C395.814 73.3391 404.114 73.6427 410.662 77.6649C403.809 82.5219 395.128 82.0666 388.199 77.3614Z" fill="#CCD64F"/>
<path d="M492.746 92.0035C494.421 86.4634 492.213 80.0127 487.568 76.5977C486.654 81.9859 488.939 87.9813 492.746 92.0035Z" fill="#CCD64F"/>
<path d="M490.309 115.836C495.791 117.582 501.883 116.974 506.908 114.166C511.934 111.359 515.665 106.502 517.036 100.961C511.553 99.7472 505.462 100.961 500.588 103.769C495.715 106.577 492.06 110.524 490.309 115.836Z" fill="#CCD64F"/>
<path d="M545.972 102.556C490.157 106.123 433.429 92.9183 385 65.0664C434.647 90.6416 491.985 101.19 547.495 95.0432L545.972 102.556Z" fill="#84312E"/>
<path d="M504.399 100.356C488.941 93.905 475.159 83.0526 464.879 69.8477C477.519 84.1151 494.956 94.2086 513.612 98.079C510.49 98.6102 507.444 99.8245 504.399 100.356Z" fill="#84312E"/>
<path d="M437.387 98.7624C442.869 95.9544 448.504 93.3741 454.139 91.5527C455.509 91.9322 456.956 92.5393 458.327 92.9188C451.778 94.8919 445.306 97.0928 438.91 99.5213C438.453 99.2936 437.92 98.99 437.387 98.7624Z" fill="#84312E"/>
<path d="M409.34 33.0014C414.518 32.0148 420.153 33.988 423.655 37.9343C418.477 38.9968 412.766 37.0236 409.34 33.0014Z" fill="#CCD64F"/>
<path d="M445.888 49.9219C445.964 45.9756 444.67 41.9534 442.233 38.8419C439.796 35.7304 436.294 33.4537 432.41 32.543C433.019 40.132 438.883 46.8104 445.888 49.9219Z" fill="#CCD64F"/>
<path d="M395.48 42.0241C400.658 38.2296 408.045 37.5466 413.832 40.4304C408.654 44.6044 401.496 44.9839 395.48 42.0241Z" fill="#CCD64F"/>
<path d="M438.121 60.4713C441.015 61.6096 444.365 61.6096 447.259 60.623C450.228 59.5606 452.741 57.4356 454.188 54.7036C451.218 54.5518 448.553 54.1723 445.736 54.8553C442.842 55.6143 439.187 57.7392 438.121 60.4713Z" fill="#5E9436"/>
<path d="M388.931 27C427.918 46.9593 471.549 58.0393 515.409 58.7223L512.897 66.0078C469.037 63.2757 425.862 50.1467 387.789 28.366C388.17 27.8348 388.551 27.4553 388.931 27Z" fill="#84312E"/>
<path d="M418.781 29.4277C419.695 31.5527 420.761 33.6017 422.512 35.0436C428.147 39.8248 433.705 44.53 439.34 49.3111L434.467 48.4004C429.67 43.9987 421.674 37.548 420.075 35.0436C418.933 33.374 418.172 31.5527 417.562 29.5795C418.019 29.5795 418.4 29.5036 418.781 29.4277Z" fill="#84312E"/>
<path d="M111.7 61.3086C109.664 61.5261 107.772 62.5409 106.463 64.0632C105.154 65.5855 104.499 67.6877 104.645 69.7174C106.536 69.1375 107.991 68.3401 109.227 66.8178C110.391 65.2955 111.627 63.1933 111.7 61.3086Z" fill="#5E9436"/>
<path d="M109.007 71.3153C104.643 70.8079 100.061 71.8953 96.3516 74.3599C100.716 75.6647 105.516 74.1424 109.007 71.3153Z" fill="#5E9436"/>
<path d="M65.0776 78.707C63.1865 78.997 61.5137 80.0118 60.4227 81.6066C59.3317 83.1289 58.968 85.1586 59.3317 86.9708C62.8956 85.521 64.8594 82.549 65.0776 78.707Z" fill="#5E9436"/>
<path d="M63.2607 104.944C60.4969 104.799 57.8785 103.421 56.1329 101.247C54.3873 99.0719 53.66 96.2448 54.0964 93.4902C59.5514 95.085 62.6061 99.2894 63.2607 104.944Z" fill="#5E9436"/>
<path d="M33.0011 82.7679C28.7099 80.7382 24.1277 82.043 21.582 85.3775C25.4369 87.3348 30.0918 86.4649 33.0011 82.7679Z" fill="#5E9436"/>
<path d="M86.7527 65.1523C82.9706 66.1672 79.5522 68.4869 77.2247 71.6039C74.8972 74.721 73.6608 78.6354 73.7335 82.5498C80.7886 79.9402 86.2436 72.5463 86.7527 65.1523Z" fill="#CCD64F"/>
<path d="M36.2031 92.0458C36.5668 87.6964 38.4579 83.4195 41.4399 80.1575C44.422 76.9679 48.5678 74.7208 52.9318 74.0684C53.2227 78.8527 51.5498 83.5645 48.2768 87.044C44.9311 90.596 41.0762 92.1182 36.2031 92.0458Z" fill="#CCD64F"/>
<path d="M37.8769 106.034C31.04 106.614 24.0576 103.062 20.5664 97.1906C24.1303 96.3208 27.5488 96.6107 30.8945 98.133C34.1675 99.6553 36.204 102.7 37.8769 106.034Z" fill="#CCD64F"/>
<path d="M68.9332 91.3913C67.1149 91.2463 65.2238 91.1014 63.4055 91.4638C61.5871 91.8263 59.8415 92.8411 58.9688 94.4359C60.8598 95.0883 63.1145 94.8708 65.0783 94.2909C66.9694 93.856 67.6967 92.9861 68.9332 91.3913Z" fill="#CCD64F"/>
<path d="M112.066 76.3148C104.792 72.4729 96.8644 72.7628 90.6094 76.6048C97.1554 81.2441 105.447 80.8091 112.066 76.3148Z" fill="#CCD64F"/>
<path d="M12.2004 90.3013C10.6003 85.0096 12.7096 78.848 17.1463 75.5859C18.0191 80.7327 15.8371 86.4594 12.2004 90.3013Z" fill="#CCD64F"/>
<path d="M14.5293 113.066C9.29255 114.734 3.4739 114.154 -1.32649 111.472C-6.12688 108.789 -9.6908 104.15 -11 98.8584C-5.76321 97.6986 0.0554399 98.8584 4.71036 101.541C9.36528 104.223 12.8565 107.992 14.5293 113.066Z" fill="#CCD64F"/>
<path d="M-38.5664 100.38C14.7471 103.787 68.9333 91.174 115.192 64.5703C67.6968 88.9993 12.9287 99.0753 -40.0938 93.2037L-38.5664 100.38Z" fill="#84312E"/>
<path d="M1.07415 98.2775C15.839 92.1159 29.0037 81.7499 38.8227 69.1367C26.749 82.7647 10.0931 92.4058 -7.72656 96.1028C-4.7445 96.6102 -1.83518 97.7701 1.07415 98.2775Z" fill="#84312E"/>
<path d="M65.0797 96.7556C59.843 94.0735 54.4607 91.6089 49.0784 89.8691C47.7693 90.2316 46.3873 90.8115 45.0781 91.174C51.3332 93.0587 57.5155 95.1609 63.6251 97.4805C64.0615 97.2631 64.5706 96.9731 65.0797 96.7556Z" fill="#84312E"/>
<path d="M45.3184 43.7323C40.3725 42.79 34.9903 44.6747 31.6445 48.4442C36.5904 49.459 42.0454 47.5743 45.3184 43.7323Z" fill="#CCD64F"/>
<path d="M10.4054 59.895C10.3326 56.1256 11.5691 52.2836 13.8966 49.3116C16.224 46.3395 19.5698 44.1648 23.2792 43.2949C22.6973 50.5439 17.0968 56.9229 10.4054 59.895Z" fill="#CCD64F"/>
<path d="M58.556 52.3514C53.6102 48.727 46.5551 48.0746 41.0273 50.8292C45.9732 54.8161 52.8101 55.1785 58.556 52.3514Z" fill="#CCD64F"/>
<path d="M17.8975 69.9714C15.1336 71.0588 11.9334 71.0588 9.1695 70.1164C6.3329 69.1015 3.93271 67.0718 2.55078 64.4622C5.38737 64.3172 7.93303 63.9548 10.6242 64.6072C13.3153 65.3321 16.8792 67.3618 17.8975 69.9714Z" fill="#5E9436"/>
<path d="M64.8098 38C27.5704 57.1372 -14.1057 67.6482 -56 68.3006L-53.5998 75.2596C-11.7055 72.65 29.5342 60.1093 65.9008 39.3048C65.5371 38.7974 65.1735 38.4349 64.8098 38Z" fill="#84312E"/>
<path d="M36.2981 40.3203C35.4253 42.35 34.407 44.3072 32.7342 45.6845C27.3519 50.2514 22.0424 54.7457 16.6602 59.3126L21.3151 58.4427C25.8973 54.2383 33.5343 48.0767 35.0617 45.6845C36.1526 44.0898 36.88 42.35 37.4618 40.4653C37.0982 40.4653 36.6618 40.3928 36.2981 40.3203Z" fill="#84312E"/>
<path d="M277.377 669.267C275.692 669.267 274.321 667.919 274.299 666.242L273.983 642L285.668 650.565L296.999 642V666.222C296.999 667.904 295.629 669.267 293.94 669.267C292.251 669.267 290.882 667.904 290.882 666.222V654.312L285.668 658.093L280.455 654.312V666.203C280.455 667.895 279.077 669.267 277.377 669.267Z" fill="#144101"/>
<path d="M271.123 664.814C272.368 666.736 270.982 669.267 268.685 669.267C267.599 669.267 266.604 668.663 266.107 667.702L261.606 659.003H256.733V666.222C256.733 667.904 255.363 669.267 253.674 669.267C251.985 669.267 250.616 667.904 250.616 666.222V642H261.64C268.597 642 272.664 645.68 272.664 651.334C272.664 655.081 270.883 657.959 267.656 659.464L271.123 664.814ZM256.733 647.386V653.617H261.371C264.597 653.617 266.365 653.219 266.365 650.643C266.365 648.067 264.597 647.386 261.371 647.386H256.733Z" fill="#144101"/>
<path d="M245.56 669.267C243.85 669.267 242.463 667.887 242.463 666.185V658.821H235.741L232.76 667.324C232.353 668.488 231.25 669.267 230.012 669.267C227.965 669.267 226.558 667.221 227.297 665.321L234.049 647.988C235.455 644.378 238.944 642 242.833 642H248.656V666.185C248.656 667.887 247.27 669.267 245.56 669.267ZM237.235 653.617H242.463V647.297C241.096 647.297 239.851 648.084 239.269 649.315L237.235 653.617Z" fill="#144101"/>
<path d="M216.767 669.267C215.078 669.267 213.709 667.904 213.709 666.223V654.818C213.709 647.739 219.474 642 226.586 642H234.554L232.314 647.353H226.044C222.61 647.353 219.826 650.124 219.826 653.543H230.021L227.78 658.829H219.826V666.223C219.826 667.904 218.456 669.267 216.767 669.267Z" fill="#144101"/>
<path d="M204 662.539H210.722V669.23H204V662.539Z" fill="#144101"/>
<path d="M204 671.909H297V689H204V671.909Z" fill="#144101"/>
<path d="M217.461 684.727H214.409L211.241 678.023H211.19C211.19 678.143 211.194 678.297 211.202 678.485C211.211 678.664 211.224 678.869 211.241 679.1C211.258 679.322 211.271 679.557 211.28 679.805C211.288 680.044 211.297 680.275 211.306 680.497V684.727H209.232V675.575H212.271L215.426 682.202H215.465C215.465 682.091 215.46 681.946 215.452 681.766C215.443 681.578 215.43 681.377 215.413 681.164C215.405 680.942 215.396 680.715 215.387 680.484C215.379 680.254 215.375 680.032 215.375 679.818V675.575H217.461V684.727Z" fill="white"/>
<path d="M224.468 684.727H219.343V675.575H224.468V677.344H221.673V679.1H224.275V680.869H221.673V682.933H224.468V684.727Z" fill="white"/>
<path d="M237.43 675.575L235.292 684.727H232.55L231.687 680.356C231.678 680.271 231.657 680.138 231.622 679.959C231.588 679.771 231.554 679.562 231.519 679.331C231.485 679.1 231.451 678.878 231.416 678.664C231.391 678.442 231.369 678.258 231.352 678.113C231.335 678.258 231.309 678.442 231.275 678.664C231.24 678.878 231.206 679.1 231.172 679.331C231.137 679.553 231.103 679.758 231.069 679.946C231.034 680.134 231.004 680.275 230.979 680.369L230.116 684.727H227.373L225.223 675.575H227.476L228.468 680.446C228.493 680.574 228.523 680.737 228.558 680.933C228.592 681.13 228.626 681.339 228.661 681.561C228.704 681.783 228.738 682.006 228.764 682.228C228.798 682.441 228.824 682.629 228.841 682.792C228.867 682.612 228.897 682.424 228.931 682.228C228.966 682.031 229 681.835 229.034 681.638C229.069 681.433 229.103 681.236 229.137 681.048C229.172 680.86 229.206 680.69 229.24 680.536L230.27 675.575H232.447L233.425 680.497C233.46 680.643 233.494 680.809 233.528 680.997C233.563 681.185 233.597 681.386 233.631 681.6C233.666 681.805 233.7 682.01 233.734 682.215C233.769 682.42 233.799 682.612 233.824 682.792C233.859 682.561 233.902 682.296 233.953 681.997C234.005 681.689 234.061 681.39 234.121 681.1C234.181 680.801 234.228 680.566 234.262 680.395L235.215 675.575H237.43Z" fill="white"/>
<path d="M244.172 682.074C244.172 682.595 244.056 683.069 243.824 683.497C243.593 683.915 243.224 684.249 242.717 684.497C242.219 684.736 241.58 684.855 240.798 684.855C240.395 684.855 240.043 684.834 239.742 684.791C239.451 684.749 239.176 684.689 238.918 684.612C238.669 684.526 238.408 684.42 238.133 684.291V682.305C238.596 682.518 239.064 682.698 239.536 682.843C240.017 682.988 240.455 683.061 240.85 683.061C241.082 683.061 241.271 683.027 241.416 682.958C241.562 682.881 241.67 682.783 241.738 682.664C241.807 682.535 241.841 682.39 241.841 682.228C241.841 682.031 241.79 681.865 241.687 681.728C241.592 681.583 241.429 681.446 241.198 681.318C240.966 681.181 240.661 681.036 240.283 680.882C239.966 680.745 239.678 680.6 239.421 680.446C239.163 680.284 238.944 680.1 238.764 679.895C238.584 679.681 238.442 679.429 238.339 679.139C238.244 678.839 238.197 678.489 238.197 678.087C238.197 677.515 238.335 677.036 238.609 676.652C238.884 676.259 239.262 675.96 239.742 675.755C240.232 675.549 240.798 675.447 241.442 675.447C242.009 675.447 242.515 675.507 242.962 675.626C243.417 675.746 243.824 675.9 244.185 676.088L243.464 677.793C243.103 677.613 242.743 677.476 242.382 677.382C242.022 677.28 241.687 677.229 241.378 677.229C241.172 677.229 241.004 677.263 240.876 677.331C240.747 677.391 240.652 677.481 240.592 677.6C240.532 677.711 240.502 677.844 240.502 677.998C240.502 678.177 240.554 678.335 240.657 678.472C240.768 678.6 240.949 678.733 241.198 678.869C241.447 679.006 241.781 679.181 242.202 679.395C242.623 679.591 242.979 679.809 243.271 680.049C243.571 680.279 243.794 680.557 243.94 680.882C244.095 681.198 244.172 681.595 244.172 682.074Z" fill="white"/>
<path d="M248.655 684.727V675.575H250.986V682.946H254.308V684.727H248.655Z" fill="white"/>
<path d="M260.99 684.727L260.565 682.766H257.758L257.32 684.727H254.757L257.577 675.537H260.681L263.539 684.727H260.99ZM259.599 679.1C259.556 678.912 259.505 678.707 259.445 678.485C259.393 678.254 259.342 678.019 259.29 677.78C259.239 677.532 259.191 677.293 259.148 677.062C259.114 677.293 259.071 677.532 259.02 677.78C258.968 678.019 258.917 678.254 258.865 678.485C258.822 678.707 258.775 678.912 258.723 679.1L258.234 680.946H260.088L259.599 679.1Z" fill="white"/>
<path d="M267.418 684.727H265.088V677.382H262.976V675.575H269.53V677.382H267.418V684.727Z" fill="white"/>
<path d="M274.813 684.727H272.482V677.382H270.37V675.575H276.924V677.382H274.813V684.727Z" fill="white"/>
<path d="M283.294 684.727H278.169V675.575H283.294V677.344H280.5V679.1H283.101V680.869H280.5V682.933H283.294V684.727Z" fill="white"/>
<path d="M287.642 675.575C288.423 675.575 289.071 675.678 289.586 675.883C290.11 676.079 290.5 676.383 290.758 676.793C291.024 677.194 291.157 677.699 291.157 678.305C291.157 678.698 291.097 679.049 290.977 679.356C290.857 679.664 290.685 679.933 290.462 680.164C290.247 680.395 289.99 680.587 289.689 680.741L292.2 684.727H289.573L287.745 681.292H287.14V684.727H284.809V675.575H287.642ZM287.603 677.293H287.14V679.587H287.577C287.818 679.587 288.028 679.549 288.208 679.472C288.389 679.386 288.53 679.254 288.633 679.074C288.745 678.886 288.801 678.656 288.801 678.382C288.801 678.134 288.758 677.934 288.672 677.78C288.595 677.617 288.466 677.498 288.286 677.421C288.114 677.335 287.886 677.293 287.603 677.293Z" fill="white"/>
<path d="M21.8434 578.294C20.6432 578.088 19.5763 578.294 18.7095 578.569C19.9764 576.987 21.3099 575.406 22.7102 573.824C24.8439 576.093 26.9109 577.262 28.9779 577.262C30.5115 577.262 32.045 576.644 33.5786 575.337L33.8454 575.062L33.6453 574.718C33.5787 574.581 31.645 571.555 28.3778 570.799C27.1776 570.524 26.0441 570.661 25.1773 571.005C26.4441 569.63 27.711 568.254 29.0446 566.879C31.1116 569.492 33.2453 570.73 35.4456 570.73C36.8459 570.73 38.3128 570.18 39.7797 569.079L40.1131 568.873L39.913 568.529C39.8463 568.392 38.1794 565.229 34.9122 564.266C33.712 563.922 32.5785 563.991 31.7117 564.197C32.7785 563.166 33.8453 562.134 34.9122 561.103C36.9792 563.716 39.1129 565.022 41.3133 565.022C42.7135 565.022 44.1804 564.472 45.6473 563.372L45.9807 563.166L45.7807 562.822C45.714 562.684 44.0471 559.521 40.7799 558.559C40.5798 558.49 40.4464 558.49 40.2464 558.421C43.4469 556.014 46.4474 553.332 49.1812 550.307C49.3146 550.101 49.3146 549.826 49.1812 549.688C48.9812 549.55 48.7145 549.55 48.5811 549.688C45.6473 552.92 42.4468 555.808 38.9796 558.284C38.4461 558.284 37.9794 558.352 37.5126 558.49C41.3133 554.708 44.3804 550.101 46.3808 545.012C46.4474 544.806 46.3808 544.531 46.1141 544.462C45.914 544.393 45.6473 544.462 45.5806 544.737C43.647 549.619 40.7132 554.089 37.0459 557.733C37.1792 557.252 37.2459 556.702 37.3126 556.152C39.713 552.301 41.6467 548.038 42.8469 543.568C42.9135 543.362 42.7802 543.087 42.5801 543.018C42.3801 542.949 42.1134 543.087 42.0467 543.293C40.9132 547.281 39.3129 551.132 37.1792 554.639C37.1792 554.57 37.1792 554.57 37.1792 554.501C36.4458 551.132 33.4453 549.207 33.3119 549.138L32.9786 548.932L32.7118 549.275C29.8447 552.989 30.3781 556.702 34.3121 560.484C33.2453 561.447 32.2451 562.478 31.2449 563.441C31.5116 562.547 31.5783 561.447 31.3116 560.278C30.5782 556.908 27.5777 554.983 27.4443 554.914L27.1109 554.708L26.8442 555.052C23.9771 558.834 24.5105 562.478 28.4445 566.26C27.1776 567.635 25.844 568.942 24.6438 570.386C24.8439 569.492 24.9105 568.392 24.5105 567.223C23.5103 563.922 20.3765 562.203 20.3098 562.134L19.9764 561.928L19.7764 562.272C17.1759 566.191 17.9761 569.836 22.1101 573.343C20.7765 574.924 19.443 576.506 18.1094 578.088C18.3095 577.125 18.3095 576.025 17.8427 574.856C16.7092 571.555 13.5087 570.042 13.3753 569.973L13.0419 569.836L12.8419 570.18C10.3748 574.237 11.3083 577.812 15.709 581.182C14.5088 582.764 13.3086 584.345 12.1751 585.927C12.3085 584.964 12.2418 583.864 11.7084 582.695C10.3748 579.463 7.10761 578.156 6.97425 578.088L6.64086 577.95L6.44084 578.294C4.24047 582.488 5.44067 586.064 9.97475 589.021C8.77455 590.74 7.64102 592.459 6.5075 594.247C6.57418 593.284 6.44082 592.184 5.84072 591.084C4.30714 587.99 0.973251 586.889 0.839893 586.821L0.506508 586.683L0.373142 587.027C-1.56051 591.359 -0.160286 594.797 4.57383 597.479C3.44031 599.336 2.37349 601.261 1.30665 603.186C1.30665 602.224 1.10661 601.124 0.506508 599.955C-1.22712 596.929 -4.62769 596.035 -4.76105 596.035L-5.1611 595.966L-5.29446 596.31C-6.96141 600.78 -5.36113 604.149 -0.49366 606.487C-1.69386 608.756 -2.82736 611.026 -3.89421 613.295C-4.02756 613.501 -3.89421 613.776 -3.69418 613.914C-3.6275 613.914 -3.56083 613.982 -3.49416 613.982C-3.3608 613.982 -3.16079 613.914 -3.0941 613.707C-2.02726 611.438 -0.893742 609.169 0.23978 606.968C2.24011 608.275 4.04042 608.963 5.70736 608.963C7.77437 608.963 9.57467 607.931 11.1749 605.799L11.375 605.456L11.1083 605.181C10.9749 605.043 8.50782 602.636 5.24061 602.636C5.17393 602.636 5.10728 602.636 5.10728 602.636C3.90709 602.636 2.9069 603.049 2.17345 603.53C3.17361 601.674 4.24045 599.817 5.37397 598.029C7.44098 599.611 9.37466 600.367 11.1083 600.367C13.0419 600.367 14.7755 599.404 16.3758 597.548L16.6425 597.273L16.3758 596.998C16.2424 596.86 13.9087 594.178 10.5082 594.041C9.24129 593.972 8.24113 594.316 7.44101 594.728C8.57452 593.009 9.70803 591.221 10.8415 589.571C12.9752 591.359 14.9089 592.322 16.7759 592.322C18.5762 592.322 20.1764 591.497 21.7767 589.846L22.0434 589.571L21.7767 589.227C21.71 589.09 19.443 586.27 16.1091 585.927C14.9089 585.789 13.842 586.064 13.0419 586.408C14.1754 584.826 15.309 583.245 16.5092 581.732C18.6428 583.795 20.6432 584.826 22.5768 584.826C24.1771 584.826 25.7773 584.139 27.3776 582.695L27.511 582.282L27.311 581.938C27.2443 581.87 25.1773 578.844 21.8434 578.294Z" fill="#2D6315"/>
<path d="M46.4479 685.703L46.1145 685.496C45.9812 685.428 43.1807 683.365 39.9135 683.846C39.8468 683.846 39.7801 683.846 39.7801 683.846C38.5799 684.052 37.6464 684.602 36.9797 685.153C37.7131 683.158 38.5132 681.164 39.3134 679.17C41.5804 680.408 43.5807 680.889 45.3144 680.614C47.1813 680.339 48.7816 679.101 50.1152 677.038L50.3152 676.695L50.0485 676.42C49.9151 676.351 47.1813 674.013 43.8475 674.425C42.6473 674.563 41.6471 675.044 40.9136 675.594C41.7804 673.669 42.6473 671.812 43.5141 669.956C45.8478 671.4 47.9148 672.019 49.7818 671.744C51.5154 671.469 53.049 670.368 54.3825 668.512L54.5825 668.168L54.3159 667.893C54.1825 667.755 51.5821 665.349 48.2482 665.486C47.048 665.555 46.0478 665.967 45.2477 666.449C46.1145 664.73 47.048 663.011 47.9815 661.291C50.3819 663.011 52.5156 663.767 54.4492 663.423C56.0495 663.148 57.5164 662.254 58.8499 660.535L59.1167 660.26L58.8499 659.985C58.7166 659.847 56.3162 657.234 52.9156 657.166C51.6487 657.166 50.6486 657.509 49.8484 657.922C50.9153 656.134 51.9821 654.346 53.1157 652.627C55.5827 654.553 57.7831 655.378 59.7834 655.103C61.317 654.896 62.7172 654.002 64.0508 652.49L64.3175 652.215L64.0508 651.94C63.9841 651.802 61.6504 649.12 58.2498 648.845C56.9829 648.776 55.9161 649.051 55.116 649.533C56.1828 647.951 57.2497 646.37 58.3165 644.857C60.7836 647.126 63.0506 648.02 65.1843 647.745C66.5846 647.539 67.9181 646.782 69.2516 645.476L69.5184 645.201L69.3183 644.857C69.2517 644.719 67.118 641.831 63.7174 641.35C62.4505 641.144 61.3837 641.419 60.5169 641.831C61.3837 640.662 64.8509 636.811 65.7844 635.642C68.2515 637.912 67.9848 641.487 70.1185 641.144C71.5187 640.937 72.8523 640.181 74.1858 638.874L74.4525 638.599L74.2525 638.255C74.1858 638.118 72.0521 635.23 68.6516 634.749C68.4515 634.749 68.3182 634.68 68.1182 634.68C70.9853 631.792 73.519 628.697 75.7861 625.259C75.9194 625.053 75.8528 624.778 75.6527 624.64C75.4527 624.503 75.186 624.571 75.0526 624.778C72.6522 628.422 69.8518 631.723 66.7846 634.749C66.2512 634.817 65.7844 635.024 65.3843 635.161C68.6516 630.829 70.9853 625.809 72.1855 620.446C72.2522 620.239 72.1188 619.964 71.8521 619.895C71.6521 619.827 71.3854 619.964 71.3187 620.239C70.1185 625.397 67.8514 630.21 64.7843 634.405C64.8509 633.923 64.8509 633.373 64.7843 632.823C66.6512 628.629 67.8514 624.159 68.4515 619.552C68.4515 619.277 68.3182 619.07 68.0515 619.07C67.7847 619.07 67.5847 619.208 67.5847 619.483C67.0513 623.609 65.9844 627.597 64.3842 631.448C64.3842 631.379 64.3842 631.379 64.3175 631.379C63.0506 628.147 59.8501 626.703 59.7167 626.634L59.3834 626.497L59.1833 626.841C56.9163 630.966 57.9164 634.542 62.3838 637.637C61.517 638.737 60.5836 639.906 59.7167 641.075C59.8501 640.112 59.7834 639.081 59.3834 637.912C58.1165 634.68 54.916 633.236 54.7826 633.167L54.4492 633.029L54.2492 633.373C51.9154 637.499 52.9823 641.075 57.4497 644.238C56.3829 645.751 55.316 647.332 54.2492 648.914C54.3158 647.951 54.1825 646.92 53.6491 645.751C52.1822 642.588 48.8483 641.419 48.7149 641.35L48.3815 641.212L48.1815 641.556C46.1812 645.82 47.4481 649.326 52.1155 652.146C50.982 653.934 49.9151 655.653 48.8483 657.441C48.915 656.478 48.7149 655.378 48.1815 654.278C46.5812 651.183 43.2474 650.152 43.114 650.083L42.7139 649.945L42.5806 650.289C40.7136 654.69 42.1805 658.128 46.9813 660.673C46.0478 662.392 45.1143 664.18 44.1808 665.899C44.1808 664.936 43.9141 663.836 43.314 662.735C41.5137 659.779 38.1132 658.953 37.9798 658.885L37.5797 658.816L37.4464 659.16C35.9128 663.698 37.5131 666.999 42.5139 669.268C41.5804 671.125 40.7136 673.05 39.8468 674.975C39.7801 674.013 39.4467 672.981 38.78 671.95C36.8463 669.131 33.3124 668.512 33.179 668.512L32.779 668.443L32.6456 668.855C31.3787 673.463 33.2457 676.626 38.3132 678.551C37.4464 680.545 36.6462 682.608 35.9128 684.671C35.7794 683.709 35.4461 682.608 34.6459 681.646C32.5122 678.964 29.045 678.551 28.845 678.551L28.4449 678.482L28.3782 678.895C27.3781 683.571 29.4451 686.597 34.5792 688.247C33.7124 690.654 32.9123 693.06 32.1789 695.536C32.1122 695.742 32.2455 696.017 32.4456 696.086C32.5123 696.086 32.5789 696.086 32.6456 696.086C32.779 696.086 32.9123 695.949 32.979 695.811C33.7124 693.404 34.5126 690.998 35.3127 688.591C37.4464 689.622 39.3801 689.966 40.9803 689.76C43.0473 689.416 44.6476 688.109 45.9144 685.771L46.4479 685.703Z" fill="#2D6315"/>
<path d="M23.6499 616.452C36.252 606.344 51.8545 599.399 60.7227 585.715C58.1889 595.479 51.6545 603.593 44.4533 610.401C37.2521 617.209 29.1174 622.985 22.1829 629.999C12.648 639.557 5.31348 651.385 0.846077 664.312C-0.154087 667.2 -1.02089 670.226 -2.68783 672.839C-3.62132 674.352 -6.28845 677.927 -8.42214 677.171C-10.6225 676.346 -9.48897 672.633 -9.15558 671.051C-8.15541 665.894 -6.62184 660.805 -4.75487 655.923C-0.954235 646.021 4.44667 636.807 11.1811 628.83C14.9151 624.223 19.1158 620.097 23.6499 616.452Z" fill="#CCD64F"/>
<path d="M-41.4956 785.203C-42.6958 784.034 -43.896 782.796 -45.0295 781.49C-50.6304 774.888 -52.4307 765.674 -49.8303 757.147C-46.163 745.114 -33.6276 737.55 -30.6938 725.31C-28.16 714.651 -33.5609 702.342 -28.3601 692.784C-24.2261 685.151 -15.0912 682.401 -8.69014 676.693C5.91228 663.628 3.64524 638.254 17.1141 623.883C20.1146 620.719 23.8486 618.175 28.0493 617.281C32.25 616.387 36.8507 617.281 40.1179 620.169C45.4522 624.914 45.7189 633.441 43.8519 640.455C41.9849 647.469 38.451 654.001 37.5175 661.222C35.5172 677.381 47.0524 693.953 41.6515 709.288C38.3843 718.502 29.5162 724.897 27.0491 734.386C23.8486 746.833 32.65 759.554 31.1165 772.344C29.9163 782.521 22.115 790.842 13.1801 795.243C1.84492 800.881 -13.4909 800.469 -25.1595 795.861C-31.0939 793.455 -36.6948 789.81 -41.4956 785.203Z" fill="#88BA63"/>
<path d="M38.4488 674.907C32.7812 681.027 23.5796 688.385 11.3776 689.967C17.2452 670.713 23.5796 651.39 31.3809 632.824C37.4486 632.274 41.5826 629.867 44.3164 627.116C44.1831 626.635 44.0497 626.154 43.9163 625.741C41.4492 628.285 37.7153 630.761 32.0477 631.38C33.9147 627.048 35.8483 622.715 37.8487 618.521C37.4486 618.315 37.0485 618.108 36.6485 617.971C31.2476 629.248 26.5801 640.869 22.3128 652.628C15.5116 645.683 14.2448 635.093 14.4448 627.323C13.9781 628.01 13.5113 628.698 13.0445 629.386C13.0445 629.867 13.0446 630.417 13.1112 630.898C13.5113 640.869 16.5118 648.846 21.7793 654.003C15.1783 672.501 9.57732 691.342 4.10975 709.771L-0.824413 726.549C-8.09229 720.842 -13.5599 699.044 -14.4267 680.89C-14.8268 681.165 -15.2935 681.44 -15.6935 681.715C-14.6934 699.25 -9.55918 722.011 -1.22446 727.924L-3.2915 734.938C-16.427 726.343 -22.0946 705.026 -22.2946 686.185C-22.7614 686.528 -23.1615 686.872 -23.6282 687.285C-23.2281 706.401 -17.1604 727.787 -3.69155 736.382L-18.294 785.686C-34.9634 776.334 -37.8972 757.974 -37.4305 738.17C-37.8972 738.789 -38.364 739.339 -38.8307 739.889C-39.0974 759.556 -35.6969 777.641 -18.7607 786.993L-21.6945 797.032C-21.2945 797.17 -20.8277 797.307 -20.4277 797.445L-9.15913 759.418C-8.42567 759.487 -7.62552 759.487 -6.89207 759.487C6.31012 759.487 18.5788 750.96 26.7135 743.603C26.6468 743.053 26.5801 742.502 26.5801 741.884C18.3121 749.585 5.17656 758.937 -8.75908 758.043L5.30994 710.183C7.17692 703.995 8.97719 697.668 10.9108 691.411C23.3796 689.967 32.8478 682.746 38.7822 676.489C38.7155 675.939 38.5821 675.457 38.4488 674.907Z" fill="#DBF5C4"/>
<path d="M31.3154 774.064C31.3154 774.064 65.321 710.251 71.9221 698.767C82.5905 680.063 96.3261 681.782 93.3923 699.386C89.7917 720.909 84.4575 727.167 89.0582 731.43C93.659 735.625 102.127 738.307 95.1926 756.323C88.2581 774.339 82.7239 786.098 82.7239 786.098L31.3154 774.064Z" fill="#2D6315"/>
<path d="M89.9926 732.257C89.6592 731.982 89.3258 731.707 89.0591 731.432C88.9924 731.432 88.9924 731.363 88.9924 731.363C83.1914 738.102 74.3233 745.941 64.9884 745.391L90.8594 686.666C90.526 686.391 90.1259 686.116 89.7258 685.979L76.457 715.96C74.3233 712.109 74.0566 702.826 75.0567 693.955C74.5233 694.643 73.9899 695.468 73.4565 696.224C72.6564 705.164 73.2565 713.965 75.7902 717.404L48.9191 778.191L50.2526 778.535L64.3217 746.697C64.7884 746.766 65.3218 746.766 65.7886 746.766C72.4563 746.766 79.7242 742.915 86.9254 735.489C88.0589 734.388 89.0591 733.288 89.9926 732.257Z" fill="#88BA63"/>
<path d="M41.7811 709.221C42.2478 707.914 42.5812 706.608 42.7812 705.232C34.0465 711.834 26.6452 720.361 21.4444 730.194C13.243 745.666 10.5092 764.232 13.9098 781.561C20.1775 778.879 26.0451 775.647 31.3793 771.727C32.5795 759.143 24.0448 746.628 27.2453 734.388C29.6457 724.83 38.5139 718.435 41.7811 709.221Z" fill="#2D6315"/>
<path d="M13.5117 781.421C10.9113 763.954 14.4452 745.594 23.3134 730.466C32.2482 715.338 46.3839 703.648 62.6532 698.01C65.187 715.888 61.9865 734.248 52.985 749.72C44.0501 765.261 29.9811 775.232 13.5117 781.421Z" fill="#CCD64F"/>
<path d="M40.7148 736.655L62.7852 699.178C62.7185 698.835 62.7185 698.422 62.6518 698.078C62.3184 698.216 61.985 698.353 61.6516 698.422L48.7828 720.22V704.611C48.3161 704.886 47.916 705.161 47.4493 705.436V722.214C47.4493 722.283 47.4493 722.352 47.5159 722.421L34.1804 745.044L33.5803 716.988C33.1135 717.47 32.7135 717.951 32.2467 718.432L32.9135 747.244L29.5796 752.883L28.9128 722.352C28.4461 722.902 28.0461 723.521 27.646 724.071L28.3128 755.084L13.4437 780.32C13.5103 780.664 13.5103 781.076 13.577 781.42C13.9104 781.283 14.2438 781.145 14.5771 781.008L24.0454 764.986C24.1121 764.986 24.1787 764.986 24.2454 764.986C24.3121 764.986 24.3121 764.986 24.3788 764.986L45.3822 760.447C45.849 759.897 46.3824 759.278 46.8492 758.728L24.9789 763.473L39.648 738.374L60.3847 732.116C60.5181 731.566 60.6515 731.085 60.7848 730.535L40.7148 736.655Z" fill="#88BA63"/>
<path d="M140 771.865C136.666 761.138 129.798 751.579 120.33 746.01C109.462 739.683 95.0592 739.477 84.6575 746.628C76.2561 752.473 71.2553 762.1 67.388 771.796H140V771.865Z" fill="#88BA63"/>
<path d="M-9.50778 660.195C-5.70715 648.161 -1.77316 635.921 5.62807 625.813C11.6291 617.699 19.5637 611.441 27.565 605.39C35.5663 599.408 43.7677 593.494 50.3688 585.93C57.0366 578.366 62.1041 568.876 62.4375 558.699C57.37 570.183 47.9017 578.985 37.9668 586.342C28.0318 593.7 17.3633 600.095 8.29518 608.553C-2.63997 618.868 -10.9747 632.139 -15.5088 646.648C-13.3751 651.737 -13.1751 656.138 -9.50778 660.195Z" fill="#88BA63"/>
</g>
<defs>
<filter id="filter0_f_2765_1423" x="444.488" y="629.732" width="15.0859" height="11.543" filterUnits="userSpaceOnUse" color-interpolation-filters="sRGB">
<feFlood flood-opacity="0" result="BackgroundImageFix"/>
<feBlend mode="normal" in="SourceGraphic" in2="BackgroundImageFix" result="shape"/>
<feGaussianBlur stdDeviation="2" result="effect1_foregroundBlur_2765_1423"/>
</filter>
<filter id="filter1_f_2765_1423" x="421.457" y="629.732" width="14.1992" height="11.543" filterUnits="userSpaceOnUse" color-interpolation-filters="sRGB">
<feFlood flood-opacity="0" result="BackgroundImageFix"/>
<feBlend mode="normal" in="SourceGraphic" in2="BackgroundImageFix" result="shape"/>
<feGaussianBlur stdDeviation="2" result="effect1_foregroundBlur_2765_1423"/>
</filter>
<clipPath id="clip0_2765_1423">
<rect width="500" height="763" fill="white"/>
</clipPath>
</defs>
</svg>
