
<svg width="206" height="132" viewBox="0 0 206 132" fill="none" xmlns="http://www.w3.org/2000/svg">
<path d="M104.25 76.5L1.25 7V4.5L110.25 72.5L104.25 76.5Z" fill="#D0D0D0"/>
<path d="M104.193 75.1218L1.76107 5.52666C1.10749 5.0826 1.20286 4.09163 1.92914 3.78037L8.6799 0.887185C9.96511 0.336382 11.4446 0.496667 12.5821 1.30993L109.572 70.6578C110.141 71.0647 110.127 71.9152 109.545 72.3033L105.31 75.1267C104.971 75.3524 104.53 75.3504 104.193 75.1218Z" fill="#D9D9D9"/>
<path d="M161.75 109.5C154.749 121.388 124.25 119.5 110.25 108.5C101.25 100.5 92.2489 83.8881 99.2508 71.9998C106.253 60.1116 125.199 61.4997 142.415 71.64C159.632 81.7803 168.752 97.6118 161.75 109.5Z" fill="#D0D0D0"/>
<ellipse cx="130.925" cy="90.1187" rx="36.5142" ry="21.1065" transform="rotate(30.4974 130.925 90.1187)" fill="#D9D9D9"/>
<circle opacity="0.6" cx="153.75" cy="58" r="52" fill="#D6FFD0"/>
<path d="M116.356 74.7225C115.792 74.84 115.123 74.7722 114.619 74.1706C113.779 73.2187 114.041 72.1878 114.977 71.2495C117.339 68.9632 117.925 66.8155 117.485 64.1262L116.375 57.3414L114.328 57.6763C112.526 57.9709 111.949 57.2294 111.808 56.3658C111.643 55.3543 111.97 54.5661 113.771 54.2716L121.468 53.0125C123.269 52.7179 123.831 53.3608 123.996 54.3724C124.137 55.2359 123.826 56.1227 122.025 56.4173L120.471 56.6715L121.581 63.4564C122.021 66.1456 123.228 67.7974 126.199 69.2366C127.385 69.828 127.962 70.7216 127.469 71.8914C127.192 72.5194 126.718 72.8756 126.13 72.9971C125.76 73.0576 125.357 73.0728 124.943 72.862C123.186 72.0347 121.784 70.8961 120.633 69.5897C120.003 71.314 119.066 72.8606 117.759 74.0116C117.36 74.3556 116.894 74.609 116.356 74.7225ZM133.107 72.4387C131.996 72.6203 131.023 72.2474 130.753 70.5944L127.997 53.7433C127.727 52.0903 128.583 51.4435 129.644 51.27C130.681 51.1005 131.715 51.3872 131.994 53.0896L134.75 69.9407C135.028 71.643 134.168 72.2652 133.107 72.4387ZM154.152 69.2752L139.053 71.7448C137.251 72.0394 136.933 71.3315 136.772 70.3446L136.328 67.6307C136.061 66.0023 136.877 65.413 137.987 65.2314C139.023 65.0619 140.046 65.2746 140.325 66.977L140.51 68.1119L153.611 65.9691C155.511 65.6584 155.994 66.4408 156.123 67.2303C156.284 68.2172 156.027 68.9685 154.152 69.2752ZM142.424 66.0257C141.338 66.2033 140.365 65.9825 140.098 64.3541L139.953 63.4659L136.918 63.9623C135.019 64.273 134.548 63.5647 134.419 62.7751C134.258 61.7883 134.527 61.1109 136.402 60.8042L146.073 59.2224C147.948 58.9157 148.419 59.472 148.581 60.4588C148.71 61.2484 148.49 62.0697 146.59 62.3804L143.95 62.8122L144.095 63.7004C144.374 65.4028 143.46 65.8562 142.424 66.0257ZM140.508 59.2713C136.684 59.8968 134.528 59.2614 133.923 55.5606C133.318 51.8598 135.155 50.546 138.979 49.9205C142.803 49.2951 144.963 49.9551 145.568 53.6559C146.218 57.6281 144.332 58.6458 140.508 59.2713ZM140.028 56.3353C141.336 56.1214 141.773 55.6953 141.547 54.3137C141.321 52.932 140.771 52.6673 139.463 52.8812C138.155 53.0951 137.718 53.5212 137.944 54.9028C138.17 56.2845 138.72 56.5492 140.028 56.3353ZM153.243 63.876C152.133 64.0576 151.16 63.6848 150.89 62.0317L150.055 56.9246L148.796 57.1304C146.921 57.4371 146.41 56.6341 146.281 55.8446C146.119 54.8577 146.372 54.0817 148.248 53.775L149.506 53.5692L148.973 50.3125C148.703 48.6594 149.56 48.0126 150.621 47.8391C151.657 47.6696 152.692 47.9564 152.97 49.6587L154.887 61.378C155.165 63.0804 154.304 63.7025 153.243 63.876ZM158.481 67.8326C157.917 67.95 157.248 67.8822 156.744 67.2807C155.904 66.3287 156.166 65.2979 157.102 64.3595C159.46 62.0486 159.889 60.0278 159.437 57.2645L158.057 48.8267C157.779 47.1243 158.718 46.5147 159.754 46.3452C160.79 46.1758 161.874 46.4544 162.153 48.1568L163.533 56.5947C163.977 59.3086 165.036 60.9846 167.979 62.4032C169.165 62.9945 169.742 63.8881 169.249 65.058C168.972 65.686 168.498 66.0421 167.91 66.1636C167.54 66.2242 167.137 66.2394 166.723 66.0285C165.069 65.2098 163.707 64.1658 162.618 62.9254C161.996 64.547 161.121 66.0075 159.884 67.1217C159.485 67.4657 159.019 67.7191 158.481 67.8326ZM173.505 65.8312C172.394 66.0128 171.421 65.64 171.151 63.9869L168.395 47.1358C168.125 45.4828 168.981 44.836 170.042 44.6625C171.079 44.493 172.113 44.7797 172.392 46.4821L173.36 52.4034L174.915 52.1492C176.79 51.8425 177.313 52.7195 177.442 53.509C177.604 54.4959 177.363 55.346 175.488 55.6527L173.933 55.9069L175.148 63.3332C175.426 65.0356 174.566 65.6577 173.505 65.8312ZM195.837 62.4826L181.206 64.8755C179.405 65.1701 179.087 64.4622 178.925 63.4754L177.977 57.6774C177.707 56.0244 178.44 55.3977 179.501 55.2242C180.488 55.0628 181.506 55.4029 181.826 56.8958L192.707 55.1162C192.527 53.5498 193.367 52.9564 194.378 52.7909C195.439 52.6174 196.338 53.0023 196.605 54.6307L197.553 60.4287C197.714 61.4155 197.638 62.188 195.837 62.4826ZM182.565 61.4108L193.445 59.6312L193.223 58.2743L182.343 60.0538L182.565 61.4108ZM181.93 53.8136C178.106 54.4391 176.124 53.3193 175.483 49.3964C174.833 45.4242 176.305 43.7395 180.179 43.1059C183.978 42.4845 185.981 43.5756 186.634 47.5724C187.32 51.7667 185.754 53.1881 181.93 53.8136ZM181.398 50.5569C182.68 50.3471 182.883 49.8832 182.613 48.2302C182.339 46.5525 181.974 46.1815 180.716 46.3873C179.457 46.5931 179.23 47.061 179.504 48.7387C179.775 50.3917 180.115 50.7667 181.398 50.5569ZM194.118 51.9722C193.008 52.1538 192.035 51.781 191.764 50.1279L191.478 48.3762L189.874 48.6385C188.098 48.9291 187.607 48.2494 187.441 47.2379C187.312 46.4484 187.434 45.4911 189.309 45.1844L190.913 44.9221L190.679 43.4911C190.408 41.8381 191.265 41.1913 192.326 41.0178C193.362 40.8483 194.397 41.135 194.676 42.8374L195.761 49.4742C196.04 51.1766 195.179 51.7987 194.118 51.9722Z" fill="#65A847"/>
</svg>
