<svg width="110" height="110" viewBox="0 0 110 110" fill="none" xmlns="http://www.w3.org/2000/svg">
<g clip-path="url(#clip0_1456_763)">
<rect width="110" height="110" fill="#E9FFDC"/>
<path d="M37.669 63.1257C31.5847 55.9378 90.8225 56.0423 90.8225 63.1259C92.3823 89.3672 85.9138 111.176 85.9138 117.529C85.9138 123.881 42.2244 123.396 40.0408 117.529C37.8571 111.661 41.2699 109.149 37.669 63.1257Z" fill="#73AA5A"/>
<ellipse cx="44.4522" cy="74.8434" rx="15.1" ry="15.7565" fill="#73AA5A"/>
<ellipse cx="85.8416" cy="71.4105" rx="10.2997" ry="10.7475" transform="rotate(31.7665 85.8416 71.4105)" fill="#73AA5A"/>
<path d="M28.153 83.016C28.999 79.4702 32.5593 77.2815 36.1051 78.1275V78.1275C39.9716 79.0501 42.1515 83.1558 40.7497 86.8755L35.6246 100.475C34.6154 103.153 31.7722 104.663 28.9885 103.998V103.998C25.936 103.27 24.0518 100.205 24.7801 97.1525L28.153 83.016Z" fill="#FBC0AE"/>
<path d="M33.4711 100.13C34.2284 101.346 33.8252 102.949 32.5822 103.662V103.662C28.7164 105.88 23.7801 104.307 21.9109 100.261L11.5268 77.7821L17.4703 74.4227L33.4711 100.13Z" fill="#FBC0AE"/>
<path d="M27.671 83.1723L29.8524 70.6907L44.6052 78.3341L41.9938 87.1916C32.4507 88.2935 29.0521 85.1476 27.671 83.1723Z" fill="#73AA5A"/>
<path d="M38.5435 35.4521C38.5435 37.9902 40.3071 40.0477 42.4826 40.0477C44.6581 40.0477 46.4218 37.9902 46.4218 35.4521C46.4218 32.914 44.6581 30.8564 42.4826 30.8564C40.3071 30.8564 38.5435 32.914 38.5435 35.4521Z" fill="#E8AB98"/>
<path fill-rule="evenodd" clip-rule="evenodd" d="M42.4825 33.0888C42.4825 32.9437 42.3678 32.8262 42.2263 32.8262C41.4441 32.8262 40.843 33.1577 40.4425 33.6615C40.047 34.1589 39.8565 34.8113 39.8565 35.4523C39.8565 36.0932 40.047 36.7456 40.4425 37.243C40.843 37.7469 41.4441 38.0783 42.2263 38.0783C42.3678 38.0783 42.4825 37.9608 42.4825 37.8157C42.4825 37.6707 42.3678 37.5531 42.2263 37.5531C41.5995 37.5531 41.1437 37.2937 40.8397 36.9113C40.5306 36.5224 40.3689 35.993 40.3689 35.4523C40.3689 34.9115 40.5306 34.3821 40.8397 33.9933C41.1437 33.6108 41.5995 33.3514 42.2263 33.3514C42.3678 33.3514 42.4825 33.2338 42.4825 33.0888Z" fill="#28495C"/>
<path d="M43.5026 15.9275C45.7026 7.13101 54.6685 1.56359 63.5285 3.49237L64.6484 3.73618C73.5084 5.66496 78.9073 14.3596 76.7073 23.1561C65.3603 22.0144 54.2194 19.5891 43.5026 15.9275Z" fill="#FFB762"/>
<path d="M76.9043 16.7964C63.7252 11.8867 51.3215 10.853 45.1196 11.8866L44.0859 13.9539L77.1627 19.1221L76.9043 16.7964Z" fill="#73AA5A"/>
<path d="M92.8628 28.7896C91.9519 33.4296 76.3828 34.6568 58.0881 31.5306C39.7935 28.4044 25.7012 22.1087 26.6121 17.4688C27.5229 12.8288 43.0921 11.6016 61.3867 14.7278C79.6814 17.854 93.7737 24.1497 92.8628 28.7896Z" fill="#FFB762"/>
<path d="M53.0324 49.6347L73.3391 37.4219V58.7293C73.3391 58.7293 51.8708 78.7376 53.0324 58.7293C53.0325 55.6112 53.0324 49.6347 53.0324 49.6347Z" fill="#FBC0AE"/>
<path d="M41.826 31.935C41.826 24.8128 47.5151 19.0391 54.5329 19.0391H60.6322C67.65 19.0391 73.3391 24.8128 73.3391 31.935V42.2518C73.3391 49.374 67.65 55.1478 60.6322 55.1478H54.5329C47.5151 55.1478 41.826 49.374 41.826 42.2518V31.935Z" fill="#FBC0AE"/>
<path fill-rule="evenodd" clip-rule="evenodd" d="M52.7408 34.7954C52.8768 34.7954 52.987 34.913 52.987 35.058V35.9509C52.987 36.3998 52.6455 36.6969 52.3286 36.8022C51.8193 36.9714 51.5098 37.4789 51.5098 38.1305C51.5098 38.5328 51.6295 38.8806 51.8356 39.1247C52.0387 39.3654 52.34 39.5224 52.7408 39.5224C52.8768 39.5224 52.987 39.6399 52.987 39.785C52.987 39.93 52.8768 40.0476 52.7408 40.0476C52.2093 40.0476 51.772 39.8342 51.4696 39.4761C51.1702 39.1214 51.0175 38.642 51.0175 38.1305C51.0175 37.2996 51.4251 36.5523 52.1821 36.3007C52.3845 36.2335 52.4946 36.0821 52.4946 35.9509V35.058C52.4946 34.913 52.6049 34.7954 52.7408 34.7954Z" fill="#28495C"/>
<path d="M58.8957 32.498C58.8957 33.0418 58.4548 33.4827 57.9109 33.4827C57.367 33.4827 56.9261 33.0418 56.9261 32.498C56.9261 31.9541 57.367 31.5132 57.9109 31.5132C58.4548 31.5132 58.8957 31.9541 58.8957 32.498Z" fill="#28495C"/>
<path d="M49.0478 32.498C49.0478 33.0418 48.6069 33.4827 48.063 33.4827C47.5191 33.4827 47.0782 33.0418 47.0782 32.498C47.0782 31.9541 47.5191 31.5132 48.063 31.5132C48.6069 31.5132 49.0478 31.9541 49.0478 32.498Z" fill="#28495C"/>
<path fill-rule="evenodd" clip-rule="evenodd" d="M47.5957 30.0164C47.574 30.044 47.551 30.073 47.5265 30.1036C47.424 30.2318 47.2577 30.2318 47.1552 30.1036C47.0526 29.9754 47.0526 29.7676 47.1552 29.6394C47.173 29.617 47.1916 29.5934 47.2108 29.5689C47.3179 29.4323 47.4468 29.2678 47.6076 29.1419C47.8106 28.983 48.0568 28.8867 48.3913 28.8867C48.7258 28.8867 48.972 28.983 49.175 29.1419C49.3358 29.2678 49.4647 29.4323 49.5718 29.5689C49.591 29.5934 49.6095 29.617 49.6274 29.6394C49.73 29.7676 49.73 29.9754 49.6274 30.1036C49.5249 30.2318 49.3586 30.2318 49.256 30.1036C49.2315 30.073 49.2086 30.044 49.1869 30.0164C49.0796 29.8804 49 29.7796 48.8962 29.6984C48.7847 29.6111 48.6369 29.5432 48.3913 29.5432C48.1456 29.5432 47.9979 29.6111 47.8864 29.6984C47.7826 29.7796 47.703 29.8804 47.5957 30.0164Z" fill="#28495C"/>
<path fill-rule="evenodd" clip-rule="evenodd" d="M57.4436 30.0164C57.4219 30.044 57.3989 30.073 57.3744 30.1036C57.2719 30.2318 57.1056 30.2318 57.0031 30.1036C56.9005 29.9754 56.9005 29.7676 57.0031 29.6394C57.0209 29.617 57.0395 29.5934 57.0587 29.5689C57.1658 29.4323 57.2947 29.2678 57.4555 29.1419C57.6585 28.983 57.9047 28.8867 58.2392 28.8867C58.5737 28.8867 58.8199 28.983 59.0229 29.1419C59.1837 29.2678 59.3126 29.4323 59.4197 29.5689C59.4389 29.5934 59.4574 29.617 59.4753 29.6394C59.5779 29.7676 59.5779 29.9754 59.4753 30.1036C59.3728 30.2318 59.2065 30.2318 59.1039 30.1036C59.0794 30.073 59.0565 30.044 59.0348 30.0164C58.9275 29.8804 58.8479 29.7796 58.7441 29.6984C58.6326 29.6111 58.4848 29.5432 58.2392 29.5432C57.9935 29.5432 57.8458 29.6111 57.7343 29.6984C57.6305 29.7796 57.5509 29.8804 57.4436 30.0164Z" fill="#28495C"/>
<path fill-rule="evenodd" clip-rule="evenodd" d="M50.6234 41.3608C50.7685 41.3608 50.8861 41.4784 50.8861 41.6234C50.8861 42.241 51.1428 42.6912 51.5248 42.993C51.9138 43.3003 52.4443 43.4617 52.9869 43.4617C53.5296 43.4617 54.0601 43.3003 54.449 42.993C54.8311 42.6912 55.0878 42.241 55.0878 41.6234C55.0878 41.4784 55.2054 41.3608 55.3504 41.3608C55.4954 41.3608 55.613 41.4784 55.613 41.6234C55.613 42.4065 55.2789 43.0067 54.7746 43.4052C54.2772 43.7982 53.626 43.9869 52.9869 43.9869C52.3479 43.9869 51.6966 43.7982 51.1992 43.4052C50.695 43.0067 50.3608 42.4065 50.3608 41.6234C50.3608 41.4784 50.4784 41.3608 50.6234 41.3608Z" fill="#28495C"/>
<path fill-rule="evenodd" clip-rule="evenodd" d="M52.9852 55.7078C52.9448 55.706 52.9066 55.7042 52.8707 55.7026L52.8936 55.1863C52.9298 55.1879 52.9684 55.1897 53.0094 55.1916C54.2096 55.2469 57.467 55.3971 62.6053 54.1755C62.7441 54.1425 62.8834 54.2283 62.9165 54.3671C62.9495 54.5059 62.8637 54.6453 62.7248 54.6783C57.5175 55.9163 54.2064 55.764 52.9852 55.7078Z" fill="#28495C"/>
<path d="M63.719 23.9196C61.2272 22.4717 44.9282 20.1904 43.3901 26.1314C41.6912 25.8728 42.5982 22 44.2971 20.4487C45.996 18.8974 50.83 18.3823 54.5509 18.3823C58.8543 18.3823 70.1879 19.932 73.5203 23.29C74.2894 25.8731 75.0167 27.8843 74.4504 31.073L69.0847 34.1388C68.2352 31.8981 66.2108 25.3674 63.719 23.9196Z" fill="#28495C"/>
<path d="M76.6218 35.4521C76.6218 37.9902 74.8582 40.0477 72.6827 40.0477C70.5071 40.0477 68.7435 37.9902 68.7435 35.4521C68.7435 32.914 70.5071 30.8564 72.6827 30.8564C74.8582 30.8564 76.6218 32.914 76.6218 35.4521Z" fill="#FBC0AE"/>
<path fill-rule="evenodd" clip-rule="evenodd" d="M72.6826 33.0888C72.6826 32.9437 72.7973 32.8262 72.9388 32.8262C73.7211 32.8262 74.3222 33.1577 74.7227 33.6615C75.1181 34.1589 75.3087 34.8113 75.3087 35.4523C75.3087 36.0932 75.1181 36.7456 74.7227 37.243C74.3222 37.7469 73.7211 38.0783 72.9388 38.0783C72.7973 38.0783 72.6826 37.9608 72.6826 37.8157C72.6826 37.6707 72.7973 37.5531 72.9388 37.5531C73.5657 37.5531 74.0214 37.2937 74.3255 36.9113C74.6346 36.5224 74.7963 35.993 74.7963 35.4523C74.7963 34.9115 74.6346 34.3821 74.3255 33.9933C74.0214 33.6108 73.5657 33.3514 72.9388 33.3514C72.7973 33.3514 72.6826 33.2338 72.6826 33.0888Z" fill="#28495C"/>
<path d="M77.6015 81.3722C56.1846 76.4359 43.0247 80.0731 43.0247 80.0731L38.8962 96.4408C38.8962 114.636 36.5739 132.84 36.5739 151C46.3792 151 52.314 150.22 59.539 147.622C75.0212 142.055 84.5685 131.774 87.1489 127.877L88.4391 101.117C88.4391 101.117 81.214 88.3869 77.6015 81.3722Z" fill="#28495C"/>
<path d="M41.258 89.9547C41.3361 77.8808 40.7817 61.5199 41.7484 59.602L46.4217 59.0869C45.6654 59.7852 46.3549 71.6632 46.4173 89.9893C46.4221 91.4116 45.2688 92.5695 43.8466 92.5695C42.408 92.5695 41.2487 91.3933 41.258 89.9547Z" fill="#17394D"/>
<path d="M68.267 89.8151L68.3431 88.5902C74.7482 66.4404 81.6657 59.7437 83.2029 59.7437C84.4327 59.7437 87.8146 60.688 89.0956 61.289C85.2526 60.5163 82.1781 66.1826 81.1533 68.5008L73.4672 93.2263L70.9752 92.9876C69.3647 92.8334 68.1666 91.4299 68.267 89.8151Z" fill="#1B3F53"/>
<circle cx="70.3848" cy="90.2717" r="1.6413" fill="#40728E"/>
<path d="M65.12 85.6721L72.9896 59.0851C73.0987 58.7165 73.1541 58.3342 73.1541 57.9498V52.522C73.9132 52.7832 75.8867 53.5145 77.7085 54.3503C79.2396 55.0528 80.2822 57.1575 80.7762 58.5865C80.9403 59.0611 81.1268 59.5404 81.1752 60.0402C81.447 62.8454 80.3121 72.0776 80.4917 72.6337C80.7447 73.4173 80.2387 77.8575 80.9978 79.9471C81.7568 82.0366 79.4796 83.8649 80.2387 84.6485C80.9978 85.4321 79.2266 86.7381 78.2145 87.7828C77.2025 88.8276 76.9494 88.3052 75.9373 87.7828C74.9253 87.2604 74.9253 88.5664 73.9132 89.6112C72.9011 90.6559 71.383 91.1783 69.6118 89.6112C69.3587 89.3871 69.1394 89.2182 68.9443 89.0962C67.8342 88.4022 66.1987 88.7171 65.4447 87.6469C65.0403 87.0728 64.9207 86.3454 65.12 85.6721Z" fill="#F1F1F1"/>
<path d="M71.5148 105.557C65.7886 106.584 49.4449 105.471 43.1392 105.043L43.6504 118.907C50.1947 130.82 66.0613 125.24 72.0261 120.704L71.5148 105.557Z" stroke="#1B3F53"/>
<path d="M76.6334 78.6663C78.5013 75.0736 82.9133 73.7034 86.4879 75.606V75.606C90.3188 77.645 91.5821 82.5637 89.2064 86.1904L76.3258 105.853C74.597 108.492 71.159 109.372 68.3713 107.888V107.888C65.3729 106.292 64.2125 102.556 65.7794 99.542L76.6334 78.6663Z" fill="#FBC0AE"/>
<path d="M43.1392 107.013C46.7321 108.224 57.203 108.985 71.3696 107.532" stroke="#1B3F53"/>
<path d="M75.6556 102.048C76.914 103.06 77.1133 104.914 76.0992 106.174V106.174C72.6473 110.459 66.1731 110.478 62.69 106.212L47.561 87.6833L52.1451 83.1452L75.6556 102.048Z" fill="#FBC0AE"/>
<path d="M86.4669 93.2864L95.2528 75.1976L80.7818 68.4792L72.4913 83.595C69.933 86.7709 86.064 94.8883 86.4669 93.2864Z" fill="#73AA5A"/>
<path d="M21.5228 53.1147L13.6734 53.739C12.5105 53.8315 11.6732 54.8957 11.857 56.0478L14.21 70.7974C14.369 71.7934 15.2447 72.5153 16.2527 72.4812L23.9483 72.2206C25.1397 72.1803 26.0315 71.1133 25.8598 69.9337L23.6606 54.8204C23.5088 53.7773 22.5736 53.0311 21.5228 53.1147Z" fill="#343434"/>
<path d="M15.4172 73.9077L24.262 73.6083C24.9184 73.586 25.4982 73.1745 25.7356 72.5622C25.9486 72.0129 25.8507 71.3916 25.479 70.9345L11.8108 54.1241L11.5114 54.3808C10.9841 54.8329 10.7291 55.5262 10.8378 56.2122L13.3742 72.2218C13.5321 73.2189 14.4083 73.9419 15.4172 73.9077Z" fill="#343434"/>
<path d="M20.6405 54.0451L12.7644 54.6584C11.6002 54.7491 10.761 55.8136 10.9445 56.9667L13.3722 72.2199C13.531 73.2181 14.4097 73.9408 15.4198 73.9042L23.3425 73.617C24.5422 73.5735 25.4336 72.4903 25.2453 71.3046L22.7711 55.7254C22.6075 54.6955 21.6801 53.9642 20.6405 54.0451Z" fill="#5A5A5A"/>
<path d="M10.313 70.795C10.313 72.0707 10.7054 74.8264 11.0046 76.7418C11.1792 77.8594 12.256 78.5917 13.3634 78.3613L17.5951 77.4808C18.3171 77.3306 18.8978 76.7953 19.1062 76.088L20.4599 71.493C20.6782 70.752 20.4503 69.9516 19.8744 69.4367L17.3783 67.2053C16.6902 66.5901 16.5124 65.5839 16.9481 64.7702L17.8608 63.0655C17.9525 62.8942 18.0854 62.7439 18.1607 62.5648C18.5296 61.6871 17.3451 60.1387 15.9495 61.7766C14.2414 63.7811 10.313 68.7336 10.313 70.795Z" fill="#FBC0AE"/>
<path d="M18.9574 61.8862L15.965 65.3804C15.7528 65.6281 15.6421 65.9468 15.6548 66.2727C15.7025 67.4895 17.2517 67.9726 17.9826 66.9986L20.7437 63.3188C21.0592 62.8982 21.048 62.3168 20.7163 61.9088C20.2655 61.3542 19.4224 61.3433 18.9574 61.8862Z" fill="#FBC0AE"/>
<path d="M20.3232 64.0519L17.363 67.5734C17.1531 67.8231 17.0453 68.1428 17.061 68.4685C17.1199 69.6849 18.6735 70.1538 19.3954 69.173L22.1226 65.468C22.4342 65.0446 22.4176 64.4633 22.0823 64.0584C21.6264 63.5079 20.7832 63.5048 20.3232 64.0519Z" fill="#FBC0AE"/>
<path d="M21.1162 66.849L18.3648 70.405C18.1905 70.6303 18.1009 70.9096 18.1117 71.1941C18.1561 72.3658 19.6708 72.8003 20.3296 71.8304L22.8561 68.1111C23.1164 67.7279 23.102 67.221 22.8203 66.8532C22.3913 66.293 21.548 66.2909 21.1162 66.849Z" fill="#FBC0AE"/>
<path d="M49.8607 72.979C49.8607 66.8655 51.9449 60.752 52.9869 58.4594V55.4027L52.4658 55.1479C51.6843 55.9121 49.8607 56.4216 48.8186 57.1858C47.5005 58.1523 45.1714 61.5162 44.9109 62.2804C44.6505 63.0445 42.5662 65.8466 41.2637 70.1769C39.9612 74.5073 38.919 78.583 38.6585 79.3472C38.4501 79.9585 38.5717 81.3001 38.6585 81.8945L41.2637 82.1492C41.6111 81.8945 42.5142 81.385 43.3478 81.385C44.3899 81.385 44.3899 81.8945 44.9109 82.1492C45.432 82.4039 46.7345 82.4039 48.5582 83.1681C50.017 83.7795 50.0344 82.9134 49.8607 82.4039V72.979Z" fill="#F1F1F1"/>
<path d="M47.7776 78.2998C48.7964 79.1863 50.7689 81.4832 52.0309 82.9899C52.6943 83.7819 52.6358 84.9506 51.9079 85.6804L48.6228 88.9744L43.8084 86.8707C43.2201 86.6136 42.7899 86.0864 42.6525 85.4542L41.7329 81.2214C41.5635 80.4421 40.9541 79.8369 40.1797 79.6792L36.8798 79.0071C36.7018 78.9709 36.5162 78.973 36.3402 78.928C35.3881 78.6841 34.8353 76.8573 37.1791 76.6815C39.828 76.4828 46.2057 76.9322 47.7776 78.2998Z" fill="#FBC0AE"/>
<ellipse cx="44.1238" cy="89.9434" rx="1.6413" ry="1.31304" fill="#40728E"/>
</g>
<defs>
<clipPath id="clip0_1456_763">
<rect width="110" height="110" fill="white"/>
</clipPath>
</defs>
</svg>
