<svg width="32" height="32" viewBox="0 0 32 32" fill="none" xmlns="http://www.w3.org/2000/svg">
<rect width="32" height="32" fill="#E1FFC3"/>
<path d="M17.5296 27.4131C10.875 27.4131 6.27549 30.4713 5.29688 32.0004H29.7623C28.1313 30.4713 24.1842 27.4131 17.5296 27.4131Z" fill="#73AA5A"/>
<path d="M9.59688 9.50656C10.4559 5.88396 14.0939 3.62264 17.7226 4.45576V4.45576C21.3512 5.28888 23.5965 8.90095 22.7374 12.5235L22.7164 12.6119V12.6119C18.2274 12.1356 13.8156 11.1227 9.57592 9.59496V9.59496L9.59688 9.50656Z" fill="#FFB762"/>
<path d="M22.7962 9.95763C17.5807 7.90844 12.672 7.477 10.2177 7.90841L9.80859 8.77124L22.8985 10.9283L22.7962 9.95763Z" fill="#73AA5A"/>
<ellipse cx="13.3203" cy="3.56673" rx="13.3203" ry="3.56673" transform="matrix(0.984146 0.17736 -0.182996 0.983114 3.54297 6.73047)" fill="#FFB762"/>
<path d="M13.334 24.8406L21.3106 19.7715V28.6155C21.3106 28.6155 16.9133 30.6647 13.334 28.6155C13.334 27.3212 13.334 24.8406 13.334 24.8406Z" fill="#FBC0AE"/>
<rect x="8.83398" y="10.9287" width="12.6808" height="15.0995" rx="6.34041" fill="#FBC0AE"/>
<path fill-rule="evenodd" clip-rule="evenodd" d="M13.333 17.5078C13.3895 17.5078 13.4353 17.5561 13.4353 17.6157V17.9824C13.4353 18.1667 13.2934 18.2887 13.1618 18.332C12.9503 18.4015 12.8217 18.6099 12.8217 18.8776C12.8217 19.0428 12.8714 19.1856 12.957 19.2858C13.0414 19.3847 13.1665 19.4492 13.333 19.4492C13.3895 19.4492 13.4353 19.4975 13.4353 19.557C13.4353 19.6166 13.3895 19.6649 13.333 19.6649C13.1122 19.6649 12.9306 19.5773 12.805 19.4302C12.6806 19.2845 12.6172 19.0876 12.6172 18.8776C12.6172 18.5363 12.7865 18.2294 13.101 18.1261C13.185 18.0984 13.2308 18.0363 13.2308 17.9824V17.6157C13.2308 17.5561 13.2766 17.5078 13.333 17.5078Z" fill="#282828"/>
<ellipse cx="15.3798" cy="16.5369" rx="0.409058" ry="0.431415" fill="#282828"/>
<ellipse cx="11.493" cy="16.5369" rx="0.409058" ry="0.431415" fill="#282828"/>
<path fill-rule="evenodd" clip-rule="evenodd" d="M11.182 15.5059C11.1735 15.515 11.1646 15.5245 11.155 15.5346C11.1151 15.5767 11.0504 15.5767 11.0104 15.5346C10.9705 15.4925 10.9705 15.4242 11.0104 15.3821C11.0174 15.3747 11.0246 15.367 11.0321 15.3589C11.0738 15.314 11.124 15.26 11.1866 15.2186C11.2657 15.1664 11.3615 15.1348 11.4918 15.1348C11.622 15.1348 11.7179 15.1664 11.797 15.2186C11.8596 15.26 11.9098 15.314 11.9515 15.3589C11.959 15.367 11.9662 15.3747 11.9732 15.3821C12.0131 15.4242 12.0131 15.4925 11.9732 15.5346C11.9332 15.5767 11.8685 15.5767 11.8285 15.5346C11.819 15.5245 11.8101 15.515 11.8016 15.5059C11.7598 15.4613 11.7288 15.4281 11.6884 15.4014C11.645 15.3728 11.5875 15.3505 11.4918 15.3505C11.3961 15.3505 11.3386 15.3728 11.2952 15.4014C11.2548 15.4281 11.2238 15.4613 11.182 15.5059Z" fill="#282828"/>
<path fill-rule="evenodd" clip-rule="evenodd" d="M15.0687 15.5059C15.0602 15.515 15.0513 15.5245 15.0418 15.5346C15.0018 15.5767 14.9371 15.5767 14.8971 15.5346C14.8572 15.4925 14.8572 15.4242 14.8971 15.3821C14.9041 15.3747 14.9113 15.367 14.9188 15.3589C14.9605 15.314 15.0107 15.26 15.0733 15.2186C15.1524 15.1664 15.2483 15.1348 15.3785 15.1348C15.5088 15.1348 15.6046 15.1664 15.6837 15.2186C15.7463 15.26 15.7965 15.314 15.8382 15.3589C15.8457 15.367 15.8529 15.3747 15.8599 15.3821C15.8998 15.4242 15.8998 15.4925 15.8599 15.5346C15.8199 15.5767 15.7552 15.5767 15.7153 15.5346C15.7057 15.5245 15.6968 15.515 15.6883 15.5059C15.6465 15.4613 15.6156 15.4281 15.5751 15.4014C15.5317 15.3728 15.4742 15.3505 15.3785 15.3505C15.2828 15.3505 15.2253 15.3728 15.1819 15.4014C15.1415 15.4281 15.1105 15.4613 15.0687 15.5059Z" fill="#282828"/>
<path fill-rule="evenodd" clip-rule="evenodd" d="M12.5144 20.0957C12.5709 20.0957 12.6166 20.144 12.6166 20.2036C12.6166 20.4572 12.7166 20.6421 12.8654 20.7661C13.0168 20.8923 13.2234 20.9585 13.4348 20.9585C13.6461 20.9585 13.8527 20.8923 14.0041 20.7661C14.1529 20.6421 14.2529 20.4572 14.2529 20.2036C14.2529 20.144 14.2987 20.0957 14.3551 20.0957C14.4116 20.0957 14.4574 20.144 14.4574 20.2036C14.4574 20.5252 14.3273 20.7717 14.1309 20.9353C13.9372 21.0967 13.6836 21.1742 13.4348 21.1742C13.1859 21.1742 12.9323 21.0967 12.7386 20.9353C12.5422 20.7717 12.4121 20.5252 12.4121 20.2036C12.4121 20.144 12.4579 20.0957 12.5144 20.0957Z" fill="#282828"/>
<path fill-rule="evenodd" clip-rule="evenodd" d="M13.3602 26.0604C13.3443 26.058 13.3294 26.0557 13.3153 26.0536L13.3443 25.8401C13.3586 25.8422 13.3737 25.8446 13.3899 25.847C13.8592 25.9192 15.1325 26.1148 17.1372 25.5744C17.1919 25.5596 17.2476 25.5945 17.2616 25.6522C17.2755 25.7099 17.2425 25.7686 17.1878 25.7834C15.1444 26.3342 13.8408 26.1342 13.3602 26.0604Z" fill="#282828"/>
<path d="M17.696 13.2287C16.7574 12.5964 10.6184 11.6001 10.0391 14.1946C9.39921 14.0817 9.74082 12.3904 10.3807 11.713C11.0206 11.0355 12.8413 10.8106 14.2428 10.8105C15.8637 10.8105 20.1325 11.4873 21.3876 12.9537C21.6773 14.0818 21.9512 14.9601 21.7379 16.3526L19.7169 17.6915C19.397 16.7129 18.6345 13.861 17.696 13.2287Z" fill="#282828"/>
<ellipse cx="21.2078" cy="17.7222" rx="1.53397" ry="1.83351" fill="#FBC0AE"/>
<path fill-rule="evenodd" clip-rule="evenodd" d="M21.207 16.7524C21.207 16.6928 21.2528 16.6445 21.3093 16.6445C21.6215 16.6445 21.8615 16.7807 22.0213 16.9876C22.1792 17.1919 22.2552 17.4598 22.2552 17.7231C22.2552 17.9863 22.1792 18.2542 22.0213 18.4585C21.8615 18.6655 21.6215 18.8016 21.3093 18.8016C21.2528 18.8016 21.207 18.7533 21.207 18.6938C21.207 18.6342 21.2528 18.5859 21.3093 18.5859C21.5595 18.5859 21.7414 18.4794 21.8628 18.3223C21.9862 18.1626 22.0507 17.9452 22.0507 17.7231C22.0507 17.501 21.9862 17.2836 21.8628 17.1239C21.7414 16.9668 21.5595 16.8602 21.3093 16.8602C21.2528 16.8602 21.207 16.812 21.207 16.7524Z" fill="#282828"/>
</svg>
