<svg width="26" height="33" viewBox="0 0 26 33" fill="none" xmlns="http://www.w3.org/2000/svg">
<circle cx="13.2083" cy="19.2771" r="12.7917" fill="#45F697"/>
<path d="M12.7725 13.6021C11.4849 12.093 24.0215 12.115 24.0215 13.6021C24.3516 19.1113 22.9826 23.6899 22.9826 25.0237C22.9826 26.3574 13.7366 26.2556 13.2744 25.0237C12.8123 23.7917 13.5346 23.2645 12.7725 13.6021Z" fill="#73AA5A"/>
<ellipse cx="14.2098" cy="16.0693" rx="3.1785" ry="3.28215" fill="#73AA5A"/>
<ellipse cx="22.9286" cy="15.3228" rx="2.16957" ry="2.2639" transform="rotate(31.7665 22.9286 15.3228)" fill="#73AA5A"/>
<path d="M10.7774 17.7665C10.9556 17.0196 11.7056 16.5585 12.4525 16.7367V16.7367C13.267 16.9311 13.7261 17.7959 13.4309 18.5794L12.3513 21.4441C12.1387 22.0082 11.5398 22.3262 10.9534 22.1863V22.1863C10.3104 22.0329 9.91353 21.3872 10.0669 20.7442L10.7774 17.7665Z" fill="#FBC0AE"/>
<path d="M11.897 21.3727C12.0565 21.629 11.9716 21.9665 11.7098 22.1168V22.1168C10.8955 22.5841 9.85566 22.2527 9.46193 21.4004L7.27458 16.6653L8.52654 15.9577L11.897 21.3727Z" fill="#FBC0AE"/>
<path d="M10.6754 17.7999L11.135 15.1707L14.2426 16.7808L13.6925 18.6466C11.6823 18.8787 10.9664 18.216 10.6754 17.7999Z" fill="#73AA5A"/>
<path d="M12.9363 7.73688C12.9363 8.24795 13.3019 8.66224 13.7528 8.66224C14.2038 8.66224 14.5693 8.24795 14.5693 7.73688C14.5693 7.22582 14.2038 6.81152 13.7528 6.81152C13.3019 6.81152 12.9363 7.22582 12.9363 7.73688Z" fill="#E8AB98"/>
<path fill-rule="evenodd" clip-rule="evenodd" d="M13.7524 7.24877C13.7524 7.21871 13.7281 7.19434 13.698 7.19434C13.5318 7.19434 13.4041 7.26305 13.319 7.36748C13.235 7.47058 13.1945 7.6058 13.1945 7.73867C13.1945 7.87153 13.235 8.00675 13.319 8.10985C13.4041 8.21429 13.5318 8.283 13.698 8.283C13.7281 8.283 13.7524 8.25862 13.7524 8.22856C13.7524 8.1985 13.7281 8.17413 13.698 8.17413C13.5648 8.17413 13.468 8.12036 13.4034 8.04109C13.3377 7.96048 13.3034 7.85075 13.3034 7.73867C13.3034 7.62658 13.3377 7.51685 13.4034 7.43625C13.468 7.35697 13.5648 7.3032 13.698 7.3032C13.7281 7.3032 13.7524 7.27883 13.7524 7.24877Z" fill="#28495C"/>
<path d="M14.011 3.63532C14.4744 1.78238 16.363 0.609634 18.2293 1.01592L18.4652 1.06728C20.3315 1.47356 21.4688 3.30503 21.0054 5.15797C18.6152 4.91749 16.2684 4.4066 14.011 3.63532Z" fill="#FFB762"/>
<path d="M21.0468 3.81873C18.2707 2.78452 15.6579 2.56678 14.3515 2.78451L14.1338 3.21997L21.1012 4.30863L21.0468 3.81873Z" fill="#73AA5A"/>
<path d="M24.4087 6.34481C24.2168 7.32219 20.9373 7.58068 17.0836 6.92218C13.23 6.26367 10.2615 4.93752 10.4534 3.96014C10.6452 2.98275 13.9248 2.72426 17.7785 3.38276C21.6321 4.04127 24.6006 5.36742 24.4087 6.34481Z" fill="#FFB762"/>
<path d="M16.009 10.7869L20.2548 8.22852V12.692C20.2548 12.692 15.7662 16.8834 16.009 12.692C16.009 12.0388 16.009 10.7869 16.009 10.7869Z" fill="#FBC0AE"/>
<path d="M13.6138 7.03122C13.6138 5.52809 14.8323 4.30957 16.3354 4.30957H17.6418C19.1449 4.30957 20.3635 5.52809 20.3635 7.03122V9.20854C20.3635 10.7117 19.1449 11.9302 17.6418 11.9302H16.3354C14.8323 11.9302 13.6138 10.7117 13.6138 9.20854V7.03122Z" fill="#FBC0AE"/>
<path fill-rule="evenodd" clip-rule="evenodd" d="M16.009 7.62988C16.039 7.62988 16.0634 7.65425 16.0634 7.68432V7.86939C16.0634 7.96244 15.9879 8.02401 15.9178 8.04584C15.8052 8.08093 15.7368 8.18612 15.7368 8.32118C15.7368 8.40456 15.7633 8.47666 15.8088 8.52724C15.8537 8.57713 15.9203 8.60968 16.009 8.60968C16.039 8.60968 16.0634 8.63405 16.0634 8.66411C16.0634 8.69417 16.039 8.71854 16.009 8.71854C15.8914 8.71854 15.7947 8.67432 15.7279 8.60009C15.6617 8.52656 15.6279 8.4272 15.6279 8.32118C15.6279 8.14895 15.7181 7.99406 15.8854 7.9419C15.9302 7.92796 15.9545 7.89659 15.9545 7.86939V7.68432C15.9545 7.65425 15.9789 7.62988 16.009 7.62988Z" fill="#28495C"/>
<path d="M17.3158 7.13961C17.3158 7.25986 17.2184 7.35734 17.0981 7.35734C16.9779 7.35734 16.8804 7.25986 16.8804 7.13961C16.8804 7.01936 16.9779 6.92188 17.0981 6.92188C17.2184 6.92188 17.3158 7.01936 17.3158 7.13961Z" fill="#28495C"/>
<path d="M15.248 7.13961C15.248 7.25986 15.1505 7.35734 15.0302 7.35734C14.91 7.35734 14.8125 7.25986 14.8125 7.13961C14.8125 7.01936 14.91 6.92188 15.0302 6.92188C15.1505 6.92188 15.248 7.01936 15.248 7.13961Z" fill="#28495C"/>
<path fill-rule="evenodd" clip-rule="evenodd" d="M14.8646 6.61994C14.8601 6.62451 14.8553 6.62933 14.8502 6.63441C14.829 6.65566 14.7945 6.65566 14.7733 6.63441C14.752 6.61315 14.752 6.57868 14.7733 6.55743C14.777 6.55372 14.7808 6.5498 14.7848 6.54574C14.807 6.52308 14.8337 6.49581 14.8671 6.47494C14.9091 6.44859 14.9602 6.43262 15.0295 6.43262C15.0988 6.43262 15.1498 6.44859 15.1919 6.47494C15.2253 6.49581 15.252 6.52308 15.2742 6.54574C15.2782 6.5498 15.282 6.55372 15.2857 6.55743C15.307 6.57868 15.307 6.61315 15.2857 6.63441C15.2645 6.65566 15.23 6.65566 15.2087 6.63441C15.2037 6.62933 15.1989 6.62451 15.1944 6.61994C15.1722 6.5974 15.1557 6.58068 15.1341 6.56721C15.111 6.55273 15.0804 6.54148 15.0295 6.54148C14.9786 6.54148 14.9479 6.55273 14.9248 6.56721C14.9033 6.58068 14.8868 6.5974 14.8646 6.61994Z" fill="#28495C"/>
<path fill-rule="evenodd" clip-rule="evenodd" d="M16.9329 6.61994C16.9284 6.62451 16.9237 6.62933 16.9186 6.63441C16.8973 6.65566 16.8629 6.65566 16.8416 6.63441C16.8204 6.61315 16.8204 6.57868 16.8416 6.55743C16.8453 6.55372 16.8492 6.5498 16.8532 6.54574C16.8754 6.52308 16.9021 6.49581 16.9354 6.47494C16.9775 6.44859 17.0285 6.43262 17.0978 6.43262C17.1672 6.43262 17.2182 6.44859 17.2603 6.47494C17.2936 6.49581 17.3203 6.52308 17.3425 6.54574C17.3465 6.5498 17.3504 6.55372 17.3541 6.55743C17.3753 6.57868 17.3753 6.61315 17.3541 6.63441C17.3328 6.65566 17.2983 6.65566 17.2771 6.63441C17.272 6.62933 17.2673 6.62451 17.2628 6.61994C17.2405 6.5974 17.224 6.58068 17.2025 6.56721C17.1794 6.55273 17.1488 6.54148 17.0978 6.54148C17.0469 6.54148 17.0163 6.55273 16.9932 6.56721C16.9717 6.58068 16.9552 6.5974 16.9329 6.61994Z" fill="#28495C"/>
<path fill-rule="evenodd" clip-rule="evenodd" d="M15.574 8.93457C15.604 8.93457 15.6284 8.95894 15.6284 8.989C15.6284 9.117 15.6816 9.21032 15.7608 9.27289C15.8414 9.33659 15.9514 9.37003 16.0639 9.37003C16.1763 9.37003 16.2863 9.33659 16.3669 9.27289C16.4461 9.21032 16.4993 9.117 16.4993 8.989C16.4993 8.95894 16.5237 8.93457 16.5538 8.93457C16.5838 8.93457 16.6082 8.95894 16.6082 8.989C16.6082 9.15132 16.5389 9.27573 16.4344 9.35831C16.3313 9.43977 16.1963 9.4789 16.0639 9.4789C15.9314 9.4789 15.7964 9.43977 15.6933 9.35831C15.5888 9.27573 15.5195 9.15132 15.5195 8.989C15.5195 8.95894 15.5439 8.93457 15.574 8.93457Z" fill="#28495C"/>
<path fill-rule="evenodd" clip-rule="evenodd" d="M16.0079 12.0159C15.9994 12.0155 15.9914 12.0151 15.9838 12.0148L15.9886 11.906C15.9963 11.9063 16.0044 11.9067 16.013 11.9071C16.2658 11.9188 16.952 11.9504 18.0343 11.6931C18.0636 11.6861 18.0929 11.7042 18.0999 11.7334C18.1068 11.7627 18.0888 11.792 18.0595 11.799C16.9626 12.0598 16.2652 12.0277 16.0079 12.0159Z" fill="#28495C"/>
<path d="M18.258 5.31238C17.7288 5.00727 14.2679 4.52652 13.9413 5.77848C13.5805 5.72399 13.7731 4.90787 14.1338 4.58097C14.4946 4.25406 15.5211 4.14551 16.3112 4.14551C17.225 4.1455 19.6316 4.47208 20.3392 5.17971C20.5025 5.72404 20.6569 6.14786 20.5367 6.81984L19.3973 7.4659C19.2169 6.9937 18.7871 5.61749 18.258 5.31238Z" fill="#28495C"/>
<path d="M21.0173 7.73688C21.0173 8.24795 20.6517 8.66224 20.2008 8.66224C19.7498 8.66224 19.3843 8.24795 19.3843 7.73688C19.3843 7.22582 19.7498 6.81152 20.2008 6.81152C20.6517 6.81152 21.0173 7.22582 21.0173 7.73688Z" fill="#FBC0AE"/>
<path fill-rule="evenodd" clip-rule="evenodd" d="M20.2012 7.24877C20.2012 7.21871 20.2255 7.19434 20.2556 7.19434C20.4218 7.19434 20.5495 7.26305 20.6346 7.36748C20.7186 7.47058 20.7591 7.6058 20.7591 7.73867C20.7591 7.87153 20.7186 8.00675 20.6346 8.10985C20.5495 8.21429 20.4218 8.283 20.2556 8.283C20.2255 8.283 20.2012 8.25862 20.2012 8.22856C20.2012 8.1985 20.2255 8.17413 20.2556 8.17413C20.3888 8.17413 20.4856 8.12036 20.5502 8.04109C20.6159 7.96048 20.6502 7.85075 20.6502 7.73867C20.6502 7.62658 20.6159 7.51685 20.5502 7.43625C20.4856 7.35697 20.3888 7.3032 20.2556 7.3032C20.2255 7.3032 20.2012 7.27883 20.2012 7.24877Z" fill="#28495C"/>
<path d="M21.2095 17.4821C16.6916 16.4479 13.9155 17.2099 13.9155 17.2099L13.0446 20.6392C13.0446 24.4514 12.5547 28.2654 12.5547 32.0701C14.6231 32.0701 15.8751 31.9068 17.3992 31.3625C20.6652 30.1961 22.6792 28.0421 23.2235 27.2256L23.4957 21.619C23.4957 21.619 21.9716 18.9518 21.2095 17.4821Z" fill="#28495C"/>
<path d="M13.5947 19.2205C13.6112 16.6683 13.4947 13.2068 13.6975 12.8012L14.6773 12.6924C14.5187 12.84 14.6634 15.3521 14.6764 19.2277C14.6774 19.5259 14.4356 19.7687 14.1374 19.7687C13.8358 19.7687 13.5927 19.5221 13.5947 19.2205Z" fill="#17394D"/>
<path d="M20.2842 19.8781L20.0098 19.8519C19.5255 19.8058 19.1652 19.3838 19.1955 18.8983C20.5564 14.2171 22.0261 12.8018 22.3527 12.8018C22.6139 12.8018 23.3325 13.0013 23.6046 13.1284C22.7881 12.9651 22.1349 14.1626 21.9172 14.6525L20.2842 19.8781Z" fill="#1B3F53"/>
<circle cx="19.686" cy="19.3325" r="0.326598" fill="#40728E"/>
<path d="M18.5054 18.2822L20.0558 13.2081C20.1715 12.8293 20.2304 12.4354 20.2304 12.0392V11.3848C20.3937 11.4392 20.8182 11.5916 21.2102 11.7658C21.3584 11.8317 21.4854 11.9568 21.5899 12.1016C21.8896 12.5169 21.9797 13.0569 21.9535 13.5683C21.9127 14.363 21.7797 15.4883 21.8089 15.5761C21.8634 15.7394 21.7545 16.6648 21.9178 17.1002C22.0811 17.5357 21.5912 17.9167 21.7545 18.08C21.9178 18.2433 21.5368 18.5155 21.319 18.7332C21.1013 18.9509 21.0469 18.8421 20.8291 18.7332C20.6114 18.6244 20.6114 18.8965 20.3937 19.1142C20.1759 19.332 19.8493 19.4408 19.4683 19.1142C19.4074 19.062 19.3556 19.0242 19.31 18.9983C19.0725 18.8637 18.7381 18.9336 18.5776 18.7128C18.4872 18.5886 18.4605 18.4291 18.5054 18.2822Z" fill="#F1F1F1"/>
<path d="M19.9576 22.4907C18.7383 22.7084 15.2582 22.4726 13.9155 22.3818L14.0244 25.3212C15.4179 27.8469 18.7964 26.6639 20.0665 25.7022L19.9576 22.4907Z" stroke="#1B3F53"/>
<path d="M20.9887 16.8507C21.3822 16.094 22.3116 15.8053 23.0645 16.2061V16.2061C23.8715 16.6356 24.1376 17.6717 23.6371 18.4357L20.9239 22.5775C20.5598 23.1335 19.8356 23.3187 19.2484 23.0062V23.0062C18.6168 22.67 18.3723 21.8829 18.7024 21.2481L20.9887 16.8507Z" fill="#FBC0AE"/>
<path d="M13.9155 22.8711C14.6776 23.1251 16.8985 23.2848 19.9032 22.98" stroke="#1B3F53"/>
<path d="M20.7838 21.7767C21.0489 21.9898 21.0909 22.3803 20.8773 22.6456V22.6456C20.1501 23.5484 18.7864 23.5523 18.0527 22.6538L14.8659 18.7507L15.8315 17.7948L20.7838 21.7767Z" fill="#FBC0AE"/>
<path d="M23.0609 19.9315L24.9116 16.1212L21.8634 14.706L20.117 17.8901C19.5781 18.5591 22.976 20.269 23.0609 19.9315Z" fill="#73AA5A"/>
<path d="M10.1634 14.1153L9.94147 12.59C9.84715 11.9419 9.26599 11.4781 8.61307 11.5301C7.89039 11.5876 7.37012 12.2489 7.48433 12.9648L7.72715 14.4868C7.82506 15.1005 8.36461 15.5453 8.98571 15.5243C9.71973 15.4994 10.2692 14.8421 10.1634 14.1153Z" fill="#343434"/>
<path d="M9.13217 15.8141L9.95747 15.7862C10.0957 15.7815 10.2179 15.6948 10.2679 15.5658C10.3127 15.4501 10.2921 15.3192 10.2138 15.223L7.33469 11.6819C7.18442 11.8108 7.11175 12.0083 7.14273 12.2038L7.50151 14.4685C7.62759 15.2643 8.32692 15.8414 9.13217 15.8141Z" fill="#343434"/>
<path d="M10.0174 14.3755L9.76311 12.7745C9.66084 12.1306 9.081 11.6733 8.43096 11.7239C7.70305 11.7806 7.17829 12.4462 7.29305 13.1672L7.54786 14.7682C7.64717 15.3922 8.19644 15.844 8.82787 15.8211C9.57787 15.7939 10.1351 15.1167 10.0174 14.3755Z" fill="#5A5A5A"/>
<path d="M7.05713 15.1412C7.05713 15.2956 7.0845 15.5526 7.11983 15.8201C7.19293 16.3735 7.72743 16.735 8.27405 16.6219C8.63078 16.5481 8.918 16.284 9.02149 15.9348L9.12294 15.5924C9.22421 15.2506 9.11873 14.8811 8.8523 14.6443L8.81576 14.6118C8.51879 14.3478 8.44211 13.9144 8.63049 13.5645C8.67003 13.4911 8.73352 13.4239 8.73854 13.3407C8.74967 13.1561 8.52015 12.9263 8.25465 13.2361C7.89177 13.6595 7.05713 14.7057 7.05713 15.1412Z" fill="#FBC0AE"/>
<path d="M8.84027 13.3176L8.20993 14.0536C8.16524 14.1058 8.14191 14.1729 8.1446 14.2415C8.15464 14.4979 8.48097 14.5996 8.63493 14.3944L9.21653 13.6193C9.28301 13.5307 9.28063 13.4083 9.21077 13.3223C9.11581 13.2055 8.93821 13.2032 8.84027 13.3176Z" fill="#FBC0AE"/>
<path d="M9.12737 13.7735L8.50381 14.5153C8.45961 14.5679 8.43689 14.6352 8.44021 14.7038C8.45261 14.96 8.77986 15.0588 8.93193 14.8522L9.50639 14.0718C9.57204 13.9826 9.56854 13.8602 9.4979 13.7749C9.40187 13.6589 9.22425 13.6582 9.12737 13.7735Z" fill="#FBC0AE"/>
<path d="M9.29453 14.363L8.71495 15.112C8.67824 15.1595 8.65938 15.2183 8.66165 15.2782C8.67101 15.525 8.99007 15.6166 9.12884 15.4123L9.66102 14.6288C9.71585 14.5481 9.71282 14.4413 9.65349 14.3639C9.56311 14.2458 9.38549 14.2454 9.29453 14.363Z" fill="#FBC0AE"/>
<path d="M15.331 15.6863C15.331 14.3799 15.7664 13.0735 15.9842 12.5836V11.9304L15.8753 11.876C15.712 12.0393 15.331 12.1481 15.1132 12.3114C14.8378 12.518 14.3512 13.2368 14.2967 13.4001C14.2423 13.5634 13.8068 14.1622 13.5347 15.0875C13.2625 16.0129 13.0448 16.8838 12.9904 17.0471C12.9468 17.1777 12.9722 17.4644 12.9904 17.5914L13.5347 17.6459C13.6073 17.5914 13.796 17.4826 13.9701 17.4826C14.1879 17.4826 14.1879 17.5914 14.2967 17.6459C14.4056 17.7003 14.6778 17.7003 15.0588 17.8636C15.3636 17.9942 15.3673 17.8092 15.331 17.7003V15.6863Z" fill="#F1F1F1"/>
<path d="M14.9114 16.7741C14.9785 16.8324 15.0652 16.9198 15.1608 17.0221C15.6895 17.5875 15.635 18.4755 15.0894 19.0226L14.4402 18.7389C14.0872 18.5847 13.829 18.2683 13.7466 17.8889C13.645 17.4213 13.2793 17.0582 12.8146 16.9635L12.7366 16.9477C12.619 16.9237 12.4808 16.9306 12.3979 16.8429C12.2794 16.7175 12.2819 16.4629 12.6788 16.4332C13.2368 16.3913 14.5802 16.486 14.9114 16.7741Z" fill="#FBC0AE"/>
<circle cx="14.1328" cy="19.2241" r="0.326598" fill="#40728E"/>
</svg>
