<svg width="48" height="48" viewBox="0 0 48 48" fill="none" xmlns="http://www.w3.org/2000/svg">
<g clip-path="url(#clip0_1286_768)">
<rect width="48" height="48" rx="13" fill="white"/>
<rect width="48" height="48" fill="url(#paint0_linear_1286_768)"/>
<circle cx="24.2488" cy="26.1956" r="16.2913" fill="#45F697"/>
<path d="M23.6939 18.9661C22.054 17.0442 38.0203 17.0722 38.0203 18.9662C38.4407 25.9826 36.6973 31.8138 36.6973 33.5124C36.6973 35.211 24.9217 35.0813 24.3331 33.5124C23.7446 31.9434 24.6644 31.2719 23.6939 18.9661Z" fill="#73AA5A"/>
<ellipse cx="25.5232" cy="22.1098" rx="4.04807" ry="4.18007" fill="#73AA5A"/>
<ellipse cx="36.6291" cy="21.158" rx="2.76312" ry="2.88325" transform="rotate(31.7665 36.6291 21.158)" fill="#73AA5A"/>
<path d="M21.152 24.2722C21.379 23.3209 22.3341 22.7338 23.2854 22.9608V22.9608C24.3226 23.2082 24.9075 24.3097 24.5314 25.3076L23.1565 28.956C22.8857 29.6744 22.123 30.0794 21.3762 29.9012V29.9012C20.5573 29.7058 20.0518 28.8835 20.2472 28.0646L21.152 24.2722Z" fill="#FBC0AE"/>
<path d="M22.5793 28.8636C22.7825 29.19 22.6744 29.6198 22.3409 29.8112V29.8112C21.3038 30.4063 19.9795 29.9843 19.4781 28.8988L16.6923 22.8683L18.2868 21.9671L22.5793 28.8636Z" fill="#FBC0AE"/>
<path d="M21.0233 24.3133L21.6085 20.9648L25.5663 23.0153L24.8657 25.3915C22.3056 25.6872 21.3938 24.8432 21.0233 24.3133Z" fill="#73AA5A"/>
<path d="M23.9022 11.4988C23.9022 12.1497 24.3678 12.6774 24.9421 12.6774C25.5164 12.6774 25.9819 12.1497 25.9819 11.4988C25.9819 10.848 25.5164 10.3203 24.9421 10.3203C24.3678 10.3203 23.9022 10.848 23.9022 11.4988Z" fill="#E8AB98"/>
<path fill-rule="evenodd" clip-rule="evenodd" d="M24.9419 10.873C24.9419 10.8347 24.9109 10.8037 24.8726 10.8037C24.6609 10.8037 24.4983 10.8912 24.3899 11.0242C24.2829 11.1555 24.2313 11.3277 24.2313 11.497C24.2313 11.6662 24.2829 11.8384 24.3899 11.9697C24.4983 12.1027 24.6609 12.1902 24.8726 12.1902C24.9109 12.1902 24.9419 12.1592 24.9419 12.1209C24.9419 12.0826 24.9109 12.0516 24.8726 12.0516C24.7029 12.0516 24.5796 11.9831 24.4974 11.8821C24.4137 11.7795 24.37 11.6397 24.37 11.497C24.37 11.3542 24.4137 11.2145 24.4974 11.1118C24.5796 11.0108 24.7029 10.9424 24.8726 10.9424C24.9109 10.9424 24.9419 10.9113 24.9419 10.873Z" fill="#28495C"/>
<path d="M25.2697 6.27291C25.8599 3.91305 28.2652 2.41947 30.6421 2.93691L30.9425 3.00231C33.3194 3.51975 34.7678 5.85227 34.1776 8.21213C31.1335 7.90585 28.1447 7.2552 25.2697 6.27291Z" fill="#FFB762"/>
<path d="M34.23 6.50639C30.6945 5.18924 27.3669 4.91193 25.7031 5.18923L25.4258 5.74382L34.2993 7.13032L34.23 6.50639Z" fill="#73AA5A"/>
<path d="M38.5124 9.72452C38.268 10.9693 34.0913 11.2985 29.1833 10.4598C24.2754 9.62118 20.4948 7.93223 20.7392 6.68745C20.9835 5.44268 25.1603 5.11346 30.0682 5.95213C34.9762 6.79079 38.7568 8.47974 38.5124 9.72452Z" fill="#FFB762"/>
<path d="M27.8158 15.3823L33.2231 12.124V17.8086C33.2231 17.8086 27.5065 23.1466 27.8158 17.8086C27.8158 16.9767 27.8158 15.3823 27.8158 15.3823Z" fill="#FBC0AE"/>
<path d="M24.7656 10.599C24.7656 8.6847 26.3175 7.13281 28.2319 7.13281H29.8956C31.81 7.13281 33.3619 8.6847 33.3619 10.599V13.372C33.3619 15.2864 31.81 16.8383 29.8956 16.8383H28.2319C26.3175 16.8383 24.7656 15.2864 24.7656 13.372V10.599Z" fill="#FBC0AE"/>
<path fill-rule="evenodd" clip-rule="evenodd" d="M27.8158 11.3594C27.8541 11.3594 27.8852 11.3904 27.8852 11.4287V11.6644C27.8852 11.7829 27.789 11.8613 27.6998 11.8891C27.5564 11.9338 27.4692 12.0678 27.4692 12.2398C27.4692 12.346 27.5029 12.4378 27.5609 12.5022C27.6181 12.5658 27.703 12.6072 27.8158 12.6072C27.8541 12.6072 27.8852 12.6383 27.8852 12.6765C27.8852 12.7148 27.8541 12.7459 27.8158 12.7459C27.6662 12.7459 27.543 12.6895 27.4579 12.595C27.3736 12.5014 27.3306 12.3748 27.3306 12.2398C27.3306 12.0205 27.4454 11.8232 27.6585 11.7568C27.7155 11.739 27.7465 11.699 27.7465 11.6644V11.4287C27.7465 11.3904 27.7776 11.3594 27.8158 11.3594Z" fill="#28495C"/>
<path d="M29.4799 10.7373C29.4799 10.8904 29.3557 11.0146 29.2026 11.0146C29.0494 11.0146 28.9253 10.8904 28.9253 10.7373C28.9253 10.5841 29.0494 10.46 29.2026 10.46C29.3557 10.46 29.4799 10.5841 29.4799 10.7373Z" fill="#28495C"/>
<path d="M26.8456 10.7373C26.8456 10.8904 26.7215 11.0146 26.5683 11.0146C26.4152 11.0146 26.291 10.8904 26.291 10.7373C26.291 10.5841 26.4152 10.46 26.5683 10.46C26.7215 10.46 26.8456 10.5841 26.8456 10.7373Z" fill="#28495C"/>
<path fill-rule="evenodd" clip-rule="evenodd" d="M26.3583 10.0735C26.3525 10.0794 26.3465 10.0855 26.34 10.092C26.313 10.119 26.2691 10.119 26.242 10.092C26.2149 10.0649 26.2149 10.021 26.242 9.99391C26.2467 9.9892 26.2516 9.98421 26.2567 9.97903C26.2849 9.95018 26.319 9.91544 26.3614 9.88886C26.415 9.8553 26.48 9.83496 26.5683 9.83496C26.6566 9.83496 26.7216 9.8553 26.7752 9.88886C26.8176 9.91544 26.8517 9.95018 26.8799 9.97903C26.885 9.98421 26.8899 9.9892 26.8946 9.99391C26.9217 10.021 26.9217 10.0649 26.8946 10.092C26.8675 10.119 26.8237 10.119 26.7966 10.092C26.7901 10.0855 26.7841 10.0794 26.7783 10.0735C26.75 10.0448 26.729 10.0235 26.7016 10.0064C26.6721 9.98793 26.6332 9.97361 26.5683 9.97361C26.5035 9.97361 26.4645 9.98793 26.435 10.0064C26.4076 10.0235 26.3866 10.0448 26.3583 10.0735Z" fill="#28495C"/>
<path fill-rule="evenodd" clip-rule="evenodd" d="M28.9935 10.0735C28.9878 10.0794 28.9817 10.0855 28.9753 10.092C28.9482 10.119 28.9043 10.119 28.8772 10.092C28.8502 10.0649 28.8502 10.021 28.8772 9.99391C28.882 9.9892 28.8868 9.98421 28.8919 9.97903C28.9202 9.95018 28.9542 9.91544 28.9967 9.88886C29.0503 9.8553 29.1153 9.83496 29.2036 9.83496C29.2919 9.83496 29.3568 9.8553 29.4104 9.88886C29.4529 9.91544 29.4869 9.95018 29.5152 9.97903C29.5203 9.98421 29.5252 9.9892 29.5299 9.99391C29.5569 10.021 29.5569 10.0649 29.5299 10.092C29.5028 10.119 29.4589 10.119 29.4318 10.092C29.4254 10.0855 29.4193 10.0794 29.4136 10.0735C29.3853 10.0448 29.3642 10.0235 29.3368 10.0064C29.3074 9.98793 29.2684 9.97361 29.2036 9.97361C29.1387 9.97361 29.0997 9.98793 29.0703 10.0064C29.0429 10.0235 29.0219 10.0448 28.9935 10.0735Z" fill="#28495C"/>
<path fill-rule="evenodd" clip-rule="evenodd" d="M27.2617 13.0234C27.3 13.0234 27.331 13.0545 27.331 13.0928C27.331 13.2558 27.3988 13.3746 27.4997 13.4543C27.6023 13.5354 27.7424 13.578 27.8856 13.578C28.0289 13.578 28.1689 13.5354 28.2716 13.4543C28.3725 13.3746 28.4402 13.2558 28.4402 13.0928C28.4402 13.0545 28.4713 13.0234 28.5096 13.0234C28.5478 13.0234 28.5789 13.0545 28.5789 13.0928C28.5789 13.2995 28.4907 13.4579 28.3576 13.5631C28.2263 13.6669 28.0543 13.7167 27.8856 13.7167C27.7169 13.7167 27.545 13.6669 27.4137 13.5631C27.2806 13.4579 27.1924 13.2995 27.1924 13.0928C27.1924 13.0545 27.2234 13.0234 27.2617 13.0234Z" fill="#28495C"/>
<path fill-rule="evenodd" clip-rule="evenodd" d="M27.8135 16.9457C27.8027 16.9452 27.7924 16.9447 27.7828 16.9443L27.789 16.8058C27.7987 16.8062 27.809 16.8067 27.82 16.8072C28.142 16.822 29.0159 16.8623 30.3943 16.5346C30.4316 16.5257 30.4689 16.5488 30.4778 16.586C30.4867 16.6233 30.4636 16.6606 30.4264 16.6695C29.0294 17.0016 28.1411 16.9608 27.8135 16.9457Z" fill="#28495C"/>
<path d="M30.6796 8.40895C30.0058 8.02037 25.5979 7.4081 25.182 9.00257C24.7225 8.93318 24.9678 7.89378 25.4272 7.47744C25.8867 7.0611 27.194 6.92285 28.2002 6.92285C29.364 6.92285 32.429 7.33877 33.3303 8.23999C33.5382 8.93324 33.7349 9.47301 33.5818 10.3288L32.1307 11.1516C31.901 10.5502 31.3535 8.79754 30.6796 8.40895Z" fill="#28495C"/>
<path d="M34.193 11.4988C34.193 12.1497 33.7275 12.6774 33.1532 12.6774C32.5788 12.6774 32.1133 12.1497 32.1133 11.4988C32.1133 10.848 32.5788 10.3203 33.1532 10.3203C33.7275 10.3203 34.193 10.848 34.193 11.4988Z" fill="#FBC0AE"/>
<path fill-rule="evenodd" clip-rule="evenodd" d="M33.1543 10.873C33.1543 10.8347 33.1853 10.8037 33.2236 10.8037C33.4353 10.8037 33.5979 10.8912 33.7063 11.0242C33.8133 11.1555 33.8649 11.3277 33.8649 11.497C33.8649 11.6662 33.8133 11.8384 33.7063 11.9697C33.5979 12.1027 33.4353 12.1902 33.2236 12.1902C33.1853 12.1902 33.1543 12.1592 33.1543 12.1209C33.1543 12.0826 33.1853 12.0516 33.2236 12.0516C33.3932 12.0516 33.5166 11.9831 33.5988 11.8821C33.6825 11.7795 33.7262 11.6397 33.7262 11.497C33.7262 11.3542 33.6825 11.2145 33.5988 11.1118C33.5166 11.0108 33.3932 10.9424 33.2236 10.9424C33.1853 10.9424 33.1543 10.9113 33.1543 10.873Z" fill="#28495C"/>
<path d="M34.4391 23.9069C28.6852 22.5897 25.1496 23.5603 25.1496 23.5603L24.0404 27.9277C24.0404 32.7828 23.4165 37.6403 23.4165 42.4859C26.0508 42.4859 27.6453 42.2779 29.5864 41.5847C33.7459 40.0992 36.3109 37.3559 37.0041 36.316L37.3508 29.1756C37.3508 29.1756 35.4097 25.7787 34.4391 23.9069Z" fill="#28495C"/>
<path d="M24.7409 26.1216C24.7619 22.8713 24.6136 18.4628 24.8718 17.9463L26.1197 17.8076C25.9177 17.9956 26.102 21.195 26.1185 26.1308C26.1198 26.5106 25.8118 26.8198 25.432 26.8198C25.0479 26.8198 24.7384 26.5057 24.7409 26.1216Z" fill="#17394D"/>
<path d="M33.26 26.9576L32.9105 26.9243C32.2938 26.8655 31.8349 26.328 31.8735 25.7097C33.6066 19.7478 35.4784 17.9453 35.8944 17.9453C36.2271 17.9453 37.1422 18.1995 37.4888 18.3613C36.449 18.1533 35.6171 19.6784 35.3398 20.3024L33.26 26.9576Z" fill="#1B3F53"/>
<circle cx="32.498" cy="26.2646" r="0.415948" fill="#40728E"/>
<path d="M30.9941 24.9269L33.0164 18.3084C33.1322 17.9296 33.191 17.5357 33.191 17.1396V16.1426C33.399 16.2119 33.9397 16.406 34.4389 16.6279C34.6864 16.7379 34.8873 16.9774 35.0382 17.2332C35.2985 17.6743 35.4129 18.2003 35.3948 18.7121C35.359 19.7224 35.1615 21.3607 35.2014 21.4806C35.2708 21.6885 35.1321 22.8671 35.3401 23.4217C35.5481 23.9763 34.9241 24.4615 35.1321 24.6695C35.3401 24.8775 34.8548 25.2241 34.5775 25.5014C34.3002 25.7787 34.2309 25.6401 33.9536 25.5014C33.6763 25.3628 33.6763 25.7094 33.399 25.9867C33.1217 26.264 32.7058 26.4026 32.2205 25.9867C32.1429 25.9202 32.0769 25.8719 32.0188 25.839C31.7164 25.6675 31.2905 25.7565 31.0861 25.4754C30.971 25.3172 30.9369 25.1141 30.9941 24.9269Z" fill="#F1F1F1"/>
<path d="M32.8449 30.2842C31.2921 30.5615 26.8599 30.261 25.1499 30.1455L25.2886 33.889C27.0633 37.1057 31.366 35.599 32.9836 34.3743L32.8449 30.2842Z" stroke="#1B3F53" stroke-width="0.3"/>
<path d="M34.1581 23.1055C34.6592 22.1417 35.8428 21.7741 36.8017 22.2845V22.2845C37.8295 22.8315 38.1684 24.1511 37.531 25.124L34.0756 30.399C33.6118 31.107 32.6894 31.343 31.9416 30.9449V30.9449C31.1372 30.5168 30.8259 29.5143 31.2462 28.7059L34.1581 23.1055Z" fill="#FBC0AE"/>
<path d="M25.1499 30.7705C26.1204 31.094 28.9489 31.2974 32.7756 30.9092" stroke="#1B3F53" stroke-width="0.3"/>
<path d="M33.8958 29.3778C34.2334 29.6492 34.2869 30.1466 34.0148 30.4844V30.4844C33.0887 31.6342 31.3519 31.6393 30.4175 30.4949L26.3588 25.524L27.5886 24.3066L33.8958 29.3778Z" fill="#FBC0AE"/>
<path d="M36.796 27.0302L39.153 22.1775L35.2709 20.3751L33.0467 24.4303C32.3604 25.2823 36.6879 27.46 36.796 27.0302Z" fill="#73AA5A"/>
<path d="M19.7817 16.2179L16.7973 16.4553C16.7392 16.4599 16.6973 16.5131 16.7065 16.5707L17.4729 21.3747C17.4808 21.4245 17.5246 21.4606 17.575 21.4589L20.5121 21.3594C20.5717 21.3574 20.6163 21.304 20.6077 21.2451L19.8886 16.3032C19.881 16.251 19.8342 16.2137 19.7817 16.2179Z" fill="#343434"/>
<path d="M19.0289 21.7865L20.1092 21.75C20.2853 21.744 20.4408 21.6336 20.5045 21.4693C20.5617 21.322 20.5354 21.1553 20.4357 21.0327L16.7689 16.5229C16.5775 16.687 16.485 16.9386 16.5244 17.1876L16.9859 20.1006C17.1439 21.0977 18.0201 21.8207 19.0289 21.7865Z" fill="#343434"/>
<path d="M19.5392 16.469L16.5528 16.7015C16.4946 16.7061 16.4527 16.7593 16.4619 16.817L17.2482 21.7577C17.2562 21.8076 17.3001 21.8438 17.3506 21.8419L20.3549 21.733C20.4149 21.7309 20.4594 21.6767 20.45 21.6174L19.6457 16.553C19.6375 16.5015 19.5912 16.465 19.5392 16.469Z" fill="#5A5A5A"/>
<path d="M16.4146 20.9257C16.4146 21.1223 16.4494 21.4497 16.4944 21.7903C16.5875 22.4951 17.2682 22.9555 17.9644 22.8115C18.4187 22.7175 18.7845 22.3812 18.9163 21.9364L19.0455 21.5003C19.1745 21.065 19.0402 20.5944 18.7008 20.2928L18.6543 20.2514C18.2761 19.9153 18.1784 19.3632 18.4183 18.9177C18.4687 18.8242 18.5496 18.7386 18.556 18.6326C18.5701 18.3975 18.2778 18.1048 17.9397 18.4994C17.4775 19.0386 16.4146 20.3711 16.4146 20.9257Z" fill="#FBC0AE"/>
<path d="M18.6851 18.6035L17.8823 19.5409C17.8254 19.6073 17.7957 19.6928 17.7991 19.7802C17.8119 20.1067 18.2275 20.2363 18.4236 19.975L19.1643 18.9878C19.2489 18.875 19.2459 18.719 19.157 18.6095C19.036 18.4607 18.8098 18.4578 18.6851 18.6035Z" fill="#FBC0AE"/>
<path d="M19.0516 19.185L18.2574 20.1297C18.2012 20.1967 18.1722 20.2825 18.1764 20.3698C18.1922 20.6962 18.609 20.822 18.8027 20.5588L19.5343 19.5649C19.6179 19.4513 19.6135 19.2954 19.5235 19.1867C19.4012 19.0391 19.175 19.0382 19.0516 19.185Z" fill="#FBC0AE"/>
<path d="M19.2636 19.936L18.5255 20.89C18.4787 20.9504 18.4547 21.0254 18.4576 21.1017C18.4695 21.416 18.8758 21.5326 19.0526 21.2724L19.7303 20.2746C19.8002 20.1718 19.7963 20.0358 19.7208 19.9372C19.6057 19.7869 19.3794 19.7863 19.2636 19.936Z" fill="#FBC0AE"/>
<path d="M26.952 21.6203C26.952 19.9565 27.5066 18.2927 27.7839 17.6688V16.8369L27.6452 16.7676C27.4373 16.9756 26.952 17.1142 26.6747 17.3222C26.3239 17.5852 25.7041 18.5007 25.6348 18.7087C25.5655 18.9166 25.0109 19.6792 24.6643 20.8577C24.3177 22.0363 24.0404 23.1454 23.9711 23.3534C23.9156 23.5198 23.9479 23.8849 23.9711 24.0467L24.6643 24.116C24.7567 24.0467 24.9971 23.908 25.2189 23.908C25.4962 23.908 25.4962 24.0467 25.6348 24.116C25.7735 24.1853 26.1201 24.1853 26.6054 24.3933C26.9936 24.5597 26.9982 24.324 26.952 24.1853V21.6203Z" fill="#F1F1F1"/>
<path d="M26.4174 23.0067C26.5029 23.0811 26.6133 23.1924 26.7351 23.3227C27.4084 24.0427 27.339 25.1737 26.6442 25.8704L25.8173 25.5091C25.3678 25.3127 25.039 24.9098 24.934 24.4266C24.8046 23.8311 24.3388 23.3686 23.747 23.248L23.6477 23.2278C23.4979 23.1973 23.3219 23.2061 23.2163 23.0944C23.0654 22.9348 23.0686 22.6105 23.5741 22.5726C24.2848 22.5193 25.9957 22.6398 26.4174 23.0067Z" fill="#FBC0AE"/>
<circle cx="25.4272" cy="26.1259" r="0.415948" fill="#40728E"/>
</g>
<defs>
<linearGradient id="paint0_linear_1286_768" x1="24" y1="0" x2="24" y2="48" gradientUnits="userSpaceOnUse">
<stop stop-color="#C1FFCF"/>
<stop offset="0.695" stop-color="#D8FFE0" stop-opacity="0.64"/>
<stop offset="1" stop-color="white" stop-opacity="0"/>
</linearGradient>
<clipPath id="clip0_1286_768">
<rect width="48" height="48" rx="13" fill="white"/>
</clipPath>
</defs>
</svg>
