<svg width="146" height="174" viewBox="0 0 146 174" fill="none" xmlns="http://www.w3.org/2000/svg">
<path d="M82.12 46.8229C82.12 48.2029 83.1 49.0029 84.44 49.0029C85.8 49.0029 86.78 48.2029 86.78 46.8229C86.78 45.4629 85.8 44.6629 84.44 44.6629C83.1 44.6629 82.12 45.4629 82.12 46.8229ZM92.12 47.8829H89.18C88.68 49.8629 86.8 51.1829 84.44 51.1829C81.68 51.1829 79.6 49.3629 79.6 46.8229C79.6 44.3029 81.68 42.4829 84.44 42.4829C86.8 42.4829 88.66 43.7829 89.16 45.7429H92.12V41.8029H94.76V51.5429H92.12V47.8829ZM85.68 58.0429V56.3029H83.82V58.0429H85.68ZM93.56 52.4429V53.8229C93.56 55.7229 94.44 57.4629 96.68 58.2429L95.38 60.2029C93.84 59.6429 92.82 58.6029 92.22 57.3229C91.62 58.5829 90.62 59.6229 89.14 60.2029L88.1 58.6229V60.0029H81.38V52.6029H83.82V54.4029H85.68V52.6029H88.1V58.1229C90.12 57.1829 90.96 55.4829 90.96 53.8229V52.4429H93.56ZM102.798 53.8429C104.158 53.8429 105.058 52.3829 105.058 49.6429C105.058 46.9229 104.158 45.4629 102.798 45.4629C101.458 45.4629 100.558 46.9229 100.558 49.6429C100.558 52.3829 101.458 53.8429 102.798 53.8429ZM110.578 41.7829H113.218V60.2629H110.578V50.5629H107.518C107.238 54.0829 105.358 56.2429 102.798 56.2429C100.058 56.2429 98.0384 53.7029 98.0384 49.6429C98.0384 45.6029 100.058 43.0829 102.798 43.0829C105.278 43.0829 107.138 45.1029 107.498 48.4229H110.578V41.7829ZM122.457 52.4229V55.9429H126.517V52.4229C125.877 52.5429 125.197 52.6029 124.477 52.6029C123.757 52.6029 123.097 52.5429 122.457 52.4229ZM124.477 44.7829C121.917 44.7829 120.217 45.8229 120.217 47.6629C120.217 49.4829 121.917 50.5429 124.477 50.5429C127.037 50.5429 128.757 49.4829 128.757 47.6629C128.757 45.8229 127.037 44.7829 124.477 44.7829ZM129.137 55.9429H132.837V58.0829H116.157V55.9429H119.837V51.4429C118.437 50.5829 117.597 49.2629 117.617 47.6629C117.617 44.6429 120.517 42.7029 124.477 42.7029C128.457 42.7029 131.357 44.6429 131.357 47.6629C131.357 49.2629 130.517 50.5829 129.137 51.4429V55.9429ZM134.835 57.1029C134.835 56.4896 135.002 56.0629 135.335 55.8229C135.669 55.5696 136.075 55.4429 136.555 55.4429C137.022 55.4429 137.422 55.5696 137.755 55.8229C138.089 56.0629 138.255 56.4896 138.255 57.1029C138.255 57.6896 138.089 58.1163 137.755 58.3829C137.422 58.6363 137.022 58.7629 136.555 58.7629C136.075 58.7629 135.669 58.6363 135.335 58.3829C135.002 58.1163 134.835 57.6896 134.835 57.1029ZM140.538 57.1029C140.538 56.4896 140.705 56.0629 141.038 55.8229C141.372 55.5696 141.778 55.4429 142.258 55.4429C142.725 55.4429 143.125 55.5696 143.458 55.8229C143.792 56.0629 143.958 56.4896 143.958 57.1029C143.958 57.6896 143.792 58.1163 143.458 58.3829C143.125 58.6363 142.725 58.7629 142.258 58.7629C141.778 58.7629 141.372 58.6363 141.038 58.3829C140.705 58.1163 140.538 57.6896 140.538 57.1029Z" fill="#282828"/>
<path d="M78.2229 87.8261C85.8065 75.5771 11.9719 75.7552 11.9719 87.8264C10.0278 132.544 18.0903 145.055 18.0903 155.881C18.0903 166.707 72.545 165.88 75.2668 155.881C77.9886 145.881 73.7348 166.255 78.2229 87.8261Z" fill="#929292"/>
<ellipse cx="16.1215" cy="17.5246" rx="16.1215" ry="17.5246" transform="matrix(-1 0 0 1 84.8672 81.4014)" fill="#929292"/>
<ellipse cx="13.792" cy="14.6236" rx="13.792" ry="14.6236" transform="matrix(-0.86498 0.501807 0.478861 0.877891 24.3594 77.4971)" fill="#929292"/>
<path d="M89.8178 122.095C88.4579 116.217 82.6061 112.621 76.7475 114.062C70.3735 115.631 66.7342 122.445 68.9834 128.6L77.6318 152.267C79.2533 156.704 83.923 159.188 88.5184 158.057C93.5448 156.82 96.6738 151.729 95.507 146.686L89.8178 122.095Z" fill="#FBC0AE"/>
<path d="M81.0763 151.537C79.8455 153.576 80.5267 156.276 82.5784 157.49C88.9557 161.265 97.0507 158.681 100.087 151.903L117.302 113.471L107.5 107.757L81.0763 151.537Z" fill="#FBC0AE"/>
<path d="M90.6736 122.64L84.6094 93.9227L62.7445 114.411L67.0515 129.477C82.7905 131.351 88.3957 126 90.6736 122.64Z" fill="#929292"/>
<path d="M21.5552 119.934C53.3681 111.583 72.9157 117.737 72.9157 117.737L76.9062 145.774C76.9062 158.503 78.7695 148.925 78.7695 165.925C65 170.998 62 173.498 48 173.498C23.1489 173.498 15.5023 167.373 11.6694 160.781L13.5339 146.417C13.5339 146.417 16.1892 131.801 21.5552 119.934Z" fill="#414141"/>
<path d="M69.9112 133.06C69.7635 111.95 70.711 82.9773 69.0943 79.6048L61.3404 78.7061C62.6017 79.9306 61.4393 100.861 61.3462 133.115C61.3398 135.324 63.1312 137.121 65.3404 137.121H65.8935C68.1268 137.121 69.9268 135.293 69.9112 133.06Z" fill="#6D6D6D"/>
<path d="M38.5141 135.177L38.2732 131.094C32.6737 91.4218 31.5304 80.5039 29.0678 80.5039C27.0978 80.5039 23.3071 81.4161 21.255 82.4306C23.058 83.0728 24.8609 92.064 25.4619 95.2752L30.0646 138.919L35.8205 138.338C37.4207 138.177 38.6088 136.782 38.5141 135.177Z" fill="#6D6D6D"/>
<ellipse cx="2.61429" cy="2.69609" rx="2.61429" ry="2.69609" transform="matrix(-1 0 0 1 36.8086 130.627)" fill="#5A5858"/>
<path d="M27.8381 113.057C27.1175 108.453 22.8536 105.346 18.2518 106.073C13.5276 106.819 10.2597 111.311 11.0026 116.037L15.494 144.61C16.2633 149.504 20.2655 153.175 25.1869 153.499C29.8053 153.804 33.5666 149.667 32.8478 145.073L27.8381 113.057Z" fill="#FBC0AE"/>
<path d="M70.0547 152.399C64.9529 154.057 50.0847 155.098 29.9689 153.11" stroke="#6D6D6D"/>
<path d="M19.7242 141.05C17.9244 140.794 16.2477 142.037 15.9666 143.834C15.0013 150.004 19.894 155.497 26.1351 155.251L59.1974 153.947L59.3773 146.67L19.7242 141.05Z" fill="#FBC0AE"/>
<path d="M64.6935 145.34C62.9511 145.142 58.8912 145.306 56.5231 145.428C55.4981 145.481 54.6876 146.31 54.6461 147.335L54.3887 153.69L60.9903 156.681C61.2742 156.809 61.5845 156.869 61.8964 156.857L69.9229 156.529L73.3716 156.258C74.7508 156.148 76.259 155.912 74.3078 153.373C72.2885 150.745 67.2283 145.628 64.6935 145.34Z" fill="#FBC0AE"/>
<path d="M10.6672 127.394L5.98549 98.5972L24.6577 96.1472L30.443 118.828C33.0454 123.947 10.7833 129.732 10.6672 127.394Z" fill="#929292"/>
<path d="M99.5901 71.4593L115.798 72.7896C116.961 72.8851 117.804 73.9546 117.626 75.1086L113.166 103.938C113.012 104.933 112.144 105.652 111.139 105.617L95.2138 105.059C94.0212 105.018 93.122 103.944 93.2889 102.761L97.4659 73.1583C97.613 72.1161 98.5417 71.3733 99.5901 71.4593Z" fill="#343434"/>
<path d="M94.0382 105.05L93.6974 104.144C93.45 103.486 93.5627 102.749 93.9946 102.201L116.833 73.2339L117.899 74.1766C118.414 74.632 118.663 75.3179 118.559 75.9946L114.066 105.243C113.913 106.239 113.044 106.959 112.039 106.924L95.8538 106.358C95.0427 106.33 94.3252 105.813 94.0382 105.05Z" fill="#343434"/>
<path d="M101.068 73.0021L116.658 74.2541C117.823 74.3476 118.668 75.4175 118.489 76.5726L114.065 105.241C113.911 106.237 113.04 106.957 112.033 106.919L96.3497 106.333C95.1489 106.288 94.2501 105.199 94.4332 104.01L98.9505 74.6764C99.1091 73.6471 100.03 72.9188 101.068 73.0021Z" fill="#5A5A5A"/>
<path d="M118.855 101.29C118.855 103.754 117.988 109.516 117.492 112.608C117.313 113.727 116.233 114.461 115.124 114.228L106.001 112.314C105.278 112.162 104.698 111.626 104.491 110.917L101.779 101.633C101.564 100.896 101.789 100.101 102.36 99.587L107.919 94.5752C108.601 93.961 108.777 92.962 108.347 92.1518L106.24 88.184C106.149 88.0129 106.024 87.8613 105.924 87.6956C105.061 86.2741 107.093 83.3485 109.504 86.2016C112.337 89.5552 118.855 97.8411 118.855 101.29Z" fill="#FBC0AE"/>
<path d="M105.068 86.4642L110.003 92.4071C110.34 92.8121 110.515 93.3282 110.495 93.857C110.417 95.9017 107.806 96.7167 106.608 95.0702L102.062 88.822C101.561 88.1332 101.582 87.1905 102.113 86.5164C102.866 85.5619 104.298 85.5366 105.068 86.4642Z" fill="#FBC0AE"/>
<path d="M102.819 90.1458L107.701 96.1352C108.033 96.5433 108.204 97.061 108.179 97.5894C108.083 99.6332 105.465 100.423 104.282 98.7656L99.7915 92.4747C99.2967 91.7813 99.3259 90.839 99.8632 90.1701C100.624 89.2228 102.057 89.211 102.819 90.1458Z" fill="#FBC0AE"/>
<path d="M101.504 94.9016L106.043 100.95C106.318 101.318 106.459 101.769 106.442 102.23C106.37 104.196 103.822 104.927 102.745 103.291L98.5841 96.9745C98.1718 96.3486 98.1968 95.5281 98.6467 94.9222C99.3605 93.961 100.791 93.9507 101.504 94.9016Z" fill="#FBC0AE"/>
<ellipse cx="2.61429" cy="2.69609" rx="2.61429" ry="2.69609" transform="matrix(-1 0 0 1 68.1836 129.033)" fill="#5A5858"/>
<ellipse cx="11.3449" cy="18.2186" rx="11.3449" ry="18.2186" transform="matrix(-0.863467 -0.504405 -0.481416 0.876492 48.082 35.5986)" fill="#282828"/>
<path d="M56.0742 68.6063L34.2839 51.8682V81.0709C34.2839 81.0709 55.2506 99.078 56.0742 81.0709C56.0742 76.7974 56.0742 68.6063 56.0742 68.6063Z" fill="#FBC0AE"/>
<rect width="43.5807" height="46.4425" rx="21.7903" transform="matrix(-1 0 0 1 75.6836 27.8975)" fill="#FBC0AE"/>
<path d="M59.0944 57.8598C60.4698 57.8598 61.2734 56.8034 61.2734 55.5002C61.2734 54.5429 60.8397 53.7188 60.0643 53.3487C59.5658 53.1109 59.0944 52.6929 59.0944 52.1407V51.1182" stroke="#282828" stroke-linecap="round"/>
<g filter="url(#filter0_f_1912_4973)">
<ellipse cx="2.90538" cy="1.49814" rx="2.90538" ry="1.49814" transform="matrix(-1 0 0 1 52.4414 51.8682)" fill="#FF6C6C"/>
</g>
<g filter="url(#filter1_f_1912_4973)">
<ellipse cx="2.54221" cy="1.49814" rx="2.54221" ry="1.49814" transform="matrix(-1 0 0 1 71.3281 51.8682)" fill="#FF6C6C"/>
</g>
<path d="M64.5 48.0029L66.5 50.0029" stroke="#2A2929" stroke-linecap="round"/>
<path d="M66.5 48.0029L64.5 50.0029" stroke="#2A2929" stroke-linecap="round"/>
<path d="M51.5 48.0029L53.5 50.0029" stroke="#2A2929" stroke-linecap="round"/>
<path d="M53.5 48.0029L51.5 50.0029" stroke="#2A2929" stroke-linecap="round"/>
<path d="M64.9032 43.626C65.2664 43.2515 65.5536 42.877 66.3559 42.877C67.1582 42.877 67.4454 43.2515 67.8086 43.626" stroke="#282828" stroke-linecap="round"/>
<path d="M50.3759 43.626C50.739 43.2515 51.0263 42.877 51.8286 42.877C52.6309 42.877 52.9181 43.2515 53.2812 43.626" stroke="#282828" stroke-linecap="round"/>
<path d="M62 60.1084C62 64.1034 55.4629 64.1034 55.4629 60.1084" stroke="#282828" stroke-linecap="round"/>
<path d="M48.8636 24.4617C30.6539 27.1484 31.0419 39.6137 30.6539 45.7273C39.5694 47.1615 58.2979 46.6089 68.4238 44.7516C68.7975 44.683 67.6975 40.2571 67.6975 39.8826C68.2613 40.4305 69.1502 42.1298 69.5134 44.5381C73.1829 43.6743 75.3597 42.55 74.9 41.1796C73.1451 29.7702 67.0733 21.7751 48.8636 24.4617Z" fill="#282828"/>
<path d="M42.2587 72.0935C42.0448 71.9165 42.0119 71.6004 42.1852 71.3873C42.3586 71.1743 42.6725 71.145 42.8864 71.322L42.2587 72.0935ZM56.0825 75.0659C55.3497 75.0691 53.0082 75.2711 50.3501 75.0105C47.6883 74.7495 44.5862 74.0193 42.2587 72.0935L42.8864 71.322C44.983 73.0568 47.8451 73.7583 50.4348 74.0123C53.0281 74.2665 55.2254 74.0666 56.066 74.063L56.0825 75.0659Z" fill="#282828"/>
<ellipse cx="5.44759" cy="6.36711" rx="5.44759" ry="6.36711" transform="matrix(-1 0 0 1 38.7539 45.127)" fill="#FBC0AE"/>
<path d="M32.9453 48.123C28.9504 48.123 28.9504 54.8647 32.9453 54.8647" stroke="#282828" stroke-linecap="round"/>
<ellipse cx="43.3997" cy="10.5145" rx="43.3997" ry="10.5145" transform="matrix(-0.961218 0.275788 0.310439 0.950593 84.957 11.0098)" fill="#6D6D6D"/>
<path d="M66.8328 20.7399C62.7205 9.56335 50.2746 3.6926 39.0342 7.62725L38.2075 7.91662C26.9671 11.8513 21.1887 24.1014 25.3011 35.278C39.6872 32.049 53.6247 27.1703 66.8328 20.7399Z" fill="#6D6D6D"/>
<path d="M23.7946 27.7831C47.73 26.6325 59.7763 18.3452 63.2839 14.6527L65.4776 18.2243C59.2247 28.8091 24.6513 33.5621 24.2052 32.3655C23.8482 31.4082 23.85 28.9874 23.7946 27.7831Z" fill="#3C3C3C"/>
<defs>
<filter id="filter0_f_1912_4973" x="42.6289" y="47.8682" width="13.8125" height="10.9961" filterUnits="userSpaceOnUse" color-interpolation-filters="sRGB">
<feFlood flood-opacity="0" result="BackgroundImageFix"/>
<feBlend mode="normal" in="SourceGraphic" in2="BackgroundImageFix" result="shape"/>
<feGaussianBlur stdDeviation="2" result="effect1_foregroundBlur_1912_4973"/>
</filter>
<filter id="filter1_f_1912_4973" x="62.2422" y="47.8682" width="13.0859" height="10.9961" filterUnits="userSpaceOnUse" color-interpolation-filters="sRGB">
<feFlood flood-opacity="0" result="BackgroundImageFix"/>
<feBlend mode="normal" in="SourceGraphic" in2="BackgroundImageFix" result="shape"/>
<feGaussianBlur stdDeviation="2" result="effect1_foregroundBlur_1912_4973"/>
</filter>
</defs>
</svg>
