<svg width="200" height="123" viewBox="0 0 200 123" fill="none" xmlns="http://www.w3.org/2000/svg">
<g clip-path="url(#clip0_1319_4573)">
<path d="M134.246 20.18V20.1H123.986V18H136.886V20.18C136.886 22.76 136.886 25.28 136.206 29.06L133.586 28.82C134.246 25.3 134.246 22.68 134.246 20.18ZM122.266 30.16H138.926V32.32H122.266V30.16ZM150.125 23.34V16.7H152.585V33.9H150.125V25.46H147.245C146.205 27.56 144.525 29.38 141.925 30.9L140.425 29.04C144.105 26.84 145.725 24.18 146.045 20.58H141.445V18.48H148.665C148.665 20.22 148.505 21.84 148.065 23.34H150.125ZM154.005 16.28H156.505V34.7H154.005V16.28Z" fill="#878787"/>
<path d="M63.9912 71.7147C63.9911 63.3056 125.241 60.0705 125.241 68.4795C126.981 99.6309 119.393 125.52 119.393 133.062C119.393 140.603 72.8922 140.027 70.4562 133.062C68.0202 126.096 67.1232 129.331 63.9912 71.7147Z" fill="#3E3E3E"/>
<path d="M96.7877 103C96.1727 103 95.6719 102.506 95.664 101.891L95.5488 93L99.8147 96.1411L103.951 93V101.883C103.951 102.5 103.451 103 102.834 103C102.218 103 101.718 102.5 101.718 101.883V97.5153L99.8147 98.9018L97.9115 97.5153V101.876C97.9115 102.497 97.4083 103 96.7877 103Z" fill="white"/>
<path d="M94.5041 101.367C94.9587 102.072 94.4528 103 93.6142 103C93.2177 103 92.8544 102.778 92.6728 102.426L91.0298 99.2359H89.2507V101.883C89.2507 102.5 88.7508 103 88.1341 103C87.5175 103 87.0176 102.5 87.0176 101.883V93H91.0421C93.582 93 95.0667 94.3497 95.0667 96.4233C95.0667 97.7975 94.4164 98.8528 93.2384 99.4049L94.5041 101.367ZM89.2507 94.9755V97.2604H90.944C92.1219 97.2604 92.767 97.1145 92.767 96.1697C92.767 95.2249 92.1219 94.9755 90.944 94.9755H89.2507Z" fill="white"/>
<path d="M85.1723 103C84.5481 103 84.042 102.494 84.042 101.87V99.1691H81.588L80.4998 102.287C80.3508 102.714 79.9483 103 79.4963 103C78.7492 103 78.2353 102.25 78.5054 101.553L80.9702 95.1959C81.4834 93.8723 82.7572 93 84.1768 93H86.3027V101.87C86.3027 102.494 85.7966 103 85.1723 103ZM82.1334 97.2604H84.042V94.9427C83.5427 94.9427 83.0883 95.2311 82.8757 95.6829L82.1334 97.2604Z" fill="white"/>
<path d="M74.6605 103C74.0438 103 73.5439 102.5 73.5439 101.883V96.75C73.5439 94.6789 75.2229 93 77.2939 93H81.154L80.336 94.9632H78.047C76.7934 94.9632 75.7771 95.9795 75.7771 97.2331H79.499L78.681 99.1718H75.7771V101.883C75.7771 102.5 75.2772 103 74.6605 103Z" fill="white"/>
<rect x="70" y="100.532" width="2.45399" height="2.45399" fill="white"/>
<ellipse cx="116.603" cy="79.1495" rx="14.1582" ry="14.7738" transform="rotate(-6.8682 116.603 79.1495)" fill="#3E3E3E"/>
<path d="M65.8234 53.0868C69.3695 56.8568 69.1879 62.7878 65.4178 66.3339C61.3219 70.1864 54.7791 69.5898 51.4475 65.06L38.2199 47.075C35.8158 43.8063 36.2306 39.2573 39.1862 36.4773C42.4138 33.4414 47.4914 33.5969 50.5272 36.8245L65.8234 53.0868Z" fill="#F6BAA6"/>
<path d="M47.4228 48.3751C43.5083 49.8545 39.1357 47.8804 37.6564 43.9659C36.0914 39.8249 38.3946 35.2299 42.6488 34.0057L74.4476 24.8549C77.5681 23.9569 80.8553 25.6046 82.0032 28.6421C83.2204 31.8628 81.5962 35.4604 78.3755 36.6776L47.4228 48.3751Z" fill="#F6BAA6"/>
<path d="M66.202 52.1517L79.465 66.8412L65.2677 87.932L49.1555 66.1675C55.1682 54.9856 63.0251 52.1645 66.202 52.1517Z" fill="#3E3E3E"/>
<path d="M81.2727 25.0072C86.4808 24.228 91.0513 28.5148 90.607 33.7621C90.2372 38.1296 86.4818 41.424 82.1034 41.2219L76.177 40.9483C72.408 40.7742 69.3412 37.8538 68.9833 34.0978C68.6013 30.0886 71.4223 26.481 75.4053 25.8851L81.2727 25.0072Z" fill="#F7BAA6"/>
<path d="M87.4631 1.59873C82.435 3.95973 80.1335 7.77923 80.0303 10.8695C87.9792 15.6867 106.045 20.4127 111 23.1395C116.575 10.8695 106.664 3.50742 102.019 1.59873C97.3734 -0.309952 90.3667 0.235288 87.4631 1.59873Z" fill="#454545"/>
<path d="M99.1518 10.7026C99.7576 2.09702 100.06 2.1194 101.575 1.28661C91.3975 -2.26665 84.6125 2.37459 82.4922 5.15057C87.7425 7.55641 98.4248 11.5909 99.1518 10.7026Z" fill="#F0F0F0"/>
<path d="M90.0863 2.42895C86.0564 0.425639 74.0055 2.26763 72.1347 5.43399C69.5702 9.77446 71.1052 9.32704 73.2874 11.1841L100.344 10.4423C98.5127 8.439 93.3103 4.0316 90.0863 2.42895Z" fill="#D5D5D5"/>
<path d="M89.4244 2.99433C85.3723 1.03615 73.6122 3.18372 71.5074 6.19962C69.8193 8.61848 70.5215 10.1039 72.7243 11.9365L99.7714 10.8927C97.9173 8.9099 92.6661 4.56087 89.4244 2.99433Z" fill="#A7A7A7"/>
<path d="M84.1391 52.9943L108.147 38.5283V63.7669C108.147 63.7669 83.3817 89.2579 84.1391 63.7669C84.1391 60.0734 84.1391 52.9943 84.1391 52.9943Z" fill="#FBC0AE"/>
<path d="M129.4 43.1V40.26H125.38V43.1H129.4ZM131.98 38.18V45.18H122.78V38.18H131.98ZM133.14 46.26L133.3 48.2C131.68 48.42 130.06 48.58 128.46 48.68V55.18H125.82V48.78C124.34 48.84 122.92 48.84 121.6 48.84L121.3 46.7C124.92 46.68 129.26 46.68 133.14 46.26ZM134.32 37.3H136.96V55.7H134.32V51.7H130.62V49.7H134.32V37.3ZM141.438 47.98L140.398 45.86C144.178 45.28 146.318 43.08 146.638 40.74H141.138V38.64H155.018V40.74H149.518C149.838 43.08 151.978 45.2 155.858 45.78L154.838 47.88C151.598 47.3 149.278 45.72 148.098 43.58C146.918 45.76 144.638 47.38 141.438 47.98ZM152.358 51.5H156.458V53.64H139.738V51.5H143.858V47.76H146.498V51.5H149.718V47.76H152.358V51.5ZM161.777 51.9C161.657 52.3667 161.504 52.8733 161.317 53.42C161.13 53.9533 160.93 54.4867 160.717 55.02C160.504 55.5667 160.284 56.0867 160.057 56.58H157.917C158.01 56.18 158.104 55.7667 158.197 55.34C158.29 54.9133 158.377 54.48 158.457 54.04C158.55 53.6133 158.63 53.2 158.697 52.8C158.777 52.4 158.844 52.0267 158.897 51.68H161.637L161.777 51.9ZM158.437 44.54C158.437 43.9267 158.604 43.5 158.937 43.26C159.27 43.0067 159.677 42.88 160.157 42.88C160.624 42.88 161.024 43.0067 161.357 43.26C161.69 43.5 161.857 43.9267 161.857 44.54C161.857 45.1267 161.69 45.5533 161.357 45.82C161.024 46.0733 160.624 46.2 160.157 46.2C159.677 46.2 159.27 46.0733 158.937 45.82C158.604 45.5533 158.437 45.1267 158.437 44.54ZM167.48 51.9C167.36 52.3667 167.207 52.8733 167.02 53.42C166.833 53.9533 166.633 54.4867 166.42 55.02C166.207 55.5667 165.987 56.0867 165.76 56.58H163.62C163.713 56.18 163.807 55.7667 163.9 55.34C163.993 54.9133 164.08 54.48 164.16 54.04C164.253 53.6133 164.333 53.2 164.4 52.8C164.48 52.4 164.547 52.0267 164.6 51.68H167.34L167.48 51.9ZM164.14 44.54C164.14 43.9267 164.307 43.5 164.64 43.26C164.973 43.0067 165.38 42.88 165.86 42.88C166.327 42.88 166.727 43.0067 167.06 43.26C167.393 43.5 167.56 43.9267 167.56 44.54C167.56 45.1267 167.393 45.5533 167.06 45.82C166.727 46.0733 166.327 46.2 165.86 46.2C165.38 46.2 164.973 46.0733 164.64 45.82C164.307 45.5533 164.14 45.1267 164.14 44.54Z" fill="#878787"/>
<rect x="70.5967" y="13.29" width="38.1656" height="43.0902" rx="19.0828" fill="#FBC0AE"/>
<circle cx="82.75" cy="40.75" r="0.75" fill="#282828"/>
<path d="M82.5 39L82.5 37.3C82.5 36.7477 82.9587 36.3208 83.486 36.1565C84.7718 35.7559 85.5 34.5613 85.5 33.15C85.5 31.4103 84.3935 30 82.5 30C81.8333 30 80.4 30.3 80 31.5" stroke="#282828" stroke-linecap="round"/>
<path d="M87.1949 42.3112C87.5027 42.619 87.7461 42.9268 88.4261 42.9268C89.106 42.9268 89.3494 42.619 89.6572 42.3112" stroke="#282828" stroke-linecap="round"/>
<path d="M75.4996 42.3112C75.8074 42.619 76.0508 42.9268 76.7308 42.9268C77.4107 42.9268 77.6541 42.619 77.9619 42.3112" stroke="#282828" stroke-linecap="round"/>
<path d="M86.04 26.4619C86.04 23.1788 80.4999 23.1788 80.4999 26.4619" stroke="#282828" stroke-linecap="round"/>
<path d="M95.7918 55.8702C96.0594 55.8018 96.2208 55.5294 96.1524 55.2619C96.084 54.9944 95.8117 54.8329 95.5442 54.9013L95.7918 55.8702ZM84.0618 56.6453C85.3985 56.837 89.4042 57.503 95.7918 55.8702L95.5442 54.9013C89.3383 56.4876 85.4812 55.8386 84.2038 55.6555L84.0618 56.6453Z" fill="#282828"/>
<path d="M97.7558 19.5808C94.7639 17.8555 75.3467 15.9209 73.5 23C71.4601 22.6919 70.5903 14.123 72.6302 12.2746C74.6701 10.4261 82.6451 8.98551 87.1126 8.98549C92.2797 8.98548 103.524 8.57864 108.708 15.9276C110.641 18.6676 111.321 24.305 110.641 28.1046L104.198 31.7577C103.178 29.0877 100.748 21.306 97.7558 19.5808Z" fill="#282828"/>
<ellipse cx="107.838" cy="32.6806" rx="4.61681" ry="5.23238" fill="#FBC0AE"/>
<path d="M108.146 29.9111C111.532 29.9111 111.532 35.4513 108.146 35.4513" stroke="#282828" stroke-linecap="round"/>
<path d="M110.905 25.6016C110.597 25.6016 109.759 15.4447 100.133 10.2124C102.287 9.28894 99.8866 10.2739 103.826 9.28901C108.751 8.05786 112.444 17.5992 112.136 19.1381C111.89 20.3693 111.213 25.6016 110.905 25.6016Z" fill="#454545"/>
<path d="M110.639 88.8807C110.504 83.942 114.399 79.8675 119.339 79.7799C124.682 79.6852 128.961 84.2649 128.497 89.583L126.468 112.878C126.133 116.726 122.961 119.683 119.095 119.751C114.894 119.826 111.395 116.481 111.28 112.281L110.639 88.8807Z" fill="#FBC0AE"/>
<path d="M111.423 111.417C111.848 107.621 115.459 104.985 119.203 105.739C123.998 106.705 126.917 111.54 125.546 116.243L116.756 146.404L107.615 145.449L111.423 111.417Z" fill="#FBC0AE"/>
<path d="M128.537 102.126L130.767 78.3582L110.5 80.0005L107.999 97.5006C106.515 102.085 128.77 104.056 128.537 102.126Z" fill="#3E3E3E"/>
</g>
<defs>
<clipPath id="clip0_1319_4573">
<rect width="199" height="123" fill="white" transform="translate(0.5)"/>
</clipPath>
</defs>
</svg>
